<?xml version="1.0" encoding="UTF-8"?>
<!DOCTYPE svg  PUBLIC '-//W3C//DTD SVG 1.1//EN'  'http://www.w3.org/Graphics/SVG/1.1/DTD/svg11.dtd'>
<svg width="460.8pt" height="345.6pt" version="1.1" viewBox="0 0 460.8 345.6" xmlns="http://www.w3.org/2000/svg" xmlns:xlink="http://www.w3.org/1999/xlink">
 <metadata>
  <rdf:RDF xmlns:cc="http://creativecommons.org/ns#" xmlns:dc="http://purl.org/dc/elements/1.1/" xmlns:rdf="http://www.w3.org/1999/02/22-rdf-syntax-ns#">
   <cc:Work>
    <dc:type rdf:resource="http://purl.org/dc/dcmitype/StillImage"/>
    <dc:date>2023-03-19T15:29:26.965580</dc:date>
    <dc:format>image/svg+xml</dc:format>
    <dc:creator>
     <cc:Agent>
      <dc:title>Matplotlib v3.7.1, https://matplotlib.org/</dc:title>
     </cc:Agent>
    </dc:creator>
   </cc:Work>
  </rdf:RDF>
 </metadata>
 <defs>
  <style type="text/css">*{stroke-linejoin: round; stroke-linecap: butt}</style>
 </defs>
 <g id="figure_1">
  <g id="patch_1">
   <path d="m0 345.6h460.8v-345.6h-460.8z" fill="#fff"/>
  </g>
  <g id="axes_1">
   <g id="patch_2">
    <path d="m117 311.04h249.85v-276.48h-249.85z" fill="#fff"/>
   </g>
   <g id="matplotlib.axis_1">
    <g id="xtick_1">
     <g id="line2d_1">
      <defs>
       <path id="mb39a22715a" d="m0 0v3.5" stroke="#000" stroke-width=".8"/>
      </defs>
      <use x="155.315997" y="311.04" stroke="#000000" stroke-width=".8" xlink:href="#mb39a22715a"/>
     </g>
     <g id="text_1">
      <text transform="rotate(-0 155.32 325.64)" x="155.315997" y="325.638438" font="10px 'DejaVu Sans', 'Bitstream Vera Sans', 'Computer Modern Sans Serif', 'Lucida Grande', 'Verdana', 'Geneva', 'Lucid', 'Arial', 'Helvetica', 'Avant Garde', sans-serif" text-anchor="middle">−20</text>
     </g>
    </g>
    <g id="xtick_2">
     <g id="line2d_2">
      <use x="198.617998" y="311.04" stroke="#000000" stroke-width=".8" xlink:href="#mb39a22715a"/>
     </g>
     <g id="text_2">
      <text transform="rotate(-0 198.62 325.64)" x="198.617998" y="325.638438" font="10px 'DejaVu Sans', 'Bitstream Vera Sans', 'Computer Modern Sans Serif', 'Lucida Grande', 'Verdana', 'Geneva', 'Lucid', 'Arial', 'Helvetica', 'Avant Garde', sans-serif" text-anchor="middle">−10</text>
     </g>
    </g>
    <g id="xtick_3">
     <g id="line2d_3">
      <use x="241.92" y="311.04" stroke="#000000" stroke-width=".8" xlink:href="#mb39a22715a"/>
     </g>
     <g id="text_3">
      <text transform="rotate(-0 241.92 325.64)" x="241.92" y="325.638438" font="10px 'DejaVu Sans', 'Bitstream Vera Sans', 'Computer Modern Sans Serif', 'Lucida Grande', 'Verdana', 'Geneva', 'Lucid', 'Arial', 'Helvetica', 'Avant Garde', sans-serif" text-anchor="middle">0</text>
     </g>
    </g>
    <g id="xtick_4">
     <g id="line2d_4">
      <use x="285.222002" y="311.04" stroke="#000000" stroke-width=".8" xlink:href="#mb39a22715a"/>
     </g>
     <g id="text_4">
      <text transform="rotate(-0 285.22 325.64)" x="285.222002" y="325.638438" font="10px 'DejaVu Sans', 'Bitstream Vera Sans', 'Computer Modern Sans Serif', 'Lucida Grande', 'Verdana', 'Geneva', 'Lucid', 'Arial', 'Helvetica', 'Avant Garde', sans-serif" text-anchor="middle">10</text>
     </g>
    </g>
    <g id="xtick_5">
     <g id="line2d_5">
      <use x="328.524003" y="311.04" stroke="#000000" stroke-width=".8" xlink:href="#mb39a22715a"/>
     </g>
     <g id="text_5">
      <text transform="rotate(-0 328.52 325.64)" x="328.524003" y="325.638438" font="10px 'DejaVu Sans', 'Bitstream Vera Sans', 'Computer Modern Sans Serif', 'Lucida Grande', 'Verdana', 'Geneva', 'Lucid', 'Arial', 'Helvetica', 'Avant Garde', sans-serif" text-anchor="middle">20</text>
     </g>
    </g>
   </g>
   <g id="matplotlib.axis_2">
    <g id="ytick_1">
     <g id="line2d_6">
      <defs>
       <path id="m71cdae8253" d="m0 0h-3.5" stroke="#000" stroke-width=".8"/>
      </defs>
      <use x="116.997006" y="298.0494" stroke="#000000" stroke-width=".8" xlink:href="#m71cdae8253"/>
     </g>
     <g id="text_6">
      <text transform="rotate(-0 110 301.85)" x="109.997006" y="301.848618" font="10px 'DejaVu Sans', 'Bitstream Vera Sans', 'Computer Modern Sans Serif', 'Lucida Grande', 'Verdana', 'Geneva', 'Lucid', 'Arial', 'Helvetica', 'Avant Garde', sans-serif" text-anchor="end">0</text>
     </g>
    </g>
    <g id="ytick_2">
     <g id="line2d_7">
      <use x="116.997006" y="254.747398" stroke="#000000" stroke-width=".8" xlink:href="#m71cdae8253"/>
     </g>
     <g id="text_7">
      <text transform="rotate(-0 110 258.55)" x="109.997006" y="258.546617" font="10px 'DejaVu Sans', 'Bitstream Vera Sans', 'Computer Modern Sans Serif', 'Lucida Grande', 'Verdana', 'Geneva', 'Lucid', 'Arial', 'Helvetica', 'Avant Garde', sans-serif" text-anchor="end">10</text>
     </g>
    </g>
    <g id="ytick_3">
     <g id="line2d_8">
      <use x="116.997006" y="211.445396" stroke="#000000" stroke-width=".8" xlink:href="#m71cdae8253"/>
     </g>
     <g id="text_8">
      <text transform="rotate(-0 110 215.24)" x="109.997006" y="215.244615" font="10px 'DejaVu Sans', 'Bitstream Vera Sans', 'Computer Modern Sans Serif', 'Lucida Grande', 'Verdana', 'Geneva', 'Lucid', 'Arial', 'Helvetica', 'Avant Garde', sans-serif" text-anchor="end">20</text>
     </g>
    </g>
    <g id="ytick_4">
     <g id="line2d_9">
      <use x="116.997006" y="168.143395" stroke="#000000" stroke-width=".8" xlink:href="#m71cdae8253"/>
     </g>
     <g id="text_9">
      <text transform="rotate(-0 110 171.94)" x="109.997006" y="171.942613" font="10px 'DejaVu Sans', 'Bitstream Vera Sans', 'Computer Modern Sans Serif', 'Lucida Grande', 'Verdana', 'Geneva', 'Lucid', 'Arial', 'Helvetica', 'Avant Garde', sans-serif" text-anchor="end">30</text>
     </g>
    </g>
    <g id="ytick_5">
     <g id="line2d_10">
      <use x="116.997006" y="124.841393" stroke="#000000" stroke-width=".8" xlink:href="#m71cdae8253"/>
     </g>
     <g id="text_10">
      <text transform="rotate(-0 110 128.64)" x="109.997006" y="128.640612" font="10px 'DejaVu Sans', 'Bitstream Vera Sans', 'Computer Modern Sans Serif', 'Lucida Grande', 'Verdana', 'Geneva', 'Lucid', 'Arial', 'Helvetica', 'Avant Garde', sans-serif" text-anchor="end">40</text>
     </g>
    </g>
    <g id="ytick_6">
     <g id="line2d_11">
      <use x="116.997006" y="81.539391" stroke="#000000" stroke-width=".8" xlink:href="#m71cdae8253"/>
     </g>
     <g id="text_11">
      <text transform="rotate(-0 110 85.339)" x="109.997006" y="85.33861" font="10px 'DejaVu Sans', 'Bitstream Vera Sans', 'Computer Modern Sans Serif', 'Lucida Grande', 'Verdana', 'Geneva', 'Lucid', 'Arial', 'Helvetica', 'Avant Garde', sans-serif" text-anchor="end">50</text>
     </g>
    </g>
    <g id="ytick_7">
     <g id="line2d_12">
      <use x="116.997006" y="38.23739" stroke="#000000" stroke-width=".8" xlink:href="#m71cdae8253"/>
     </g>
     <g id="text_12">
      <text transform="rotate(-0 110 42.037)" x="109.997006" y="42.036608" font="10px 'DejaVu Sans', 'Bitstream Vera Sans', 'Computer Modern Sans Serif', 'Lucida Grande', 'Verdana', 'Geneva', 'Lucid', 'Arial', 'Helvetica', 'Avant Garde', sans-serif" text-anchor="end">60</text>
     </g>
    </g>
   </g>
   <g id="LineCollection_1" fill="none" stroke-width="2">
    <path d="m241.92 298.05v-4.3302" clip-path="url(#p0470c4fcf9)" stroke="#a52a2a"/>
    <path d="m241.92 293.72v-4.3302" clip-path="url(#p0470c4fcf9)" stroke="#a52a2a"/>
    <path d="m241.92 289.39v-4.3302" clip-path="url(#p0470c4fcf9)" stroke="#a52a2a"/>
    <path d="m241.92 285.06v-4.3302" clip-path="url(#p0470c4fcf9)" stroke="#a52a2a"/>
    <path d="m241.92 280.73v-4.3302" clip-path="url(#p0470c4fcf9)" stroke="#a52a2a"/>
    <path d="m241.92 276.4v-4.3302" clip-path="url(#p0470c4fcf9)" stroke="#a52a2a"/>
    <path d="m241.92 272.07v-4.3302" clip-path="url(#p0470c4fcf9)" stroke="#a52a2a"/>
    <path d="m241.92 267.74v-4.3302" clip-path="url(#p0470c4fcf9)" stroke="#a52a2a"/>
    <path d="m241.92 263.41v-4.3302" clip-path="url(#p0470c4fcf9)" stroke="#a52a2a"/>
    <path d="m241.92 259.08v-4.3302" clip-path="url(#p0470c4fcf9)" stroke="#a52a2a"/>
    <path d="m241.92 254.75v-4.3302" clip-path="url(#p0470c4fcf9)" stroke="#a52a2a"/>
    <path d="m241.92 250.42v-4.3302" clip-path="url(#p0470c4fcf9)" stroke="#a52a2a"/>
    <path d="m241.92 246.09v-4.3302" clip-path="url(#p0470c4fcf9)" stroke="#a52a2a"/>
    <path d="m241.92 241.76v-4.3302" clip-path="url(#p0470c4fcf9)" stroke="#a52a2a"/>
    <path d="m241.92 237.43v-4.3302" clip-path="url(#p0470c4fcf9)" stroke="#a52a2a"/>
    <path d="m241.92 233.1v-4.3302" clip-path="url(#p0470c4fcf9)" stroke="#a52a2a"/>
    <path d="m241.92 228.77v-4.3302" clip-path="url(#p0470c4fcf9)" stroke="#a52a2a"/>
    <path d="m241.92 224.44v-4.3302" clip-path="url(#p0470c4fcf9)" stroke="#a52a2a"/>
    <path d="m241.92 220.11v-4.3302" clip-path="url(#p0470c4fcf9)" stroke="#a52a2a"/>
    <path d="m241.92 215.78v-4.3302" clip-path="url(#p0470c4fcf9)" stroke="#a52a2a"/>
    <path d="m241.92 211.45v-4.3302" clip-path="url(#p0470c4fcf9)" stroke="#a52a2a"/>
    <path d="m241.92 207.12v-4.3302" clip-path="url(#p0470c4fcf9)" stroke="#a52a2a"/>
    <path d="m241.92 202.78v-4.3302" clip-path="url(#p0470c4fcf9)" stroke="#a52a2a"/>
    <path d="m241.92 198.45v-4.3302" clip-path="url(#p0470c4fcf9)" stroke="#a52a2a"/>
    <path d="m241.92 194.12v-4.3302" clip-path="url(#p0470c4fcf9)" stroke="#a52a2a"/>
    <path d="m241.92 189.79v-4.3302" clip-path="url(#p0470c4fcf9)" stroke="#a52a2a"/>
    <path d="m241.92 185.46v-4.3302" clip-path="url(#p0470c4fcf9)" stroke="#a52a2a"/>
    <path d="m241.92 181.13v-4.3302" clip-path="url(#p0470c4fcf9)" stroke="#a52a2a"/>
    <path d="m241.92 176.8v-4.3302" clip-path="url(#p0470c4fcf9)" stroke="#a52a2a"/>
    <path d="m241.92 172.47v-4.3302" clip-path="url(#p0470c4fcf9)" stroke="#a52a2a"/>
    <path d="m241.92 168.14v-4.3302" clip-path="url(#p0470c4fcf9)" stroke="#a52a2a"/>
    <path d="m241.92 163.81v-4.3302" clip-path="url(#p0470c4fcf9)" stroke="#a52a2a"/>
    <path d="m241.92 159.48-3.0619-3.0619" clip-path="url(#p0470c4fcf9)" stroke="#a52a2a"/>
    <path d="m238.86 156.42-3.0619-3.0619" clip-path="url(#p0470c4fcf9)" stroke="#a52a2a"/>
    <path d="m235.8 153.36-3.0619-3.0619" clip-path="url(#p0470c4fcf9)" stroke="#a52a2a"/>
    <path d="m232.73 150.3-3.0619-3.0619" clip-path="url(#p0470c4fcf9)" stroke="#a52a2a"/>
    <path d="m229.67 147.24-3.0619-3.0619" clip-path="url(#p0470c4fcf9)" stroke="#a52a2a"/>
    <path d="m226.61 144.17-3.0619-3.0619" clip-path="url(#p0470c4fcf9)" stroke="#a52a2a"/>
    <path d="m223.55 141.11-3.0619-3.0619" clip-path="url(#p0470c4fcf9)" stroke="#a52a2a"/>
    <path d="m220.49 138.05-3.0619-3.0619" clip-path="url(#p0470c4fcf9)" stroke="#a52a2a"/>
    <path d="m217.42 134.99-3.0619-3.0619" clip-path="url(#p0470c4fcf9)" stroke="#a52a2a"/>
    <path d="m214.36 131.93-3.0619-3.0619" clip-path="url(#p0470c4fcf9)" stroke="#a52a2a"/>
    <path d="m211.3 128.86-3.0619-3.0619" clip-path="url(#p0470c4fcf9)" stroke="#a52a2a"/>
    <path d="m208.24 125.8-3.0619-3.0619" clip-path="url(#p0470c4fcf9)" stroke="#a52a2a"/>
    <path d="m205.18 122.74-3.0619-3.0619" clip-path="url(#p0470c4fcf9)" stroke="#a52a2a"/>
    <path d="m202.12 119.68-3.0619-3.0619" clip-path="url(#p0470c4fcf9)" stroke="#a52a2a"/>
    <path d="m199.05 116.62-3.0619-3.0619" clip-path="url(#p0470c4fcf9)" stroke="#a52a2a"/>
    <path d="m195.99 113.55-3.0619-3.0619" clip-path="url(#p0470c4fcf9)" stroke="#a52a2a"/>
    <path d="m192.93 110.49h-4.3302" clip-path="url(#p0470c4fcf9)" stroke="#a52a2a"/>
    <path d="m188.6 110.49h-4.3302" clip-path="url(#p0470c4fcf9)" stroke="#a52a2a"/>
    <path d="m184.27 110.49h-4.3302" clip-path="url(#p0470c4fcf9)" stroke="#a52a2a"/>
    <path d="m179.94 110.49h-4.3302" clip-path="url(#p0470c4fcf9)" stroke="#a52a2a"/>
    <path d="m175.61 110.49h-4.3302" clip-path="url(#p0470c4fcf9)" stroke="#a52a2a"/>
    <path d="m171.28 110.49h-4.3302" clip-path="url(#p0470c4fcf9)" stroke="#a52a2a"/>
    <path d="m166.95 110.49h-4.3302" clip-path="url(#p0470c4fcf9)" stroke="#a52a2a"/>
    <path d="m162.62 110.49h-4.3302" clip-path="url(#p0470c4fcf9)" stroke="#a52a2a"/>
    <path d="m158.29 110.49-3.0619 3.0619" clip-path="url(#p0470c4fcf9)" stroke="#a52a2a"/>
    <path d="m155.23 113.55-3.0619 3.0619" clip-path="url(#p0470c4fcf9)" stroke="#a52a2a"/>
    <path d="m152.16 116.62-3.0619 3.0619" clip-path="url(#p0470c4fcf9)" stroke="#a52a2a"/>
    <path d="m149.1 119.68-3.0619 3.0619" clip-path="url(#p0470c4fcf9)" stroke="#a52a2a"/>
    <path d="m146.04 122.74v4.3302" clip-path="url(#p0470c4fcf9)" stroke="#a52a2a"/>
    <path d="m146.04 127.07v4.3302" clip-path="url(#p0470c4fcf9)" stroke="#a52a2a"/>
    <path d="m146.04 131.4 3.0619 3.0619" clip-path="url(#p0470c4fcf9)" stroke="#a52a2a"/>
    <path d="m149.1 134.46h4.3302" clip-path="url(#p0470c4fcf9)" stroke="#008000"/>
    <path d="m149.1 134.46v4.3302" clip-path="url(#p0470c4fcf9)" stroke="#008000"/>
    <path d="m146.04 131.4-3.0619 3.0619" clip-path="url(#p0470c4fcf9)" stroke="#a52a2a"/>
    <path d="m142.98 134.46v4.3302" clip-path="url(#p0470c4fcf9)" stroke="#008000"/>
    <path d="m142.98 134.46h-4.3302" clip-path="url(#p0470c4fcf9)" stroke="#008000"/>
    <path d="m146.04 122.74h-4.3302" clip-path="url(#p0470c4fcf9)" stroke="#a52a2a"/>
    <path d="m141.71 122.74h-4.3302" clip-path="url(#p0470c4fcf9)" stroke="#a52a2a"/>
    <path d="m137.38 122.74-3.0619 3.0619" clip-path="url(#p0470c4fcf9)" stroke="#a52a2a"/>
    <path d="m134.32 125.8v4.3302" clip-path="url(#p0470c4fcf9)" stroke="#008000"/>
    <path d="m134.32 125.8h-4.3302" clip-path="url(#p0470c4fcf9)" stroke="#008000"/>
    <path d="m137.38 122.74-3.0619-3.0619" clip-path="url(#p0470c4fcf9)" stroke="#a52a2a"/>
    <path d="m134.32 119.68h-4.3302" clip-path="url(#p0470c4fcf9)" stroke="#008000"/>
    <path d="m134.32 119.68v-4.3302" clip-path="url(#p0470c4fcf9)" stroke="#008000"/>
    <path d="m158.29 110.49-3.0619-3.0619" clip-path="url(#p0470c4fcf9)" stroke="#a52a2a"/>
    <path d="m155.23 107.43-3.0619-3.0619" clip-path="url(#p0470c4fcf9)" stroke="#a52a2a"/>
    <path d="m152.16 104.37-3.0619-3.0619" clip-path="url(#p0470c4fcf9)" stroke="#a52a2a"/>
    <path d="m149.1 101.31-3.0619-3.0619" clip-path="url(#p0470c4fcf9)" stroke="#a52a2a"/>
    <path d="m146.04 98.245h-4.3302" clip-path="url(#p0470c4fcf9)" stroke="#a52a2a"/>
    <path d="m141.71 98.245h-4.3302" clip-path="url(#p0470c4fcf9)" stroke="#a52a2a"/>
    <path d="m137.38 98.245-3.0619 3.0619" clip-path="url(#p0470c4fcf9)" stroke="#a52a2a"/>
    <path d="m134.32 101.31v4.3302" clip-path="url(#p0470c4fcf9)" stroke="#008000"/>
    <path d="m134.32 101.31h-4.3302" clip-path="url(#p0470c4fcf9)" stroke="#008000"/>
    <path d="m137.38 98.245-3.0619-3.0619" clip-path="url(#p0470c4fcf9)" stroke="#a52a2a"/>
    <path d="m134.32 95.183h-4.3302" clip-path="url(#p0470c4fcf9)" stroke="#008000"/>
    <path d="m134.32 95.183v-4.3302" clip-path="url(#p0470c4fcf9)" stroke="#008000"/>
    <path d="m146.04 98.245v-4.3302" clip-path="url(#p0470c4fcf9)" stroke="#a52a2a"/>
    <path d="m146.04 93.915v-4.3302" clip-path="url(#p0470c4fcf9)" stroke="#a52a2a"/>
    <path d="m146.04 89.584-3.0619-3.0619" clip-path="url(#p0470c4fcf9)" stroke="#a52a2a"/>
    <path d="m142.98 86.522h-4.3302" clip-path="url(#p0470c4fcf9)" stroke="#008000"/>
    <path d="m142.98 86.522v-4.3302" clip-path="url(#p0470c4fcf9)" stroke="#008000"/>
    <path d="m146.04 89.584 3.0619-3.0619" clip-path="url(#p0470c4fcf9)" stroke="#a52a2a"/>
    <path d="m149.1 86.522v-4.3302" clip-path="url(#p0470c4fcf9)" stroke="#008000"/>
    <path d="m149.1 86.522h4.3302" clip-path="url(#p0470c4fcf9)" stroke="#008000"/>
    <path d="m192.93 110.49v-4.3302" clip-path="url(#p0470c4fcf9)" stroke="#a52a2a"/>
    <path d="m192.93 106.16v-4.3302" clip-path="url(#p0470c4fcf9)" stroke="#a52a2a"/>
    <path d="m192.93 101.83v-4.3302" clip-path="url(#p0470c4fcf9)" stroke="#a52a2a"/>
    <path d="m192.93 97.502v-4.3302" clip-path="url(#p0470c4fcf9)" stroke="#a52a2a"/>
    <path d="m192.93 93.172v-4.3302" clip-path="url(#p0470c4fcf9)" stroke="#a52a2a"/>
    <path d="m192.93 88.841v-4.3302" clip-path="url(#p0470c4fcf9)" stroke="#a52a2a"/>
    <path d="m192.93 84.511v-4.3302" clip-path="url(#p0470c4fcf9)" stroke="#a52a2a"/>
    <path d="m192.93 80.181v-4.3302" clip-path="url(#p0470c4fcf9)" stroke="#a52a2a"/>
    <path d="m192.93 75.851-3.0619-3.0619" clip-path="url(#p0470c4fcf9)" stroke="#a52a2a"/>
    <path d="m189.87 72.789-3.0619-3.0619" clip-path="url(#p0470c4fcf9)" stroke="#a52a2a"/>
    <path d="m186.81 69.727-3.0619-3.0619" clip-path="url(#p0470c4fcf9)" stroke="#a52a2a"/>
    <path d="m183.74 66.665-3.0619-3.0619" clip-path="url(#p0470c4fcf9)" stroke="#a52a2a"/>
    <path d="m180.68 63.603h-4.3302" clip-path="url(#p0470c4fcf9)" stroke="#a52a2a"/>
    <path d="m176.35 63.603h-4.3302" clip-path="url(#p0470c4fcf9)" stroke="#a52a2a"/>
    <path d="m172.02 63.603-3.0619 3.0619" clip-path="url(#p0470c4fcf9)" stroke="#a52a2a"/>
    <path d="m168.96 66.665v4.3302" clip-path="url(#p0470c4fcf9)" stroke="#008000"/>
    <path d="m168.96 66.665h-4.3302" clip-path="url(#p0470c4fcf9)" stroke="#008000"/>
    <path d="m172.02 63.603-3.0619-3.0619" clip-path="url(#p0470c4fcf9)" stroke="#a52a2a"/>
    <path d="m168.96 60.541h-4.3302" clip-path="url(#p0470c4fcf9)" stroke="#008000"/>
    <path d="m168.96 60.541v-4.3302" clip-path="url(#p0470c4fcf9)" stroke="#008000"/>
    <path d="m180.68 63.603v-4.3302" clip-path="url(#p0470c4fcf9)" stroke="#a52a2a"/>
    <path d="m180.68 59.273v-4.3302" clip-path="url(#p0470c4fcf9)" stroke="#a52a2a"/>
    <path d="m180.68 54.943-3.0619-3.0619" clip-path="url(#p0470c4fcf9)" stroke="#a52a2a"/>
    <path d="m177.62 51.881h-4.3302" clip-path="url(#p0470c4fcf9)" stroke="#008000"/>
    <path d="m177.62 51.881v-4.3302" clip-path="url(#p0470c4fcf9)" stroke="#008000"/>
    <path d="m180.68 54.943 3.0619-3.0619" clip-path="url(#p0470c4fcf9)" stroke="#a52a2a"/>
    <path d="m183.74 51.881v-4.3302" clip-path="url(#p0470c4fcf9)" stroke="#008000"/>
    <path d="m183.74 51.881h4.3302" clip-path="url(#p0470c4fcf9)" stroke="#008000"/>
    <path d="m192.93 75.851 3.0619-3.0619" clip-path="url(#p0470c4fcf9)" stroke="#a52a2a"/>
    <path d="m195.99 72.789 3.0619-3.0619" clip-path="url(#p0470c4fcf9)" stroke="#a52a2a"/>
    <path d="m199.05 69.727 3.0619-3.0619" clip-path="url(#p0470c4fcf9)" stroke="#a52a2a"/>
    <path d="m202.12 66.665 3.0619-3.0619" clip-path="url(#p0470c4fcf9)" stroke="#a52a2a"/>
    <path d="m205.18 63.603v-4.3302" clip-path="url(#p0470c4fcf9)" stroke="#a52a2a"/>
    <path d="m205.18 59.273v-4.3302" clip-path="url(#p0470c4fcf9)" stroke="#a52a2a"/>
    <path d="m205.18 54.943-3.0619-3.0619" clip-path="url(#p0470c4fcf9)" stroke="#a52a2a"/>
    <path d="m202.12 51.881h-4.3302" clip-path="url(#p0470c4fcf9)" stroke="#008000"/>
    <path d="m202.12 51.881v-4.3302" clip-path="url(#p0470c4fcf9)" stroke="#008000"/>
    <path d="m205.18 54.943 3.0619-3.0619" clip-path="url(#p0470c4fcf9)" stroke="#a52a2a"/>
    <path d="m208.24 51.881v-4.3302" clip-path="url(#p0470c4fcf9)" stroke="#008000"/>
    <path d="m208.24 51.881h4.3302" clip-path="url(#p0470c4fcf9)" stroke="#008000"/>
    <path d="m205.18 63.603h4.3302" clip-path="url(#p0470c4fcf9)" stroke="#a52a2a"/>
    <path d="m209.51 63.603h4.3302" clip-path="url(#p0470c4fcf9)" stroke="#a52a2a"/>
    <path d="m213.84 63.603 3.0619-3.0619" clip-path="url(#p0470c4fcf9)" stroke="#a52a2a"/>
    <path d="m216.9 60.541v-4.3302" clip-path="url(#p0470c4fcf9)" stroke="#008000"/>
    <path d="m216.9 60.541h4.3302" clip-path="url(#p0470c4fcf9)" stroke="#008000"/>
    <path d="m213.84 63.603 3.0619 3.0619" clip-path="url(#p0470c4fcf9)" stroke="#a52a2a"/>
    <path d="m216.9 66.665h4.3302" clip-path="url(#p0470c4fcf9)" stroke="#008000"/>
    <path d="m216.9 66.665v4.3302" clip-path="url(#p0470c4fcf9)" stroke="#008000"/>
    <path d="m241.92 159.48 3.0619-3.0619" clip-path="url(#p0470c4fcf9)" stroke="#a52a2a"/>
    <path d="m244.98 156.42 3.0619-3.0619" clip-path="url(#p0470c4fcf9)" stroke="#a52a2a"/>
    <path d="m248.04 153.36 3.0619-3.0619" clip-path="url(#p0470c4fcf9)" stroke="#a52a2a"/>
    <path d="m251.11 150.3 3.0619-3.0619" clip-path="url(#p0470c4fcf9)" stroke="#a52a2a"/>
    <path d="m254.17 147.24 3.0619-3.0619" clip-path="url(#p0470c4fcf9)" stroke="#a52a2a"/>
    <path d="m257.23 144.17 3.0619-3.0619" clip-path="url(#p0470c4fcf9)" stroke="#a52a2a"/>
    <path d="m260.29 141.11 3.0619-3.0619" clip-path="url(#p0470c4fcf9)" stroke="#a52a2a"/>
    <path d="m263.35 138.05 3.0619-3.0619" clip-path="url(#p0470c4fcf9)" stroke="#a52a2a"/>
    <path d="m266.42 134.99 3.0619-3.0619" clip-path="url(#p0470c4fcf9)" stroke="#a52a2a"/>
    <path d="m269.48 131.93 3.0619-3.0619" clip-path="url(#p0470c4fcf9)" stroke="#a52a2a"/>
    <path d="m272.54 128.86 3.0619-3.0619" clip-path="url(#p0470c4fcf9)" stroke="#a52a2a"/>
    <path d="m275.6 125.8 3.0619-3.0619" clip-path="url(#p0470c4fcf9)" stroke="#a52a2a"/>
    <path d="m278.66 122.74 3.0619-3.0619" clip-path="url(#p0470c4fcf9)" stroke="#a52a2a"/>
    <path d="m281.72 119.68 3.0619-3.0619" clip-path="url(#p0470c4fcf9)" stroke="#a52a2a"/>
    <path d="m284.79 116.62 3.0619-3.0619" clip-path="url(#p0470c4fcf9)" stroke="#a52a2a"/>
    <path d="m287.85 113.55 3.0619-3.0619" clip-path="url(#p0470c4fcf9)" stroke="#a52a2a"/>
    <path d="m290.91 110.49v-4.3302" clip-path="url(#p0470c4fcf9)" stroke="#a52a2a"/>
    <path d="m290.91 106.16v-4.3302" clip-path="url(#p0470c4fcf9)" stroke="#a52a2a"/>
    <path d="m290.91 101.83v-4.3302" clip-path="url(#p0470c4fcf9)" stroke="#a52a2a"/>
    <path d="m290.91 97.502v-4.3302" clip-path="url(#p0470c4fcf9)" stroke="#a52a2a"/>
    <path d="m290.91 93.172v-4.3302" clip-path="url(#p0470c4fcf9)" stroke="#a52a2a"/>
    <path d="m290.91 88.841v-4.3302" clip-path="url(#p0470c4fcf9)" stroke="#a52a2a"/>
    <path d="m290.91 84.511v-4.3302" clip-path="url(#p0470c4fcf9)" stroke="#a52a2a"/>
    <path d="m290.91 80.181v-4.3302" clip-path="url(#p0470c4fcf9)" stroke="#a52a2a"/>
    <path d="m290.91 75.851-3.0619-3.0619" clip-path="url(#p0470c4fcf9)" stroke="#a52a2a"/>
    <path d="m287.85 72.789-3.0619-3.0619" clip-path="url(#p0470c4fcf9)" stroke="#a52a2a"/>
    <path d="m284.79 69.727-3.0619-3.0619" clip-path="url(#p0470c4fcf9)" stroke="#a52a2a"/>
    <path d="m281.72 66.665-3.0619-3.0619" clip-path="url(#p0470c4fcf9)" stroke="#a52a2a"/>
    <path d="m278.66 63.603h-4.3302" clip-path="url(#p0470c4fcf9)" stroke="#a52a2a"/>
    <path d="m274.33 63.603h-4.3302" clip-path="url(#p0470c4fcf9)" stroke="#a52a2a"/>
    <path d="m270 63.603-3.0619 3.0619" clip-path="url(#p0470c4fcf9)" stroke="#a52a2a"/>
    <path d="m266.94 66.665v4.3302" clip-path="url(#p0470c4fcf9)" stroke="#008000"/>
    <path d="m266.94 66.665h-4.3302" clip-path="url(#p0470c4fcf9)" stroke="#008000"/>
    <path d="m270 63.603-3.0619-3.0619" clip-path="url(#p0470c4fcf9)" stroke="#a52a2a"/>
    <path d="m266.94 60.541h-4.3302" clip-path="url(#p0470c4fcf9)" stroke="#008000"/>
    <path d="m266.94 60.541v-4.3302" clip-path="url(#p0470c4fcf9)" stroke="#008000"/>
    <path d="m278.66 63.603v-4.3302" clip-path="url(#p0470c4fcf9)" stroke="#a52a2a"/>
    <path d="m278.66 59.273v-4.3302" clip-path="url(#p0470c4fcf9)" stroke="#a52a2a"/>
    <path d="m278.66 54.943-3.0619-3.0619" clip-path="url(#p0470c4fcf9)" stroke="#a52a2a"/>
    <path d="m275.6 51.881h-4.3302" clip-path="url(#p0470c4fcf9)" stroke="#008000"/>
    <path d="m275.6 51.881v-4.3302" clip-path="url(#p0470c4fcf9)" stroke="#008000"/>
    <path d="m278.66 54.943 3.0619-3.0619" clip-path="url(#p0470c4fcf9)" stroke="#a52a2a"/>
    <path d="m281.72 51.881v-4.3302" clip-path="url(#p0470c4fcf9)" stroke="#008000"/>
    <path d="m281.72 51.881h4.3302" clip-path="url(#p0470c4fcf9)" stroke="#008000"/>
    <path d="m290.91 75.851 3.0619-3.0619" clip-path="url(#p0470c4fcf9)" stroke="#a52a2a"/>
    <path d="m293.97 72.789 3.0619-3.0619" clip-path="url(#p0470c4fcf9)" stroke="#a52a2a"/>
    <path d="m297.03 69.727 3.0619-3.0619" clip-path="url(#p0470c4fcf9)" stroke="#a52a2a"/>
    <path d="m300.1 66.665 3.0619-3.0619" clip-path="url(#p0470c4fcf9)" stroke="#a52a2a"/>
    <path d="m303.16 63.603v-4.3302" clip-path="url(#p0470c4fcf9)" stroke="#a52a2a"/>
    <path d="m303.16 59.273v-4.3302" clip-path="url(#p0470c4fcf9)" stroke="#a52a2a"/>
    <path d="m303.16 54.943-3.0619-3.0619" clip-path="url(#p0470c4fcf9)" stroke="#a52a2a"/>
    <path d="m300.1 51.881h-4.3302" clip-path="url(#p0470c4fcf9)" stroke="#008000"/>
    <path d="m300.1 51.881v-4.3302" clip-path="url(#p0470c4fcf9)" stroke="#008000"/>
    <path d="m303.16 54.943 3.0619-3.0619" clip-path="url(#p0470c4fcf9)" stroke="#a52a2a"/>
    <path d="m306.22 51.881v-4.3302" clip-path="url(#p0470c4fcf9)" stroke="#008000"/>
    <path d="m306.22 51.881h4.3302" clip-path="url(#p0470c4fcf9)" stroke="#008000"/>
    <path d="m303.16 63.603h4.3302" clip-path="url(#p0470c4fcf9)" stroke="#a52a2a"/>
    <path d="m307.49 63.603h4.3302" clip-path="url(#p0470c4fcf9)" stroke="#a52a2a"/>
    <path d="m311.82 63.603 3.0619-3.0619" clip-path="url(#p0470c4fcf9)" stroke="#a52a2a"/>
    <path d="m314.88 60.541v-4.3302" clip-path="url(#p0470c4fcf9)" stroke="#008000"/>
    <path d="m314.88 60.541h4.3302" clip-path="url(#p0470c4fcf9)" stroke="#008000"/>
    <path d="m311.82 63.603 3.0619 3.0619" clip-path="url(#p0470c4fcf9)" stroke="#a52a2a"/>
    <path d="m314.88 66.665h4.3302" clip-path="url(#p0470c4fcf9)" stroke="#008000"/>
    <path d="m314.88 66.665v4.3302" clip-path="url(#p0470c4fcf9)" stroke="#008000"/>
    <path d="m290.91 110.49h4.3302" clip-path="url(#p0470c4fcf9)" stroke="#a52a2a"/>
    <path d="m295.24 110.49h4.3302" clip-path="url(#p0470c4fcf9)" stroke="#a52a2a"/>
    <path d="m299.57 110.49h4.3302" clip-path="url(#p0470c4fcf9)" stroke="#a52a2a"/>
    <path d="m303.9 110.49h4.3302" clip-path="url(#p0470c4fcf9)" stroke="#a52a2a"/>
    <path d="m308.23 110.49h4.3302" clip-path="url(#p0470c4fcf9)" stroke="#a52a2a"/>
    <path d="m312.56 110.49h4.3302" clip-path="url(#p0470c4fcf9)" stroke="#a52a2a"/>
    <path d="m316.89 110.49h4.3302" clip-path="url(#p0470c4fcf9)" stroke="#a52a2a"/>
    <path d="m321.22 110.49h4.3302" clip-path="url(#p0470c4fcf9)" stroke="#a52a2a"/>
    <path d="m325.55 110.49 3.0619-3.0619" clip-path="url(#p0470c4fcf9)" stroke="#a52a2a"/>
    <path d="m328.61 107.43 3.0619-3.0619" clip-path="url(#p0470c4fcf9)" stroke="#a52a2a"/>
    <path d="m331.68 104.37 3.0619-3.0619" clip-path="url(#p0470c4fcf9)" stroke="#a52a2a"/>
    <path d="m334.74 101.31 3.0619-3.0619" clip-path="url(#p0470c4fcf9)" stroke="#a52a2a"/>
    <path d="m337.8 98.245v-4.3302" clip-path="url(#p0470c4fcf9)" stroke="#a52a2a"/>
    <path d="m337.8 93.915v-4.3302" clip-path="url(#p0470c4fcf9)" stroke="#a52a2a"/>
    <path d="m337.8 89.584-3.0619-3.0619" clip-path="url(#p0470c4fcf9)" stroke="#a52a2a"/>
    <path d="m334.74 86.522h-4.3302" clip-path="url(#p0470c4fcf9)" stroke="#008000"/>
    <path d="m334.74 86.522v-4.3302" clip-path="url(#p0470c4fcf9)" stroke="#008000"/>
    <path d="m337.8 89.584 3.0619-3.0619" clip-path="url(#p0470c4fcf9)" stroke="#a52a2a"/>
    <path d="m340.86 86.522v-4.3302" clip-path="url(#p0470c4fcf9)" stroke="#008000"/>
    <path d="m340.86 86.522h4.3302" clip-path="url(#p0470c4fcf9)" stroke="#008000"/>
    <path d="m337.8 98.245h4.3302" clip-path="url(#p0470c4fcf9)" stroke="#a52a2a"/>
    <path d="m342.13 98.245h4.3302" clip-path="url(#p0470c4fcf9)" stroke="#a52a2a"/>
    <path d="m346.46 98.245 3.0619-3.0619" clip-path="url(#p0470c4fcf9)" stroke="#a52a2a"/>
    <path d="m349.52 95.183v-4.3302" clip-path="url(#p0470c4fcf9)" stroke="#008000"/>
    <path d="m349.52 95.183h4.3302" clip-path="url(#p0470c4fcf9)" stroke="#008000"/>
    <path d="m346.46 98.245 3.0619 3.0619" clip-path="url(#p0470c4fcf9)" stroke="#a52a2a"/>
    <path d="m349.52 101.31h4.3302" clip-path="url(#p0470c4fcf9)" stroke="#008000"/>
    <path d="m349.52 101.31v4.3302" clip-path="url(#p0470c4fcf9)" stroke="#008000"/>
    <path d="m325.55 110.49 3.0619 3.0619" clip-path="url(#p0470c4fcf9)" stroke="#a52a2a"/>
    <path d="m328.61 113.55 3.0619 3.0619" clip-path="url(#p0470c4fcf9)" stroke="#a52a2a"/>
    <path d="m331.68 116.62 3.0619 3.0619" clip-path="url(#p0470c4fcf9)" stroke="#a52a2a"/>
    <path d="m334.74 119.68 3.0619 3.0619" clip-path="url(#p0470c4fcf9)" stroke="#a52a2a"/>
    <path d="m337.8 122.74h4.3302" clip-path="url(#p0470c4fcf9)" stroke="#a52a2a"/>
    <path d="m342.13 122.74h4.3302" clip-path="url(#p0470c4fcf9)" stroke="#a52a2a"/>
    <path d="m346.46 122.74 3.0619-3.0619" clip-path="url(#p0470c4fcf9)" stroke="#a52a2a"/>
    <path d="m349.52 119.68v-4.3302" clip-path="url(#p0470c4fcf9)" stroke="#008000"/>
    <path d="m349.52 119.68h4.3302" clip-path="url(#p0470c4fcf9)" stroke="#008000"/>
    <path d="m346.46 122.74 3.0619 3.0619" clip-path="url(#p0470c4fcf9)" stroke="#a52a2a"/>
    <path d="m349.52 125.8h4.3302" clip-path="url(#p0470c4fcf9)" stroke="#008000"/>
    <path d="m349.52 125.8v4.3302" clip-path="url(#p0470c4fcf9)" stroke="#008000"/>
    <path d="m337.8 122.74v4.3302" clip-path="url(#p0470c4fcf9)" stroke="#a52a2a"/>
    <path d="m337.8 127.07v4.3302" clip-path="url(#p0470c4fcf9)" stroke="#a52a2a"/>
    <path d="m337.8 131.4 3.0619 3.0619" clip-path="url(#p0470c4fcf9)" stroke="#a52a2a"/>
    <path d="m340.86 134.46h4.3302" clip-path="url(#p0470c4fcf9)" stroke="#008000"/>
    <path d="m340.86 134.46v4.3302" clip-path="url(#p0470c4fcf9)" stroke="#008000"/>
    <path d="m337.8 131.4-3.0619 3.0619" clip-path="url(#p0470c4fcf9)" stroke="#a52a2a"/>
    <path d="m334.74 134.46v4.3302" clip-path="url(#p0470c4fcf9)" stroke="#008000"/>
    <path d="m334.74 134.46h-4.3302" clip-path="url(#p0470c4fcf9)" stroke="#008000"/>
   </g>
   <g id="patch_3">
    <path d="m117 311.04v-276.48" fill="none" stroke="#000" stroke-linecap="square" stroke-width=".8"/>
   </g>
   <g id="patch_4">
    <path d="m366.84 311.04v-276.48" fill="none" stroke="#000" stroke-linecap="square" stroke-width=".8"/>
   </g>
   <g id="patch_5">
    <path d="m117 311.04h249.85" fill="none" stroke="#000" stroke-linecap="square" stroke-width=".8"/>
   </g>
   <g id="patch_6">
    <path d="m117 34.56h249.85" fill="none" stroke="#000" stroke-linecap="square" stroke-width=".8"/>
   </g>
  </g>
  <g id="text_13">
   <text transform="rotate(-0 230.4 19.07)" x="230.4" y="19.0695" font="16px 'DejaVu Sans', 'Bitstream Vera Sans', 'Computer Modern Sans Serif', 'Lucida Grande', 'Verdana', 'Geneva', 'Lucid', 'Arial', 'Helvetica', 'Avant Garde', sans-serif" text-anchor="middle">n = 6</text>
  </g>
 </g>
 <defs>
  <clipPath id="p0470c4fcf9">
   <rect x="117" y="34.56" width="249.85" height="276.48"/>
  </clipPath>
 </defs>
</svg>
