<?xml version="1.0" encoding="UTF-8"?>
<!DOCTYPE svg  PUBLIC '-//W3C//DTD SVG 1.1//EN'  'http://www.w3.org/Graphics/SVG/1.1/DTD/svg11.dtd'>
<svg width="460.8pt" height="345.6pt" version="1.1" viewBox="0 0 460.8 345.6" xmlns="http://www.w3.org/2000/svg" xmlns:xlink="http://www.w3.org/1999/xlink">
 <metadata>
  <rdf:RDF xmlns:cc="http://creativecommons.org/ns#" xmlns:dc="http://purl.org/dc/elements/1.1/" xmlns:rdf="http://www.w3.org/1999/02/22-rdf-syntax-ns#">
   <cc:Work>
    <dc:type rdf:resource="http://purl.org/dc/dcmitype/StillImage"/>
    <dc:date>2023-03-19T15:29:26.577580</dc:date>
    <dc:format>image/svg+xml</dc:format>
    <dc:creator>
     <cc:Agent>
      <dc:title>Matplotlib v3.7.1, https://matplotlib.org/</dc:title>
     </cc:Agent>
    </dc:creator>
   </cc:Work>
  </rdf:RDF>
 </metadata>
 <defs>
  <style type="text/css">*{stroke-linejoin: round; stroke-linecap: butt}</style>
 </defs>
 <g id="figure_1">
  <g id="patch_1">
   <path d="m0 345.6h460.8v-345.6h-460.8z" fill="#fff"/>
  </g>
  <g id="axes_1">
   <g id="patch_2">
    <path d="m116.49 311.04h250.87v-276.48h-250.87z" fill="#fff"/>
   </g>
   <g id="matplotlib.axis_1">
    <g id="xtick_1">
     <g id="line2d_1">
      <defs>
       <path id="mf477d200ad" d="m0 0v3.5" stroke="#000" stroke-width=".8"/>
      </defs>
      <use x="122.672798" y="311.04" stroke="#000000" stroke-width=".8" xlink:href="#mf477d200ad"/>
     </g>
     <g id="text_1">
      <text transform="rotate(-0 122.67 325.64)" x="122.672798" y="325.638438" font="10px 'DejaVu Sans', 'Bitstream Vera Sans', 'Computer Modern Sans Serif', 'Lucida Grande', 'Verdana', 'Geneva', 'Lucid', 'Arial', 'Helvetica', 'Avant Garde', sans-serif" text-anchor="middle">−15</text>
     </g>
    </g>
    <g id="xtick_2">
     <g id="line2d_2">
      <use x="162.421866" y="311.04" stroke="#000000" stroke-width=".8" xlink:href="#mf477d200ad"/>
     </g>
     <g id="text_2">
      <text transform="rotate(-0 162.42 325.64)" x="162.421866" y="325.638438" font="10px 'DejaVu Sans', 'Bitstream Vera Sans', 'Computer Modern Sans Serif', 'Lucida Grande', 'Verdana', 'Geneva', 'Lucid', 'Arial', 'Helvetica', 'Avant Garde', sans-serif" text-anchor="middle">−10</text>
     </g>
    </g>
    <g id="xtick_3">
     <g id="line2d_3">
      <use x="202.170933" y="311.04" stroke="#000000" stroke-width=".8" xlink:href="#mf477d200ad"/>
     </g>
     <g id="text_3">
      <text transform="rotate(-0 202.17 325.64)" x="202.170933" y="325.638438" font="10px 'DejaVu Sans', 'Bitstream Vera Sans', 'Computer Modern Sans Serif', 'Lucida Grande', 'Verdana', 'Geneva', 'Lucid', 'Arial', 'Helvetica', 'Avant Garde', sans-serif" text-anchor="middle">−5</text>
     </g>
    </g>
    <g id="xtick_4">
     <g id="line2d_4">
      <use x="241.92" y="311.04" stroke="#000000" stroke-width=".8" xlink:href="#mf477d200ad"/>
     </g>
     <g id="text_4">
      <text transform="rotate(-0 241.92 325.64)" x="241.92" y="325.638438" font="10px 'DejaVu Sans', 'Bitstream Vera Sans', 'Computer Modern Sans Serif', 'Lucida Grande', 'Verdana', 'Geneva', 'Lucid', 'Arial', 'Helvetica', 'Avant Garde', sans-serif" text-anchor="middle">0</text>
     </g>
    </g>
    <g id="xtick_5">
     <g id="line2d_5">
      <use x="281.669067" y="311.04" stroke="#000000" stroke-width=".8" xlink:href="#mf477d200ad"/>
     </g>
     <g id="text_5">
      <text transform="rotate(-0 281.67 325.64)" x="281.669067" y="325.638438" font="10px 'DejaVu Sans', 'Bitstream Vera Sans', 'Computer Modern Sans Serif', 'Lucida Grande', 'Verdana', 'Geneva', 'Lucid', 'Arial', 'Helvetica', 'Avant Garde', sans-serif" text-anchor="middle">5</text>
     </g>
    </g>
    <g id="xtick_6">
     <g id="line2d_6">
      <use x="321.418134" y="311.04" stroke="#000000" stroke-width=".8" xlink:href="#mf477d200ad"/>
     </g>
     <g id="text_6">
      <text transform="rotate(-0 321.42 325.64)" x="321.418134" y="325.638438" font="10px 'DejaVu Sans', 'Bitstream Vera Sans', 'Computer Modern Sans Serif', 'Lucida Grande', 'Verdana', 'Geneva', 'Lucid', 'Arial', 'Helvetica', 'Avant Garde', sans-serif" text-anchor="middle">10</text>
     </g>
    </g>
    <g id="xtick_7">
     <g id="line2d_7">
      <use x="361.167202" y="311.04" stroke="#000000" stroke-width=".8" xlink:href="#mf477d200ad"/>
     </g>
     <g id="text_7">
      <text transform="rotate(-0 361.17 325.64)" x="361.167202" y="325.638438" font="10px 'DejaVu Sans', 'Bitstream Vera Sans', 'Computer Modern Sans Serif', 'Lucida Grande', 'Verdana', 'Geneva', 'Lucid', 'Arial', 'Helvetica', 'Avant Garde', sans-serif" text-anchor="middle">15</text>
     </g>
    </g>
   </g>
   <g id="matplotlib.axis_2">
    <g id="ytick_1">
     <g id="line2d_8">
      <defs>
       <path id="m47306a8ca0" d="m0 0h-3.5" stroke="#000" stroke-width=".8"/>
      </defs>
      <use x="116.486455" y="287.19056" stroke="#000000" stroke-width=".8" xlink:href="#m47306a8ca0"/>
     </g>
     <g id="text_8">
      <text transform="rotate(-0 109.49 290.99)" x="109.486455" y="290.989778" font="10px 'DejaVu Sans', 'Bitstream Vera Sans', 'Computer Modern Sans Serif', 'Lucida Grande', 'Verdana', 'Geneva', 'Lucid', 'Arial', 'Helvetica', 'Avant Garde', sans-serif" text-anchor="end">0</text>
     </g>
    </g>
    <g id="ytick_2">
     <g id="line2d_9">
      <use x="116.486455" y="247.441492" stroke="#000000" stroke-width=".8" xlink:href="#m47306a8ca0"/>
     </g>
     <g id="text_9">
      <text transform="rotate(-0 109.49 251.24)" x="109.486455" y="251.240711" font="10px 'DejaVu Sans', 'Bitstream Vera Sans', 'Computer Modern Sans Serif', 'Lucida Grande', 'Verdana', 'Geneva', 'Lucid', 'Arial', 'Helvetica', 'Avant Garde', sans-serif" text-anchor="end">5</text>
     </g>
    </g>
    <g id="ytick_3">
     <g id="line2d_10">
      <use x="116.486455" y="207.692425" stroke="#000000" stroke-width=".8" xlink:href="#m47306a8ca0"/>
     </g>
     <g id="text_10">
      <text transform="rotate(-0 109.49 211.49)" x="109.486455" y="211.491644" font="10px 'DejaVu Sans', 'Bitstream Vera Sans', 'Computer Modern Sans Serif', 'Lucida Grande', 'Verdana', 'Geneva', 'Lucid', 'Arial', 'Helvetica', 'Avant Garde', sans-serif" text-anchor="end">10</text>
     </g>
    </g>
    <g id="ytick_4">
     <g id="line2d_11">
      <use x="116.486455" y="167.943358" stroke="#000000" stroke-width=".8" xlink:href="#m47306a8ca0"/>
     </g>
     <g id="text_11">
      <text transform="rotate(-0 109.49 171.74)" x="109.486455" y="171.742577" font="10px 'DejaVu Sans', 'Bitstream Vera Sans', 'Computer Modern Sans Serif', 'Lucida Grande', 'Verdana', 'Geneva', 'Lucid', 'Arial', 'Helvetica', 'Avant Garde', sans-serif" text-anchor="end">15</text>
     </g>
    </g>
    <g id="ytick_5">
     <g id="line2d_12">
      <use x="116.486455" y="128.194291" stroke="#000000" stroke-width=".8" xlink:href="#m47306a8ca0"/>
     </g>
     <g id="text_12">
      <text transform="rotate(-0 109.49 131.99)" x="109.486455" y="131.993509" font="10px 'DejaVu Sans', 'Bitstream Vera Sans', 'Computer Modern Sans Serif', 'Lucida Grande', 'Verdana', 'Geneva', 'Lucid', 'Arial', 'Helvetica', 'Avant Garde', sans-serif" text-anchor="end">20</text>
     </g>
    </g>
    <g id="ytick_6">
     <g id="line2d_13">
      <use x="116.486455" y="88.445224" stroke="#000000" stroke-width=".8" xlink:href="#m47306a8ca0"/>
     </g>
     <g id="text_13">
      <text transform="rotate(-0 109.49 92.244)" x="109.486455" y="92.244442" font="10px 'DejaVu Sans', 'Bitstream Vera Sans', 'Computer Modern Sans Serif', 'Lucida Grande', 'Verdana', 'Geneva', 'Lucid', 'Arial', 'Helvetica', 'Avant Garde', sans-serif" text-anchor="end">25</text>
     </g>
    </g>
    <g id="ytick_7">
     <g id="line2d_14">
      <use x="116.486455" y="48.696156" stroke="#000000" stroke-width=".8" xlink:href="#m47306a8ca0"/>
     </g>
     <g id="text_14">
      <text transform="rotate(-0 109.49 52.495)" x="109.486455" y="52.495375" font="10px 'DejaVu Sans', 'Bitstream Vera Sans', 'Computer Modern Sans Serif', 'Lucida Grande', 'Verdana', 'Geneva', 'Lucid', 'Arial', 'Helvetica', 'Avant Garde', sans-serif" text-anchor="end">30</text>
     </g>
    </g>
   </g>
   <g id="LineCollection_1" fill="none" stroke-width="2">
    <path d="m241.92 287.19v-7.9498" clip-path="url(#p6a9cdf70bd)" stroke="#a52a2a"/>
    <path d="m241.92 279.24v-7.9498" clip-path="url(#p6a9cdf70bd)" stroke="#a52a2a"/>
    <path d="m241.92 271.29v-7.9498" clip-path="url(#p6a9cdf70bd)" stroke="#a52a2a"/>
    <path d="m241.92 263.34v-7.9498" clip-path="url(#p6a9cdf70bd)" stroke="#a52a2a"/>
    <path d="m241.92 255.39v-7.9498" clip-path="url(#p6a9cdf70bd)" stroke="#a52a2a"/>
    <path d="m241.92 247.44v-7.9498" clip-path="url(#p6a9cdf70bd)" stroke="#a52a2a"/>
    <path d="m241.92 239.49v-7.9498" clip-path="url(#p6a9cdf70bd)" stroke="#a52a2a"/>
    <path d="m241.92 231.54v-7.9498" clip-path="url(#p6a9cdf70bd)" stroke="#a52a2a"/>
    <path d="m241.92 223.59v-7.9498" clip-path="url(#p6a9cdf70bd)" stroke="#a52a2a"/>
    <path d="m241.92 215.64v-7.9498" clip-path="url(#p6a9cdf70bd)" stroke="#a52a2a"/>
    <path d="m241.92 207.69v-7.9498" clip-path="url(#p6a9cdf70bd)" stroke="#a52a2a"/>
    <path d="m241.92 199.74v-7.9498" clip-path="url(#p6a9cdf70bd)" stroke="#a52a2a"/>
    <path d="m241.92 191.79v-7.9498" clip-path="url(#p6a9cdf70bd)" stroke="#a52a2a"/>
    <path d="m241.92 183.84v-7.9498" clip-path="url(#p6a9cdf70bd)" stroke="#a52a2a"/>
    <path d="m241.92 175.89v-7.9498" clip-path="url(#p6a9cdf70bd)" stroke="#a52a2a"/>
    <path d="m241.92 167.94v-7.9498" clip-path="url(#p6a9cdf70bd)" stroke="#a52a2a"/>
    <path d="m241.92 159.99-5.6214-5.6214" clip-path="url(#p6a9cdf70bd)" stroke="#a52a2a"/>
    <path d="m236.3 154.37-5.6214-5.6214" clip-path="url(#p6a9cdf70bd)" stroke="#a52a2a"/>
    <path d="m230.68 148.75-5.6214-5.6214" clip-path="url(#p6a9cdf70bd)" stroke="#a52a2a"/>
    <path d="m225.06 143.13-5.6214-5.6214" clip-path="url(#p6a9cdf70bd)" stroke="#a52a2a"/>
    <path d="m219.43 137.51-5.6214-5.6214" clip-path="url(#p6a9cdf70bd)" stroke="#a52a2a"/>
    <path d="m213.81 131.89-5.6214-5.6214" clip-path="url(#p6a9cdf70bd)" stroke="#a52a2a"/>
    <path d="m208.19 126.27-5.6214-5.6214" clip-path="url(#p6a9cdf70bd)" stroke="#a52a2a"/>
    <path d="m202.57 120.64-5.6214-5.6214" clip-path="url(#p6a9cdf70bd)" stroke="#a52a2a"/>
    <path d="m196.95 115.02h-7.9498" clip-path="url(#p6a9cdf70bd)" stroke="#a52a2a"/>
    <path d="m189 115.02h-7.9498" clip-path="url(#p6a9cdf70bd)" stroke="#a52a2a"/>
    <path d="m181.05 115.02h-7.9498" clip-path="url(#p6a9cdf70bd)" stroke="#a52a2a"/>
    <path d="m173.1 115.02h-7.9498" clip-path="url(#p6a9cdf70bd)" stroke="#a52a2a"/>
    <path d="m165.15 115.02-5.6214 5.6214" clip-path="url(#p6a9cdf70bd)" stroke="#a52a2a"/>
    <path d="m159.53 120.64-5.6214 5.6214" clip-path="url(#p6a9cdf70bd)" stroke="#a52a2a"/>
    <path d="m153.91 126.27v7.9498" clip-path="url(#p6a9cdf70bd)" stroke="#a52a2a"/>
    <path d="m153.91 134.22 5.6214 5.6214" clip-path="url(#p6a9cdf70bd)" stroke="#008000"/>
    <path d="m153.91 134.22-5.6214 5.6214" clip-path="url(#p6a9cdf70bd)" stroke="#008000"/>
    <path d="m153.91 126.27h-7.9498" clip-path="url(#p6a9cdf70bd)" stroke="#a52a2a"/>
    <path d="m145.96 126.27-5.6214 5.6214" clip-path="url(#p6a9cdf70bd)" stroke="#008000"/>
    <path d="m145.96 126.27-5.6214-5.6214" clip-path="url(#p6a9cdf70bd)" stroke="#008000"/>
    <path d="m165.15 115.02-5.6214-5.6214" clip-path="url(#p6a9cdf70bd)" stroke="#a52a2a"/>
    <path d="m159.53 109.4-5.6214-5.6214" clip-path="url(#p6a9cdf70bd)" stroke="#a52a2a"/>
    <path d="m153.91 103.78h-7.9498" clip-path="url(#p6a9cdf70bd)" stroke="#a52a2a"/>
    <path d="m145.96 103.78-5.6214 5.6214" clip-path="url(#p6a9cdf70bd)" stroke="#008000"/>
    <path d="m145.96 103.78-5.6214-5.6214" clip-path="url(#p6a9cdf70bd)" stroke="#008000"/>
    <path d="m153.91 103.78v-7.9498" clip-path="url(#p6a9cdf70bd)" stroke="#a52a2a"/>
    <path d="m153.91 95.83-5.6214-5.6214" clip-path="url(#p6a9cdf70bd)" stroke="#008000"/>
    <path d="m153.91 95.83 5.6214-5.6214" clip-path="url(#p6a9cdf70bd)" stroke="#008000"/>
    <path d="m196.95 115.02v-7.9498" clip-path="url(#p6a9cdf70bd)" stroke="#a52a2a"/>
    <path d="m196.95 107.07v-7.9498" clip-path="url(#p6a9cdf70bd)" stroke="#a52a2a"/>
    <path d="m196.95 99.123v-7.9498" clip-path="url(#p6a9cdf70bd)" stroke="#a52a2a"/>
    <path d="m196.95 91.173v-7.9498" clip-path="url(#p6a9cdf70bd)" stroke="#a52a2a"/>
    <path d="m196.95 83.223-5.6214-5.6214" clip-path="url(#p6a9cdf70bd)" stroke="#a52a2a"/>
    <path d="m191.33 77.602-5.6214-5.6214" clip-path="url(#p6a9cdf70bd)" stroke="#a52a2a"/>
    <path d="m185.71 71.981h-7.9498" clip-path="url(#p6a9cdf70bd)" stroke="#a52a2a"/>
    <path d="m177.76 71.981-5.6214 5.6214" clip-path="url(#p6a9cdf70bd)" stroke="#008000"/>
    <path d="m177.76 71.981-5.6214-5.6214" clip-path="url(#p6a9cdf70bd)" stroke="#008000"/>
    <path d="m185.71 71.981v-7.9498" clip-path="url(#p6a9cdf70bd)" stroke="#a52a2a"/>
    <path d="m185.71 64.031-5.6214-5.6214" clip-path="url(#p6a9cdf70bd)" stroke="#008000"/>
    <path d="m185.71 64.031 5.6214-5.6214" clip-path="url(#p6a9cdf70bd)" stroke="#008000"/>
    <path d="m196.95 83.223 5.6214-5.6214" clip-path="url(#p6a9cdf70bd)" stroke="#a52a2a"/>
    <path d="m202.57 77.602 5.6214-5.6214" clip-path="url(#p6a9cdf70bd)" stroke="#a52a2a"/>
    <path d="m208.19 71.981v-7.9498" clip-path="url(#p6a9cdf70bd)" stroke="#a52a2a"/>
    <path d="m208.19 64.031-5.6214-5.6214" clip-path="url(#p6a9cdf70bd)" stroke="#008000"/>
    <path d="m208.19 64.031 5.6214-5.6214" clip-path="url(#p6a9cdf70bd)" stroke="#008000"/>
    <path d="m208.19 71.981h7.9498" clip-path="url(#p6a9cdf70bd)" stroke="#a52a2a"/>
    <path d="m216.14 71.981 5.6214-5.6214" clip-path="url(#p6a9cdf70bd)" stroke="#008000"/>
    <path d="m216.14 71.981 5.6214 5.6214" clip-path="url(#p6a9cdf70bd)" stroke="#008000"/>
    <path d="m241.92 159.99 5.6214-5.6214" clip-path="url(#p6a9cdf70bd)" stroke="#a52a2a"/>
    <path d="m247.54 154.37 5.6214-5.6214" clip-path="url(#p6a9cdf70bd)" stroke="#a52a2a"/>
    <path d="m253.16 148.75 5.6214-5.6214" clip-path="url(#p6a9cdf70bd)" stroke="#a52a2a"/>
    <path d="m258.78 143.13 5.6214-5.6214" clip-path="url(#p6a9cdf70bd)" stroke="#a52a2a"/>
    <path d="m264.41 137.51 5.6214-5.6214" clip-path="url(#p6a9cdf70bd)" stroke="#a52a2a"/>
    <path d="m270.03 131.89 5.6214-5.6214" clip-path="url(#p6a9cdf70bd)" stroke="#a52a2a"/>
    <path d="m275.65 126.27 5.6214-5.6214" clip-path="url(#p6a9cdf70bd)" stroke="#a52a2a"/>
    <path d="m281.27 120.64 5.6214-5.6214" clip-path="url(#p6a9cdf70bd)" stroke="#a52a2a"/>
    <path d="m286.89 115.02v-7.9498" clip-path="url(#p6a9cdf70bd)" stroke="#a52a2a"/>
    <path d="m286.89 107.07v-7.9498" clip-path="url(#p6a9cdf70bd)" stroke="#a52a2a"/>
    <path d="m286.89 99.123v-7.9498" clip-path="url(#p6a9cdf70bd)" stroke="#a52a2a"/>
    <path d="m286.89 91.173v-7.9498" clip-path="url(#p6a9cdf70bd)" stroke="#a52a2a"/>
    <path d="m286.89 83.223-5.6214-5.6214" clip-path="url(#p6a9cdf70bd)" stroke="#a52a2a"/>
    <path d="m281.27 77.602-5.6214-5.6214" clip-path="url(#p6a9cdf70bd)" stroke="#a52a2a"/>
    <path d="m275.65 71.981h-7.9498" clip-path="url(#p6a9cdf70bd)" stroke="#a52a2a"/>
    <path d="m267.7 71.981-5.6214 5.6214" clip-path="url(#p6a9cdf70bd)" stroke="#008000"/>
    <path d="m267.7 71.981-5.6214-5.6214" clip-path="url(#p6a9cdf70bd)" stroke="#008000"/>
    <path d="m275.65 71.981v-7.9498" clip-path="url(#p6a9cdf70bd)" stroke="#a52a2a"/>
    <path d="m275.65 64.031-5.6214-5.6214" clip-path="url(#p6a9cdf70bd)" stroke="#008000"/>
    <path d="m275.65 64.031 5.6214-5.6214" clip-path="url(#p6a9cdf70bd)" stroke="#008000"/>
    <path d="m286.89 83.223 5.6214-5.6214" clip-path="url(#p6a9cdf70bd)" stroke="#a52a2a"/>
    <path d="m292.51 77.602 5.6214-5.6214" clip-path="url(#p6a9cdf70bd)" stroke="#a52a2a"/>
    <path d="m298.13 71.981v-7.9498" clip-path="url(#p6a9cdf70bd)" stroke="#a52a2a"/>
    <path d="m298.13 64.031-5.6214-5.6214" clip-path="url(#p6a9cdf70bd)" stroke="#008000"/>
    <path d="m298.13 64.031 5.6214-5.6214" clip-path="url(#p6a9cdf70bd)" stroke="#008000"/>
    <path d="m298.13 71.981h7.9498" clip-path="url(#p6a9cdf70bd)" stroke="#a52a2a"/>
    <path d="m306.08 71.981 5.6214-5.6214" clip-path="url(#p6a9cdf70bd)" stroke="#008000"/>
    <path d="m306.08 71.981 5.6214 5.6214" clip-path="url(#p6a9cdf70bd)" stroke="#008000"/>
    <path d="m286.89 115.02h7.9498" clip-path="url(#p6a9cdf70bd)" stroke="#a52a2a"/>
    <path d="m294.84 115.02h7.9498" clip-path="url(#p6a9cdf70bd)" stroke="#a52a2a"/>
    <path d="m302.79 115.02h7.9498" clip-path="url(#p6a9cdf70bd)" stroke="#a52a2a"/>
    <path d="m310.74 115.02h7.9498" clip-path="url(#p6a9cdf70bd)" stroke="#a52a2a"/>
    <path d="m318.69 115.02 5.6214-5.6214" clip-path="url(#p6a9cdf70bd)" stroke="#a52a2a"/>
    <path d="m324.31 109.4 5.6214-5.6214" clip-path="url(#p6a9cdf70bd)" stroke="#a52a2a"/>
    <path d="m329.93 103.78v-7.9498" clip-path="url(#p6a9cdf70bd)" stroke="#a52a2a"/>
    <path d="m329.93 95.83-5.6214-5.6214" clip-path="url(#p6a9cdf70bd)" stroke="#008000"/>
    <path d="m329.93 95.83 5.6214-5.6214" clip-path="url(#p6a9cdf70bd)" stroke="#008000"/>
    <path d="m329.93 103.78h7.9498" clip-path="url(#p6a9cdf70bd)" stroke="#a52a2a"/>
    <path d="m337.88 103.78 5.6214-5.6214" clip-path="url(#p6a9cdf70bd)" stroke="#008000"/>
    <path d="m337.88 103.78 5.6214 5.6214" clip-path="url(#p6a9cdf70bd)" stroke="#008000"/>
    <path d="m318.69 115.02 5.6214 5.6214" clip-path="url(#p6a9cdf70bd)" stroke="#a52a2a"/>
    <path d="m324.31 120.64 5.6214 5.6214" clip-path="url(#p6a9cdf70bd)" stroke="#a52a2a"/>
    <path d="m329.93 126.27h7.9498" clip-path="url(#p6a9cdf70bd)" stroke="#a52a2a"/>
    <path d="m337.88 126.27 5.6214-5.6214" clip-path="url(#p6a9cdf70bd)" stroke="#008000"/>
    <path d="m337.88 126.27 5.6214 5.6214" clip-path="url(#p6a9cdf70bd)" stroke="#008000"/>
    <path d="m329.93 126.27v7.9498" clip-path="url(#p6a9cdf70bd)" stroke="#a52a2a"/>
    <path d="m329.93 134.22 5.6214 5.6214" clip-path="url(#p6a9cdf70bd)" stroke="#008000"/>
    <path d="m329.93 134.22-5.6214 5.6214" clip-path="url(#p6a9cdf70bd)" stroke="#008000"/>
   </g>
   <g id="patch_3">
    <path d="m116.49 311.04v-276.48" fill="none" stroke="#000" stroke-linecap="square" stroke-width=".8"/>
   </g>
   <g id="patch_4">
    <path d="m367.35 311.04v-276.48" fill="none" stroke="#000" stroke-linecap="square" stroke-width=".8"/>
   </g>
   <g id="patch_5">
    <path d="m116.49 311.04h250.87" fill="none" stroke="#000" stroke-linecap="square" stroke-width=".8"/>
   </g>
   <g id="patch_6">
    <path d="m116.49 34.56h250.87" fill="none" stroke="#000" stroke-linecap="square" stroke-width=".8"/>
   </g>
  </g>
  <g id="text_15">
   <text transform="rotate(-0 230.4 19.07)" x="230.4" y="19.0695" font="16px 'DejaVu Sans', 'Bitstream Vera Sans', 'Computer Modern Sans Serif', 'Lucida Grande', 'Verdana', 'Geneva', 'Lucid', 'Arial', 'Helvetica', 'Avant Garde', sans-serif" text-anchor="middle">n = 5</text>
  </g>
 </g>
 <defs>
  <clipPath id="p6a9cdf70bd">
   <rect x="116.49" y="34.56" width="250.87" height="276.48"/>
  </clipPath>
 </defs>
</svg>
