<?xml version="1.0" encoding="UTF-8"?>
<!DOCTYPE svg  PUBLIC '-//W3C//DTD SVG 1.1//EN'  'http://www.w3.org/Graphics/SVG/1.1/DTD/svg11.dtd'>
<svg width="460.8pt" height="345.6pt" version="1.1" viewBox="0 0 460.8 345.6" xmlns="http://www.w3.org/2000/svg" xmlns:xlink="http://www.w3.org/1999/xlink">
 <metadata>
  <rdf:RDF xmlns:cc="http://creativecommons.org/ns#" xmlns:dc="http://purl.org/dc/elements/1.1/" xmlns:rdf="http://www.w3.org/1999/02/22-rdf-syntax-ns#">
   <cc:Work>
    <dc:type rdf:resource="http://purl.org/dc/dcmitype/StillImage"/>
    <dc:date>2023-03-19T15:29:30.721256</dc:date>
    <dc:format>image/svg+xml</dc:format>
    <dc:creator>
     <cc:Agent>
      <dc:title>Matplotlib v3.7.1, https://matplotlib.org/</dc:title>
     </cc:Agent>
    </dc:creator>
   </cc:Work>
  </rdf:RDF>
 </metadata>
 <defs>
  <style type="text/css">*{stroke-linejoin: round; stroke-linecap: butt}</style>
 </defs>
 <g id="figure_1">
  <g id="patch_1">
   <path d="m0 345.6h460.8v-345.6h-460.8z" fill="#fff"/>
  </g>
  <g id="axes_1">
   <g id="patch_2">
    <path d="m144.31 311.04h195.21v-276.48h-195.21z" fill="#fff"/>
   </g>
   <g id="matplotlib.axis_1">
    <g id="xtick_1">
     <g id="line2d_1">
      <defs>
       <path id="med9d93b5fa" d="m0 0v3.5" stroke="#000" stroke-width=".8"/>
      </defs>
      <use x="163.143169" y="311.04" stroke="#000000" stroke-width=".8" xlink:href="#med9d93b5fa"/>
     </g>
     <g id="text_1">
      <text transform="rotate(-0 163.14 325.64)" x="163.143169" y="325.638438" font="10px 'DejaVu Sans', 'Bitstream Vera Sans', 'Computer Modern Sans Serif', 'Lucida Grande', 'Verdana', 'Geneva', 'Lucid', 'Arial', 'Helvetica', 'Avant Garde', sans-serif" text-anchor="middle">−5</text>
     </g>
    </g>
    <g id="xtick_2">
     <g id="line2d_2">
      <use x="220.369362" y="311.04" stroke="#000000" stroke-width=".8" xlink:href="#med9d93b5fa"/>
     </g>
     <g id="text_2">
      <text transform="rotate(-0 220.37 325.64)" x="220.369362" y="325.638438" font="10px 'DejaVu Sans', 'Bitstream Vera Sans', 'Computer Modern Sans Serif', 'Lucida Grande', 'Verdana', 'Geneva', 'Lucid', 'Arial', 'Helvetica', 'Avant Garde', sans-serif" text-anchor="middle">0</text>
     </g>
    </g>
    <g id="xtick_3">
     <g id="line2d_3">
      <use x="277.595556" y="311.04" stroke="#000000" stroke-width=".8" xlink:href="#med9d93b5fa"/>
     </g>
     <g id="text_3">
      <text transform="rotate(-0 277.6 325.64)" x="277.595556" y="325.638438" font="10px 'DejaVu Sans', 'Bitstream Vera Sans', 'Computer Modern Sans Serif', 'Lucida Grande', 'Verdana', 'Geneva', 'Lucid', 'Arial', 'Helvetica', 'Avant Garde', sans-serif" text-anchor="middle">5</text>
     </g>
    </g>
    <g id="xtick_4">
     <g id="line2d_4">
      <use x="334.821749" y="311.04" stroke="#000000" stroke-width=".8" xlink:href="#med9d93b5fa"/>
     </g>
     <g id="text_4">
      <text transform="rotate(-0 334.82 325.64)" x="334.821749" y="325.638438" font="10px 'DejaVu Sans', 'Bitstream Vera Sans', 'Computer Modern Sans Serif', 'Lucida Grande', 'Verdana', 'Geneva', 'Lucid', 'Arial', 'Helvetica', 'Avant Garde', sans-serif" text-anchor="middle">10</text>
     </g>
    </g>
   </g>
   <g id="matplotlib.axis_2">
    <g id="ytick_1">
     <g id="line2d_5">
      <defs>
       <path id="m76c9cb623f" d="m0 0h-3.5" stroke="#000" stroke-width=".8"/>
      </defs>
      <use x="144.313689" y="276.704284" stroke="#000000" stroke-width=".8" xlink:href="#m76c9cb623f"/>
     </g>
     <g id="text_5">
      <text transform="rotate(-0 137.31 280.5)" x="137.313689" y="280.503503" font="10px 'DejaVu Sans', 'Bitstream Vera Sans', 'Computer Modern Sans Serif', 'Lucida Grande', 'Verdana', 'Geneva', 'Lucid', 'Arial', 'Helvetica', 'Avant Garde', sans-serif" text-anchor="end">0</text>
     </g>
    </g>
    <g id="ytick_2">
     <g id="line2d_6">
      <use x="144.313689" y="219.47809" stroke="#000000" stroke-width=".8" xlink:href="#m76c9cb623f"/>
     </g>
     <g id="text_6">
      <text transform="rotate(-0 137.31 223.28)" x="137.313689" y="223.277309" font="10px 'DejaVu Sans', 'Bitstream Vera Sans', 'Computer Modern Sans Serif', 'Lucida Grande', 'Verdana', 'Geneva', 'Lucid', 'Arial', 'Helvetica', 'Avant Garde', sans-serif" text-anchor="end">5</text>
     </g>
    </g>
    <g id="ytick_3">
     <g id="line2d_7">
      <use x="144.313689" y="162.251897" stroke="#000000" stroke-width=".8" xlink:href="#m76c9cb623f"/>
     </g>
     <g id="text_7">
      <text transform="rotate(-0 137.31 166.05)" x="137.313689" y="166.051116" font="10px 'DejaVu Sans', 'Bitstream Vera Sans', 'Computer Modern Sans Serif', 'Lucida Grande', 'Verdana', 'Geneva', 'Lucid', 'Arial', 'Helvetica', 'Avant Garde', sans-serif" text-anchor="end">10</text>
     </g>
    </g>
    <g id="ytick_4">
     <g id="line2d_8">
      <use x="144.313689" y="105.025703" stroke="#000000" stroke-width=".8" xlink:href="#m76c9cb623f"/>
     </g>
     <g id="text_8">
      <text transform="rotate(-0 137.31 108.82)" x="137.313689" y="108.824922" font="10px 'DejaVu Sans', 'Bitstream Vera Sans', 'Computer Modern Sans Serif', 'Lucida Grande', 'Verdana', 'Geneva', 'Lucid', 'Arial', 'Helvetica', 'Avant Garde', sans-serif" text-anchor="end">15</text>
     </g>
    </g>
    <g id="ytick_5">
     <g id="line2d_9">
      <use x="144.313689" y="47.79951" stroke="#000000" stroke-width=".8" xlink:href="#m76c9cb623f"/>
     </g>
     <g id="text_9">
      <text transform="rotate(-0 137.31 51.599)" x="137.313689" y="51.598728" font="10px 'DejaVu Sans', 'Bitstream Vera Sans', 'Computer Modern Sans Serif', 'Lucida Grande', 'Verdana', 'Geneva', 'Lucid', 'Arial', 'Helvetica', 'Avant Garde', sans-serif" text-anchor="end">20</text>
     </g>
    </g>
   </g>
   <g id="LineCollection_1" fill="none" stroke="#008000" stroke-width="2">
    <path d="m220.37 276.7v-11.445" clip-path="url(#p33167cabbf)"/>
    <path d="m220.37 265.26v-11.445" clip-path="url(#p33167cabbf)"/>
    <path d="m220.37 253.81v-11.445" clip-path="url(#p33167cabbf)"/>
    <path d="m220.37 242.37v-11.445" clip-path="url(#p33167cabbf)"/>
    <path d="m220.37 230.92-4.837-10.373" clip-path="url(#p33167cabbf)"/>
    <path d="m215.53 220.55-4.837-10.373" clip-path="url(#p33167cabbf)"/>
    <path d="m210.7 210.18-8.7676-7.3569" clip-path="url(#p33167cabbf)"/>
    <path d="m201.93 202.82-8.7676-7.3569" clip-path="url(#p33167cabbf)"/>
    <path d="m193.16 195.46-4.837-10.373" clip-path="url(#p33167cabbf)"/>
    <path d="m210.7 210.18-4.837-10.373" clip-path="url(#p33167cabbf)"/>
    <path d="m205.86 199.8-4.837-10.373" clip-path="url(#p33167cabbf)"/>
    <path d="m201.02 189.43v-11.445" clip-path="url(#p33167cabbf)"/>
    <path d="m210.7 210.18-4.837-10.373" clip-path="url(#p33167cabbf)"/>
    <path d="m205.86 199.8-4.837-10.373" clip-path="url(#p33167cabbf)"/>
    <path d="m201.02 189.43v-11.445" clip-path="url(#p33167cabbf)"/>
    <path d="m201.02 177.99v-11.445" clip-path="url(#p33167cabbf)"/>
    <path d="m201.02 166.54v-11.445" clip-path="url(#p33167cabbf)"/>
    <path d="m201.02 155.1v-11.445" clip-path="url(#p33167cabbf)"/>
    <path d="m201.02 143.65 4.837-10.373" clip-path="url(#p33167cabbf)"/>
    <path d="m201.02 189.43-8.7676-7.3569" clip-path="url(#p33167cabbf)"/>
    <path d="m192.25 182.07-8.7676-7.3569" clip-path="url(#p33167cabbf)"/>
    <path d="m183.49 174.72-4.837-10.373" clip-path="url(#p33167cabbf)"/>
    <path d="m220.37 230.92v-11.445" clip-path="url(#p33167cabbf)"/>
    <path d="m220.37 219.48v-11.445" clip-path="url(#p33167cabbf)"/>
    <path d="m220.37 208.03-4.837-10.373" clip-path="url(#p33167cabbf)"/>
    <path d="m215.53 197.66-4.837-10.373" clip-path="url(#p33167cabbf)"/>
    <path d="m210.7 187.29v-11.445" clip-path="url(#p33167cabbf)"/>
    <path d="m220.37 208.03v-11.445" clip-path="url(#p33167cabbf)"/>
    <path d="m220.37 196.59v-11.445" clip-path="url(#p33167cabbf)"/>
    <path d="m220.37 185.14 4.837-10.373" clip-path="url(#p33167cabbf)"/>
    <path d="m220.37 208.03v-11.445" clip-path="url(#p33167cabbf)"/>
    <path d="m220.37 196.59v-11.445" clip-path="url(#p33167cabbf)"/>
    <path d="m220.37 185.14 4.837-10.373" clip-path="url(#p33167cabbf)"/>
    <path d="m225.21 174.77 4.837-10.373" clip-path="url(#p33167cabbf)"/>
    <path d="m230.04 164.4 4.837-10.373" clip-path="url(#p33167cabbf)"/>
    <path d="m234.88 154.02 4.837-10.373" clip-path="url(#p33167cabbf)"/>
    <path d="m239.72 143.65 8.7676-7.3569" clip-path="url(#p33167cabbf)"/>
    <path d="m220.37 185.14-4.837-10.373" clip-path="url(#p33167cabbf)"/>
    <path d="m215.53 174.77-4.837-10.373" clip-path="url(#p33167cabbf)"/>
    <path d="m210.7 164.4v-11.445" clip-path="url(#p33167cabbf)"/>
    <path d="m220.37 230.92v-11.445" clip-path="url(#p33167cabbf)"/>
    <path d="m220.37 219.48v-11.445" clip-path="url(#p33167cabbf)"/>
    <path d="m220.37 208.03v-11.445" clip-path="url(#p33167cabbf)"/>
    <path d="m220.37 196.59v-11.445" clip-path="url(#p33167cabbf)"/>
    <path d="m220.37 185.14 4.837-10.373" clip-path="url(#p33167cabbf)"/>
    <path d="m225.21 174.77 4.837-10.373" clip-path="url(#p33167cabbf)"/>
    <path d="m230.04 164.4 4.837-10.373" clip-path="url(#p33167cabbf)"/>
    <path d="m234.88 154.02 4.837-10.373" clip-path="url(#p33167cabbf)"/>
    <path d="m239.72 143.65 4.837-10.373" clip-path="url(#p33167cabbf)"/>
    <path d="m244.55 133.28 4.837-10.373" clip-path="url(#p33167cabbf)"/>
    <path d="m249.39 122.9v-11.445" clip-path="url(#p33167cabbf)"/>
    <path d="m249.39 111.46v-11.445" clip-path="url(#p33167cabbf)"/>
    <path d="m249.39 100.01 4.837-10.373" clip-path="url(#p33167cabbf)"/>
    <path d="m249.39 122.9 4.837-10.373" clip-path="url(#p33167cabbf)"/>
    <path d="m254.23 112.53 4.837-10.373" clip-path="url(#p33167cabbf)"/>
    <path d="m259.07 102.16 8.7676-7.3569" clip-path="url(#p33167cabbf)"/>
    <path d="m249.39 122.9 4.837-10.373" clip-path="url(#p33167cabbf)"/>
    <path d="m254.23 112.53 4.837-10.373" clip-path="url(#p33167cabbf)"/>
    <path d="m259.07 102.16 8.7676-7.3569" clip-path="url(#p33167cabbf)"/>
    <path d="m267.83 94.802 8.7676-7.3569" clip-path="url(#p33167cabbf)"/>
    <path d="m276.6 87.445 8.7676-7.3569" clip-path="url(#p33167cabbf)"/>
    <path d="m285.37 80.089 8.7676-7.3569" clip-path="url(#p33167cabbf)"/>
    <path d="m294.14 72.732 11.055-2.9622" clip-path="url(#p33167cabbf)"/>
    <path d="m259.07 102.16v-11.445" clip-path="url(#p33167cabbf)"/>
    <path d="m259.07 90.714v-11.445" clip-path="url(#p33167cabbf)"/>
    <path d="m259.07 79.269 4.837-10.373" clip-path="url(#p33167cabbf)"/>
    <path d="m220.37 185.14-4.837-10.373" clip-path="url(#p33167cabbf)"/>
    <path d="m215.53 174.77-4.837-10.373" clip-path="url(#p33167cabbf)"/>
    <path d="m210.7 164.4-8.7676-7.3569" clip-path="url(#p33167cabbf)"/>
    <path d="m201.93 157.04-8.7676-7.3569" clip-path="url(#p33167cabbf)"/>
    <path d="m193.16 149.68-4.837-10.373" clip-path="url(#p33167cabbf)"/>
    <path d="m210.7 164.4-4.837-10.373" clip-path="url(#p33167cabbf)"/>
    <path d="m205.86 154.02-4.837-10.373" clip-path="url(#p33167cabbf)"/>
    <path d="m201.02 143.65v-11.445" clip-path="url(#p33167cabbf)"/>
    <path d="m210.7 164.4-4.837-10.373" clip-path="url(#p33167cabbf)"/>
    <path d="m205.86 154.02-4.837-10.373" clip-path="url(#p33167cabbf)"/>
    <path d="m201.02 143.65v-11.445" clip-path="url(#p33167cabbf)"/>
    <path d="m201.02 132.21v-11.445" clip-path="url(#p33167cabbf)"/>
    <path d="m201.02 120.76v-11.445" clip-path="url(#p33167cabbf)"/>
    <path d="m201.02 109.32v-11.445" clip-path="url(#p33167cabbf)"/>
    <path d="m201.02 97.87 4.837-10.373" clip-path="url(#p33167cabbf)"/>
    <path d="m201.02 143.65-8.7676-7.3569" clip-path="url(#p33167cabbf)"/>
    <path d="m192.25 136.29-8.7676-7.3569" clip-path="url(#p33167cabbf)"/>
    <path d="m183.49 128.94-4.837-10.373" clip-path="url(#p33167cabbf)"/>
   </g>
   <g id="patch_3">
    <path d="m144.31 311.04v-276.48" fill="none" stroke="#000" stroke-linecap="square" stroke-width=".8"/>
   </g>
   <g id="patch_4">
    <path d="m339.53 311.04v-276.48" fill="none" stroke="#000" stroke-linecap="square" stroke-width=".8"/>
   </g>
   <g id="patch_5">
    <path d="m144.31 311.04h195.21" fill="none" stroke="#000" stroke-linecap="square" stroke-width=".8"/>
   </g>
   <g id="patch_6">
    <path d="m144.31 34.56h195.21" fill="none" stroke="#000" stroke-linecap="square" stroke-width=".8"/>
   </g>
  </g>
  <g id="text_10">
   <text transform="rotate(-0 230.4 19.07)" x="230.4" y="19.0695" font="16px 'DejaVu Sans', 'Bitstream Vera Sans', 'Computer Modern Sans Serif', 'Lucida Grande', 'Verdana', 'Geneva', 'Lucid', 'Arial', 'Helvetica', 'Avant Garde', sans-serif" text-anchor="middle">n = 3</text>
  </g>
 </g>
 <defs>
  <clipPath id="p33167cabbf">
   <rect x="144.31" y="34.56" width="195.21" height="276.48"/>
  </clipPath>
 </defs>
</svg>
