<?xml version="1.0" encoding="UTF-8"?>
<!DOCTYPE svg  PUBLIC '-//W3C//DTD SVG 1.1//EN'  'http://www.w3.org/Graphics/SVG/1.1/DTD/svg11.dtd'>
<svg width="460.8pt" height="345.6pt" version="1.1" viewBox="0 0 460.8 345.6" xmlns="http://www.w3.org/2000/svg" xmlns:xlink="http://www.w3.org/1999/xlink">
 <metadata>
  <rdf:RDF xmlns:cc="http://creativecommons.org/ns#" xmlns:dc="http://purl.org/dc/elements/1.1/" xmlns:rdf="http://www.w3.org/1999/02/22-rdf-syntax-ns#">
   <cc:Work>
    <dc:type rdf:resource="http://purl.org/dc/dcmitype/StillImage"/>
    <dc:date>2023-03-19T15:29:34.693564</dc:date>
    <dc:format>image/svg+xml</dc:format>
    <dc:creator>
     <cc:Agent>
      <dc:title>Matplotlib v3.7.1, https://matplotlib.org/</dc:title>
     </cc:Agent>
    </dc:creator>
   </cc:Work>
  </rdf:RDF>
 </metadata>
 <defs>
  <style type="text/css">*{stroke-linejoin: round; stroke-linecap: butt}</style>
 </defs>
 <g id="figure_1">
  <g id="patch_1">
   <path d="m0 345.6h460.8v-345.6h-460.8z" fill="#fff"/>
  </g>
  <g id="axes_1">
   <g id="patch_2">
    <path d="m80.64 311.04h322.56v-276.48h-322.56z" fill="#fff"/>
   </g>
   <g id="matplotlib.axis_1">
    <g id="xtick_1">
     <g id="line2d_1">
      <defs>
       <path id="m8ab2f70aed" d="m0 0v3.5" stroke="#000" stroke-width=".8"/>
      </defs>
      <use x="88.32" y="311.04" stroke="#000000" stroke-width=".8" xlink:href="#m8ab2f70aed"/>
     </g>
     <g id="text_1">
      <text transform="rotate(-0 88.32 325.64)" x="88.32" y="325.638438" font="10px 'DejaVu Sans', 'Bitstream Vera Sans', 'Computer Modern Sans Serif', 'Lucida Grande', 'Verdana', 'Geneva', 'Lucid', 'Arial', 'Helvetica', 'Avant Garde', sans-serif" text-anchor="middle">−7.5</text>
     </g>
    </g>
    <g id="xtick_2">
     <g id="line2d_2">
      <use x="126.72" y="311.04" stroke="#000000" stroke-width=".8" xlink:href="#m8ab2f70aed"/>
     </g>
     <g id="text_2">
      <text transform="rotate(-0 126.72 325.64)" x="126.72" y="325.638438" font="10px 'DejaVu Sans', 'Bitstream Vera Sans', 'Computer Modern Sans Serif', 'Lucida Grande', 'Verdana', 'Geneva', 'Lucid', 'Arial', 'Helvetica', 'Avant Garde', sans-serif" text-anchor="middle">−5.0</text>
     </g>
    </g>
    <g id="xtick_3">
     <g id="line2d_3">
      <use x="165.12" y="311.04" stroke="#000000" stroke-width=".8" xlink:href="#m8ab2f70aed"/>
     </g>
     <g id="text_3">
      <text transform="rotate(-0 165.12 325.64)" x="165.12" y="325.638438" font="10px 'DejaVu Sans', 'Bitstream Vera Sans', 'Computer Modern Sans Serif', 'Lucida Grande', 'Verdana', 'Geneva', 'Lucid', 'Arial', 'Helvetica', 'Avant Garde', sans-serif" text-anchor="middle">−2.5</text>
     </g>
    </g>
    <g id="xtick_4">
     <g id="line2d_4">
      <use x="203.52" y="311.04" stroke="#000000" stroke-width=".8" xlink:href="#m8ab2f70aed"/>
     </g>
     <g id="text_4">
      <text transform="rotate(-0 203.52 325.64)" x="203.52" y="325.638438" font="10px 'DejaVu Sans', 'Bitstream Vera Sans', 'Computer Modern Sans Serif', 'Lucida Grande', 'Verdana', 'Geneva', 'Lucid', 'Arial', 'Helvetica', 'Avant Garde', sans-serif" text-anchor="middle">0.0</text>
     </g>
    </g>
    <g id="xtick_5">
     <g id="line2d_5">
      <use x="241.92" y="311.04" stroke="#000000" stroke-width=".8" xlink:href="#m8ab2f70aed"/>
     </g>
     <g id="text_5">
      <text transform="rotate(-0 241.92 325.64)" x="241.92" y="325.638438" font="10px 'DejaVu Sans', 'Bitstream Vera Sans', 'Computer Modern Sans Serif', 'Lucida Grande', 'Verdana', 'Geneva', 'Lucid', 'Arial', 'Helvetica', 'Avant Garde', sans-serif" text-anchor="middle">2.5</text>
     </g>
    </g>
    <g id="xtick_6">
     <g id="line2d_6">
      <use x="280.32" y="311.04" stroke="#000000" stroke-width=".8" xlink:href="#m8ab2f70aed"/>
     </g>
     <g id="text_6">
      <text transform="rotate(-0 280.32 325.64)" x="280.32" y="325.638438" font="10px 'DejaVu Sans', 'Bitstream Vera Sans', 'Computer Modern Sans Serif', 'Lucida Grande', 'Verdana', 'Geneva', 'Lucid', 'Arial', 'Helvetica', 'Avant Garde', sans-serif" text-anchor="middle">5.0</text>
     </g>
    </g>
    <g id="xtick_7">
     <g id="line2d_7">
      <use x="318.72" y="311.04" stroke="#000000" stroke-width=".8" xlink:href="#m8ab2f70aed"/>
     </g>
     <g id="text_7">
      <text transform="rotate(-0 318.72 325.64)" x="318.72" y="325.638438" font="10px 'DejaVu Sans', 'Bitstream Vera Sans', 'Computer Modern Sans Serif', 'Lucida Grande', 'Verdana', 'Geneva', 'Lucid', 'Arial', 'Helvetica', 'Avant Garde', sans-serif" text-anchor="middle">7.5</text>
     </g>
    </g>
    <g id="xtick_8">
     <g id="line2d_8">
      <use x="357.12" y="311.04" stroke="#000000" stroke-width=".8" xlink:href="#m8ab2f70aed"/>
     </g>
     <g id="text_8">
      <text transform="rotate(-0 357.12 325.64)" x="357.12" y="325.638438" font="10px 'DejaVu Sans', 'Bitstream Vera Sans', 'Computer Modern Sans Serif', 'Lucida Grande', 'Verdana', 'Geneva', 'Lucid', 'Arial', 'Helvetica', 'Avant Garde', sans-serif" text-anchor="middle">10.0</text>
     </g>
    </g>
    <g id="xtick_9">
     <g id="line2d_9">
      <use x="395.52" y="311.04" stroke="#000000" stroke-width=".8" xlink:href="#m8ab2f70aed"/>
     </g>
     <g id="text_9">
      <text transform="rotate(-0 395.52 325.64)" x="395.52" y="325.638438" font="10px 'DejaVu Sans', 'Bitstream Vera Sans', 'Computer Modern Sans Serif', 'Lucida Grande', 'Verdana', 'Geneva', 'Lucid', 'Arial', 'Helvetica', 'Avant Garde', sans-serif" text-anchor="middle">12.5</text>
     </g>
    </g>
   </g>
   <g id="matplotlib.axis_2">
    <g id="ytick_1">
     <g id="line2d_10">
      <defs>
       <path id="m517e9b1d53" d="m0 0h-3.5" stroke="#000" stroke-width=".8"/>
      </defs>
      <use x="80.64" y="295.68" stroke="#000000" stroke-width=".8" xlink:href="#m517e9b1d53"/>
     </g>
     <g id="text_10">
      <text transform="rotate(-0 73.64 299.48)" x="73.64" y="299.479219" font="10px 'DejaVu Sans', 'Bitstream Vera Sans', 'Computer Modern Sans Serif', 'Lucida Grande', 'Verdana', 'Geneva', 'Lucid', 'Arial', 'Helvetica', 'Avant Garde', sans-serif" text-anchor="end">−12</text>
     </g>
    </g>
    <g id="ytick_2">
     <g id="line2d_11">
      <use x="80.64" y="264.96" stroke="#000000" stroke-width=".8" xlink:href="#m517e9b1d53"/>
     </g>
     <g id="text_11">
      <text transform="rotate(-0 73.64 268.76)" x="73.64" y="268.759219" font="10px 'DejaVu Sans', 'Bitstream Vera Sans', 'Computer Modern Sans Serif', 'Lucida Grande', 'Verdana', 'Geneva', 'Lucid', 'Arial', 'Helvetica', 'Avant Garde', sans-serif" text-anchor="end">−10</text>
     </g>
    </g>
    <g id="ytick_3">
     <g id="line2d_12">
      <use x="80.64" y="234.24" stroke="#000000" stroke-width=".8" xlink:href="#m517e9b1d53"/>
     </g>
     <g id="text_12">
      <text transform="rotate(-0 73.64 238.04)" x="73.64" y="238.039219" font="10px 'DejaVu Sans', 'Bitstream Vera Sans', 'Computer Modern Sans Serif', 'Lucida Grande', 'Verdana', 'Geneva', 'Lucid', 'Arial', 'Helvetica', 'Avant Garde', sans-serif" text-anchor="end">−8</text>
     </g>
    </g>
    <g id="ytick_4">
     <g id="line2d_13">
      <use x="80.64" y="203.52" stroke="#000000" stroke-width=".8" xlink:href="#m517e9b1d53"/>
     </g>
     <g id="text_13">
      <text transform="rotate(-0 73.64 207.32)" x="73.64" y="207.319219" font="10px 'DejaVu Sans', 'Bitstream Vera Sans', 'Computer Modern Sans Serif', 'Lucida Grande', 'Verdana', 'Geneva', 'Lucid', 'Arial', 'Helvetica', 'Avant Garde', sans-serif" text-anchor="end">−6</text>
     </g>
    </g>
    <g id="ytick_5">
     <g id="line2d_14">
      <use x="80.64" y="172.8" stroke="#000000" stroke-width=".8" xlink:href="#m517e9b1d53"/>
     </g>
     <g id="text_14">
      <text transform="rotate(-0 73.64 176.6)" x="73.64" y="176.599219" font="10px 'DejaVu Sans', 'Bitstream Vera Sans', 'Computer Modern Sans Serif', 'Lucida Grande', 'Verdana', 'Geneva', 'Lucid', 'Arial', 'Helvetica', 'Avant Garde', sans-serif" text-anchor="end">−4</text>
     </g>
    </g>
    <g id="ytick_6">
     <g id="line2d_15">
      <use x="80.64" y="142.08" stroke="#000000" stroke-width=".8" xlink:href="#m517e9b1d53"/>
     </g>
     <g id="text_15">
      <text transform="rotate(-0 73.64 145.88)" x="73.64" y="145.879219" font="10px 'DejaVu Sans', 'Bitstream Vera Sans', 'Computer Modern Sans Serif', 'Lucida Grande', 'Verdana', 'Geneva', 'Lucid', 'Arial', 'Helvetica', 'Avant Garde', sans-serif" text-anchor="end">−2</text>
     </g>
    </g>
    <g id="ytick_7">
     <g id="line2d_16">
      <use x="80.64" y="111.36" stroke="#000000" stroke-width=".8" xlink:href="#m517e9b1d53"/>
     </g>
     <g id="text_16">
      <text transform="rotate(-0 73.64 115.16)" x="73.64" y="115.159219" font="10px 'DejaVu Sans', 'Bitstream Vera Sans', 'Computer Modern Sans Serif', 'Lucida Grande', 'Verdana', 'Geneva', 'Lucid', 'Arial', 'Helvetica', 'Avant Garde', sans-serif" text-anchor="end">0</text>
     </g>
    </g>
    <g id="ytick_8">
     <g id="line2d_17">
      <use x="80.64" y="80.64" stroke="#000000" stroke-width=".8" xlink:href="#m517e9b1d53"/>
     </g>
     <g id="text_17">
      <text transform="rotate(-0 73.64 84.439)" x="73.64" y="84.439219" font="10px 'DejaVu Sans', 'Bitstream Vera Sans', 'Computer Modern Sans Serif', 'Lucida Grande', 'Verdana', 'Geneva', 'Lucid', 'Arial', 'Helvetica', 'Avant Garde', sans-serif" text-anchor="end">2</text>
     </g>
    </g>
    <g id="ytick_9">
     <g id="line2d_18">
      <use x="80.64" y="49.92" stroke="#000000" stroke-width=".8" xlink:href="#m517e9b1d53"/>
     </g>
     <g id="text_18">
      <text transform="rotate(-0 73.64 53.719)" x="73.64" y="53.719219" font="10px 'DejaVu Sans', 'Bitstream Vera Sans', 'Computer Modern Sans Serif', 'Lucida Grande', 'Verdana', 'Geneva', 'Lucid', 'Arial', 'Helvetica', 'Avant Garde', sans-serif" text-anchor="end">4</text>
     </g>
    </g>
   </g>
   <g id="LineCollection_1" fill="none" stroke-width="2">
    <path d="m203.52 111.36h15.36" clip-path="url(#p64e6f669c8)" stroke="#f00"/>
    <path d="m218.88 111.36v-15.36" clip-path="url(#p64e6f669c8)" stroke="#32cd32"/>
    <path d="m218.88 96h-15.36" clip-path="url(#p64e6f669c8)" stroke="#f00"/>
    <path d="m203.52 96v-15.36" clip-path="url(#p64e6f669c8)" stroke="#32cd32"/>
    <path d="m203.52 80.64h-15.36" clip-path="url(#p64e6f669c8)" stroke="#f00"/>
    <path d="m188.16 80.64v15.36" clip-path="url(#p64e6f669c8)" stroke="#32cd32"/>
    <path d="m188.16 96h-15.36" clip-path="url(#p64e6f669c8)" stroke="#f00"/>
    <path d="m172.8 96v-15.36" clip-path="url(#p64e6f669c8)" stroke="#32cd32"/>
    <path d="m172.8 80.64h-15.36" clip-path="url(#p64e6f669c8)" stroke="#f00"/>
    <path d="m157.44 80.64v15.36" clip-path="url(#p64e6f669c8)" stroke="#32cd32"/>
    <path d="m157.44 96h15.36" clip-path="url(#p64e6f669c8)" stroke="#f00"/>
    <path d="m172.8 96v15.36" clip-path="url(#p64e6f669c8)" stroke="#32cd32"/>
    <path d="m172.8 111.36h-15.36" clip-path="url(#p64e6f669c8)" stroke="#f00"/>
    <path d="m157.44 111.36v15.36" clip-path="url(#p64e6f669c8)" stroke="#32cd32"/>
    <path d="m157.44 126.72h-15.36" clip-path="url(#p64e6f669c8)" stroke="#f00"/>
    <path d="m142.08 126.72v-15.36" clip-path="url(#p64e6f669c8)" stroke="#32cd32"/>
    <path d="m142.08 111.36h-15.36" clip-path="url(#p64e6f669c8)" stroke="#f00"/>
    <path d="m126.72 111.36v15.36" clip-path="url(#p64e6f669c8)" stroke="#32cd32"/>
    <path d="m126.72 126.72h15.36" clip-path="url(#p64e6f669c8)" stroke="#f00"/>
    <path d="m142.08 126.72v15.36" clip-path="url(#p64e6f669c8)" stroke="#32cd32"/>
    <path d="m142.08 142.08h15.36" clip-path="url(#p64e6f669c8)" stroke="#f00"/>
    <path d="m157.44 142.08v-15.36" clip-path="url(#p64e6f669c8)" stroke="#32cd32"/>
    <path d="m157.44 126.72h15.36" clip-path="url(#p64e6f669c8)" stroke="#f00"/>
    <path d="m172.8 126.72v15.36" clip-path="url(#p64e6f669c8)" stroke="#32cd32"/>
    <path d="m172.8 142.08h-15.36" clip-path="url(#p64e6f669c8)" stroke="#f00"/>
    <path d="m157.44 142.08v15.36" clip-path="url(#p64e6f669c8)" stroke="#32cd32"/>
    <path d="m157.44 157.44h15.36" clip-path="url(#p64e6f669c8)" stroke="#f00"/>
    <path d="m172.8 157.44v15.36" clip-path="url(#p64e6f669c8)" stroke="#32cd32"/>
    <path d="m172.8 172.8h-15.36" clip-path="url(#p64e6f669c8)" stroke="#f00"/>
    <path d="m157.44 172.8v15.36" clip-path="url(#p64e6f669c8)" stroke="#32cd32"/>
    <path d="m157.44 188.16h-15.36" clip-path="url(#p64e6f669c8)" stroke="#f00"/>
    <path d="m142.08 188.16v-15.36" clip-path="url(#p64e6f669c8)" stroke="#32cd32"/>
    <path d="m142.08 172.8h-15.36" clip-path="url(#p64e6f669c8)" stroke="#f00"/>
    <path d="m126.72 172.8v15.36" clip-path="url(#p64e6f669c8)" stroke="#32cd32"/>
    <path d="m126.72 188.16h15.36" clip-path="url(#p64e6f669c8)" stroke="#f00"/>
    <path d="m142.08 188.16v15.36" clip-path="url(#p64e6f669c8)" stroke="#32cd32"/>
    <path d="m142.08 203.52h15.36" clip-path="url(#p64e6f669c8)" stroke="#f00"/>
    <path d="m157.44 203.52v-15.36" clip-path="url(#p64e6f669c8)" stroke="#32cd32"/>
    <path d="m157.44 188.16h15.36" clip-path="url(#p64e6f669c8)" stroke="#f00"/>
    <path d="m172.8 188.16v15.36" clip-path="url(#p64e6f669c8)" stroke="#32cd32"/>
    <path d="m172.8 203.52h15.36" clip-path="url(#p64e6f669c8)" stroke="#f00"/>
    <path d="m188.16 203.52v-15.36" clip-path="url(#p64e6f669c8)" stroke="#32cd32"/>
    <path d="m188.16 188.16h-15.36" clip-path="url(#p64e6f669c8)" stroke="#f00"/>
    <path d="m172.8 188.16v-15.36" clip-path="url(#p64e6f669c8)" stroke="#32cd32"/>
    <path d="m172.8 172.8h15.36" clip-path="url(#p64e6f669c8)" stroke="#f00"/>
    <path d="m188.16 172.8v-15.36" clip-path="url(#p64e6f669c8)" stroke="#32cd32"/>
    <path d="m188.16 157.44h15.36" clip-path="url(#p64e6f669c8)" stroke="#f00"/>
    <path d="m203.52 157.44v15.36" clip-path="url(#p64e6f669c8)" stroke="#32cd32"/>
    <path d="m203.52 172.8h-15.36" clip-path="url(#p64e6f669c8)" stroke="#f00"/>
    <path d="m188.16 172.8v15.36" clip-path="url(#p64e6f669c8)" stroke="#32cd32"/>
    <path d="m188.16 188.16h15.36" clip-path="url(#p64e6f669c8)" stroke="#f00"/>
    <path d="m203.52 188.16v15.36" clip-path="url(#p64e6f669c8)" stroke="#32cd32"/>
    <path d="m203.52 203.52h15.36" clip-path="url(#p64e6f669c8)" stroke="#f00"/>
    <path d="m218.88 203.52v-15.36" clip-path="url(#p64e6f669c8)" stroke="#32cd32"/>
    <path d="m218.88 188.16h15.36" clip-path="url(#p64e6f669c8)" stroke="#f00"/>
    <path d="m234.24 188.16v15.36" clip-path="url(#p64e6f669c8)" stroke="#32cd32"/>
    <path d="m234.24 203.52h-15.36" clip-path="url(#p64e6f669c8)" stroke="#f00"/>
    <path d="m218.88 203.52v15.36" clip-path="url(#p64e6f669c8)" stroke="#32cd32"/>
    <path d="m218.88 218.88h15.36" clip-path="url(#p64e6f669c8)" stroke="#f00"/>
    <path d="m234.24 218.88v15.36" clip-path="url(#p64e6f669c8)" stroke="#32cd32"/>
    <path d="m234.24 234.24h-15.36" clip-path="url(#p64e6f669c8)" stroke="#f00"/>
    <path d="m218.88 234.24v15.36" clip-path="url(#p64e6f669c8)" stroke="#32cd32"/>
    <path d="m218.88 249.6h-15.36" clip-path="url(#p64e6f669c8)" stroke="#f00"/>
    <path d="m203.52 249.6v-15.36" clip-path="url(#p64e6f669c8)" stroke="#32cd32"/>
    <path d="m203.52 234.24h-15.36" clip-path="url(#p64e6f669c8)" stroke="#f00"/>
    <path d="m188.16 234.24v15.36" clip-path="url(#p64e6f669c8)" stroke="#32cd32"/>
    <path d="m188.16 249.6h15.36" clip-path="url(#p64e6f669c8)" stroke="#f00"/>
    <path d="m203.52 249.6v15.36" clip-path="url(#p64e6f669c8)" stroke="#32cd32"/>
    <path d="m203.52 264.96h15.36" clip-path="url(#p64e6f669c8)" stroke="#f00"/>
    <path d="m218.88 264.96v-15.36" clip-path="url(#p64e6f669c8)" stroke="#32cd32"/>
    <path d="m218.88 249.6h15.36" clip-path="url(#p64e6f669c8)" stroke="#f00"/>
    <path d="m234.24 249.6v15.36" clip-path="url(#p64e6f669c8)" stroke="#32cd32"/>
    <path d="m234.24 264.96h15.36" clip-path="url(#p64e6f669c8)" stroke="#f00"/>
    <path d="m249.6 264.96v-15.36" clip-path="url(#p64e6f669c8)" stroke="#32cd32"/>
    <path d="m249.6 249.6h-15.36" clip-path="url(#p64e6f669c8)" stroke="#f00"/>
    <path d="m234.24 249.6v-15.36" clip-path="url(#p64e6f669c8)" stroke="#32cd32"/>
    <path d="m234.24 234.24h15.36" clip-path="url(#p64e6f669c8)" stroke="#f00"/>
    <path d="m249.6 234.24v-15.36" clip-path="url(#p64e6f669c8)" stroke="#32cd32"/>
    <path d="m249.6 218.88h15.36" clip-path="url(#p64e6f669c8)" stroke="#f00"/>
    <path d="m264.96 218.88v15.36" clip-path="url(#p64e6f669c8)" stroke="#32cd32"/>
    <path d="m264.96 234.24h15.36" clip-path="url(#p64e6f669c8)" stroke="#f00"/>
    <path d="m280.32 234.24v-15.36" clip-path="url(#p64e6f669c8)" stroke="#32cd32"/>
    <path d="m280.32 218.88h-15.36" clip-path="url(#p64e6f669c8)" stroke="#f00"/>
    <path d="m264.96 218.88v-15.36" clip-path="url(#p64e6f669c8)" stroke="#32cd32"/>
    <path d="m264.96 203.52h-15.36" clip-path="url(#p64e6f669c8)" stroke="#f00"/>
    <path d="m249.6 203.52v15.36" clip-path="url(#p64e6f669c8)" stroke="#32cd32"/>
    <path d="m249.6 218.88h-15.36" clip-path="url(#p64e6f669c8)" stroke="#f00"/>
    <path d="m234.24 218.88v-15.36" clip-path="url(#p64e6f669c8)" stroke="#32cd32"/>
    <path d="m234.24 203.52h15.36" clip-path="url(#p64e6f669c8)" stroke="#f00"/>
    <path d="m249.6 203.52v-15.36" clip-path="url(#p64e6f669c8)" stroke="#32cd32"/>
    <path d="m249.6 188.16h-15.36" clip-path="url(#p64e6f669c8)" stroke="#f00"/>
    <path d="m234.24 188.16v-15.36" clip-path="url(#p64e6f669c8)" stroke="#32cd32"/>
    <path d="m234.24 172.8h15.36" clip-path="url(#p64e6f669c8)" stroke="#f00"/>
    <path d="m249.6 172.8v-15.36" clip-path="url(#p64e6f669c8)" stroke="#32cd32"/>
    <path d="m249.6 157.44h15.36" clip-path="url(#p64e6f669c8)" stroke="#f00"/>
    <path d="m264.96 157.44v15.36" clip-path="url(#p64e6f669c8)" stroke="#32cd32"/>
    <path d="m264.96 172.8h-15.36" clip-path="url(#p64e6f669c8)" stroke="#f00"/>
    <path d="m249.6 172.8v15.36" clip-path="url(#p64e6f669c8)" stroke="#32cd32"/>
    <path d="m249.6 188.16h15.36" clip-path="url(#p64e6f669c8)" stroke="#f00"/>
    <path d="m264.96 188.16v15.36" clip-path="url(#p64e6f669c8)" stroke="#32cd32"/>
    <path d="m264.96 203.52h15.36" clip-path="url(#p64e6f669c8)" stroke="#f00"/>
    <path d="m280.32 203.52v-15.36" clip-path="url(#p64e6f669c8)" stroke="#32cd32"/>
    <path d="m280.32 188.16h15.36" clip-path="url(#p64e6f669c8)" stroke="#f00"/>
    <path d="m295.68 188.16v15.36" clip-path="url(#p64e6f669c8)" stroke="#32cd32"/>
    <path d="m295.68 203.52h15.36" clip-path="url(#p64e6f669c8)" stroke="#f00"/>
    <path d="m311.04 203.52v-15.36" clip-path="url(#p64e6f669c8)" stroke="#32cd32"/>
    <path d="m311.04 188.16h-15.36" clip-path="url(#p64e6f669c8)" stroke="#f00"/>
    <path d="m295.68 188.16v-15.36" clip-path="url(#p64e6f669c8)" stroke="#32cd32"/>
    <path d="m295.68 172.8h15.36" clip-path="url(#p64e6f669c8)" stroke="#f00"/>
    <path d="m311.04 172.8v-15.36" clip-path="url(#p64e6f669c8)" stroke="#32cd32"/>
    <path d="m311.04 157.44h15.36" clip-path="url(#p64e6f669c8)" stroke="#f00"/>
    <path d="m326.4 157.44v15.36" clip-path="url(#p64e6f669c8)" stroke="#32cd32"/>
    <path d="m326.4 172.8h-15.36" clip-path="url(#p64e6f669c8)" stroke="#f00"/>
    <path d="m311.04 172.8v15.36" clip-path="url(#p64e6f669c8)" stroke="#32cd32"/>
    <path d="m311.04 188.16h15.36" clip-path="url(#p64e6f669c8)" stroke="#f00"/>
    <path d="m326.4 188.16v15.36" clip-path="url(#p64e6f669c8)" stroke="#32cd32"/>
    <path d="m326.4 203.52h15.36" clip-path="url(#p64e6f669c8)" stroke="#f00"/>
    <path d="m341.76 203.52v-15.36" clip-path="url(#p64e6f669c8)" stroke="#32cd32"/>
    <path d="m341.76 188.16h15.36" clip-path="url(#p64e6f669c8)" stroke="#f00"/>
    <path d="m357.12 188.16v15.36" clip-path="url(#p64e6f669c8)" stroke="#32cd32"/>
    <path d="m357.12 203.52h-15.36" clip-path="url(#p64e6f669c8)" stroke="#f00"/>
    <path d="m341.76 203.52v15.36" clip-path="url(#p64e6f669c8)" stroke="#32cd32"/>
    <path d="m341.76 218.88h15.36" clip-path="url(#p64e6f669c8)" stroke="#f00"/>
    <path d="m357.12 218.88v15.36" clip-path="url(#p64e6f669c8)" stroke="#32cd32"/>
    <path d="m357.12 234.24h-15.36" clip-path="url(#p64e6f669c8)" stroke="#f00"/>
    <path d="m341.76 234.24v15.36" clip-path="url(#p64e6f669c8)" stroke="#32cd32"/>
    <path d="m341.76 249.6h-15.36" clip-path="url(#p64e6f669c8)" stroke="#f00"/>
    <path d="m326.4 249.6v-15.36" clip-path="url(#p64e6f669c8)" stroke="#32cd32"/>
   </g>
   <g id="patch_3">
    <path d="m80.64 311.04v-276.48" fill="none" stroke="#000" stroke-linecap="square" stroke-width=".8"/>
   </g>
   <g id="patch_4">
    <path d="m403.2 311.04v-276.48" fill="none" stroke="#000" stroke-linecap="square" stroke-width=".8"/>
   </g>
   <g id="patch_5">
    <path d="m80.64 311.04h322.56" fill="none" stroke="#000" stroke-linecap="square" stroke-width=".8"/>
   </g>
   <g id="patch_6">
    <path d="m80.64 34.56h322.56" fill="none" stroke="#000" stroke-linecap="square" stroke-width=".8"/>
   </g>
  </g>
  <g id="text_19">
   <text transform="rotate(-0 230.4 19.07)" x="230.4" y="19.0695" font="16px 'DejaVu Sans', 'Bitstream Vera Sans', 'Computer Modern Sans Serif', 'Lucida Grande', 'Verdana', 'Geneva', 'Lucid', 'Arial', 'Helvetica', 'Avant Garde', sans-serif" text-anchor="middle">n = 7</text>
  </g>
 </g>
 <defs>
  <clipPath id="p64e6f669c8">
   <rect x="80.64" y="34.56" width="322.56" height="276.48"/>
  </clipPath>
 </defs>
</svg>
