<?xml version="1.0" encoding="UTF-8"?>
<!DOCTYPE svg  PUBLIC '-//W3C//DTD SVG 1.1//EN'  'http://www.w3.org/Graphics/SVG/1.1/DTD/svg11.dtd'>
<svg width="460.8pt" height="345.6pt" version="1.1" viewBox="0 0 460.8 345.6" xmlns="http://www.w3.org/2000/svg" xmlns:xlink="http://www.w3.org/1999/xlink">
 <metadata>
  <rdf:RDF xmlns:cc="http://creativecommons.org/ns#" xmlns:dc="http://purl.org/dc/elements/1.1/" xmlns:rdf="http://www.w3.org/1999/02/22-rdf-syntax-ns#">
   <cc:Work>
    <dc:type rdf:resource="http://purl.org/dc/dcmitype/StillImage"/>
    <dc:date>2023-03-19T15:29:39.789830</dc:date>
    <dc:format>image/svg+xml</dc:format>
    <dc:creator>
     <cc:Agent>
      <dc:title>Matplotlib v3.7.1, https://matplotlib.org/</dc:title>
     </cc:Agent>
    </dc:creator>
   </cc:Work>
  </rdf:RDF>
 </metadata>
 <defs>
  <style type="text/css">*{stroke-linejoin: round; stroke-linecap: butt}</style>
 </defs>
 <g id="figure_1">
  <g id="patch_1">
   <path d="m0 345.6h460.8v-345.6h-460.8z" fill="#fff"/>
  </g>
  <g id="axes_1">
   <g id="patch_2">
    <path d="m46.08 285.56h391.68v-225.51h-391.68z" fill="#fff"/>
   </g>
   <g id="matplotlib.axis_1">
    <g id="xtick_1">
     <g id="line2d_1">
      <defs>
       <path id="mbc31738f33" d="m0 0v3.5" stroke="#000" stroke-width=".8"/>
      </defs>
      <use x="81.687273" y="285.556364" stroke="#000000" stroke-width=".8" xlink:href="#mbc31738f33"/>
     </g>
     <g id="text_1">
      <text transform="rotate(-0 81.687 300.15)" x="81.687273" y="300.154801" font="10px 'DejaVu Sans', 'Bitstream Vera Sans', 'Computer Modern Sans Serif', 'Lucida Grande', 'Verdana', 'Geneva', 'Lucid', 'Arial', 'Helvetica', 'Avant Garde', sans-serif" text-anchor="middle">0</text>
     </g>
    </g>
    <g id="xtick_2">
     <g id="line2d_2">
      <use x="141.032727" y="285.556364" stroke="#000000" stroke-width=".8" xlink:href="#mbc31738f33"/>
     </g>
     <g id="text_2">
      <text transform="rotate(-0 141.03 300.15)" x="141.032727" y="300.154801" font="10px 'DejaVu Sans', 'Bitstream Vera Sans', 'Computer Modern Sans Serif', 'Lucida Grande', 'Verdana', 'Geneva', 'Lucid', 'Arial', 'Helvetica', 'Avant Garde', sans-serif" text-anchor="middle">5</text>
     </g>
    </g>
    <g id="xtick_3">
     <g id="line2d_3">
      <use x="200.378182" y="285.556364" stroke="#000000" stroke-width=".8" xlink:href="#mbc31738f33"/>
     </g>
     <g id="text_3">
      <text transform="rotate(-0 200.38 300.15)" x="200.378182" y="300.154801" font="10px 'DejaVu Sans', 'Bitstream Vera Sans', 'Computer Modern Sans Serif', 'Lucida Grande', 'Verdana', 'Geneva', 'Lucid', 'Arial', 'Helvetica', 'Avant Garde', sans-serif" text-anchor="middle">10</text>
     </g>
    </g>
    <g id="xtick_4">
     <g id="line2d_4">
      <use x="259.723636" y="285.556364" stroke="#000000" stroke-width=".8" xlink:href="#mbc31738f33"/>
     </g>
     <g id="text_4">
      <text transform="rotate(-0 259.72 300.15)" x="259.723636" y="300.154801" font="10px 'DejaVu Sans', 'Bitstream Vera Sans', 'Computer Modern Sans Serif', 'Lucida Grande', 'Verdana', 'Geneva', 'Lucid', 'Arial', 'Helvetica', 'Avant Garde', sans-serif" text-anchor="middle">15</text>
     </g>
    </g>
    <g id="xtick_5">
     <g id="line2d_5">
      <use x="319.069091" y="285.556364" stroke="#000000" stroke-width=".8" xlink:href="#mbc31738f33"/>
     </g>
     <g id="text_5">
      <text transform="rotate(-0 319.07 300.15)" x="319.069091" y="300.154801" font="10px 'DejaVu Sans', 'Bitstream Vera Sans', 'Computer Modern Sans Serif', 'Lucida Grande', 'Verdana', 'Geneva', 'Lucid', 'Arial', 'Helvetica', 'Avant Garde', sans-serif" text-anchor="middle">20</text>
     </g>
    </g>
    <g id="xtick_6">
     <g id="line2d_6">
      <use x="378.414545" y="285.556364" stroke="#000000" stroke-width=".8" xlink:href="#mbc31738f33"/>
     </g>
     <g id="text_6">
      <text transform="rotate(-0 378.41 300.15)" x="378.414545" y="300.154801" font="10px 'DejaVu Sans', 'Bitstream Vera Sans', 'Computer Modern Sans Serif', 'Lucida Grande', 'Verdana', 'Geneva', 'Lucid', 'Arial', 'Helvetica', 'Avant Garde', sans-serif" text-anchor="middle">25</text>
     </g>
    </g>
    <g id="xtick_7">
     <g id="line2d_7">
      <use x="437.76" y="285.556364" stroke="#000000" stroke-width=".8" xlink:href="#mbc31738f33"/>
     </g>
     <g id="text_7">
      <text transform="rotate(-0 437.76 300.15)" x="437.76" y="300.154801" font="10px 'DejaVu Sans', 'Bitstream Vera Sans', 'Computer Modern Sans Serif', 'Lucida Grande', 'Verdana', 'Geneva', 'Lucid', 'Arial', 'Helvetica', 'Avant Garde', sans-serif" text-anchor="middle">30</text>
     </g>
    </g>
   </g>
   <g id="matplotlib.axis_2">
    <g id="ytick_1">
     <g id="line2d_8">
      <defs>
       <path id="me5ce3fd19a" d="m0 0h-3.5" stroke="#000" stroke-width=".8"/>
      </defs>
      <use x="46.08" y="279.621818" stroke="#000000" stroke-width=".8" xlink:href="#me5ce3fd19a"/>
     </g>
     <g id="text_8">
      <text transform="rotate(-0 39.08 283.42)" x="39.08" y="283.421037" font="10px 'DejaVu Sans', 'Bitstream Vera Sans', 'Computer Modern Sans Serif', 'Lucida Grande', 'Verdana', 'Geneva', 'Lucid', 'Arial', 'Helvetica', 'Avant Garde', sans-serif" text-anchor="end">−2.5</text>
     </g>
    </g>
    <g id="ytick_2">
     <g id="line2d_9">
      <use x="46.08" y="249.949091" stroke="#000000" stroke-width=".8" xlink:href="#me5ce3fd19a"/>
     </g>
     <g id="text_9">
      <text transform="rotate(-0 39.08 253.75)" x="39.08" y="253.74831" font="10px 'DejaVu Sans', 'Bitstream Vera Sans', 'Computer Modern Sans Serif', 'Lucida Grande', 'Verdana', 'Geneva', 'Lucid', 'Arial', 'Helvetica', 'Avant Garde', sans-serif" text-anchor="end">0.0</text>
     </g>
    </g>
    <g id="ytick_3">
     <g id="line2d_10">
      <use x="46.08" y="220.276364" stroke="#000000" stroke-width=".8" xlink:href="#me5ce3fd19a"/>
     </g>
     <g id="text_10">
      <text transform="rotate(-0 39.08 224.08)" x="39.08" y="224.075582" font="10px 'DejaVu Sans', 'Bitstream Vera Sans', 'Computer Modern Sans Serif', 'Lucida Grande', 'Verdana', 'Geneva', 'Lucid', 'Arial', 'Helvetica', 'Avant Garde', sans-serif" text-anchor="end">2.5</text>
     </g>
    </g>
    <g id="ytick_4">
     <g id="line2d_11">
      <use x="46.08" y="190.603636" stroke="#000000" stroke-width=".8" xlink:href="#me5ce3fd19a"/>
     </g>
     <g id="text_11">
      <text transform="rotate(-0 39.08 194.4)" x="39.08" y="194.402855" font="10px 'DejaVu Sans', 'Bitstream Vera Sans', 'Computer Modern Sans Serif', 'Lucida Grande', 'Verdana', 'Geneva', 'Lucid', 'Arial', 'Helvetica', 'Avant Garde', sans-serif" text-anchor="end">5.0</text>
     </g>
    </g>
    <g id="ytick_5">
     <g id="line2d_12">
      <use x="46.08" y="160.930909" stroke="#000000" stroke-width=".8" xlink:href="#me5ce3fd19a"/>
     </g>
     <g id="text_12">
      <text transform="rotate(-0 39.08 164.73)" x="39.08" y="164.730128" font="10px 'DejaVu Sans', 'Bitstream Vera Sans', 'Computer Modern Sans Serif', 'Lucida Grande', 'Verdana', 'Geneva', 'Lucid', 'Arial', 'Helvetica', 'Avant Garde', sans-serif" text-anchor="end">7.5</text>
     </g>
    </g>
    <g id="ytick_6">
     <g id="line2d_13">
      <use x="46.08" y="131.258182" stroke="#000000" stroke-width=".8" xlink:href="#me5ce3fd19a"/>
     </g>
     <g id="text_13">
      <text transform="rotate(-0 39.08 135.06)" x="39.08" y="135.057401" font="10px 'DejaVu Sans', 'Bitstream Vera Sans', 'Computer Modern Sans Serif', 'Lucida Grande', 'Verdana', 'Geneva', 'Lucid', 'Arial', 'Helvetica', 'Avant Garde', sans-serif" text-anchor="end">10.0</text>
     </g>
    </g>
    <g id="ytick_7">
     <g id="line2d_14">
      <use x="46.08" y="101.585455" stroke="#000000" stroke-width=".8" xlink:href="#me5ce3fd19a"/>
     </g>
     <g id="text_14">
      <text transform="rotate(-0 39.08 105.38)" x="39.08" y="105.384673" font="10px 'DejaVu Sans', 'Bitstream Vera Sans', 'Computer Modern Sans Serif', 'Lucida Grande', 'Verdana', 'Geneva', 'Lucid', 'Arial', 'Helvetica', 'Avant Garde', sans-serif" text-anchor="end">12.5</text>
     </g>
    </g>
    <g id="ytick_8">
     <g id="line2d_15">
      <use x="46.08" y="71.912727" stroke="#000000" stroke-width=".8" xlink:href="#me5ce3fd19a"/>
     </g>
     <g id="text_15">
      <text transform="rotate(-0 39.08 75.712)" x="39.08" y="75.711946" font="10px 'DejaVu Sans', 'Bitstream Vera Sans', 'Computer Modern Sans Serif', 'Lucida Grande', 'Verdana', 'Geneva', 'Lucid', 'Arial', 'Helvetica', 'Avant Garde', sans-serif" text-anchor="end">15.0</text>
     </g>
    </g>
   </g>
   <g id="LineCollection_1" fill="none" stroke="#00f" stroke-width="2">
    <path d="m81.687 249.95h11.869" clip-path="url(#p183f348286)"/>
    <path d="m93.556 249.95v-11.869" clip-path="url(#p183f348286)"/>
    <path d="m93.556 238.08h11.869" clip-path="url(#p183f348286)"/>
    <path d="m105.43 238.08v11.869" clip-path="url(#p183f348286)"/>
    <path d="m105.43 249.95h11.869" clip-path="url(#p183f348286)"/>
    <path d="m117.29 249.95v-11.869" clip-path="url(#p183f348286)"/>
    <path d="m117.29 238.08h-11.869" clip-path="url(#p183f348286)"/>
    <path d="m105.43 238.08v-11.869" clip-path="url(#p183f348286)"/>
    <path d="m105.43 226.21h11.869" clip-path="url(#p183f348286)"/>
    <path d="m117.29 226.21v-11.869" clip-path="url(#p183f348286)"/>
    <path d="m117.29 214.34h11.869" clip-path="url(#p183f348286)"/>
    <path d="m129.16 214.34v-11.869" clip-path="url(#p183f348286)"/>
    <path d="m129.16 202.47h11.869" clip-path="url(#p183f348286)"/>
    <path d="m141.03 202.47v11.869" clip-path="url(#p183f348286)"/>
    <path d="m141.03 214.34h11.869" clip-path="url(#p183f348286)"/>
    <path d="m152.9 214.34v11.869" clip-path="url(#p183f348286)"/>
    <path d="m152.9 226.21h11.869" clip-path="url(#p183f348286)"/>
    <path d="m164.77 226.21v11.869" clip-path="url(#p183f348286)"/>
    <path d="m164.77 238.08h-11.869" clip-path="url(#p183f348286)"/>
    <path d="m152.9 238.08v11.869" clip-path="url(#p183f348286)"/>
    <path d="m152.9 249.95h11.869" clip-path="url(#p183f348286)"/>
    <path d="m164.77 249.95v-11.869" clip-path="url(#p183f348286)"/>
    <path d="m164.77 238.08h11.869" clip-path="url(#p183f348286)"/>
    <path d="m176.64 238.08v11.869" clip-path="url(#p183f348286)"/>
    <path d="m176.64 249.95h11.869" clip-path="url(#p183f348286)"/>
    <path d="m188.51 249.95v-11.869" clip-path="url(#p183f348286)"/>
    <path d="m188.51 238.08h-11.869" clip-path="url(#p183f348286)"/>
    <path d="m176.64 238.08v-11.869" clip-path="url(#p183f348286)"/>
    <path d="m176.64 226.21h11.869" clip-path="url(#p183f348286)"/>
    <path d="m188.51 226.21v-11.869" clip-path="url(#p183f348286)"/>
    <path d="m188.51 214.34h-11.869" clip-path="url(#p183f348286)"/>
    <path d="m176.64 214.34v11.869" clip-path="url(#p183f348286)"/>
    <path d="m176.64 226.21h-11.869" clip-path="url(#p183f348286)"/>
    <path d="m164.77 226.21v-11.869" clip-path="url(#p183f348286)"/>
    <path d="m164.77 214.34h-11.869" clip-path="url(#p183f348286)"/>
    <path d="m152.9 214.34v-11.869" clip-path="url(#p183f348286)"/>
    <path d="m152.9 202.47h-11.869" clip-path="url(#p183f348286)"/>
    <path d="m141.03 202.47v-11.869" clip-path="url(#p183f348286)"/>
    <path d="m141.03 190.6h11.869" clip-path="url(#p183f348286)"/>
    <path d="m152.9 190.6v-11.869" clip-path="url(#p183f348286)"/>
    <path d="m152.9 178.73h11.869" clip-path="url(#p183f348286)"/>
    <path d="m164.77 178.73v-11.869" clip-path="url(#p183f348286)"/>
    <path d="m164.77 166.87h11.869" clip-path="url(#p183f348286)"/>
    <path d="m176.64 166.87v11.869" clip-path="url(#p183f348286)"/>
    <path d="m176.64 178.73h11.869" clip-path="url(#p183f348286)"/>
    <path d="m188.51 178.73v-11.869" clip-path="url(#p183f348286)"/>
    <path d="m188.51 166.87h-11.869" clip-path="url(#p183f348286)"/>
    <path d="m176.64 166.87v-11.869" clip-path="url(#p183f348286)"/>
    <path d="m176.64 155h11.869" clip-path="url(#p183f348286)"/>
    <path d="m188.51 155v-11.869" clip-path="url(#p183f348286)"/>
    <path d="m188.51 143.13h11.869" clip-path="url(#p183f348286)"/>
    <path d="m200.38 143.13v-11.869" clip-path="url(#p183f348286)"/>
    <path d="m200.38 131.26h11.869" clip-path="url(#p183f348286)"/>
    <path d="m212.25 131.26v11.869" clip-path="url(#p183f348286)"/>
    <path d="m212.25 143.13h11.869" clip-path="url(#p183f348286)"/>
    <path d="m224.12 143.13v-11.869" clip-path="url(#p183f348286)"/>
    <path d="m224.12 131.26h-11.869" clip-path="url(#p183f348286)"/>
    <path d="m212.25 131.26v-11.869" clip-path="url(#p183f348286)"/>
    <path d="m212.25 119.39h11.869" clip-path="url(#p183f348286)"/>
    <path d="m224.12 119.39v-11.869" clip-path="url(#p183f348286)"/>
    <path d="m224.12 107.52h11.869" clip-path="url(#p183f348286)"/>
    <path d="m235.99 107.52v-11.869" clip-path="url(#p183f348286)"/>
    <path d="m235.99 95.651h11.869" clip-path="url(#p183f348286)"/>
    <path d="m247.85 95.651v11.869" clip-path="url(#p183f348286)"/>
    <path d="m247.85 107.52h11.869" clip-path="url(#p183f348286)"/>
    <path d="m259.72 107.52v11.869" clip-path="url(#p183f348286)"/>
    <path d="m259.72 119.39h11.869" clip-path="url(#p183f348286)"/>
    <path d="m271.59 119.39v11.869" clip-path="url(#p183f348286)"/>
    <path d="m271.59 131.26h-11.869" clip-path="url(#p183f348286)"/>
    <path d="m259.72 131.26v11.869" clip-path="url(#p183f348286)"/>
    <path d="m259.72 143.13h11.869" clip-path="url(#p183f348286)"/>
    <path d="m271.59 143.13v-11.869" clip-path="url(#p183f348286)"/>
    <path d="m271.59 131.26h11.869" clip-path="url(#p183f348286)"/>
    <path d="m283.46 131.26v11.869" clip-path="url(#p183f348286)"/>
    <path d="m283.46 143.13h11.869" clip-path="url(#p183f348286)"/>
    <path d="m295.33 143.13v11.869" clip-path="url(#p183f348286)"/>
    <path d="m295.33 155h11.869" clip-path="url(#p183f348286)"/>
    <path d="m307.2 155v11.869" clip-path="url(#p183f348286)"/>
    <path d="m307.2 166.87h-11.869" clip-path="url(#p183f348286)"/>
    <path d="m295.33 166.87v11.869" clip-path="url(#p183f348286)"/>
    <path d="m295.33 178.73h11.869" clip-path="url(#p183f348286)"/>
    <path d="m307.2 178.73v-11.869" clip-path="url(#p183f348286)"/>
    <path d="m307.2 166.87h11.869" clip-path="url(#p183f348286)"/>
    <path d="m319.07 166.87v11.869" clip-path="url(#p183f348286)"/>
    <path d="m319.07 178.73h11.869" clip-path="url(#p183f348286)"/>
    <path d="m330.94 178.73v11.869" clip-path="url(#p183f348286)"/>
    <path d="m330.94 190.6h11.869" clip-path="url(#p183f348286)"/>
    <path d="m342.81 190.6v11.869" clip-path="url(#p183f348286)"/>
    <path d="m342.81 202.47h-11.869" clip-path="url(#p183f348286)"/>
    <path d="m330.94 202.47v11.869" clip-path="url(#p183f348286)"/>
    <path d="m330.94 214.34h-11.869" clip-path="url(#p183f348286)"/>
    <path d="m319.07 214.34v11.869" clip-path="url(#p183f348286)"/>
    <path d="m319.07 226.21h-11.869" clip-path="url(#p183f348286)"/>
    <path d="m307.2 226.21v-11.869" clip-path="url(#p183f348286)"/>
    <path d="m307.2 214.34h-11.869" clip-path="url(#p183f348286)"/>
    <path d="m295.33 214.34v11.869" clip-path="url(#p183f348286)"/>
    <path d="m295.33 226.21h11.869" clip-path="url(#p183f348286)"/>
    <path d="m307.2 226.21v11.869" clip-path="url(#p183f348286)"/>
    <path d="m307.2 238.08h-11.869" clip-path="url(#p183f348286)"/>
    <path d="m295.33 238.08v11.869" clip-path="url(#p183f348286)"/>
    <path d="m295.33 249.95h11.869" clip-path="url(#p183f348286)"/>
    <path d="m307.2 249.95v-11.869" clip-path="url(#p183f348286)"/>
    <path d="m307.2 238.08h11.869" clip-path="url(#p183f348286)"/>
    <path d="m319.07 238.08v11.869" clip-path="url(#p183f348286)"/>
    <path d="m319.07 249.95h11.869" clip-path="url(#p183f348286)"/>
    <path d="m330.94 249.95v-11.869" clip-path="url(#p183f348286)"/>
    <path d="m330.94 238.08h-11.869" clip-path="url(#p183f348286)"/>
    <path d="m319.07 238.08v-11.869" clip-path="url(#p183f348286)"/>
    <path d="m319.07 226.21h11.869" clip-path="url(#p183f348286)"/>
    <path d="m330.94 226.21v-11.869" clip-path="url(#p183f348286)"/>
    <path d="m330.94 214.34h11.869" clip-path="url(#p183f348286)"/>
    <path d="m342.81 214.34v-11.869" clip-path="url(#p183f348286)"/>
    <path d="m342.81 202.47h11.869" clip-path="url(#p183f348286)"/>
    <path d="m354.68 202.47v11.869" clip-path="url(#p183f348286)"/>
    <path d="m354.68 214.34h11.869" clip-path="url(#p183f348286)"/>
    <path d="m366.55 214.34v11.869" clip-path="url(#p183f348286)"/>
    <path d="m366.55 226.21h11.869" clip-path="url(#p183f348286)"/>
    <path d="m378.41 226.21v11.869" clip-path="url(#p183f348286)"/>
    <path d="m378.41 238.08h-11.869" clip-path="url(#p183f348286)"/>
    <path d="m366.55 238.08v11.869" clip-path="url(#p183f348286)"/>
    <path d="m366.55 249.95h11.869" clip-path="url(#p183f348286)"/>
    <path d="m378.41 249.95v-11.869" clip-path="url(#p183f348286)"/>
    <path d="m378.41 238.08h11.869" clip-path="url(#p183f348286)"/>
    <path d="m390.28 238.08v11.869" clip-path="url(#p183f348286)"/>
    <path d="m390.28 249.95h11.869" clip-path="url(#p183f348286)"/>
   </g>
   <g id="patch_3">
    <path d="m46.08 285.56v-225.51" fill="none" stroke="#000" stroke-linecap="square" stroke-width=".8"/>
   </g>
   <g id="patch_4">
    <path d="m437.76 285.56v-225.51" fill="none" stroke="#000" stroke-linecap="square" stroke-width=".8"/>
   </g>
   <g id="patch_5">
    <path d="m46.08 285.56h391.68" fill="none" stroke="#000" stroke-linecap="square" stroke-width=".8"/>
   </g>
   <g id="patch_6">
    <path d="m46.08 60.044h391.68" fill="none" stroke="#000" stroke-linecap="square" stroke-width=".8"/>
   </g>
  </g>
  <g id="text_16">
   <text transform="rotate(-0 230.4 19.07)" x="230.4" y="19.0695" font="16px 'DejaVu Sans', 'Bitstream Vera Sans', 'Computer Modern Sans Serif', 'Lucida Grande', 'Verdana', 'Geneva', 'Lucid', 'Arial', 'Helvetica', 'Avant Garde', sans-serif" text-anchor="middle">n = 3</text>
  </g>
 </g>
 <defs>
  <clipPath id="p183f348286">
   <rect x="46.08" y="60.044" width="391.68" height="225.51"/>
  </clipPath>
 </defs>
</svg>
