<?xml version="1.0" encoding="UTF-8"?>
<!DOCTYPE svg  PUBLIC '-//W3C//DTD SVG 1.1//EN'  'http://www.w3.org/Graphics/SVG/1.1/DTD/svg11.dtd'>
<svg width="460.8pt" height="345.6pt" version="1.1" viewBox="0 0 460.8 345.6" xmlns="http://www.w3.org/2000/svg" xmlns:xlink="http://www.w3.org/1999/xlink">
 <metadata>
  <rdf:RDF xmlns:cc="http://creativecommons.org/ns#" xmlns:dc="http://purl.org/dc/elements/1.1/" xmlns:rdf="http://www.w3.org/1999/02/22-rdf-syntax-ns#">
   <cc:Work>
    <dc:type rdf:resource="http://purl.org/dc/dcmitype/StillImage"/>
    <dc:date>2023-03-19T15:29:41.748780</dc:date>
    <dc:format>image/svg+xml</dc:format>
    <dc:creator>
     <cc:Agent>
      <dc:title>Matplotlib v3.7.1, https://matplotlib.org/</dc:title>
     </cc:Agent>
    </dc:creator>
   </cc:Work>
  </rdf:RDF>
 </metadata>
 <defs>
  <style type="text/css">*{stroke-linejoin: round; stroke-linecap: butt}</style>
 </defs>
 <g id="figure_1">
  <g id="patch_1">
   <path d="m0 345.6h460.8v-345.6h-460.8z" fill="#fff"/>
  </g>
  <g id="axes_1">
   <g id="patch_2">
    <path d="m119.21 311.04h245.42v-276.48h-245.42z" fill="#fff"/>
   </g>
   <g id="matplotlib.axis_1">
    <g id="xtick_1">
     <g id="line2d_1">
      <defs>
       <path id="m31b0a0263a" d="m0 0v3.5" stroke="#000" stroke-width=".8"/>
      </defs>
      <use x="141.522212" y="311.04" stroke="#000000" stroke-width=".8" xlink:href="#m31b0a0263a"/>
     </g>
     <g id="text_1">
      <text transform="rotate(-0 141.52 325.64)" x="141.522212" y="325.638438" font="10px 'DejaVu Sans', 'Bitstream Vera Sans', 'Computer Modern Sans Serif', 'Lucida Grande', 'Verdana', 'Geneva', 'Lucid', 'Arial', 'Helvetica', 'Avant Garde', sans-serif" text-anchor="middle">0</text>
     </g>
    </g>
    <g id="xtick_2">
     <g id="line2d_2">
      <use x="178.706578" y="311.04" stroke="#000000" stroke-width=".8" xlink:href="#m31b0a0263a"/>
     </g>
     <g id="text_2">
      <text transform="rotate(-0 178.71 325.64)" x="178.706578" y="325.638438" font="10px 'DejaVu Sans', 'Bitstream Vera Sans', 'Computer Modern Sans Serif', 'Lucida Grande', 'Verdana', 'Geneva', 'Lucid', 'Arial', 'Helvetica', 'Avant Garde', sans-serif" text-anchor="middle">5</text>
     </g>
    </g>
    <g id="xtick_3">
     <g id="line2d_3">
      <use x="215.890944" y="311.04" stroke="#000000" stroke-width=".8" xlink:href="#m31b0a0263a"/>
     </g>
     <g id="text_3">
      <text transform="rotate(-0 215.89 325.64)" x="215.890944" y="325.638438" font="10px 'DejaVu Sans', 'Bitstream Vera Sans', 'Computer Modern Sans Serif', 'Lucida Grande', 'Verdana', 'Geneva', 'Lucid', 'Arial', 'Helvetica', 'Avant Garde', sans-serif" text-anchor="middle">10</text>
     </g>
    </g>
    <g id="xtick_4">
     <g id="line2d_4">
      <use x="253.07531" y="311.04" stroke="#000000" stroke-width=".8" xlink:href="#m31b0a0263a"/>
     </g>
     <g id="text_4">
      <text transform="rotate(-0 253.08 325.64)" x="253.07531" y="325.638438" font="10px 'DejaVu Sans', 'Bitstream Vera Sans', 'Computer Modern Sans Serif', 'Lucida Grande', 'Verdana', 'Geneva', 'Lucid', 'Arial', 'Helvetica', 'Avant Garde', sans-serif" text-anchor="middle">15</text>
     </g>
    </g>
    <g id="xtick_5">
     <g id="line2d_5">
      <use x="290.259676" y="311.04" stroke="#000000" stroke-width=".8" xlink:href="#m31b0a0263a"/>
     </g>
     <g id="text_5">
      <text transform="rotate(-0 290.26 325.64)" x="290.259676" y="325.638438" font="10px 'DejaVu Sans', 'Bitstream Vera Sans', 'Computer Modern Sans Serif', 'Lucida Grande', 'Verdana', 'Geneva', 'Lucid', 'Arial', 'Helvetica', 'Avant Garde', sans-serif" text-anchor="middle">20</text>
     </g>
    </g>
    <g id="xtick_6">
     <g id="line2d_6">
      <use x="327.444042" y="311.04" stroke="#000000" stroke-width=".8" xlink:href="#m31b0a0263a"/>
     </g>
     <g id="text_6">
      <text transform="rotate(-0 327.44 325.64)" x="327.444042" y="325.638438" font="10px 'DejaVu Sans', 'Bitstream Vera Sans', 'Computer Modern Sans Serif', 'Lucida Grande', 'Verdana', 'Geneva', 'Lucid', 'Arial', 'Helvetica', 'Avant Garde', sans-serif" text-anchor="middle">25</text>
     </g>
    </g>
    <g id="xtick_7">
     <g id="line2d_7">
      <use x="364.628408" y="311.04" stroke="#000000" stroke-width=".8" xlink:href="#m31b0a0263a"/>
     </g>
     <g id="text_7">
      <text transform="rotate(-0 364.63 325.64)" x="364.628408" y="325.638438" font="10px 'DejaVu Sans', 'Bitstream Vera Sans', 'Computer Modern Sans Serif', 'Lucida Grande', 'Verdana', 'Geneva', 'Lucid', 'Arial', 'Helvetica', 'Avant Garde', sans-serif" text-anchor="middle">30</text>
     </g>
    </g>
   </g>
   <g id="matplotlib.axis_2">
    <g id="ytick_1">
     <g id="line2d_8">
      <defs>
       <path id="m5b746dc9cc" d="m0 0h-3.5" stroke="#000" stroke-width=".8"/>
      </defs>
      <use x="119.211592" y="305.133422" stroke="#000000" stroke-width=".8" xlink:href="#m5b746dc9cc"/>
     </g>
     <g id="text_8">
      <text transform="rotate(-0 112.21 308.93)" x="112.211592" y="308.932641" font="10px 'DejaVu Sans', 'Bitstream Vera Sans', 'Computer Modern Sans Serif', 'Lucida Grande', 'Verdana', 'Geneva', 'Lucid', 'Arial', 'Helvetica', 'Avant Garde', sans-serif" text-anchor="end">−10</text>
     </g>
    </g>
    <g id="ytick_2">
     <g id="line2d_9">
      <use x="119.211592" y="267.949056" stroke="#000000" stroke-width=".8" xlink:href="#m5b746dc9cc"/>
     </g>
     <g id="text_9">
      <text transform="rotate(-0 112.21 271.75)" x="112.211592" y="271.748275" font="10px 'DejaVu Sans', 'Bitstream Vera Sans', 'Computer Modern Sans Serif', 'Lucida Grande', 'Verdana', 'Geneva', 'Lucid', 'Arial', 'Helvetica', 'Avant Garde', sans-serif" text-anchor="end">−5</text>
     </g>
    </g>
    <g id="ytick_3">
     <g id="line2d_10">
      <use x="119.211592" y="230.76469" stroke="#000000" stroke-width=".8" xlink:href="#m5b746dc9cc"/>
     </g>
     <g id="text_10">
      <text transform="rotate(-0 112.21 234.56)" x="112.211592" y="234.563909" font="10px 'DejaVu Sans', 'Bitstream Vera Sans', 'Computer Modern Sans Serif', 'Lucida Grande', 'Verdana', 'Geneva', 'Lucid', 'Arial', 'Helvetica', 'Avant Garde', sans-serif" text-anchor="end">0</text>
     </g>
    </g>
    <g id="ytick_4">
     <g id="line2d_11">
      <use x="119.211592" y="193.580324" stroke="#000000" stroke-width=".8" xlink:href="#m5b746dc9cc"/>
     </g>
     <g id="text_11">
      <text transform="rotate(-0 112.21 197.38)" x="112.211592" y="197.379543" font="10px 'DejaVu Sans', 'Bitstream Vera Sans', 'Computer Modern Sans Serif', 'Lucida Grande', 'Verdana', 'Geneva', 'Lucid', 'Arial', 'Helvetica', 'Avant Garde', sans-serif" text-anchor="end">5</text>
     </g>
    </g>
    <g id="ytick_5">
     <g id="line2d_12">
      <use x="119.211592" y="156.395958" stroke="#000000" stroke-width=".8" xlink:href="#m5b746dc9cc"/>
     </g>
     <g id="text_12">
      <text transform="rotate(-0 112.21 160.2)" x="112.211592" y="160.195177" font="10px 'DejaVu Sans', 'Bitstream Vera Sans', 'Computer Modern Sans Serif', 'Lucida Grande', 'Verdana', 'Geneva', 'Lucid', 'Arial', 'Helvetica', 'Avant Garde', sans-serif" text-anchor="end">10</text>
     </g>
    </g>
    <g id="ytick_6">
     <g id="line2d_13">
      <use x="119.211592" y="119.211592" stroke="#000000" stroke-width=".8" xlink:href="#m5b746dc9cc"/>
     </g>
     <g id="text_13">
      <text transform="rotate(-0 112.21 123.01)" x="112.211592" y="123.010811" font="10px 'DejaVu Sans', 'Bitstream Vera Sans', 'Computer Modern Sans Serif', 'Lucida Grande', 'Verdana', 'Geneva', 'Lucid', 'Arial', 'Helvetica', 'Avant Garde', sans-serif" text-anchor="end">15</text>
     </g>
    </g>
    <g id="ytick_7">
     <g id="line2d_14">
      <use x="119.211592" y="82.027226" stroke="#000000" stroke-width=".8" xlink:href="#m5b746dc9cc"/>
     </g>
     <g id="text_14">
      <text transform="rotate(-0 112.21 85.826)" x="112.211592" y="85.826445" font="10px 'DejaVu Sans', 'Bitstream Vera Sans', 'Computer Modern Sans Serif', 'Lucida Grande', 'Verdana', 'Geneva', 'Lucid', 'Arial', 'Helvetica', 'Avant Garde', sans-serif" text-anchor="end">20</text>
     </g>
    </g>
    <g id="ytick_8">
     <g id="line2d_15">
      <use x="119.211592" y="44.84286" stroke="#000000" stroke-width=".8" xlink:href="#m5b746dc9cc"/>
     </g>
     <g id="text_15">
      <text transform="rotate(-0 112.21 48.642)" x="112.211592" y="48.642079" font="10px 'DejaVu Sans', 'Bitstream Vera Sans', 'Computer Modern Sans Serif', 'Lucida Grande', 'Verdana', 'Geneva', 'Lucid', 'Arial', 'Helvetica', 'Avant Garde', sans-serif" text-anchor="end">25</text>
     </g>
    </g>
   </g>
   <g id="LineCollection_1" fill="none" stroke="#1e90ff" stroke-width="2">
    <path d="m141.52 230.76 3.7184-6.4405" clip-path="url(#pb4fb33adc2)"/>
    <path d="m145.24 224.32-3.7184-6.4405" clip-path="url(#pb4fb33adc2)"/>
    <path d="m141.52 217.88h7.4369" clip-path="url(#pb4fb33adc2)"/>
    <path d="m148.96 217.88 3.7184-6.4405" clip-path="url(#pb4fb33adc2)"/>
    <path d="m152.68 211.44-3.7184-6.4405" clip-path="url(#pb4fb33adc2)"/>
    <path d="m148.96 205h-7.4369" clip-path="url(#pb4fb33adc2)"/>
    <path d="m141.52 205 3.7184-6.4405" clip-path="url(#pb4fb33adc2)"/>
    <path d="m145.24 198.56-3.7184-6.4405" clip-path="url(#pb4fb33adc2)"/>
    <path d="m141.52 192.12h7.4369" clip-path="url(#pb4fb33adc2)"/>
    <path d="m148.96 192.12 3.7184-6.4405" clip-path="url(#pb4fb33adc2)"/>
    <path d="m152.68 185.68 3.7184 6.4405" clip-path="url(#pb4fb33adc2)"/>
    <path d="m156.4 192.12h7.4369" clip-path="url(#pb4fb33adc2)"/>
    <path d="m163.83 192.12 3.7184-6.4405" clip-path="url(#pb4fb33adc2)"/>
    <path d="m167.55 185.68-3.7184-6.4405" clip-path="url(#pb4fb33adc2)"/>
    <path d="m163.83 179.24h7.4369" clip-path="url(#pb4fb33adc2)"/>
    <path d="m171.27 179.24 3.7184-6.4405" clip-path="url(#pb4fb33adc2)"/>
    <path d="m174.99 172.8-3.7184-6.4405" clip-path="url(#pb4fb33adc2)"/>
    <path d="m171.27 166.36h-7.4369" clip-path="url(#pb4fb33adc2)"/>
    <path d="m163.83 166.36 3.7184-6.4405" clip-path="url(#pb4fb33adc2)"/>
    <path d="m167.55 159.92-3.7184-6.4405" clip-path="url(#pb4fb33adc2)"/>
    <path d="m163.83 153.48h-7.4369" clip-path="url(#pb4fb33adc2)"/>
    <path d="m156.4 153.48-3.7184 6.4405" clip-path="url(#pb4fb33adc2)"/>
    <path d="m152.68 159.92-3.7184-6.4405" clip-path="url(#pb4fb33adc2)"/>
    <path d="m148.96 153.48h-7.4369" clip-path="url(#pb4fb33adc2)"/>
    <path d="m141.52 153.48 3.7184-6.4405" clip-path="url(#pb4fb33adc2)"/>
    <path d="m145.24 147.04-3.7184-6.4405" clip-path="url(#pb4fb33adc2)"/>
    <path d="m141.52 140.6h7.4369" clip-path="url(#pb4fb33adc2)"/>
    <path d="m148.96 140.6 3.7184-6.4405" clip-path="url(#pb4fb33adc2)"/>
    <path d="m152.68 134.16-3.7184-6.4405" clip-path="url(#pb4fb33adc2)"/>
    <path d="m148.96 127.72h-7.4369" clip-path="url(#pb4fb33adc2)"/>
    <path d="m141.52 127.72 3.7184-6.4405" clip-path="url(#pb4fb33adc2)"/>
    <path d="m145.24 121.28-3.7184-6.4405" clip-path="url(#pb4fb33adc2)"/>
    <path d="m141.52 114.84h7.4369" clip-path="url(#pb4fb33adc2)"/>
    <path d="m148.96 114.84 3.7184-6.4405" clip-path="url(#pb4fb33adc2)"/>
    <path d="m152.68 108.39 3.7184 6.4405" clip-path="url(#pb4fb33adc2)"/>
    <path d="m156.4 114.84h7.4369" clip-path="url(#pb4fb33adc2)"/>
    <path d="m163.83 114.84 3.7184-6.4405" clip-path="url(#pb4fb33adc2)"/>
    <path d="m167.55 108.39-3.7184-6.4405" clip-path="url(#pb4fb33adc2)"/>
    <path d="m163.83 101.95h7.4369" clip-path="url(#pb4fb33adc2)"/>
    <path d="m171.27 101.95 3.7184-6.4405" clip-path="url(#pb4fb33adc2)"/>
    <path d="m174.99 95.514 3.7184 6.4405" clip-path="url(#pb4fb33adc2)"/>
    <path d="m178.71 101.95h7.4369" clip-path="url(#pb4fb33adc2)"/>
    <path d="m186.14 101.95-3.7184 6.4405" clip-path="url(#pb4fb33adc2)"/>
    <path d="m182.43 108.39 3.7184 6.4405" clip-path="url(#pb4fb33adc2)"/>
    <path d="m186.14 114.84h7.4369" clip-path="url(#pb4fb33adc2)"/>
    <path d="m193.58 114.84 3.7184-6.4405" clip-path="url(#pb4fb33adc2)"/>
    <path d="m197.3 108.39 3.7184 6.4405" clip-path="url(#pb4fb33adc2)"/>
    <path d="m201.02 114.84h7.4369" clip-path="url(#pb4fb33adc2)"/>
    <path d="m208.45 114.84 3.7184-6.4405" clip-path="url(#pb4fb33adc2)"/>
    <path d="m212.17 108.39-3.7184-6.4405" clip-path="url(#pb4fb33adc2)"/>
    <path d="m208.45 101.95h7.4369" clip-path="url(#pb4fb33adc2)"/>
    <path d="m215.89 101.95 3.7184-6.4405" clip-path="url(#pb4fb33adc2)"/>
    <path d="m219.61 95.514-3.7184-6.4405" clip-path="url(#pb4fb33adc2)"/>
    <path d="m215.89 89.073h-7.4369" clip-path="url(#pb4fb33adc2)"/>
    <path d="m208.45 89.073 3.7184-6.4405" clip-path="url(#pb4fb33adc2)"/>
    <path d="m212.17 82.633-3.7184-6.4405" clip-path="url(#pb4fb33adc2)"/>
    <path d="m208.45 76.192h7.4369" clip-path="url(#pb4fb33adc2)"/>
    <path d="m215.89 76.192 3.7184-6.4405" clip-path="url(#pb4fb33adc2)"/>
    <path d="m219.61 69.752 3.7184 6.4405" clip-path="url(#pb4fb33adc2)"/>
    <path d="m223.33 76.192h7.4369" clip-path="url(#pb4fb33adc2)"/>
    <path d="m230.76 76.192 3.7184-6.4405" clip-path="url(#pb4fb33adc2)"/>
    <path d="m234.48 69.752-3.7184-6.4405" clip-path="url(#pb4fb33adc2)"/>
    <path d="m230.76 63.311h7.4369" clip-path="url(#pb4fb33adc2)"/>
    <path d="m238.2 63.311 3.7184-6.4405" clip-path="url(#pb4fb33adc2)"/>
    <path d="m241.92 56.871 3.7184 6.4405" clip-path="url(#pb4fb33adc2)"/>
    <path d="m245.64 63.311h7.4369" clip-path="url(#pb4fb33adc2)"/>
    <path d="m253.08 63.311-3.7184 6.4405" clip-path="url(#pb4fb33adc2)"/>
    <path d="m249.36 69.752 3.7184 6.4405" clip-path="url(#pb4fb33adc2)"/>
    <path d="m253.08 76.192h7.4369" clip-path="url(#pb4fb33adc2)"/>
    <path d="m260.51 76.192 3.7184-6.4405" clip-path="url(#pb4fb33adc2)"/>
    <path d="m264.23 69.752 3.7184 6.4405" clip-path="url(#pb4fb33adc2)"/>
    <path d="m267.95 76.192h7.4369" clip-path="url(#pb4fb33adc2)"/>
    <path d="m275.39 76.192-3.7184 6.4405" clip-path="url(#pb4fb33adc2)"/>
    <path d="m271.67 82.633 3.7184 6.4405" clip-path="url(#pb4fb33adc2)"/>
    <path d="m275.39 89.073h-7.4369" clip-path="url(#pb4fb33adc2)"/>
    <path d="m267.95 89.073-3.7184 6.4405" clip-path="url(#pb4fb33adc2)"/>
    <path d="m264.23 95.514 3.7184 6.4405" clip-path="url(#pb4fb33adc2)"/>
    <path d="m267.95 101.95h7.4369" clip-path="url(#pb4fb33adc2)"/>
    <path d="m275.39 101.95-3.7184 6.4405" clip-path="url(#pb4fb33adc2)"/>
    <path d="m271.67 108.39 3.7184 6.4405" clip-path="url(#pb4fb33adc2)"/>
    <path d="m275.39 114.84h7.4369" clip-path="url(#pb4fb33adc2)"/>
    <path d="m282.82 114.84 3.7184-6.4405" clip-path="url(#pb4fb33adc2)"/>
    <path d="m286.54 108.39 3.7184 6.4405" clip-path="url(#pb4fb33adc2)"/>
    <path d="m290.26 114.84h7.4369" clip-path="url(#pb4fb33adc2)"/>
    <path d="m297.7 114.84 3.7184-6.4405" clip-path="url(#pb4fb33adc2)"/>
    <path d="m301.41 108.39-3.7184-6.4405" clip-path="url(#pb4fb33adc2)"/>
    <path d="m297.7 101.95h7.4369" clip-path="url(#pb4fb33adc2)"/>
    <path d="m305.13 101.95 3.7184-6.4405" clip-path="url(#pb4fb33adc2)"/>
    <path d="m308.85 95.514 3.7184 6.4405" clip-path="url(#pb4fb33adc2)"/>
    <path d="m312.57 101.95h7.4369" clip-path="url(#pb4fb33adc2)"/>
    <path d="m320.01 101.95-3.7184 6.4405" clip-path="url(#pb4fb33adc2)"/>
    <path d="m316.29 108.39 3.7184 6.4405" clip-path="url(#pb4fb33adc2)"/>
    <path d="m320.01 114.84h7.4369" clip-path="url(#pb4fb33adc2)"/>
    <path d="m327.44 114.84 3.7184-6.4405" clip-path="url(#pb4fb33adc2)"/>
    <path d="m331.16 108.39 3.7184 6.4405" clip-path="url(#pb4fb33adc2)"/>
    <path d="m334.88 114.84h7.4369" clip-path="url(#pb4fb33adc2)"/>
    <path d="m342.32 114.84-3.7184 6.4405" clip-path="url(#pb4fb33adc2)"/>
    <path d="m338.6 121.28 3.7184 6.4405" clip-path="url(#pb4fb33adc2)"/>
    <path d="m342.32 127.72h-7.4369" clip-path="url(#pb4fb33adc2)"/>
    <path d="m334.88 127.72-3.7184 6.4405" clip-path="url(#pb4fb33adc2)"/>
    <path d="m331.16 134.16 3.7184 6.4405" clip-path="url(#pb4fb33adc2)"/>
    <path d="m334.88 140.6h7.4369" clip-path="url(#pb4fb33adc2)"/>
    <path d="m342.32 140.6-3.7184 6.4405" clip-path="url(#pb4fb33adc2)"/>
    <path d="m338.6 147.04 3.7184 6.4405" clip-path="url(#pb4fb33adc2)"/>
    <path d="m342.32 153.48h-7.4369" clip-path="url(#pb4fb33adc2)"/>
    <path d="m334.88 153.48-3.7184 6.4405" clip-path="url(#pb4fb33adc2)"/>
    <path d="m331.16 159.92-3.7184-6.4405" clip-path="url(#pb4fb33adc2)"/>
    <path d="m327.44 153.48h-7.4369" clip-path="url(#pb4fb33adc2)"/>
    <path d="m320.01 153.48-3.7184 6.4405" clip-path="url(#pb4fb33adc2)"/>
    <path d="m316.29 159.92 3.7184 6.4405" clip-path="url(#pb4fb33adc2)"/>
    <path d="m320.01 166.36h-7.4369" clip-path="url(#pb4fb33adc2)"/>
    <path d="m312.57 166.36-3.7184 6.4405" clip-path="url(#pb4fb33adc2)"/>
    <path d="m308.85 172.8 3.7184 6.4405" clip-path="url(#pb4fb33adc2)"/>
    <path d="m312.57 179.24h7.4369" clip-path="url(#pb4fb33adc2)"/>
    <path d="m320.01 179.24-3.7184 6.4405" clip-path="url(#pb4fb33adc2)"/>
    <path d="m316.29 185.68 3.7184 6.4405" clip-path="url(#pb4fb33adc2)"/>
    <path d="m320.01 192.12h7.4369" clip-path="url(#pb4fb33adc2)"/>
    <path d="m327.44 192.12 3.7184-6.4405" clip-path="url(#pb4fb33adc2)"/>
    <path d="m331.16 185.68 3.7184 6.4405" clip-path="url(#pb4fb33adc2)"/>
    <path d="m334.88 192.12h7.4369" clip-path="url(#pb4fb33adc2)"/>
    <path d="m342.32 192.12-3.7184 6.4405" clip-path="url(#pb4fb33adc2)"/>
    <path d="m338.6 198.56 3.7184 6.4405" clip-path="url(#pb4fb33adc2)"/>
    <path d="m342.32 205h-7.4369" clip-path="url(#pb4fb33adc2)"/>
    <path d="m334.88 205-3.7184 6.4405" clip-path="url(#pb4fb33adc2)"/>
    <path d="m331.16 211.44 3.7184 6.4405" clip-path="url(#pb4fb33adc2)"/>
    <path d="m334.88 217.88h7.4369" clip-path="url(#pb4fb33adc2)"/>
    <path d="m342.32 217.88-3.7184 6.4405" clip-path="url(#pb4fb33adc2)"/>
    <path d="m338.6 224.32 3.7184 6.4405" clip-path="url(#pb4fb33adc2)"/>
    <path d="m342.32 230.76h-7.4369" clip-path="url(#pb4fb33adc2)"/>
    <path d="m334.88 230.76-3.7184 6.4405" clip-path="url(#pb4fb33adc2)"/>
    <path d="m331.16 237.21-3.7184-6.4405" clip-path="url(#pb4fb33adc2)"/>
    <path d="m327.44 230.76h-7.4369" clip-path="url(#pb4fb33adc2)"/>
    <path d="m320.01 230.76-3.7184 6.4405" clip-path="url(#pb4fb33adc2)"/>
    <path d="m316.29 237.21 3.7184 6.4405" clip-path="url(#pb4fb33adc2)"/>
    <path d="m320.01 243.65h-7.4369" clip-path="url(#pb4fb33adc2)"/>
    <path d="m312.57 243.65-3.7184 6.4405" clip-path="url(#pb4fb33adc2)"/>
    <path d="m308.85 250.09-3.7184-6.4405" clip-path="url(#pb4fb33adc2)"/>
    <path d="m305.13 243.65h-7.4369" clip-path="url(#pb4fb33adc2)"/>
    <path d="m297.7 243.65 3.7184-6.4405" clip-path="url(#pb4fb33adc2)"/>
    <path d="m301.41 237.21-3.7184-6.4405" clip-path="url(#pb4fb33adc2)"/>
    <path d="m297.7 230.76h-7.4369" clip-path="url(#pb4fb33adc2)"/>
    <path d="m290.26 230.76-3.7184 6.4405" clip-path="url(#pb4fb33adc2)"/>
    <path d="m286.54 237.21-3.7184-6.4405" clip-path="url(#pb4fb33adc2)"/>
    <path d="m282.82 230.76h-7.4369" clip-path="url(#pb4fb33adc2)"/>
    <path d="m275.39 230.76-3.7184 6.4405" clip-path="url(#pb4fb33adc2)"/>
    <path d="m271.67 237.21 3.7184 6.4405" clip-path="url(#pb4fb33adc2)"/>
    <path d="m275.39 243.65h-7.4369" clip-path="url(#pb4fb33adc2)"/>
    <path d="m267.95 243.65-3.7184 6.4405" clip-path="url(#pb4fb33adc2)"/>
    <path d="m264.23 250.09 3.7184 6.4405" clip-path="url(#pb4fb33adc2)"/>
    <path d="m267.95 256.53h7.4369" clip-path="url(#pb4fb33adc2)"/>
    <path d="m275.39 256.53-3.7184 6.4405" clip-path="url(#pb4fb33adc2)"/>
    <path d="m271.67 262.97 3.7184 6.4405" clip-path="url(#pb4fb33adc2)"/>
    <path d="m275.39 269.41h-7.4369" clip-path="url(#pb4fb33adc2)"/>
    <path d="m267.95 269.41-3.7184 6.4405" clip-path="url(#pb4fb33adc2)"/>
    <path d="m264.23 275.85-3.7184-6.4405" clip-path="url(#pb4fb33adc2)"/>
    <path d="m260.51 269.41h-7.4369" clip-path="url(#pb4fb33adc2)"/>
    <path d="m253.08 269.41-3.7184 6.4405" clip-path="url(#pb4fb33adc2)"/>
    <path d="m249.36 275.85 3.7184 6.4405" clip-path="url(#pb4fb33adc2)"/>
    <path d="m253.08 282.29h-7.4369" clip-path="url(#pb4fb33adc2)"/>
    <path d="m245.64 282.29-3.7184 6.4405" clip-path="url(#pb4fb33adc2)"/>
    <path d="m241.92 288.73-3.7184-6.4405" clip-path="url(#pb4fb33adc2)"/>
    <path d="m238.2 282.29h-7.4369" clip-path="url(#pb4fb33adc2)"/>
    <path d="m230.76 282.29 3.7184-6.4405" clip-path="url(#pb4fb33adc2)"/>
    <path d="m234.48 275.85-3.7184-6.4405" clip-path="url(#pb4fb33adc2)"/>
    <path d="m230.76 269.41h-7.4369" clip-path="url(#pb4fb33adc2)"/>
    <path d="m223.33 269.41-3.7184 6.4405" clip-path="url(#pb4fb33adc2)"/>
    <path d="m219.61 275.85-3.7184-6.4405" clip-path="url(#pb4fb33adc2)"/>
    <path d="m215.89 269.41h-7.4369" clip-path="url(#pb4fb33adc2)"/>
    <path d="m208.45 269.41 3.7184-6.4405" clip-path="url(#pb4fb33adc2)"/>
    <path d="m212.17 262.97-3.7184-6.4405" clip-path="url(#pb4fb33adc2)"/>
    <path d="m208.45 256.53h7.4369" clip-path="url(#pb4fb33adc2)"/>
    <path d="m215.89 256.53 3.7184-6.4405" clip-path="url(#pb4fb33adc2)"/>
    <path d="m219.61 250.09-3.7184-6.4405" clip-path="url(#pb4fb33adc2)"/>
    <path d="m215.89 243.65h-7.4369" clip-path="url(#pb4fb33adc2)"/>
    <path d="m208.45 243.65 3.7184-6.4405" clip-path="url(#pb4fb33adc2)"/>
    <path d="m212.17 237.21-3.7184-6.4405" clip-path="url(#pb4fb33adc2)"/>
    <path d="m208.45 230.76h-7.4369" clip-path="url(#pb4fb33adc2)"/>
    <path d="m201.02 230.76-3.7184 6.4405" clip-path="url(#pb4fb33adc2)"/>
    <path d="m197.3 237.21-3.7184-6.4405" clip-path="url(#pb4fb33adc2)"/>
    <path d="m193.58 230.76h-7.4369" clip-path="url(#pb4fb33adc2)"/>
    <path d="m186.14 230.76-3.7184 6.4405" clip-path="url(#pb4fb33adc2)"/>
    <path d="m182.43 237.21 3.7184 6.4405" clip-path="url(#pb4fb33adc2)"/>
    <path d="m186.14 243.65h-7.4369" clip-path="url(#pb4fb33adc2)"/>
    <path d="m178.71 243.65-3.7184 6.4405" clip-path="url(#pb4fb33adc2)"/>
    <path d="m174.99 250.09-3.7184-6.4405" clip-path="url(#pb4fb33adc2)"/>
    <path d="m171.27 243.65h-7.4369" clip-path="url(#pb4fb33adc2)"/>
    <path d="m163.83 243.65 3.7184-6.4405" clip-path="url(#pb4fb33adc2)"/>
    <path d="m167.55 237.21-3.7184-6.4405" clip-path="url(#pb4fb33adc2)"/>
    <path d="m163.83 230.76h-7.4369" clip-path="url(#pb4fb33adc2)"/>
    <path d="m156.4 230.76-3.7184 6.4405" clip-path="url(#pb4fb33adc2)"/>
    <path d="m152.68 237.21-3.7184-6.4405" clip-path="url(#pb4fb33adc2)"/>
    <path d="m148.96 230.76h-7.4369" clip-path="url(#pb4fb33adc2)"/>
   </g>
   <g id="patch_3">
    <path d="m119.21 311.04v-276.48" fill="none" stroke="#000" stroke-linecap="square" stroke-width=".8"/>
   </g>
   <g id="patch_4">
    <path d="m364.63 311.04v-276.48" fill="none" stroke="#000" stroke-linecap="square" stroke-width=".8"/>
   </g>
   <g id="patch_5">
    <path d="m119.21 311.04h245.42" fill="none" stroke="#000" stroke-linecap="square" stroke-width=".8"/>
   </g>
   <g id="patch_6">
    <path d="m119.21 34.56h245.42" fill="none" stroke="#000" stroke-linecap="square" stroke-width=".8"/>
   </g>
  </g>
  <g id="text_16">
   <text transform="rotate(-0 230.4 19.07)" x="230.4" y="19.0695" font="16px 'DejaVu Sans', 'Bitstream Vera Sans', 'Computer Modern Sans Serif', 'Lucida Grande', 'Verdana', 'Geneva', 'Lucid', 'Arial', 'Helvetica', 'Avant Garde', sans-serif" text-anchor="middle">n = 3</text>
  </g>
 </g>
 <defs>
  <clipPath id="pb4fb33adc2">
   <rect x="119.21" y="34.56" width="245.42" height="276.48"/>
  </clipPath>
 </defs>
</svg>
