<?xml version="1.0" encoding="UTF-8"?>
<!DOCTYPE svg  PUBLIC '-//W3C//DTD SVG 1.1//EN'  'http://www.w3.org/Graphics/SVG/1.1/DTD/svg11.dtd'>
<svg width="460.8pt" height="345.6pt" version="1.1" viewBox="0 0 460.8 345.6" xmlns="http://www.w3.org/2000/svg" xmlns:xlink="http://www.w3.org/1999/xlink">
 <metadata>
  <rdf:RDF xmlns:cc="http://creativecommons.org/ns#" xmlns:dc="http://purl.org/dc/elements/1.1/" xmlns:rdf="http://www.w3.org/1999/02/22-rdf-syntax-ns#">
   <cc:Work>
    <dc:type rdf:resource="http://purl.org/dc/dcmitype/StillImage"/>
    <dc:date>2023-03-19T15:29:43.217996</dc:date>
    <dc:format>image/svg+xml</dc:format>
    <dc:creator>
     <cc:Agent>
      <dc:title>Matplotlib v3.7.1, https://matplotlib.org/</dc:title>
     </cc:Agent>
    </dc:creator>
   </cc:Work>
  </rdf:RDF>
 </metadata>
 <defs>
  <style type="text/css">*{stroke-linejoin: round; stroke-linecap: butt}</style>
 </defs>
 <g id="figure_1">
  <g id="patch_1">
   <path d="m0 345.6h460.8v-345.6h-460.8z" fill="#fff"/>
  </g>
  <g id="axes_1">
   <g id="patch_2">
    <path d="m46.08 301.96h391.68v-258.31h-391.68z" fill="#fff"/>
   </g>
   <g id="matplotlib.axis_1">
    <g id="xtick_1">
     <g id="line2d_1">
      <defs>
       <path id="md5d1f12427" d="m0 0v3.5" stroke="#000" stroke-width=".8"/>
      </defs>
      <use x="74.423021" y="301.957142" stroke="#000000" stroke-width=".8" xlink:href="#md5d1f12427"/>
     </g>
     <g id="text_1">
      <text transform="rotate(-0 74.423 316.56)" x="74.423021" y="316.55558" font="10px 'DejaVu Sans', 'Bitstream Vera Sans', 'Computer Modern Sans Serif', 'Lucida Grande', 'Verdana', 'Geneva', 'Lucid', 'Arial', 'Helvetica', 'Avant Garde', sans-serif" text-anchor="middle">−10</text>
     </g>
    </g>
    <g id="xtick_2">
     <g id="line2d_2">
      <use x="153.009523" y="301.957142" stroke="#000000" stroke-width=".8" xlink:href="#md5d1f12427"/>
     </g>
     <g id="text_2">
      <text transform="rotate(-0 153.01 316.56)" x="153.009523" y="316.55558" font="10px 'DejaVu Sans', 'Bitstream Vera Sans', 'Computer Modern Sans Serif', 'Lucida Grande', 'Verdana', 'Geneva', 'Lucid', 'Arial', 'Helvetica', 'Avant Garde', sans-serif" text-anchor="middle">0</text>
     </g>
    </g>
    <g id="xtick_3">
     <g id="line2d_3">
      <use x="231.596024" y="301.957142" stroke="#000000" stroke-width=".8" xlink:href="#md5d1f12427"/>
     </g>
     <g id="text_3">
      <text transform="rotate(-0 231.6 316.56)" x="231.596024" y="316.55558" font="10px 'DejaVu Sans', 'Bitstream Vera Sans', 'Computer Modern Sans Serif', 'Lucida Grande', 'Verdana', 'Geneva', 'Lucid', 'Arial', 'Helvetica', 'Avant Garde', sans-serif" text-anchor="middle">10</text>
     </g>
    </g>
    <g id="xtick_4">
     <g id="line2d_4">
      <use x="310.182526" y="301.957142" stroke="#000000" stroke-width=".8" xlink:href="#md5d1f12427"/>
     </g>
     <g id="text_4">
      <text transform="rotate(-0 310.18 316.56)" x="310.182526" y="316.55558" font="10px 'DejaVu Sans', 'Bitstream Vera Sans', 'Computer Modern Sans Serif', 'Lucida Grande', 'Verdana', 'Geneva', 'Lucid', 'Arial', 'Helvetica', 'Avant Garde', sans-serif" text-anchor="middle">20</text>
     </g>
    </g>
    <g id="xtick_5">
     <g id="line2d_5">
      <use x="388.769028" y="301.957142" stroke="#000000" stroke-width=".8" xlink:href="#md5d1f12427"/>
     </g>
     <g id="text_5">
      <text transform="rotate(-0 388.77 316.56)" x="388.769028" y="316.55558" font="10px 'DejaVu Sans', 'Bitstream Vera Sans', 'Computer Modern Sans Serif', 'Lucida Grande', 'Verdana', 'Geneva', 'Lucid', 'Arial', 'Helvetica', 'Avant Garde', sans-serif" text-anchor="middle">30</text>
     </g>
    </g>
   </g>
   <g id="matplotlib.axis_2">
    <g id="ytick_1">
     <g id="line2d_6">
      <defs>
       <path id="m206b3cd307" d="m0 0h-3.5" stroke="#000" stroke-width=".8"/>
      </defs>
      <use x="46.08" y="278.776109" stroke="#000000" stroke-width=".8" xlink:href="#m206b3cd307"/>
     </g>
     <g id="text_6">
      <text transform="rotate(-0 39.08 282.58)" x="39.08" y="282.575327" font="10px 'DejaVu Sans', 'Bitstream Vera Sans', 'Computer Modern Sans Serif', 'Lucida Grande', 'Verdana', 'Geneva', 'Lucid', 'Arial', 'Helvetica', 'Avant Garde', sans-serif" text-anchor="end">−5</text>
     </g>
    </g>
    <g id="ytick_2">
     <g id="line2d_7">
      <use x="46.08" y="239.482858" stroke="#000000" stroke-width=".8" xlink:href="#m206b3cd307"/>
     </g>
     <g id="text_7">
      <text transform="rotate(-0 39.08 243.28)" x="39.08" y="243.282077" font="10px 'DejaVu Sans', 'Bitstream Vera Sans', 'Computer Modern Sans Serif', 'Lucida Grande', 'Verdana', 'Geneva', 'Lucid', 'Arial', 'Helvetica', 'Avant Garde', sans-serif" text-anchor="end">0</text>
     </g>
    </g>
    <g id="ytick_3">
     <g id="line2d_8">
      <use x="46.08" y="200.189607" stroke="#000000" stroke-width=".8" xlink:href="#m206b3cd307"/>
     </g>
     <g id="text_8">
      <text transform="rotate(-0 39.08 203.99)" x="39.08" y="203.988826" font="10px 'DejaVu Sans', 'Bitstream Vera Sans', 'Computer Modern Sans Serif', 'Lucida Grande', 'Verdana', 'Geneva', 'Lucid', 'Arial', 'Helvetica', 'Avant Garde', sans-serif" text-anchor="end">5</text>
     </g>
    </g>
    <g id="ytick_4">
     <g id="line2d_9">
      <use x="46.08" y="160.896356" stroke="#000000" stroke-width=".8" xlink:href="#m206b3cd307"/>
     </g>
     <g id="text_9">
      <text transform="rotate(-0 39.08 164.7)" x="39.08" y="164.695575" font="10px 'DejaVu Sans', 'Bitstream Vera Sans', 'Computer Modern Sans Serif', 'Lucida Grande', 'Verdana', 'Geneva', 'Lucid', 'Arial', 'Helvetica', 'Avant Garde', sans-serif" text-anchor="end">10</text>
     </g>
    </g>
    <g id="ytick_5">
     <g id="line2d_10">
      <use x="46.08" y="121.603105" stroke="#000000" stroke-width=".8" xlink:href="#m206b3cd307"/>
     </g>
     <g id="text_10">
      <text transform="rotate(-0 39.08 125.4)" x="39.08" y="125.402324" font="10px 'DejaVu Sans', 'Bitstream Vera Sans', 'Computer Modern Sans Serif', 'Lucida Grande', 'Verdana', 'Geneva', 'Lucid', 'Arial', 'Helvetica', 'Avant Garde', sans-serif" text-anchor="end">15</text>
     </g>
    </g>
    <g id="ytick_6">
     <g id="line2d_11">
      <use x="46.08" y="82.309855" stroke="#000000" stroke-width=".8" xlink:href="#m206b3cd307"/>
     </g>
     <g id="text_11">
      <text transform="rotate(-0 39.08 86.109)" x="39.08" y="86.109073" font="10px 'DejaVu Sans', 'Bitstream Vera Sans', 'Computer Modern Sans Serif', 'Lucida Grande', 'Verdana', 'Geneva', 'Lucid', 'Arial', 'Helvetica', 'Avant Garde', sans-serif" text-anchor="end">20</text>
     </g>
    </g>
   </g>
   <g id="LineCollection_1" fill="none" stroke="#32cd32">
    <path d="m153.01 239.48 5.5569-5.5569" clip-path="url(#p635f8de492)"/>
    <path d="m158.57 233.93 5.5569 5.5569" clip-path="url(#p635f8de492)"/>
    <path d="m164.12 239.48 5.5569 5.5569" clip-path="url(#p635f8de492)"/>
    <path d="m169.68 245.04-5.5569 5.5569" clip-path="url(#p635f8de492)"/>
    <path d="m164.12 250.6 5.5569 5.5569" clip-path="url(#p635f8de492)"/>
    <path d="m169.68 256.15-5.5569 5.5569" clip-path="url(#p635f8de492)"/>
    <path d="m164.12 261.71-5.5569 5.5569" clip-path="url(#p635f8de492)"/>
    <path d="m158.57 267.27-5.5569-5.5569" clip-path="url(#p635f8de492)"/>
    <path d="m153.01 261.71 5.5569 5.5569" clip-path="url(#p635f8de492)"/>
    <path d="m158.57 267.27-5.5569 5.5569" clip-path="url(#p635f8de492)"/>
    <path d="m153.01 272.82-5.5569 5.5569" clip-path="url(#p635f8de492)"/>
    <path d="m147.45 278.38-5.5569-5.5569" clip-path="url(#p635f8de492)"/>
    <path d="m141.9 272.82-5.5569 5.5569" clip-path="url(#p635f8de492)"/>
    <path d="m136.34 278.38-5.5569-5.5569" clip-path="url(#p635f8de492)"/>
    <path d="m130.78 272.82-5.5569-5.5569" clip-path="url(#p635f8de492)"/>
    <path d="m125.22 267.27 5.5569-5.5569" clip-path="url(#p635f8de492)"/>
    <path d="m130.78 261.71 5.5569 5.5569" clip-path="url(#p635f8de492)"/>
    <path d="m136.34 267.27-5.5569 5.5569" clip-path="url(#p635f8de492)"/>
    <path d="m130.78 272.82-5.5569 5.5569" clip-path="url(#p635f8de492)"/>
    <path d="m125.22 278.38-5.5569-5.5569" clip-path="url(#p635f8de492)"/>
    <path d="m119.67 272.82-5.5569 5.5569" clip-path="url(#p635f8de492)"/>
    <path d="m114.11 278.38-5.5569-5.5569" clip-path="url(#p635f8de492)"/>
    <path d="m108.55 272.82-5.5569-5.5569" clip-path="url(#p635f8de492)"/>
    <path d="m103 267.27 5.5569-5.5569" clip-path="url(#p635f8de492)"/>
    <path d="m108.55 261.71-5.5569 5.5569" clip-path="url(#p635f8de492)"/>
    <path d="m103 267.27-5.5569-5.5569" clip-path="url(#p635f8de492)"/>
    <path d="m97.44 261.71-5.5569-5.5569" clip-path="url(#p635f8de492)"/>
    <path d="m91.884 256.15 5.5569-5.5569" clip-path="url(#p635f8de492)"/>
    <path d="m97.44 250.6-5.5569-5.5569" clip-path="url(#p635f8de492)"/>
    <path d="m91.884 245.04 5.5569-5.5569" clip-path="url(#p635f8de492)"/>
    <path d="m97.44 239.48 5.5569-5.5569" clip-path="url(#p635f8de492)"/>
    <path d="m103 233.93 5.5569 5.5569" clip-path="url(#p635f8de492)"/>
    <path d="m108.55 239.48 5.5569 5.5569" clip-path="url(#p635f8de492)"/>
    <path d="m114.11 245.04-5.5569 5.5569" clip-path="url(#p635f8de492)"/>
    <path d="m108.55 250.6-5.5569 5.5569" clip-path="url(#p635f8de492)"/>
    <path d="m103 256.15-5.5569-5.5569" clip-path="url(#p635f8de492)"/>
    <path d="m97.44 250.6-5.5569 5.5569" clip-path="url(#p635f8de492)"/>
    <path d="m91.884 256.15-5.5569-5.5569" clip-path="url(#p635f8de492)"/>
    <path d="m86.327 250.6-5.5569-5.5569" clip-path="url(#p635f8de492)"/>
    <path d="m80.77 245.04 5.5569-5.5569" clip-path="url(#p635f8de492)"/>
    <path d="m86.327 239.48-5.5569 5.5569" clip-path="url(#p635f8de492)"/>
    <path d="m80.77 245.04-5.5569-5.5569" clip-path="url(#p635f8de492)"/>
    <path d="m75.213 239.48-5.5569-5.5569" clip-path="url(#p635f8de492)"/>
    <path d="m69.656 233.93 5.5569-5.5569" clip-path="url(#p635f8de492)"/>
    <path d="m75.213 228.37-5.5569-5.5569" clip-path="url(#p635f8de492)"/>
    <path d="m69.656 222.81 5.5569-5.5569" clip-path="url(#p635f8de492)"/>
    <path d="m75.213 217.26 5.5569-5.5569" clip-path="url(#p635f8de492)"/>
    <path d="m80.77 211.7 5.5569 5.5569" clip-path="url(#p635f8de492)"/>
    <path d="m86.327 217.26-5.5569 5.5569" clip-path="url(#p635f8de492)"/>
    <path d="m80.77 222.81-5.5569-5.5569" clip-path="url(#p635f8de492)"/>
    <path d="m75.213 217.26-5.5569-5.5569" clip-path="url(#p635f8de492)"/>
    <path d="m69.656 211.7 5.5569-5.5569" clip-path="url(#p635f8de492)"/>
    <path d="m75.213 206.14-5.5569-5.5569" clip-path="url(#p635f8de492)"/>
    <path d="m69.656 200.58 5.5569-5.5569" clip-path="url(#p635f8de492)"/>
    <path d="m75.213 195.03 5.5569-5.5569" clip-path="url(#p635f8de492)"/>
    <path d="m80.77 189.47 5.5569 5.5569" clip-path="url(#p635f8de492)"/>
    <path d="m86.327 195.03-5.5569-5.5569" clip-path="url(#p635f8de492)"/>
    <path d="m80.77 189.47 5.5569-5.5569" clip-path="url(#p635f8de492)"/>
    <path d="m86.327 183.91 5.5569-5.5569" clip-path="url(#p635f8de492)"/>
    <path d="m91.884 178.36 5.5569 5.5569" clip-path="url(#p635f8de492)"/>
    <path d="m97.44 183.91 5.5569-5.5569" clip-path="url(#p635f8de492)"/>
    <path d="m103 178.36 5.5569 5.5569" clip-path="url(#p635f8de492)"/>
    <path d="m108.55 183.91 5.5569 5.5569" clip-path="url(#p635f8de492)"/>
    <path d="m114.11 189.47-5.5569 5.5569" clip-path="url(#p635f8de492)"/>
    <path d="m108.55 195.03 5.5569 5.5569" clip-path="url(#p635f8de492)"/>
    <path d="m114.11 200.58-5.5569 5.5569" clip-path="url(#p635f8de492)"/>
    <path d="m108.55 206.14-5.5569 5.5569" clip-path="url(#p635f8de492)"/>
    <path d="m103 211.7-5.5569-5.5569" clip-path="url(#p635f8de492)"/>
    <path d="m97.44 206.14-5.5569 5.5569" clip-path="url(#p635f8de492)"/>
    <path d="m91.884 211.7-5.5569-5.5569" clip-path="url(#p635f8de492)"/>
    <path d="m86.327 206.14-5.5569-5.5569" clip-path="url(#p635f8de492)"/>
    <path d="m80.77 200.58 5.5569-5.5569" clip-path="url(#p635f8de492)"/>
    <path d="m86.327 195.03-5.5569 5.5569" clip-path="url(#p635f8de492)"/>
    <path d="m80.77 200.58-5.5569-5.5569" clip-path="url(#p635f8de492)"/>
    <path d="m75.213 195.03-5.5569-5.5569" clip-path="url(#p635f8de492)"/>
    <path d="m69.656 189.47 5.5569-5.5569" clip-path="url(#p635f8de492)"/>
    <path d="m75.213 183.91-5.5569-5.5569" clip-path="url(#p635f8de492)"/>
    <path d="m69.656 178.36 5.5569-5.5569" clip-path="url(#p635f8de492)"/>
    <path d="m75.213 172.8 5.5569-5.5569" clip-path="url(#p635f8de492)"/>
    <path d="m80.77 167.24 5.5569 5.5569" clip-path="url(#p635f8de492)"/>
    <path d="m86.327 172.8-5.5569 5.5569" clip-path="url(#p635f8de492)"/>
    <path d="m80.77 178.36-5.5569-5.5569" clip-path="url(#p635f8de492)"/>
    <path d="m75.213 172.8-5.5569-5.5569" clip-path="url(#p635f8de492)"/>
    <path d="m69.656 167.24 5.5569-5.5569" clip-path="url(#p635f8de492)"/>
    <path d="m75.213 161.69-5.5569-5.5569" clip-path="url(#p635f8de492)"/>
    <path d="m69.656 156.13 5.5569-5.5569" clip-path="url(#p635f8de492)"/>
    <path d="m75.213 150.57 5.5569-5.5569" clip-path="url(#p635f8de492)"/>
    <path d="m80.77 145.02 5.5569 5.5569" clip-path="url(#p635f8de492)"/>
    <path d="m86.327 150.57-5.5569-5.5569" clip-path="url(#p635f8de492)"/>
    <path d="m80.77 145.02 5.5569-5.5569" clip-path="url(#p635f8de492)"/>
    <path d="m86.327 139.46 5.5569-5.5569" clip-path="url(#p635f8de492)"/>
    <path d="m91.884 133.9 5.5569 5.5569" clip-path="url(#p635f8de492)"/>
    <path d="m97.44 139.46 5.5569-5.5569" clip-path="url(#p635f8de492)"/>
    <path d="m103 133.9 5.5569 5.5569" clip-path="url(#p635f8de492)"/>
    <path d="m108.55 139.46 5.5569 5.5569" clip-path="url(#p635f8de492)"/>
    <path d="m114.11 145.02-5.5569 5.5569" clip-path="url(#p635f8de492)"/>
    <path d="m108.55 150.57-5.5569 5.5569" clip-path="url(#p635f8de492)"/>
    <path d="m103 156.13-5.5569-5.5569" clip-path="url(#p635f8de492)"/>
    <path d="m97.44 150.57-5.5569-5.5569" clip-path="url(#p635f8de492)"/>
    <path d="m91.884 145.02 5.5569-5.5569" clip-path="url(#p635f8de492)"/>
    <path d="m97.44 139.46-5.5569-5.5569" clip-path="url(#p635f8de492)"/>
    <path d="m91.884 133.9 5.5569-5.5569" clip-path="url(#p635f8de492)"/>
    <path d="m97.44 128.34 5.5569-5.5569" clip-path="url(#p635f8de492)"/>
    <path d="m103 122.79 5.5569 5.5569" clip-path="url(#p635f8de492)"/>
    <path d="m108.55 128.34-5.5569-5.5569" clip-path="url(#p635f8de492)"/>
    <path d="m103 122.79 5.5569-5.5569" clip-path="url(#p635f8de492)"/>
    <path d="m108.55 117.23 5.5569-5.5569" clip-path="url(#p635f8de492)"/>
    <path d="m114.11 111.67 5.5569 5.5569" clip-path="url(#p635f8de492)"/>
    <path d="m119.67 117.23 5.5569-5.5569" clip-path="url(#p635f8de492)"/>
    <path d="m125.22 111.67 5.5569 5.5569" clip-path="url(#p635f8de492)"/>
    <path d="m130.78 117.23 5.5569 5.5569" clip-path="url(#p635f8de492)"/>
    <path d="m136.34 122.79-5.5569 5.5569" clip-path="url(#p635f8de492)"/>
    <path d="m130.78 128.34-5.5569-5.5569" clip-path="url(#p635f8de492)"/>
    <path d="m125.22 122.79 5.5569-5.5569" clip-path="url(#p635f8de492)"/>
    <path d="m130.78 117.23 5.5569-5.5569" clip-path="url(#p635f8de492)"/>
    <path d="m136.34 111.67 5.5569 5.5569" clip-path="url(#p635f8de492)"/>
    <path d="m141.9 117.23 5.5569-5.5569" clip-path="url(#p635f8de492)"/>
    <path d="m147.45 111.67 5.5569 5.5569" clip-path="url(#p635f8de492)"/>
    <path d="m153.01 117.23 5.5569 5.5569" clip-path="url(#p635f8de492)"/>
    <path d="m158.57 122.79-5.5569 5.5569" clip-path="url(#p635f8de492)"/>
    <path d="m153.01 128.34 5.5569-5.5569" clip-path="url(#p635f8de492)"/>
    <path d="m158.57 122.79 5.5569 5.5569" clip-path="url(#p635f8de492)"/>
    <path d="m164.12 128.34 5.5569 5.5569" clip-path="url(#p635f8de492)"/>
    <path d="m169.68 133.9-5.5569 5.5569" clip-path="url(#p635f8de492)"/>
    <path d="m164.12 139.46 5.5569 5.5569" clip-path="url(#p635f8de492)"/>
    <path d="m169.68 145.02-5.5569 5.5569" clip-path="url(#p635f8de492)"/>
    <path d="m164.12 150.57-5.5569 5.5569" clip-path="url(#p635f8de492)"/>
    <path d="m158.57 156.13-5.5569-5.5569" clip-path="url(#p635f8de492)"/>
    <path d="m153.01 150.57 5.5569 5.5569" clip-path="url(#p635f8de492)"/>
    <path d="m158.57 156.13-5.5569 5.5569" clip-path="url(#p635f8de492)"/>
    <path d="m153.01 161.69-5.5569 5.5569" clip-path="url(#p635f8de492)"/>
    <path d="m147.45 167.24-5.5569-5.5569" clip-path="url(#p635f8de492)"/>
    <path d="m141.9 161.69-5.5569 5.5569" clip-path="url(#p635f8de492)"/>
    <path d="m136.34 167.24-5.5569-5.5569" clip-path="url(#p635f8de492)"/>
    <path d="m130.78 161.69-5.5569-5.5569" clip-path="url(#p635f8de492)"/>
    <path d="m125.22 156.13 5.5569-5.5569" clip-path="url(#p635f8de492)"/>
    <path d="m130.78 150.57-5.5569 5.5569" clip-path="url(#p635f8de492)"/>
    <path d="m125.22 156.13-5.5569-5.5569" clip-path="url(#p635f8de492)"/>
    <path d="m119.67 150.57-5.5569-5.5569" clip-path="url(#p635f8de492)"/>
    <path d="m114.11 145.02 5.5569-5.5569" clip-path="url(#p635f8de492)"/>
    <path d="m119.67 139.46-5.5569-5.5569" clip-path="url(#p635f8de492)"/>
    <path d="m114.11 133.9 5.5569-5.5569" clip-path="url(#p635f8de492)"/>
    <path d="m119.67 128.34 5.5569-5.5569" clip-path="url(#p635f8de492)"/>
    <path d="m125.22 122.79 5.5569 5.5569" clip-path="url(#p635f8de492)"/>
    <path d="m130.78 128.34-5.5569 5.5569" clip-path="url(#p635f8de492)"/>
    <path d="m125.22 133.9-5.5569-5.5569" clip-path="url(#p635f8de492)"/>
    <path d="m119.67 128.34-5.5569-5.5569" clip-path="url(#p635f8de492)"/>
    <path d="m114.11 122.79 5.5569-5.5569" clip-path="url(#p635f8de492)"/>
    <path d="m119.67 117.23-5.5569-5.5569" clip-path="url(#p635f8de492)"/>
    <path d="m114.11 111.67 5.5569-5.5569" clip-path="url(#p635f8de492)"/>
    <path d="m119.67 106.12 5.5569-5.5569" clip-path="url(#p635f8de492)"/>
    <path d="m125.22 100.56 5.5569 5.5569" clip-path="url(#p635f8de492)"/>
    <path d="m130.78 106.12-5.5569-5.5569" clip-path="url(#p635f8de492)"/>
    <path d="m125.22 100.56 5.5569-5.5569" clip-path="url(#p635f8de492)"/>
    <path d="m130.78 95.003 5.5569-5.5569" clip-path="url(#p635f8de492)"/>
    <path d="m136.34 89.446 5.5569 5.5569" clip-path="url(#p635f8de492)"/>
    <path d="m141.9 95.003 5.5569-5.5569" clip-path="url(#p635f8de492)"/>
    <path d="m147.45 89.446 5.5569 5.5569" clip-path="url(#p635f8de492)"/>
    <path d="m153.01 95.003 5.5569 5.5569" clip-path="url(#p635f8de492)"/>
    <path d="m158.57 100.56-5.5569 5.5569" clip-path="url(#p635f8de492)"/>
    <path d="m153.01 106.12-5.5569 5.5569" clip-path="url(#p635f8de492)"/>
    <path d="m147.45 111.67-5.5569-5.5569" clip-path="url(#p635f8de492)"/>
    <path d="m141.9 106.12-5.5569-5.5569" clip-path="url(#p635f8de492)"/>
    <path d="m136.34 100.56 5.5569-5.5569" clip-path="url(#p635f8de492)"/>
    <path d="m141.9 95.003-5.5569-5.5569" clip-path="url(#p635f8de492)"/>
    <path d="m136.34 89.446 5.5569-5.5569" clip-path="url(#p635f8de492)"/>
    <path d="m141.9 83.89 5.5569-5.5569" clip-path="url(#p635f8de492)"/>
    <path d="m147.45 78.333 5.5569 5.5569" clip-path="url(#p635f8de492)"/>
    <path d="m153.01 83.89-5.5569-5.5569" clip-path="url(#p635f8de492)"/>
    <path d="m147.45 78.333 5.5569-5.5569" clip-path="url(#p635f8de492)"/>
    <path d="m153.01 72.776 5.5569-5.5569" clip-path="url(#p635f8de492)"/>
    <path d="m158.57 67.219 5.5569 5.5569" clip-path="url(#p635f8de492)"/>
    <path d="m164.12 72.776 5.5569-5.5569" clip-path="url(#p635f8de492)"/>
    <path d="m169.68 67.219 5.5569 5.5569" clip-path="url(#p635f8de492)"/>
    <path d="m175.24 72.776 5.5569 5.5569" clip-path="url(#p635f8de492)"/>
    <path d="m180.79 78.333-5.5569 5.5569" clip-path="url(#p635f8de492)"/>
    <path d="m175.24 83.89-5.5569-5.5569" clip-path="url(#p635f8de492)"/>
    <path d="m169.68 78.333 5.5569-5.5569" clip-path="url(#p635f8de492)"/>
    <path d="m175.24 72.776 5.5569-5.5569" clip-path="url(#p635f8de492)"/>
    <path d="m180.79 67.219 5.5569 5.5569" clip-path="url(#p635f8de492)"/>
    <path d="m186.35 72.776 5.5569-5.5569" clip-path="url(#p635f8de492)"/>
    <path d="m191.91 67.219 5.5569 5.5569" clip-path="url(#p635f8de492)"/>
    <path d="m197.46 72.776 5.5569 5.5569" clip-path="url(#p635f8de492)"/>
    <path d="m203.02 78.333-5.5569 5.5569" clip-path="url(#p635f8de492)"/>
    <path d="m197.46 83.89 5.5569-5.5569" clip-path="url(#p635f8de492)"/>
    <path d="m203.02 78.333 5.5569 5.5569" clip-path="url(#p635f8de492)"/>
    <path d="m208.58 83.89 5.5569 5.5569" clip-path="url(#p635f8de492)"/>
    <path d="m214.14 89.446-5.5569 5.5569" clip-path="url(#p635f8de492)"/>
    <path d="m208.58 95.003 5.5569 5.5569" clip-path="url(#p635f8de492)"/>
    <path d="m214.14 100.56-5.5569 5.5569" clip-path="url(#p635f8de492)"/>
    <path d="m208.58 106.12-5.5569 5.5569" clip-path="url(#p635f8de492)"/>
    <path d="m203.02 111.67-5.5569-5.5569" clip-path="url(#p635f8de492)"/>
    <path d="m197.46 106.12-5.5569 5.5569" clip-path="url(#p635f8de492)"/>
    <path d="m191.91 111.67-5.5569-5.5569" clip-path="url(#p635f8de492)"/>
    <path d="m186.35 106.12-5.5569-5.5569" clip-path="url(#p635f8de492)"/>
    <path d="m180.79 100.56 5.5569-5.5569" clip-path="url(#p635f8de492)"/>
    <path d="m186.35 95.003-5.5569-5.5569" clip-path="url(#p635f8de492)"/>
    <path d="m180.79 89.446 5.5569-5.5569" clip-path="url(#p635f8de492)"/>
    <path d="m186.35 83.89 5.5569-5.5569" clip-path="url(#p635f8de492)"/>
    <path d="m191.91 78.333 5.5569 5.5569" clip-path="url(#p635f8de492)"/>
    <path d="m197.46 83.89-5.5569-5.5569" clip-path="url(#p635f8de492)"/>
    <path d="m191.91 78.333 5.5569-5.5569" clip-path="url(#p635f8de492)"/>
    <path d="m197.46 72.776 5.5569-5.5569" clip-path="url(#p635f8de492)"/>
    <path d="m203.02 67.219 5.5569 5.5569" clip-path="url(#p635f8de492)"/>
    <path d="m208.58 72.776 5.5569-5.5569" clip-path="url(#p635f8de492)"/>
    <path d="m214.14 67.219 5.5569 5.5569" clip-path="url(#p635f8de492)"/>
    <path d="m219.69 72.776 5.5569 5.5569" clip-path="url(#p635f8de492)"/>
    <path d="m225.25 78.333-5.5569 5.5569" clip-path="url(#p635f8de492)"/>
    <path d="m219.69 83.89-5.5569-5.5569" clip-path="url(#p635f8de492)"/>
    <path d="m214.14 78.333 5.5569-5.5569" clip-path="url(#p635f8de492)"/>
    <path d="m219.69 72.776 5.5569-5.5569" clip-path="url(#p635f8de492)"/>
    <path d="m225.25 67.219 5.5569 5.5569" clip-path="url(#p635f8de492)"/>
    <path d="m230.81 72.776 5.5569-5.5569" clip-path="url(#p635f8de492)"/>
    <path d="m236.36 67.219 5.5569 5.5569" clip-path="url(#p635f8de492)"/>
    <path d="m241.92 72.776 5.5569 5.5569" clip-path="url(#p635f8de492)"/>
    <path d="m247.48 78.333-5.5569 5.5569" clip-path="url(#p635f8de492)"/>
    <path d="m241.92 83.89 5.5569-5.5569" clip-path="url(#p635f8de492)"/>
    <path d="m247.48 78.333 5.5569 5.5569" clip-path="url(#p635f8de492)"/>
    <path d="m253.03 83.89 5.5569 5.5569" clip-path="url(#p635f8de492)"/>
    <path d="m258.59 89.446-5.5569 5.5569" clip-path="url(#p635f8de492)"/>
    <path d="m253.03 95.003 5.5569 5.5569" clip-path="url(#p635f8de492)"/>
    <path d="m258.59 100.56-5.5569 5.5569" clip-path="url(#p635f8de492)"/>
    <path d="m253.03 106.12-5.5569 5.5569" clip-path="url(#p635f8de492)"/>
    <path d="m247.48 111.67-5.5569-5.5569" clip-path="url(#p635f8de492)"/>
    <path d="m241.92 106.12-5.5569-5.5569" clip-path="url(#p635f8de492)"/>
    <path d="m236.36 100.56 5.5569-5.5569" clip-path="url(#p635f8de492)"/>
    <path d="m241.92 95.003 5.5569-5.5569" clip-path="url(#p635f8de492)"/>
    <path d="m247.48 89.446 5.5569 5.5569" clip-path="url(#p635f8de492)"/>
    <path d="m253.03 95.003 5.5569-5.5569" clip-path="url(#p635f8de492)"/>
    <path d="m258.59 89.446 5.5569 5.5569" clip-path="url(#p635f8de492)"/>
    <path d="m264.15 95.003 5.5569 5.5569" clip-path="url(#p635f8de492)"/>
    <path d="m269.7 100.56-5.5569 5.5569" clip-path="url(#p635f8de492)"/>
    <path d="m264.15 106.12 5.5569-5.5569" clip-path="url(#p635f8de492)"/>
    <path d="m269.7 100.56 5.5569 5.5569" clip-path="url(#p635f8de492)"/>
    <path d="m275.26 106.12 5.5569 5.5569" clip-path="url(#p635f8de492)"/>
    <path d="m280.82 111.67-5.5569 5.5569" clip-path="url(#p635f8de492)"/>
    <path d="m275.26 117.23 5.5569 5.5569" clip-path="url(#p635f8de492)"/>
    <path d="m280.82 122.79-5.5569 5.5569" clip-path="url(#p635f8de492)"/>
    <path d="m275.26 128.34-5.5569 5.5569" clip-path="url(#p635f8de492)"/>
    <path d="m269.7 133.9-5.5569-5.5569" clip-path="url(#p635f8de492)"/>
    <path d="m264.15 128.34 5.5569-5.5569" clip-path="url(#p635f8de492)"/>
    <path d="m269.7 122.79 5.5569 5.5569" clip-path="url(#p635f8de492)"/>
    <path d="m275.26 128.34 5.5569 5.5569" clip-path="url(#p635f8de492)"/>
    <path d="m280.82 133.9-5.5569 5.5569" clip-path="url(#p635f8de492)"/>
    <path d="m275.26 139.46 5.5569 5.5569" clip-path="url(#p635f8de492)"/>
    <path d="m280.82 145.02-5.5569 5.5569" clip-path="url(#p635f8de492)"/>
    <path d="m275.26 150.57-5.5569 5.5569" clip-path="url(#p635f8de492)"/>
    <path d="m269.7 156.13-5.5569-5.5569" clip-path="url(#p635f8de492)"/>
    <path d="m264.15 150.57 5.5569 5.5569" clip-path="url(#p635f8de492)"/>
    <path d="m269.7 156.13-5.5569 5.5569" clip-path="url(#p635f8de492)"/>
    <path d="m264.15 161.69-5.5569 5.5569" clip-path="url(#p635f8de492)"/>
    <path d="m258.59 167.24-5.5569-5.5569" clip-path="url(#p635f8de492)"/>
    <path d="m253.03 161.69-5.5569 5.5569" clip-path="url(#p635f8de492)"/>
    <path d="m247.48 167.24-5.5569-5.5569" clip-path="url(#p635f8de492)"/>
    <path d="m241.92 161.69-5.5569-5.5569" clip-path="url(#p635f8de492)"/>
    <path d="m236.36 156.13 5.5569-5.5569" clip-path="url(#p635f8de492)"/>
    <path d="m241.92 150.57 5.5569 5.5569" clip-path="url(#p635f8de492)"/>
    <path d="m247.48 156.13-5.5569 5.5569" clip-path="url(#p635f8de492)"/>
    <path d="m241.92 161.69-5.5569 5.5569" clip-path="url(#p635f8de492)"/>
    <path d="m236.36 167.24-5.5569-5.5569" clip-path="url(#p635f8de492)"/>
    <path d="m230.81 161.69-5.5569 5.5569" clip-path="url(#p635f8de492)"/>
    <path d="m225.25 167.24-5.5569-5.5569" clip-path="url(#p635f8de492)"/>
    <path d="m219.69 161.69-5.5569-5.5569" clip-path="url(#p635f8de492)"/>
    <path d="m214.14 156.13 5.5569-5.5569" clip-path="url(#p635f8de492)"/>
    <path d="m219.69 150.57-5.5569 5.5569" clip-path="url(#p635f8de492)"/>
    <path d="m214.14 156.13-5.5569-5.5569" clip-path="url(#p635f8de492)"/>
    <path d="m208.58 150.57-5.5569-5.5569" clip-path="url(#p635f8de492)"/>
    <path d="m203.02 145.02 5.5569-5.5569" clip-path="url(#p635f8de492)"/>
    <path d="m208.58 139.46-5.5569-5.5569" clip-path="url(#p635f8de492)"/>
    <path d="m203.02 133.9 5.5569-5.5569" clip-path="url(#p635f8de492)"/>
    <path d="m208.58 128.34 5.5569-5.5569" clip-path="url(#p635f8de492)"/>
    <path d="m214.14 122.79 5.5569 5.5569" clip-path="url(#p635f8de492)"/>
    <path d="m219.69 128.34-5.5569 5.5569" clip-path="url(#p635f8de492)"/>
    <path d="m214.14 133.9-5.5569-5.5569" clip-path="url(#p635f8de492)"/>
    <path d="m208.58 128.34-5.5569-5.5569" clip-path="url(#p635f8de492)"/>
    <path d="m203.02 122.79 5.5569-5.5569" clip-path="url(#p635f8de492)"/>
    <path d="m208.58 117.23-5.5569-5.5569" clip-path="url(#p635f8de492)"/>
    <path d="m203.02 111.67 5.5569-5.5569" clip-path="url(#p635f8de492)"/>
    <path d="m208.58 106.12 5.5569-5.5569" clip-path="url(#p635f8de492)"/>
    <path d="m214.14 100.56 5.5569 5.5569" clip-path="url(#p635f8de492)"/>
    <path d="m219.69 106.12-5.5569-5.5569" clip-path="url(#p635f8de492)"/>
    <path d="m214.14 100.56 5.5569-5.5569" clip-path="url(#p635f8de492)"/>
    <path d="m219.69 95.003 5.5569-5.5569" clip-path="url(#p635f8de492)"/>
    <path d="m225.25 89.446 5.5569 5.5569" clip-path="url(#p635f8de492)"/>
    <path d="m230.81 95.003 5.5569-5.5569" clip-path="url(#p635f8de492)"/>
    <path d="m236.36 89.446 5.5569 5.5569" clip-path="url(#p635f8de492)"/>
    <path d="m241.92 95.003 5.5569 5.5569" clip-path="url(#p635f8de492)"/>
    <path d="m247.48 100.56-5.5569 5.5569" clip-path="url(#p635f8de492)"/>
    <path d="m241.92 106.12-5.5569 5.5569" clip-path="url(#p635f8de492)"/>
    <path d="m236.36 111.67-5.5569-5.5569" clip-path="url(#p635f8de492)"/>
    <path d="m230.81 106.12-5.5569-5.5569" clip-path="url(#p635f8de492)"/>
    <path d="m225.25 100.56 5.5569-5.5569" clip-path="url(#p635f8de492)"/>
    <path d="m230.81 95.003-5.5569-5.5569" clip-path="url(#p635f8de492)"/>
    <path d="m225.25 89.446 5.5569-5.5569" clip-path="url(#p635f8de492)"/>
    <path d="m230.81 83.89 5.5569-5.5569" clip-path="url(#p635f8de492)"/>
    <path d="m236.36 78.333 5.5569 5.5569" clip-path="url(#p635f8de492)"/>
    <path d="m241.92 83.89-5.5569-5.5569" clip-path="url(#p635f8de492)"/>
    <path d="m236.36 78.333 5.5569-5.5569" clip-path="url(#p635f8de492)"/>
    <path d="m241.92 72.776 5.5569-5.5569" clip-path="url(#p635f8de492)"/>
    <path d="m247.48 67.219 5.5569 5.5569" clip-path="url(#p635f8de492)"/>
    <path d="m253.03 72.776 5.5569-5.5569" clip-path="url(#p635f8de492)"/>
    <path d="m258.59 67.219 5.5569 5.5569" clip-path="url(#p635f8de492)"/>
    <path d="m264.15 72.776 5.5569 5.5569" clip-path="url(#p635f8de492)"/>
    <path d="m269.7 78.333-5.5569 5.5569" clip-path="url(#p635f8de492)"/>
    <path d="m264.15 83.89-5.5569-5.5569" clip-path="url(#p635f8de492)"/>
    <path d="m258.59 78.333 5.5569-5.5569" clip-path="url(#p635f8de492)"/>
    <path d="m264.15 72.776 5.5569-5.5569" clip-path="url(#p635f8de492)"/>
    <path d="m269.7 67.219 5.5569 5.5569" clip-path="url(#p635f8de492)"/>
    <path d="m275.26 72.776 5.5569-5.5569" clip-path="url(#p635f8de492)"/>
    <path d="m280.82 67.219 5.5569 5.5569" clip-path="url(#p635f8de492)"/>
    <path d="m286.38 72.776 5.5569 5.5569" clip-path="url(#p635f8de492)"/>
    <path d="m291.93 78.333-5.5569 5.5569" clip-path="url(#p635f8de492)"/>
    <path d="m286.38 83.89 5.5569-5.5569" clip-path="url(#p635f8de492)"/>
    <path d="m291.93 78.333 5.5569 5.5569" clip-path="url(#p635f8de492)"/>
    <path d="m297.49 83.89 5.5569 5.5569" clip-path="url(#p635f8de492)"/>
    <path d="m303.05 89.446-5.5569 5.5569" clip-path="url(#p635f8de492)"/>
    <path d="m297.49 95.003 5.5569 5.5569" clip-path="url(#p635f8de492)"/>
    <path d="m303.05 100.56-5.5569 5.5569" clip-path="url(#p635f8de492)"/>
    <path d="m297.49 106.12-5.5569 5.5569" clip-path="url(#p635f8de492)"/>
    <path d="m291.93 111.67-5.5569-5.5569" clip-path="url(#p635f8de492)"/>
    <path d="m286.38 106.12-5.5569 5.5569" clip-path="url(#p635f8de492)"/>
    <path d="m280.82 111.67-5.5569-5.5569" clip-path="url(#p635f8de492)"/>
    <path d="m275.26 106.12-5.5569-5.5569" clip-path="url(#p635f8de492)"/>
    <path d="m269.7 100.56 5.5569-5.5569" clip-path="url(#p635f8de492)"/>
    <path d="m275.26 95.003-5.5569-5.5569" clip-path="url(#p635f8de492)"/>
    <path d="m269.7 89.446 5.5569-5.5569" clip-path="url(#p635f8de492)"/>
    <path d="m275.26 83.89 5.5569-5.5569" clip-path="url(#p635f8de492)"/>
    <path d="m280.82 78.333 5.5569 5.5569" clip-path="url(#p635f8de492)"/>
    <path d="m286.38 83.89-5.5569-5.5569" clip-path="url(#p635f8de492)"/>
    <path d="m280.82 78.333 5.5569-5.5569" clip-path="url(#p635f8de492)"/>
    <path d="m286.38 72.776 5.5569-5.5569" clip-path="url(#p635f8de492)"/>
    <path d="m291.93 67.219 5.5569 5.5569" clip-path="url(#p635f8de492)"/>
    <path d="m297.49 72.776 5.5569-5.5569" clip-path="url(#p635f8de492)"/>
    <path d="m303.05 67.219 5.5569 5.5569" clip-path="url(#p635f8de492)"/>
    <path d="m308.6 72.776 5.5569 5.5569" clip-path="url(#p635f8de492)"/>
    <path d="m314.16 78.333-5.5569 5.5569" clip-path="url(#p635f8de492)"/>
    <path d="m308.6 83.89-5.5569-5.5569" clip-path="url(#p635f8de492)"/>
    <path d="m303.05 78.333 5.5569-5.5569" clip-path="url(#p635f8de492)"/>
    <path d="m308.6 72.776 5.5569-5.5569" clip-path="url(#p635f8de492)"/>
    <path d="m314.16 67.219 5.5569 5.5569" clip-path="url(#p635f8de492)"/>
    <path d="m319.72 72.776 5.5569-5.5569" clip-path="url(#p635f8de492)"/>
    <path d="m325.27 67.219 5.5569 5.5569" clip-path="url(#p635f8de492)"/>
    <path d="m330.83 72.776 5.5569 5.5569" clip-path="url(#p635f8de492)"/>
    <path d="m336.39 78.333-5.5569 5.5569" clip-path="url(#p635f8de492)"/>
    <path d="m330.83 83.89 5.5569-5.5569" clip-path="url(#p635f8de492)"/>
    <path d="m336.39 78.333 5.5569 5.5569" clip-path="url(#p635f8de492)"/>
    <path d="m341.94 83.89 5.5569 5.5569" clip-path="url(#p635f8de492)"/>
    <path d="m347.5 89.446-5.5569 5.5569" clip-path="url(#p635f8de492)"/>
    <path d="m341.94 95.003 5.5569 5.5569" clip-path="url(#p635f8de492)"/>
    <path d="m347.5 100.56-5.5569 5.5569" clip-path="url(#p635f8de492)"/>
    <path d="m341.94 106.12-5.5569 5.5569" clip-path="url(#p635f8de492)"/>
    <path d="m336.39 111.67-5.5569-5.5569" clip-path="url(#p635f8de492)"/>
    <path d="m330.83 106.12-5.5569-5.5569" clip-path="url(#p635f8de492)"/>
    <path d="m325.27 100.56 5.5569-5.5569" clip-path="url(#p635f8de492)"/>
    <path d="m330.83 95.003 5.5569-5.5569" clip-path="url(#p635f8de492)"/>
    <path d="m336.39 89.446 5.5569 5.5569" clip-path="url(#p635f8de492)"/>
    <path d="m341.94 95.003 5.5569-5.5569" clip-path="url(#p635f8de492)"/>
    <path d="m347.5 89.446 5.5569 5.5569" clip-path="url(#p635f8de492)"/>
    <path d="m353.06 95.003 5.5569 5.5569" clip-path="url(#p635f8de492)"/>
    <path d="m358.62 100.56-5.5569 5.5569" clip-path="url(#p635f8de492)"/>
    <path d="m353.06 106.12 5.5569-5.5569" clip-path="url(#p635f8de492)"/>
    <path d="m358.62 100.56 5.5569 5.5569" clip-path="url(#p635f8de492)"/>
    <path d="m364.17 106.12 5.5569 5.5569" clip-path="url(#p635f8de492)"/>
    <path d="m369.73 111.67-5.5569 5.5569" clip-path="url(#p635f8de492)"/>
    <path d="m364.17 117.23 5.5569 5.5569" clip-path="url(#p635f8de492)"/>
    <path d="m369.73 122.79-5.5569 5.5569" clip-path="url(#p635f8de492)"/>
    <path d="m364.17 128.34-5.5569 5.5569" clip-path="url(#p635f8de492)"/>
    <path d="m358.62 133.9-5.5569-5.5569" clip-path="url(#p635f8de492)"/>
    <path d="m353.06 128.34 5.5569-5.5569" clip-path="url(#p635f8de492)"/>
    <path d="m358.62 122.79 5.5569 5.5569" clip-path="url(#p635f8de492)"/>
    <path d="m364.17 128.34 5.5569 5.5569" clip-path="url(#p635f8de492)"/>
    <path d="m369.73 133.9-5.5569 5.5569" clip-path="url(#p635f8de492)"/>
    <path d="m364.17 139.46 5.5569 5.5569" clip-path="url(#p635f8de492)"/>
    <path d="m369.73 145.02-5.5569 5.5569" clip-path="url(#p635f8de492)"/>
    <path d="m364.17 150.57-5.5569 5.5569" clip-path="url(#p635f8de492)"/>
    <path d="m358.62 156.13-5.5569-5.5569" clip-path="url(#p635f8de492)"/>
    <path d="m353.06 150.57 5.5569 5.5569" clip-path="url(#p635f8de492)"/>
    <path d="m358.62 156.13-5.5569 5.5569" clip-path="url(#p635f8de492)"/>
    <path d="m353.06 161.69-5.5569 5.5569" clip-path="url(#p635f8de492)"/>
    <path d="m347.5 167.24-5.5569-5.5569" clip-path="url(#p635f8de492)"/>
    <path d="m341.94 161.69-5.5569 5.5569" clip-path="url(#p635f8de492)"/>
    <path d="m336.39 167.24-5.5569-5.5569" clip-path="url(#p635f8de492)"/>
    <path d="m330.83 161.69-5.5569-5.5569" clip-path="url(#p635f8de492)"/>
    <path d="m325.27 156.13 5.5569-5.5569" clip-path="url(#p635f8de492)"/>
    <path d="m330.83 150.57-5.5569 5.5569" clip-path="url(#p635f8de492)"/>
    <path d="m325.27 156.13-5.5569-5.5569" clip-path="url(#p635f8de492)"/>
    <path d="m319.72 150.57-5.5569-5.5569" clip-path="url(#p635f8de492)"/>
    <path d="m314.16 145.02 5.5569-5.5569" clip-path="url(#p635f8de492)"/>
    <path d="m319.72 139.46-5.5569-5.5569" clip-path="url(#p635f8de492)"/>
    <path d="m314.16 133.9 5.5569-5.5569" clip-path="url(#p635f8de492)"/>
    <path d="m319.72 128.34 5.5569-5.5569" clip-path="url(#p635f8de492)"/>
    <path d="m325.27 122.79 5.5569 5.5569" clip-path="url(#p635f8de492)"/>
    <path d="m330.83 128.34-5.5569-5.5569" clip-path="url(#p635f8de492)"/>
    <path d="m325.27 122.79 5.5569-5.5569" clip-path="url(#p635f8de492)"/>
    <path d="m330.83 117.23 5.5569-5.5569" clip-path="url(#p635f8de492)"/>
    <path d="m336.39 111.67 5.5569 5.5569" clip-path="url(#p635f8de492)"/>
    <path d="m341.94 117.23 5.5569-5.5569" clip-path="url(#p635f8de492)"/>
    <path d="m347.5 111.67 5.5569 5.5569" clip-path="url(#p635f8de492)"/>
    <path d="m353.06 117.23 5.5569 5.5569" clip-path="url(#p635f8de492)"/>
    <path d="m358.62 122.79-5.5569 5.5569" clip-path="url(#p635f8de492)"/>
    <path d="m353.06 128.34-5.5569-5.5569" clip-path="url(#p635f8de492)"/>
    <path d="m347.5 122.79 5.5569-5.5569" clip-path="url(#p635f8de492)"/>
    <path d="m353.06 117.23 5.5569-5.5569" clip-path="url(#p635f8de492)"/>
    <path d="m358.62 111.67 5.5569 5.5569" clip-path="url(#p635f8de492)"/>
    <path d="m364.17 117.23 5.5569-5.5569" clip-path="url(#p635f8de492)"/>
    <path d="m369.73 111.67 5.5569 5.5569" clip-path="url(#p635f8de492)"/>
    <path d="m375.29 117.23 5.5569 5.5569" clip-path="url(#p635f8de492)"/>
    <path d="m380.84 122.79-5.5569 5.5569" clip-path="url(#p635f8de492)"/>
    <path d="m375.29 128.34 5.5569-5.5569" clip-path="url(#p635f8de492)"/>
    <path d="m380.84 122.79 5.5569 5.5569" clip-path="url(#p635f8de492)"/>
    <path d="m386.4 128.34 5.5569 5.5569" clip-path="url(#p635f8de492)"/>
    <path d="m391.96 133.9-5.5569 5.5569" clip-path="url(#p635f8de492)"/>
    <path d="m386.4 139.46 5.5569 5.5569" clip-path="url(#p635f8de492)"/>
    <path d="m391.96 145.02-5.5569 5.5569" clip-path="url(#p635f8de492)"/>
    <path d="m386.4 150.57-5.5569 5.5569" clip-path="url(#p635f8de492)"/>
    <path d="m380.84 156.13-5.5569-5.5569" clip-path="url(#p635f8de492)"/>
    <path d="m375.29 150.57-5.5569-5.5569" clip-path="url(#p635f8de492)"/>
    <path d="m369.73 145.02 5.5569-5.5569" clip-path="url(#p635f8de492)"/>
    <path d="m375.29 139.46 5.5569-5.5569" clip-path="url(#p635f8de492)"/>
    <path d="m380.84 133.9 5.5569 5.5569" clip-path="url(#p635f8de492)"/>
    <path d="m386.4 139.46 5.5569-5.5569" clip-path="url(#p635f8de492)"/>
    <path d="m391.96 133.9 5.5569 5.5569" clip-path="url(#p635f8de492)"/>
    <path d="m397.51 139.46 5.5569 5.5569" clip-path="url(#p635f8de492)"/>
    <path d="m403.07 145.02-5.5569 5.5569" clip-path="url(#p635f8de492)"/>
    <path d="m397.51 150.57 5.5569-5.5569" clip-path="url(#p635f8de492)"/>
    <path d="m403.07 145.02 5.5569 5.5569" clip-path="url(#p635f8de492)"/>
    <path d="m408.63 150.57 5.5569 5.5569" clip-path="url(#p635f8de492)"/>
    <path d="m414.18 156.13-5.5569 5.5569" clip-path="url(#p635f8de492)"/>
    <path d="m408.63 161.69 5.5569 5.5569" clip-path="url(#p635f8de492)"/>
    <path d="m414.18 167.24-5.5569 5.5569" clip-path="url(#p635f8de492)"/>
    <path d="m408.63 172.8-5.5569 5.5569" clip-path="url(#p635f8de492)"/>
    <path d="m403.07 178.36-5.5569-5.5569" clip-path="url(#p635f8de492)"/>
    <path d="m397.51 172.8 5.5569-5.5569" clip-path="url(#p635f8de492)"/>
    <path d="m403.07 167.24 5.5569 5.5569" clip-path="url(#p635f8de492)"/>
    <path d="m408.63 172.8 5.5569 5.5569" clip-path="url(#p635f8de492)"/>
    <path d="m414.18 178.36-5.5569 5.5569" clip-path="url(#p635f8de492)"/>
    <path d="m408.63 183.91 5.5569 5.5569" clip-path="url(#p635f8de492)"/>
    <path d="m414.18 189.47-5.5569 5.5569" clip-path="url(#p635f8de492)"/>
    <path d="m408.63 195.03-5.5569 5.5569" clip-path="url(#p635f8de492)"/>
    <path d="m403.07 200.58-5.5569-5.5569" clip-path="url(#p635f8de492)"/>
    <path d="m397.51 195.03 5.5569 5.5569" clip-path="url(#p635f8de492)"/>
    <path d="m403.07 200.58-5.5569 5.5569" clip-path="url(#p635f8de492)"/>
    <path d="m397.51 206.14-5.5569 5.5569" clip-path="url(#p635f8de492)"/>
    <path d="m391.96 211.7-5.5569-5.5569" clip-path="url(#p635f8de492)"/>
    <path d="m386.4 206.14-5.5569 5.5569" clip-path="url(#p635f8de492)"/>
    <path d="m380.84 211.7-5.5569-5.5569" clip-path="url(#p635f8de492)"/>
    <path d="m375.29 206.14-5.5569-5.5569" clip-path="url(#p635f8de492)"/>
    <path d="m369.73 200.58 5.5569-5.5569" clip-path="url(#p635f8de492)"/>
    <path d="m375.29 195.03-5.5569-5.5569" clip-path="url(#p635f8de492)"/>
    <path d="m369.73 189.47 5.5569-5.5569" clip-path="url(#p635f8de492)"/>
    <path d="m375.29 183.91 5.5569-5.5569" clip-path="url(#p635f8de492)"/>
    <path d="m380.84 178.36 5.5569 5.5569" clip-path="url(#p635f8de492)"/>
    <path d="m386.4 183.91 5.5569-5.5569" clip-path="url(#p635f8de492)"/>
    <path d="m391.96 178.36 5.5569 5.5569" clip-path="url(#p635f8de492)"/>
    <path d="m397.51 183.91 5.5569 5.5569" clip-path="url(#p635f8de492)"/>
    <path d="m403.07 189.47-5.5569 5.5569" clip-path="url(#p635f8de492)"/>
    <path d="m397.51 195.03 5.5569-5.5569" clip-path="url(#p635f8de492)"/>
    <path d="m403.07 189.47 5.5569 5.5569" clip-path="url(#p635f8de492)"/>
    <path d="m408.63 195.03 5.5569 5.5569" clip-path="url(#p635f8de492)"/>
    <path d="m414.18 200.58-5.5569 5.5569" clip-path="url(#p635f8de492)"/>
    <path d="m408.63 206.14 5.5569 5.5569" clip-path="url(#p635f8de492)"/>
    <path d="m414.18 211.7-5.5569 5.5569" clip-path="url(#p635f8de492)"/>
    <path d="m408.63 217.26-5.5569 5.5569" clip-path="url(#p635f8de492)"/>
    <path d="m403.07 222.81-5.5569-5.5569" clip-path="url(#p635f8de492)"/>
    <path d="m397.51 217.26 5.5569-5.5569" clip-path="url(#p635f8de492)"/>
    <path d="m403.07 211.7 5.5569 5.5569" clip-path="url(#p635f8de492)"/>
    <path d="m408.63 217.26 5.5569 5.5569" clip-path="url(#p635f8de492)"/>
    <path d="m414.18 222.81-5.5569 5.5569" clip-path="url(#p635f8de492)"/>
    <path d="m408.63 228.37 5.5569 5.5569" clip-path="url(#p635f8de492)"/>
    <path d="m414.18 233.93-5.5569 5.5569" clip-path="url(#p635f8de492)"/>
    <path d="m408.63 239.48-5.5569 5.5569" clip-path="url(#p635f8de492)"/>
    <path d="m403.07 245.04-5.5569-5.5569" clip-path="url(#p635f8de492)"/>
    <path d="m397.51 239.48 5.5569 5.5569" clip-path="url(#p635f8de492)"/>
    <path d="m403.07 245.04-5.5569 5.5569" clip-path="url(#p635f8de492)"/>
    <path d="m397.51 250.6-5.5569 5.5569" clip-path="url(#p635f8de492)"/>
    <path d="m391.96 256.15-5.5569-5.5569" clip-path="url(#p635f8de492)"/>
    <path d="m386.4 250.6-5.5569 5.5569" clip-path="url(#p635f8de492)"/>
    <path d="m380.84 256.15-5.5569-5.5569" clip-path="url(#p635f8de492)"/>
    <path d="m375.29 250.6-5.5569-5.5569" clip-path="url(#p635f8de492)"/>
    <path d="m369.73 245.04 5.5569-5.5569" clip-path="url(#p635f8de492)"/>
    <path d="m375.29 239.48 5.5569-5.5569" clip-path="url(#p635f8de492)"/>
    <path d="m380.84 233.93 5.5569 5.5569" clip-path="url(#p635f8de492)"/>
    <path d="m386.4 239.48 5.5569 5.5569" clip-path="url(#p635f8de492)"/>
    <path d="m391.96 245.04-5.5569 5.5569" clip-path="url(#p635f8de492)"/>
    <path d="m386.4 250.6 5.5569 5.5569" clip-path="url(#p635f8de492)"/>
    <path d="m391.96 256.15-5.5569 5.5569" clip-path="url(#p635f8de492)"/>
    <path d="m386.4 261.71-5.5569 5.5569" clip-path="url(#p635f8de492)"/>
    <path d="m380.84 267.27-5.5569-5.5569" clip-path="url(#p635f8de492)"/>
    <path d="m375.29 261.71 5.5569 5.5569" clip-path="url(#p635f8de492)"/>
    <path d="m380.84 267.27-5.5569 5.5569" clip-path="url(#p635f8de492)"/>
    <path d="m375.29 272.82-5.5569 5.5569" clip-path="url(#p635f8de492)"/>
    <path d="m369.73 278.38-5.5569-5.5569" clip-path="url(#p635f8de492)"/>
    <path d="m364.17 272.82-5.5569 5.5569" clip-path="url(#p635f8de492)"/>
    <path d="m358.62 278.38-5.5569-5.5569" clip-path="url(#p635f8de492)"/>
    <path d="m353.06 272.82-5.5569-5.5569" clip-path="url(#p635f8de492)"/>
    <path d="m347.5 267.27 5.5569-5.5569" clip-path="url(#p635f8de492)"/>
    <path d="m353.06 261.71 5.5569 5.5569" clip-path="url(#p635f8de492)"/>
    <path d="m358.62 267.27-5.5569 5.5569" clip-path="url(#p635f8de492)"/>
    <path d="m353.06 272.82-5.5569 5.5569" clip-path="url(#p635f8de492)"/>
    <path d="m347.5 278.38-5.5569-5.5569" clip-path="url(#p635f8de492)"/>
    <path d="m341.94 272.82-5.5569 5.5569" clip-path="url(#p635f8de492)"/>
    <path d="m336.39 278.38-5.5569-5.5569" clip-path="url(#p635f8de492)"/>
    <path d="m330.83 272.82-5.5569-5.5569" clip-path="url(#p635f8de492)"/>
    <path d="m325.27 267.27 5.5569-5.5569" clip-path="url(#p635f8de492)"/>
    <path d="m330.83 261.71-5.5569 5.5569" clip-path="url(#p635f8de492)"/>
    <path d="m325.27 267.27-5.5569-5.5569" clip-path="url(#p635f8de492)"/>
    <path d="m319.72 261.71-5.5569-5.5569" clip-path="url(#p635f8de492)"/>
    <path d="m314.16 256.15 5.5569-5.5569" clip-path="url(#p635f8de492)"/>
    <path d="m319.72 250.6-5.5569-5.5569" clip-path="url(#p635f8de492)"/>
    <path d="m314.16 245.04 5.5569-5.5569" clip-path="url(#p635f8de492)"/>
    <path d="m319.72 239.48 5.5569-5.5569" clip-path="url(#p635f8de492)"/>
    <path d="m325.27 233.93 5.5569 5.5569" clip-path="url(#p635f8de492)"/>
   </g>
   <g id="patch_3">
    <path d="m46.08 301.96v-258.31" fill="none" stroke="#000" stroke-linecap="square" stroke-width=".8"/>
   </g>
   <g id="patch_4">
    <path d="m437.76 301.96v-258.31" fill="none" stroke="#000" stroke-linecap="square" stroke-width=".8"/>
   </g>
   <g id="patch_5">
    <path d="m46.08 301.96h391.68" fill="none" stroke="#000" stroke-linecap="square" stroke-width=".8"/>
   </g>
   <g id="patch_6">
    <path d="m46.08 43.643h391.68" fill="none" stroke="#000" stroke-linecap="square" stroke-width=".8"/>
   </g>
  </g>
  <g id="text_12">
   <text transform="rotate(-0 230.4 19.07)" x="230.4" y="19.0695" font="16px 'DejaVu Sans', 'Bitstream Vera Sans', 'Computer Modern Sans Serif', 'Lucida Grande', 'Verdana', 'Geneva', 'Lucid', 'Arial', 'Helvetica', 'Avant Garde', sans-serif" text-anchor="middle">n = 9</text>
  </g>
 </g>
 <defs>
  <clipPath id="p635f8de492">
   <rect x="46.08" y="43.643" width="391.68" height="258.31"/>
  </clipPath>
 </defs>
</svg>
