<?xml version="1.0" encoding="UTF-8"?>
<!DOCTYPE svg  PUBLIC '-//W3C//DTD SVG 1.1//EN'  'http://www.w3.org/Graphics/SVG/1.1/DTD/svg11.dtd'>
<svg width="460.8pt" height="345.6pt" version="1.1" viewBox="0 0 460.8 345.6" xmlns="http://www.w3.org/2000/svg" xmlns:xlink="http://www.w3.org/1999/xlink">
 <metadata>
  <rdf:RDF xmlns:cc="http://creativecommons.org/ns#" xmlns:dc="http://purl.org/dc/elements/1.1/" xmlns:rdf="http://www.w3.org/1999/02/22-rdf-syntax-ns#">
   <cc:Work>
    <dc:type rdf:resource="http://purl.org/dc/dcmitype/StillImage"/>
    <dc:date>2023-03-19T15:29:44.718783</dc:date>
    <dc:format>image/svg+xml</dc:format>
    <dc:creator>
     <cc:Agent>
      <dc:title>Matplotlib v3.7.1, https://matplotlib.org/</dc:title>
     </cc:Agent>
    </dc:creator>
   </cc:Work>
  </rdf:RDF>
 </metadata>
 <defs>
  <style type="text/css">*{stroke-linejoin: round; stroke-linecap: butt}</style>
 </defs>
 <g id="figure_1">
  <g id="patch_1">
   <path d="m0 345.6h460.8v-345.6h-460.8z" fill="#fff"/>
  </g>
  <g id="axes_1">
   <g id="patch_2">
    <path d="m103.68 311.04h276.48v-276.48h-276.48z" fill="#fff"/>
   </g>
   <g id="matplotlib.axis_1">
    <g id="xtick_1">
     <g id="line2d_1">
      <defs>
       <path id="mf82fb1b537" d="m0 0v3.5" stroke="#000" stroke-width=".8"/>
      </defs>
      <use x="123.428571" y="311.04" stroke="#000000" stroke-width=".8" xlink:href="#mf82fb1b537"/>
     </g>
     <g id="text_1">
      <text transform="rotate(-0 123.43 325.64)" x="123.428571" y="325.638438" font="10px 'DejaVu Sans', 'Bitstream Vera Sans', 'Computer Modern Sans Serif', 'Lucida Grande', 'Verdana', 'Geneva', 'Lucid', 'Arial', 'Helvetica', 'Avant Garde', sans-serif" text-anchor="middle">−2</text>
     </g>
    </g>
    <g id="xtick_2">
     <g id="line2d_2">
      <use x="162.925714" y="311.04" stroke="#000000" stroke-width=".8" xlink:href="#mf82fb1b537"/>
     </g>
     <g id="text_2">
      <text transform="rotate(-0 162.93 325.64)" x="162.925714" y="325.638438" font="10px 'DejaVu Sans', 'Bitstream Vera Sans', 'Computer Modern Sans Serif', 'Lucida Grande', 'Verdana', 'Geneva', 'Lucid', 'Arial', 'Helvetica', 'Avant Garde', sans-serif" text-anchor="middle">0</text>
     </g>
    </g>
    <g id="xtick_3">
     <g id="line2d_3">
      <use x="202.422857" y="311.04" stroke="#000000" stroke-width=".8" xlink:href="#mf82fb1b537"/>
     </g>
     <g id="text_3">
      <text transform="rotate(-0 202.42 325.64)" x="202.422857" y="325.638438" font="10px 'DejaVu Sans', 'Bitstream Vera Sans', 'Computer Modern Sans Serif', 'Lucida Grande', 'Verdana', 'Geneva', 'Lucid', 'Arial', 'Helvetica', 'Avant Garde', sans-serif" text-anchor="middle">2</text>
     </g>
    </g>
    <g id="xtick_4">
     <g id="line2d_4">
      <use x="241.92" y="311.04" stroke="#000000" stroke-width=".8" xlink:href="#mf82fb1b537"/>
     </g>
     <g id="text_4">
      <text transform="rotate(-0 241.92 325.64)" x="241.92" y="325.638438" font="10px 'DejaVu Sans', 'Bitstream Vera Sans', 'Computer Modern Sans Serif', 'Lucida Grande', 'Verdana', 'Geneva', 'Lucid', 'Arial', 'Helvetica', 'Avant Garde', sans-serif" text-anchor="middle">4</text>
     </g>
    </g>
    <g id="xtick_5">
     <g id="line2d_5">
      <use x="281.417143" y="311.04" stroke="#000000" stroke-width=".8" xlink:href="#mf82fb1b537"/>
     </g>
     <g id="text_5">
      <text transform="rotate(-0 281.42 325.64)" x="281.417143" y="325.638438" font="10px 'DejaVu Sans', 'Bitstream Vera Sans', 'Computer Modern Sans Serif', 'Lucida Grande', 'Verdana', 'Geneva', 'Lucid', 'Arial', 'Helvetica', 'Avant Garde', sans-serif" text-anchor="middle">6</text>
     </g>
    </g>
    <g id="xtick_6">
     <g id="line2d_6">
      <use x="320.914286" y="311.04" stroke="#000000" stroke-width=".8" xlink:href="#mf82fb1b537"/>
     </g>
     <g id="text_6">
      <text transform="rotate(-0 320.91 325.64)" x="320.914286" y="325.638438" font="10px 'DejaVu Sans', 'Bitstream Vera Sans', 'Computer Modern Sans Serif', 'Lucida Grande', 'Verdana', 'Geneva', 'Lucid', 'Arial', 'Helvetica', 'Avant Garde', sans-serif" text-anchor="middle">8</text>
     </g>
    </g>
    <g id="xtick_7">
     <g id="line2d_7">
      <use x="360.411429" y="311.04" stroke="#000000" stroke-width=".8" xlink:href="#mf82fb1b537"/>
     </g>
     <g id="text_7">
      <text transform="rotate(-0 360.41 325.64)" x="360.411429" y="325.638438" font="10px 'DejaVu Sans', 'Bitstream Vera Sans', 'Computer Modern Sans Serif', 'Lucida Grande', 'Verdana', 'Geneva', 'Lucid', 'Arial', 'Helvetica', 'Avant Garde', sans-serif" text-anchor="middle">10</text>
     </g>
    </g>
   </g>
   <g id="matplotlib.axis_2">
    <g id="ytick_1">
     <g id="line2d_8">
      <defs>
       <path id="ma3f6617dd4" d="m0 0h-3.5" stroke="#000" stroke-width=".8"/>
      </defs>
      <use x="103.68" y="291.291429" stroke="#000000" stroke-width=".8" xlink:href="#ma3f6617dd4"/>
     </g>
     <g id="text_8">
      <text transform="rotate(-0 96.68 295.09)" x="96.68" y="295.090647" font="10px 'DejaVu Sans', 'Bitstream Vera Sans', 'Computer Modern Sans Serif', 'Lucida Grande', 'Verdana', 'Geneva', 'Lucid', 'Arial', 'Helvetica', 'Avant Garde', sans-serif" text-anchor="end">−2</text>
     </g>
    </g>
    <g id="ytick_2">
     <g id="line2d_9">
      <use x="103.68" y="251.794286" stroke="#000000" stroke-width=".8" xlink:href="#ma3f6617dd4"/>
     </g>
     <g id="text_9">
      <text transform="rotate(-0 96.68 255.59)" x="96.68" y="255.593504" font="10px 'DejaVu Sans', 'Bitstream Vera Sans', 'Computer Modern Sans Serif', 'Lucida Grande', 'Verdana', 'Geneva', 'Lucid', 'Arial', 'Helvetica', 'Avant Garde', sans-serif" text-anchor="end">0</text>
     </g>
    </g>
    <g id="ytick_3">
     <g id="line2d_10">
      <use x="103.68" y="212.297143" stroke="#000000" stroke-width=".8" xlink:href="#ma3f6617dd4"/>
     </g>
     <g id="text_10">
      <text transform="rotate(-0 96.68 216.1)" x="96.68" y="216.096362" font="10px 'DejaVu Sans', 'Bitstream Vera Sans', 'Computer Modern Sans Serif', 'Lucida Grande', 'Verdana', 'Geneva', 'Lucid', 'Arial', 'Helvetica', 'Avant Garde', sans-serif" text-anchor="end">2</text>
     </g>
    </g>
    <g id="ytick_4">
     <g id="line2d_11">
      <use x="103.68" y="172.8" stroke="#000000" stroke-width=".8" xlink:href="#ma3f6617dd4"/>
     </g>
     <g id="text_11">
      <text transform="rotate(-0 96.68 176.6)" x="96.68" y="176.599219" font="10px 'DejaVu Sans', 'Bitstream Vera Sans', 'Computer Modern Sans Serif', 'Lucida Grande', 'Verdana', 'Geneva', 'Lucid', 'Arial', 'Helvetica', 'Avant Garde', sans-serif" text-anchor="end">4</text>
     </g>
    </g>
    <g id="ytick_5">
     <g id="line2d_12">
      <use x="103.68" y="133.302857" stroke="#000000" stroke-width=".8" xlink:href="#ma3f6617dd4"/>
     </g>
     <g id="text_12">
      <text transform="rotate(-0 96.68 137.1)" x="96.68" y="137.102076" font="10px 'DejaVu Sans', 'Bitstream Vera Sans', 'Computer Modern Sans Serif', 'Lucida Grande', 'Verdana', 'Geneva', 'Lucid', 'Arial', 'Helvetica', 'Avant Garde', sans-serif" text-anchor="end">6</text>
     </g>
    </g>
    <g id="ytick_6">
     <g id="line2d_13">
      <use x="103.68" y="93.805714" stroke="#000000" stroke-width=".8" xlink:href="#ma3f6617dd4"/>
     </g>
     <g id="text_13">
      <text transform="rotate(-0 96.68 97.605)" x="96.68" y="97.604933" font="10px 'DejaVu Sans', 'Bitstream Vera Sans', 'Computer Modern Sans Serif', 'Lucida Grande', 'Verdana', 'Geneva', 'Lucid', 'Arial', 'Helvetica', 'Avant Garde', sans-serif" text-anchor="end">8</text>
     </g>
    </g>
    <g id="ytick_7">
     <g id="line2d_14">
      <use x="103.68" y="54.308571" stroke="#000000" stroke-width=".8" xlink:href="#ma3f6617dd4"/>
     </g>
     <g id="text_14">
      <text transform="rotate(-0 96.68 58.108)" x="96.68" y="58.10779" font="10px 'DejaVu Sans', 'Bitstream Vera Sans', 'Computer Modern Sans Serif', 'Lucida Grande', 'Verdana', 'Geneva', 'Lucid', 'Arial', 'Helvetica', 'Avant Garde', sans-serif" text-anchor="end">10</text>
     </g>
    </g>
   </g>
   <g id="LineCollection_1" fill="none" stroke="#da70d6" stroke-width="2">
    <path d="m162.93 251.79v-19.749" clip-path="url(#p5c791ed78c)"/>
    <path d="m162.93 232.05v-19.749" clip-path="url(#p5c791ed78c)"/>
    <path d="m162.93 212.3h19.749" clip-path="url(#p5c791ed78c)"/>
    <path d="m182.67 212.3v19.749" clip-path="url(#p5c791ed78c)"/>
    <path d="m182.67 232.05v19.749" clip-path="url(#p5c791ed78c)"/>
    <path d="m182.67 251.79h19.749" clip-path="url(#p5c791ed78c)"/>
    <path d="m202.42 251.79v-19.749" clip-path="url(#p5c791ed78c)"/>
    <path d="m202.42 232.05v-19.749" clip-path="url(#p5c791ed78c)"/>
    <path d="m202.42 212.3v-19.749" clip-path="url(#p5c791ed78c)"/>
    <path d="m202.42 192.55v-19.749" clip-path="url(#p5c791ed78c)"/>
    <path d="m202.42 172.8v-19.749" clip-path="url(#p5c791ed78c)"/>
    <path d="m202.42 153.05h-19.749" clip-path="url(#p5c791ed78c)"/>
    <path d="m182.67 153.05v19.749" clip-path="url(#p5c791ed78c)"/>
    <path d="m182.67 172.8v19.749" clip-path="url(#p5c791ed78c)"/>
    <path d="m182.67 192.55h-19.749" clip-path="url(#p5c791ed78c)"/>
    <path d="m162.93 192.55v-19.749" clip-path="url(#p5c791ed78c)"/>
    <path d="m162.93 172.8v-19.749" clip-path="url(#p5c791ed78c)"/>
    <path d="m162.93 153.05v-19.749" clip-path="url(#p5c791ed78c)"/>
    <path d="m162.93 133.3v-19.749" clip-path="url(#p5c791ed78c)"/>
    <path d="m162.93 113.55v-19.749" clip-path="url(#p5c791ed78c)"/>
    <path d="m162.93 93.806h19.749" clip-path="url(#p5c791ed78c)"/>
    <path d="m182.67 93.806v19.749" clip-path="url(#p5c791ed78c)"/>
    <path d="m182.67 113.55v19.749" clip-path="url(#p5c791ed78c)"/>
    <path d="m182.67 133.3h19.749" clip-path="url(#p5c791ed78c)"/>
    <path d="m202.42 133.3v-19.749" clip-path="url(#p5c791ed78c)"/>
    <path d="m202.42 113.55v-19.749" clip-path="url(#p5c791ed78c)"/>
    <path d="m202.42 93.806h19.749" clip-path="url(#p5c791ed78c)"/>
    <path d="m222.17 93.806v19.749" clip-path="url(#p5c791ed78c)"/>
    <path d="m222.17 113.55v19.749" clip-path="url(#p5c791ed78c)"/>
    <path d="m222.17 133.3h19.749" clip-path="url(#p5c791ed78c)"/>
    <path d="m241.92 133.3v-19.749" clip-path="url(#p5c791ed78c)"/>
    <path d="m241.92 113.55v-19.749" clip-path="url(#p5c791ed78c)"/>
    <path d="m241.92 93.806h19.749" clip-path="url(#p5c791ed78c)"/>
    <path d="m261.67 93.806v19.749" clip-path="url(#p5c791ed78c)"/>
    <path d="m261.67 113.55v19.749" clip-path="url(#p5c791ed78c)"/>
    <path d="m261.67 133.3v19.749" clip-path="url(#p5c791ed78c)"/>
    <path d="m261.67 153.05v19.749" clip-path="url(#p5c791ed78c)"/>
    <path d="m261.67 172.8v19.749" clip-path="url(#p5c791ed78c)"/>
    <path d="m261.67 192.55h-19.749" clip-path="url(#p5c791ed78c)"/>
    <path d="m241.92 192.55v-19.749" clip-path="url(#p5c791ed78c)"/>
    <path d="m241.92 172.8v-19.749" clip-path="url(#p5c791ed78c)"/>
    <path d="m241.92 153.05h-19.749" clip-path="url(#p5c791ed78c)"/>
    <path d="m222.17 153.05v19.749" clip-path="url(#p5c791ed78c)"/>
    <path d="m222.17 172.8v19.749" clip-path="url(#p5c791ed78c)"/>
    <path d="m222.17 192.55v19.749" clip-path="url(#p5c791ed78c)"/>
    <path d="m222.17 212.3v19.749" clip-path="url(#p5c791ed78c)"/>
    <path d="m222.17 232.05v19.749" clip-path="url(#p5c791ed78c)"/>
    <path d="m222.17 251.79h19.749" clip-path="url(#p5c791ed78c)"/>
    <path d="m241.92 251.79v-19.749" clip-path="url(#p5c791ed78c)"/>
    <path d="m241.92 232.05v-19.749" clip-path="url(#p5c791ed78c)"/>
    <path d="m241.92 212.3h19.749" clip-path="url(#p5c791ed78c)"/>
    <path d="m261.67 212.3v19.749" clip-path="url(#p5c791ed78c)"/>
    <path d="m261.67 232.05v19.749" clip-path="url(#p5c791ed78c)"/>
    <path d="m261.67 251.79h19.749" clip-path="url(#p5c791ed78c)"/>
    <path d="m281.42 251.79v-19.749" clip-path="url(#p5c791ed78c)"/>
    <path d="m281.42 232.05v-19.749" clip-path="url(#p5c791ed78c)"/>
    <path d="m281.42 212.3h19.749" clip-path="url(#p5c791ed78c)"/>
    <path d="m301.17 212.3v19.749" clip-path="url(#p5c791ed78c)"/>
    <path d="m301.17 232.05v19.749" clip-path="url(#p5c791ed78c)"/>
    <path d="m301.17 251.79h19.749" clip-path="url(#p5c791ed78c)"/>
    <path d="m320.91 251.79v-19.749" clip-path="url(#p5c791ed78c)"/>
    <path d="m320.91 232.05v-19.749" clip-path="url(#p5c791ed78c)"/>
    <path d="m320.91 212.3v-19.749" clip-path="url(#p5c791ed78c)"/>
    <path d="m320.91 192.55v-19.749" clip-path="url(#p5c791ed78c)"/>
    <path d="m320.91 172.8v-19.749" clip-path="url(#p5c791ed78c)"/>
    <path d="m320.91 153.05h-19.749" clip-path="url(#p5c791ed78c)"/>
    <path d="m301.17 153.05v19.749" clip-path="url(#p5c791ed78c)"/>
    <path d="m301.17 172.8v19.749" clip-path="url(#p5c791ed78c)"/>
    <path d="m301.17 192.55h-19.749" clip-path="url(#p5c791ed78c)"/>
    <path d="m281.42 192.55v-19.749" clip-path="url(#p5c791ed78c)"/>
    <path d="m281.42 172.8v-19.749" clip-path="url(#p5c791ed78c)"/>
    <path d="m281.42 153.05v-19.749" clip-path="url(#p5c791ed78c)"/>
    <path d="m281.42 133.3v-19.749" clip-path="url(#p5c791ed78c)"/>
    <path d="m281.42 113.55v-19.749" clip-path="url(#p5c791ed78c)"/>
    <path d="m281.42 93.806h19.749" clip-path="url(#p5c791ed78c)"/>
    <path d="m301.17 93.806v19.749" clip-path="url(#p5c791ed78c)"/>
    <path d="m301.17 113.55v19.749" clip-path="url(#p5c791ed78c)"/>
    <path d="m301.17 133.3h19.749" clip-path="url(#p5c791ed78c)"/>
    <path d="m320.91 133.3v-19.749" clip-path="url(#p5c791ed78c)"/>
    <path d="m320.91 113.55v-19.749" clip-path="url(#p5c791ed78c)"/>
   </g>
   <g id="patch_3">
    <path d="m103.68 311.04v-276.48" fill="none" stroke="#000" stroke-linecap="square" stroke-width=".8"/>
   </g>
   <g id="patch_4">
    <path d="m380.16 311.04v-276.48" fill="none" stroke="#000" stroke-linecap="square" stroke-width=".8"/>
   </g>
   <g id="patch_5">
    <path d="m103.68 311.04h276.48" fill="none" stroke="#000" stroke-linecap="square" stroke-width=".8"/>
   </g>
   <g id="patch_6">
    <path d="m103.68 34.56h276.48" fill="none" stroke="#000" stroke-linecap="square" stroke-width=".8"/>
   </g>
  </g>
  <g id="text_15">
   <text transform="rotate(-0 230.4 19.07)" x="230.4" y="19.0695" font="16px 'DejaVu Sans', 'Bitstream Vera Sans', 'Computer Modern Sans Serif', 'Lucida Grande', 'Verdana', 'Geneva', 'Lucid', 'Arial', 'Helvetica', 'Avant Garde', sans-serif" text-anchor="middle">n = 2</text>
  </g>
 </g>
 <defs>
  <clipPath id="p5c791ed78c">
   <rect x="103.68" y="34.56" width="276.48" height="276.48"/>
  </clipPath>
 </defs>
</svg>
