<?xml version="1.0" encoding="UTF-8"?>
<!DOCTYPE svg  PUBLIC '-//W3C//DTD SVG 1.1//EN'  'http://www.w3.org/Graphics/SVG/1.1/DTD/svg11.dtd'>
<svg width="460.8pt" height="345.6pt" version="1.1" viewBox="0 0 460.8 345.6" xmlns="http://www.w3.org/2000/svg" xmlns:xlink="http://www.w3.org/1999/xlink">
 <metadata>
  <rdf:RDF xmlns:cc="http://creativecommons.org/ns#" xmlns:dc="http://purl.org/dc/elements/1.1/" xmlns:rdf="http://www.w3.org/1999/02/22-rdf-syntax-ns#">
   <cc:Work>
    <dc:type rdf:resource="http://purl.org/dc/dcmitype/StillImage"/>
    <dc:date>2023-03-19T15:29:50.694677</dc:date>
    <dc:format>image/svg+xml</dc:format>
    <dc:creator>
     <cc:Agent>
      <dc:title>Matplotlib v3.7.1, https://matplotlib.org/</dc:title>
     </cc:Agent>
    </dc:creator>
   </cc:Work>
  </rdf:RDF>
 </metadata>
 <defs>
  <style type="text/css">*{stroke-linejoin: round; stroke-linecap: butt}</style>
 </defs>
 <g id="figure_1">
  <g id="patch_1">
   <path d="m0 345.6h460.8v-345.6h-460.8z" fill="#fff"/>
  </g>
  <g id="axes_1">
   <g id="patch_2">
    <path d="m107.13 311.04h269.58v-276.48h-269.58z" fill="#fff"/>
   </g>
   <g id="matplotlib.axis_1">
    <g id="xtick_1">
     <g id="line2d_1">
      <defs>
       <path id="m08ebe66d25" d="m0 0v3.5" stroke="#000" stroke-width=".8"/>
      </defs>
      <use x="113.450986" y="311.04" stroke="#000000" stroke-width=".8" xlink:href="#m08ebe66d25"/>
     </g>
     <g id="text_1">
      <text transform="rotate(-0 113.45 325.64)" x="113.450986" y="325.638438" font="10px 'DejaVu Sans', 'Bitstream Vera Sans', 'Computer Modern Sans Serif', 'Lucida Grande', 'Verdana', 'Geneva', 'Lucid', 'Arial', 'Helvetica', 'Avant Garde', sans-serif" text-anchor="middle">−5.0</text>
     </g>
    </g>
    <g id="xtick_2">
     <g id="line2d_2">
      <use x="150.465006" y="311.04" stroke="#000000" stroke-width=".8" xlink:href="#m08ebe66d25"/>
     </g>
     <g id="text_2">
      <text transform="rotate(-0 150.47 325.64)" x="150.465006" y="325.638438" font="10px 'DejaVu Sans', 'Bitstream Vera Sans', 'Computer Modern Sans Serif', 'Lucida Grande', 'Verdana', 'Geneva', 'Lucid', 'Arial', 'Helvetica', 'Avant Garde', sans-serif" text-anchor="middle">−2.5</text>
     </g>
    </g>
    <g id="xtick_3">
     <g id="line2d_3">
      <use x="187.479025" y="311.04" stroke="#000000" stroke-width=".8" xlink:href="#m08ebe66d25"/>
     </g>
     <g id="text_3">
      <text transform="rotate(-0 187.48 325.64)" x="187.479025" y="325.638438" font="10px 'DejaVu Sans', 'Bitstream Vera Sans', 'Computer Modern Sans Serif', 'Lucida Grande', 'Verdana', 'Geneva', 'Lucid', 'Arial', 'Helvetica', 'Avant Garde', sans-serif" text-anchor="middle">0.0</text>
     </g>
    </g>
    <g id="xtick_4">
     <g id="line2d_4">
      <use x="224.493045" y="311.04" stroke="#000000" stroke-width=".8" xlink:href="#m08ebe66d25"/>
     </g>
     <g id="text_4">
      <text transform="rotate(-0 224.49 325.64)" x="224.493045" y="325.638438" font="10px 'DejaVu Sans', 'Bitstream Vera Sans', 'Computer Modern Sans Serif', 'Lucida Grande', 'Verdana', 'Geneva', 'Lucid', 'Arial', 'Helvetica', 'Avant Garde', sans-serif" text-anchor="middle">2.5</text>
     </g>
    </g>
    <g id="xtick_5">
     <g id="line2d_5">
      <use x="261.507064" y="311.04" stroke="#000000" stroke-width=".8" xlink:href="#m08ebe66d25"/>
     </g>
     <g id="text_5">
      <text transform="rotate(-0 261.51 325.64)" x="261.507064" y="325.638438" font="10px 'DejaVu Sans', 'Bitstream Vera Sans', 'Computer Modern Sans Serif', 'Lucida Grande', 'Verdana', 'Geneva', 'Lucid', 'Arial', 'Helvetica', 'Avant Garde', sans-serif" text-anchor="middle">5.0</text>
     </g>
    </g>
    <g id="xtick_6">
     <g id="line2d_6">
      <use x="298.521084" y="311.04" stroke="#000000" stroke-width=".8" xlink:href="#m08ebe66d25"/>
     </g>
     <g id="text_6">
      <text transform="rotate(-0 298.52 325.64)" x="298.521084" y="325.638438" font="10px 'DejaVu Sans', 'Bitstream Vera Sans', 'Computer Modern Sans Serif', 'Lucida Grande', 'Verdana', 'Geneva', 'Lucid', 'Arial', 'Helvetica', 'Avant Garde', sans-serif" text-anchor="middle">7.5</text>
     </g>
    </g>
    <g id="xtick_7">
     <g id="line2d_7">
      <use x="335.535103" y="311.04" stroke="#000000" stroke-width=".8" xlink:href="#m08ebe66d25"/>
     </g>
     <g id="text_7">
      <text transform="rotate(-0 335.54 325.64)" x="335.535103" y="325.638438" font="10px 'DejaVu Sans', 'Bitstream Vera Sans', 'Computer Modern Sans Serif', 'Lucida Grande', 'Verdana', 'Geneva', 'Lucid', 'Arial', 'Helvetica', 'Avant Garde', sans-serif" text-anchor="middle">10.0</text>
     </g>
    </g>
    <g id="xtick_8">
     <g id="line2d_8">
      <use x="372.549123" y="311.04" stroke="#000000" stroke-width=".8" xlink:href="#m08ebe66d25"/>
     </g>
     <g id="text_8">
      <text transform="rotate(-0 372.55 325.64)" x="372.549123" y="325.638438" font="10px 'DejaVu Sans', 'Bitstream Vera Sans', 'Computer Modern Sans Serif', 'Lucida Grande', 'Verdana', 'Geneva', 'Lucid', 'Arial', 'Helvetica', 'Avant Garde', sans-serif" text-anchor="middle">12.5</text>
     </g>
    </g>
   </g>
   <g id="matplotlib.axis_2">
    <g id="ytick_1">
     <g id="line2d_9">
      <defs>
       <path id="m7e9cd58b4e" d="m0 0h-3.5" stroke="#000" stroke-width=".8"/>
      </defs>
      <use x="107.128237" y="280.853708" stroke="#000000" stroke-width=".8" xlink:href="#m7e9cd58b4e"/>
     </g>
     <g id="text_9">
      <text transform="rotate(-0 100.13 284.65)" x="100.128237" y="284.652927" font="10px 'DejaVu Sans', 'Bitstream Vera Sans', 'Computer Modern Sans Serif', 'Lucida Grande', 'Verdana', 'Geneva', 'Lucid', 'Arial', 'Helvetica', 'Avant Garde', sans-serif" text-anchor="end">−2.5</text>
     </g>
    </g>
    <g id="ytick_2">
     <g id="line2d_10">
      <use x="107.128237" y="243.839689" stroke="#000000" stroke-width=".8" xlink:href="#m7e9cd58b4e"/>
     </g>
     <g id="text_10">
      <text transform="rotate(-0 100.13 247.64)" x="100.128237" y="247.638908" font="10px 'DejaVu Sans', 'Bitstream Vera Sans', 'Computer Modern Sans Serif', 'Lucida Grande', 'Verdana', 'Geneva', 'Lucid', 'Arial', 'Helvetica', 'Avant Garde', sans-serif" text-anchor="end">0.0</text>
     </g>
    </g>
    <g id="ytick_3">
     <g id="line2d_11">
      <use x="107.128237" y="206.825669" stroke="#000000" stroke-width=".8" xlink:href="#m7e9cd58b4e"/>
     </g>
     <g id="text_11">
      <text transform="rotate(-0 100.13 210.62)" x="100.128237" y="210.624888" font="10px 'DejaVu Sans', 'Bitstream Vera Sans', 'Computer Modern Sans Serif', 'Lucida Grande', 'Verdana', 'Geneva', 'Lucid', 'Arial', 'Helvetica', 'Avant Garde', sans-serif" text-anchor="end">2.5</text>
     </g>
    </g>
    <g id="ytick_4">
     <g id="line2d_12">
      <use x="107.128237" y="169.81165" stroke="#000000" stroke-width=".8" xlink:href="#m7e9cd58b4e"/>
     </g>
     <g id="text_12">
      <text transform="rotate(-0 100.13 173.61)" x="100.128237" y="173.610869" font="10px 'DejaVu Sans', 'Bitstream Vera Sans', 'Computer Modern Sans Serif', 'Lucida Grande', 'Verdana', 'Geneva', 'Lucid', 'Arial', 'Helvetica', 'Avant Garde', sans-serif" text-anchor="end">5.0</text>
     </g>
    </g>
    <g id="ytick_5">
     <g id="line2d_13">
      <use x="107.128237" y="132.797631" stroke="#000000" stroke-width=".8" xlink:href="#m7e9cd58b4e"/>
     </g>
     <g id="text_13">
      <text transform="rotate(-0 100.13 136.6)" x="100.128237" y="136.596849" font="10px 'DejaVu Sans', 'Bitstream Vera Sans', 'Computer Modern Sans Serif', 'Lucida Grande', 'Verdana', 'Geneva', 'Lucid', 'Arial', 'Helvetica', 'Avant Garde', sans-serif" text-anchor="end">7.5</text>
     </g>
    </g>
    <g id="ytick_6">
     <g id="line2d_14">
      <use x="107.128237" y="95.783611" stroke="#000000" stroke-width=".8" xlink:href="#m7e9cd58b4e"/>
     </g>
     <g id="text_14">
      <text transform="rotate(-0 100.13 99.583)" x="100.128237" y="99.58283" font="10px 'DejaVu Sans', 'Bitstream Vera Sans', 'Computer Modern Sans Serif', 'Lucida Grande', 'Verdana', 'Geneva', 'Lucid', 'Arial', 'Helvetica', 'Avant Garde', sans-serif" text-anchor="end">10.0</text>
     </g>
    </g>
    <g id="ytick_7">
     <g id="line2d_15">
      <use x="107.128237" y="58.769592" stroke="#000000" stroke-width=".8" xlink:href="#m7e9cd58b4e"/>
     </g>
     <g id="text_15">
      <text transform="rotate(-0 100.13 62.569)" x="100.128237" y="62.56881" font="10px 'DejaVu Sans', 'Bitstream Vera Sans', 'Computer Modern Sans Serif', 'Lucida Grande', 'Verdana', 'Geneva', 'Lucid', 'Arial', 'Helvetica', 'Avant Garde', sans-serif" text-anchor="end">12.5</text>
     </g>
    </g>
   </g>
   <g id="LineCollection_1" fill="none" stroke-width="2">
    <path d="m187.48 243.84 4.5752-14.081" clip-path="url(#p0a7f102ad9)" stroke="#f00"/>
    <path d="m192.05 229.76-11.978-8.7025" clip-path="url(#p0a7f102ad9)" stroke="#f00"/>
    <path d="m180.08 221.06h14.806" clip-path="url(#p0a7f102ad9)" stroke="#f00"/>
    <path d="m194.88 221.06 4.5752 14.081" clip-path="url(#p0a7f102ad9)" stroke="#f00"/>
    <path d="m199.46 235.14h14.806" clip-path="url(#p0a7f102ad9)" stroke="#f00"/>
    <path d="m214.26 235.14 4.5752-14.081" clip-path="url(#p0a7f102ad9)" stroke="#f00"/>
    <path d="m218.84 221.06-11.978-8.7025" clip-path="url(#p0a7f102ad9)" stroke="#f00"/>
    <path d="m206.86 212.35-11.978 8.7025" clip-path="url(#p0a7f102ad9)" stroke="#f00"/>
    <path d="m194.88 221.06 4.5752-14.081" clip-path="url(#p0a7f102ad9)" stroke="#f00"/>
    <path d="m199.46 206.98h14.806" clip-path="url(#p0a7f102ad9)" stroke="#f00"/>
    <path d="m214.26 206.98 4.5752-14.081" clip-path="url(#p0a7f102ad9)" stroke="#f00"/>
    <path d="m218.84 192.89-11.978-8.7025" clip-path="url(#p0a7f102ad9)" stroke="#f00"/>
    <path d="m206.86 184.19h14.806" clip-path="url(#p0a7f102ad9)" stroke="#f00"/>
    <path d="m221.67 184.19 4.5752-14.081" clip-path="url(#p0a7f102ad9)" stroke="#f00"/>
    <path d="m226.24 170.11 4.5752 14.081" clip-path="url(#p0a7f102ad9)" stroke="#f00"/>
    <path d="m230.82 184.19-11.978 8.7025" clip-path="url(#p0a7f102ad9)" stroke="#f00"/>
    <path d="m218.84 192.89 4.5752 14.081" clip-path="url(#p0a7f102ad9)" stroke="#f00"/>
    <path d="m223.41 206.98h14.806" clip-path="url(#p0a7f102ad9)" stroke="#f00"/>
    <path d="m238.22 206.98 4.5752 14.081" clip-path="url(#p0a7f102ad9)" stroke="#f00"/>
    <path d="m242.79 221.06h14.806" clip-path="url(#p0a7f102ad9)" stroke="#f00"/>
    <path d="m257.6 221.06-11.978 8.7025" clip-path="url(#p0a7f102ad9)" stroke="#f00"/>
    <path d="m245.62 229.76-11.978-8.7025" clip-path="url(#p0a7f102ad9)" stroke="#f00"/>
    <path d="m233.64 221.06-11.978 8.7025" clip-path="url(#p0a7f102ad9)" stroke="#f00"/>
    <path d="m221.67 229.76 4.5752 14.081" clip-path="url(#p0a7f102ad9)" stroke="#f00"/>
    <path d="m226.24 243.84h14.806" clip-path="url(#p0a7f102ad9)" stroke="#f00"/>
    <path d="m241.05 243.84 4.5752-14.081" clip-path="url(#p0a7f102ad9)" stroke="#f00"/>
    <path d="m245.62 229.76 4.5752 14.081" clip-path="url(#p0a7f102ad9)" stroke="#f00"/>
    <path d="m250.2 243.84-11.978 8.7025" clip-path="url(#p0a7f102ad9)" stroke="#f00"/>
    <path d="m238.22 252.54 4.5752 14.081" clip-path="url(#p0a7f102ad9)" stroke="#f00"/>
    <path d="m242.79 266.62h14.806" clip-path="url(#p0a7f102ad9)" stroke="#f00"/>
    <path d="m257.6 266.62 4.5752-14.081" clip-path="url(#p0a7f102ad9)" stroke="#f00"/>
    <path d="m262.17 252.54-11.978-8.7025" clip-path="url(#p0a7f102ad9)" stroke="#f00"/>
    <path d="m250.2 243.84h14.806" clip-path="url(#p0a7f102ad9)" stroke="#f00"/>
    <path d="m265 243.84 4.5752 14.081" clip-path="url(#p0a7f102ad9)" stroke="#f00"/>
    <path d="m269.58 257.92h14.806" clip-path="url(#p0a7f102ad9)" stroke="#f00"/>
    <path d="m284.38 257.92 4.5752-14.081" clip-path="url(#p0a7f102ad9)" stroke="#f00"/>
    <path d="m288.96 243.84-11.978-8.7025" clip-path="url(#p0a7f102ad9)" stroke="#ffd700"/>
    <path d="m276.98 235.14-11.978 8.7025" clip-path="url(#p0a7f102ad9)" stroke="#ffd700"/>
    <path d="m265 243.84 4.5752-14.081" clip-path="url(#p0a7f102ad9)" stroke="#ffd700"/>
    <path d="m269.58 229.76h14.806" clip-path="url(#p0a7f102ad9)" stroke="#ffd700"/>
    <path d="m284.38 229.76 4.5752-14.081" clip-path="url(#p0a7f102ad9)" stroke="#ffd700"/>
    <path d="m288.96 215.68-11.978-8.7025" clip-path="url(#p0a7f102ad9)" stroke="#ffd700"/>
    <path d="m276.98 206.98-11.978 8.7025" clip-path="url(#p0a7f102ad9)" stroke="#ffd700"/>
    <path d="m265 215.68 4.5752 14.081" clip-path="url(#p0a7f102ad9)" stroke="#ffd700"/>
    <path d="m269.58 229.76-11.978-8.7025" clip-path="url(#p0a7f102ad9)" stroke="#ffd700"/>
    <path d="m257.6 221.06 4.5752-14.081" clip-path="url(#p0a7f102ad9)" stroke="#ffd700"/>
    <path d="m262.17 206.98-11.978-8.7025" clip-path="url(#p0a7f102ad9)" stroke="#ffd700"/>
    <path d="m250.2 198.27-11.978 8.7025" clip-path="url(#p0a7f102ad9)" stroke="#ffd700"/>
    <path d="m238.22 206.98 4.5752-14.081" clip-path="url(#p0a7f102ad9)" stroke="#ffd700"/>
    <path d="m242.79 192.89-11.978-8.7025" clip-path="url(#p0a7f102ad9)" stroke="#ffd700"/>
    <path d="m230.82 184.19h14.806" clip-path="url(#p0a7f102ad9)" stroke="#ffd700"/>
    <path d="m245.62 184.19 4.5752 14.081" clip-path="url(#p0a7f102ad9)" stroke="#ffd700"/>
    <path d="m250.2 198.27h14.806" clip-path="url(#p0a7f102ad9)" stroke="#ffd700"/>
    <path d="m265 198.27 4.5752-14.081" clip-path="url(#p0a7f102ad9)" stroke="#ffd700"/>
    <path d="m269.58 184.19h14.806" clip-path="url(#p0a7f102ad9)" stroke="#ffd700"/>
    <path d="m284.38 184.19 4.5752-14.081" clip-path="url(#p0a7f102ad9)" stroke="#ffd700"/>
    <path d="m288.96 170.11 4.5752 14.081" clip-path="url(#p0a7f102ad9)" stroke="#ffd700"/>
    <path d="m293.53 184.19-11.978 8.7025" clip-path="url(#p0a7f102ad9)" stroke="#ffd700"/>
    <path d="m281.56 192.89 4.5752 14.081" clip-path="url(#p0a7f102ad9)" stroke="#ffd700"/>
    <path d="m286.13 206.98h14.806" clip-path="url(#p0a7f102ad9)" stroke="#ffd700"/>
    <path d="m300.94 206.98 4.5752-14.081" clip-path="url(#p0a7f102ad9)" stroke="#ffd700"/>
    <path d="m305.51 192.89-11.978-8.7025" clip-path="url(#p0a7f102ad9)" stroke="#ffd700"/>
    <path d="m293.53 184.19h14.806" clip-path="url(#p0a7f102ad9)" stroke="#ffd700"/>
    <path d="m308.34 184.19 4.5752 14.081" clip-path="url(#p0a7f102ad9)" stroke="#ffd700"/>
    <path d="m312.91 198.27h14.806" clip-path="url(#p0a7f102ad9)" stroke="#ffd700"/>
    <path d="m327.72 198.27 4.5752-14.081" clip-path="url(#p0a7f102ad9)" stroke="#ffd700"/>
    <path d="m332.29 184.19-11.978-8.7025" clip-path="url(#p0a7f102ad9)" stroke="#ffd700"/>
    <path d="m320.32 175.49-11.978 8.7025" clip-path="url(#p0a7f102ad9)" stroke="#ffd700"/>
    <path d="m308.34 184.19 4.5752-14.081" clip-path="url(#p0a7f102ad9)" stroke="#ffd700"/>
    <path d="m312.91 170.11h14.806" clip-path="url(#p0a7f102ad9)" stroke="#ffd700"/>
    <path d="m327.72 170.11 4.5752-14.081" clip-path="url(#p0a7f102ad9)" stroke="#ffd700"/>
    <path d="m332.29 156.03-11.978-8.7025" clip-path="url(#p0a7f102ad9)" stroke="#ffd700"/>
    <path d="m320.32 147.33-11.978 8.7025" clip-path="url(#p0a7f102ad9)" stroke="#32cd32"/>
    <path d="m308.34 156.03 4.5752 14.081" clip-path="url(#p0a7f102ad9)" stroke="#32cd32"/>
    <path d="m312.91 170.11-11.978-8.7025" clip-path="url(#p0a7f102ad9)" stroke="#32cd32"/>
    <path d="m300.94 161.41 4.5752-14.081" clip-path="url(#p0a7f102ad9)" stroke="#32cd32"/>
    <path d="m305.51 147.33-11.978-8.7025" clip-path="url(#p0a7f102ad9)" stroke="#32cd32"/>
    <path d="m293.53 138.62-11.978 8.7025" clip-path="url(#p0a7f102ad9)" stroke="#32cd32"/>
    <path d="m281.56 147.33 4.5752 14.081" clip-path="url(#p0a7f102ad9)" stroke="#32cd32"/>
    <path d="m286.13 161.41h14.806" clip-path="url(#p0a7f102ad9)" stroke="#32cd32"/>
    <path d="m300.94 161.41-11.978 8.7025" clip-path="url(#p0a7f102ad9)" stroke="#32cd32"/>
    <path d="m288.96 170.11-11.978-8.7025" clip-path="url(#p0a7f102ad9)" stroke="#32cd32"/>
    <path d="m276.98 161.41-11.978 8.7025" clip-path="url(#p0a7f102ad9)" stroke="#32cd32"/>
    <path d="m265 170.11 4.5752 14.081" clip-path="url(#p0a7f102ad9)" stroke="#32cd32"/>
    <path d="m269.58 184.19-11.978-8.7025" clip-path="url(#p0a7f102ad9)" stroke="#32cd32"/>
    <path d="m257.6 175.49-11.978 8.7025" clip-path="url(#p0a7f102ad9)" stroke="#32cd32"/>
    <path d="m245.62 184.19 4.5752-14.081" clip-path="url(#p0a7f102ad9)" stroke="#32cd32"/>
    <path d="m250.2 170.11h14.806" clip-path="url(#p0a7f102ad9)" stroke="#32cd32"/>
    <path d="m265 170.11 4.5752-14.081" clip-path="url(#p0a7f102ad9)" stroke="#32cd32"/>
    <path d="m269.58 156.03-11.978-8.7025" clip-path="url(#p0a7f102ad9)" stroke="#32cd32"/>
    <path d="m257.6 147.33 4.5752-14.081" clip-path="url(#p0a7f102ad9)" stroke="#32cd32"/>
    <path d="m262.17 133.25-11.978-8.7025" clip-path="url(#p0a7f102ad9)" stroke="#32cd32"/>
    <path d="m250.2 124.54h14.806" clip-path="url(#p0a7f102ad9)" stroke="#32cd32"/>
    <path d="m265 124.54 4.5752 14.081" clip-path="url(#p0a7f102ad9)" stroke="#32cd32"/>
    <path d="m269.58 138.62h14.806" clip-path="url(#p0a7f102ad9)" stroke="#32cd32"/>
    <path d="m284.38 138.62 4.5752-14.081" clip-path="url(#p0a7f102ad9)" stroke="#32cd32"/>
    <path d="m288.96 124.54-11.978-8.7025" clip-path="url(#p0a7f102ad9)" stroke="#32cd32"/>
    <path d="m276.98 115.84-11.978 8.7025" clip-path="url(#p0a7f102ad9)" stroke="#32cd32"/>
    <path d="m265 124.54 4.5752-14.081" clip-path="url(#p0a7f102ad9)" stroke="#32cd32"/>
    <path d="m269.58 110.46h14.806" clip-path="url(#p0a7f102ad9)" stroke="#32cd32"/>
    <path d="m284.38 110.46 4.5752-14.081" clip-path="url(#p0a7f102ad9)" stroke="#32cd32"/>
    <path d="m288.96 96.382-11.978-8.7025" clip-path="url(#p0a7f102ad9)" stroke="#32cd32"/>
    <path d="m276.98 87.679-11.978 8.7025" clip-path="url(#p0a7f102ad9)" stroke="#32cd32"/>
    <path d="m265 96.382 4.5752 14.081" clip-path="url(#p0a7f102ad9)" stroke="#32cd32"/>
    <path d="m269.58 110.46-11.978-8.7025" clip-path="url(#p0a7f102ad9)" stroke="#32cd32"/>
    <path d="m257.6 101.76 4.5752-14.081" clip-path="url(#p0a7f102ad9)" stroke="#32cd32"/>
    <path d="m262.17 87.679-11.978-8.7025" clip-path="url(#p0a7f102ad9)" stroke="#32cd32"/>
    <path d="m250.2 78.977-11.978 8.7025" clip-path="url(#p0a7f102ad9)" stroke="#32cd32"/>
    <path d="m238.22 87.679 4.5752 14.081" clip-path="url(#p0a7f102ad9)" stroke="#00f"/>
    <path d="m242.79 101.76h14.806" clip-path="url(#p0a7f102ad9)" stroke="#00f"/>
    <path d="m257.6 101.76-11.978 8.7025" clip-path="url(#p0a7f102ad9)" stroke="#00f"/>
    <path d="m245.62 110.46-11.978-8.7025" clip-path="url(#p0a7f102ad9)" stroke="#00f"/>
    <path d="m233.64 101.76-11.978 8.7025" clip-path="url(#p0a7f102ad9)" stroke="#00f"/>
    <path d="m221.67 110.46 4.5752 14.081" clip-path="url(#p0a7f102ad9)" stroke="#00f"/>
    <path d="m226.24 124.54h14.806" clip-path="url(#p0a7f102ad9)" stroke="#00f"/>
    <path d="m241.05 124.54 4.5752-14.081" clip-path="url(#p0a7f102ad9)" stroke="#00f"/>
    <path d="m245.62 110.46 4.5752 14.081" clip-path="url(#p0a7f102ad9)" stroke="#00f"/>
    <path d="m250.2 124.54-11.978 8.7025" clip-path="url(#p0a7f102ad9)" stroke="#00f"/>
    <path d="m238.22 133.25 4.5752 14.081" clip-path="url(#p0a7f102ad9)" stroke="#00f"/>
    <path d="m242.79 147.33h14.806" clip-path="url(#p0a7f102ad9)" stroke="#00f"/>
    <path d="m257.6 147.33-11.978 8.7025" clip-path="url(#p0a7f102ad9)" stroke="#00f"/>
    <path d="m245.62 156.03 4.5752 14.081" clip-path="url(#p0a7f102ad9)" stroke="#00f"/>
    <path d="m250.2 170.11-11.978-8.7025" clip-path="url(#p0a7f102ad9)" stroke="#00f"/>
    <path d="m238.22 161.41 4.5752-14.081" clip-path="url(#p0a7f102ad9)" stroke="#00f"/>
    <path d="m242.79 147.33-11.978-8.7025" clip-path="url(#p0a7f102ad9)" stroke="#00f"/>
    <path d="m230.82 138.62-11.978 8.7025" clip-path="url(#p0a7f102ad9)" stroke="#00f"/>
    <path d="m218.84 147.33-11.978-8.7025" clip-path="url(#p0a7f102ad9)" stroke="#00f"/>
    <path d="m206.86 138.62-11.978 8.7025" clip-path="url(#p0a7f102ad9)" stroke="#00f"/>
    <path d="m194.88 147.33 4.5752-14.081" clip-path="url(#p0a7f102ad9)" stroke="#00f"/>
    <path d="m199.46 133.25h14.806" clip-path="url(#p0a7f102ad9)" stroke="#00f"/>
    <path d="m214.26 133.25 4.5752-14.081" clip-path="url(#p0a7f102ad9)" stroke="#00f"/>
    <path d="m218.84 119.17-11.978-8.7025" clip-path="url(#p0a7f102ad9)" stroke="#00f"/>
    <path d="m206.86 110.46-11.978 8.7025" clip-path="url(#p0a7f102ad9)" stroke="#00f"/>
    <path d="m194.88 119.17 4.5752 14.081" clip-path="url(#p0a7f102ad9)" stroke="#00f"/>
    <path d="m199.46 133.25-11.978-8.7025" clip-path="url(#p0a7f102ad9)" stroke="#00f"/>
    <path d="m187.48 124.54 4.5752-14.081" clip-path="url(#p0a7f102ad9)" stroke="#00f"/>
    <path d="m192.05 110.46-11.978-8.7025" clip-path="url(#p0a7f102ad9)" stroke="#00f"/>
    <path d="m180.08 101.76-11.978 8.7025" clip-path="url(#p0a7f102ad9)" stroke="#00f"/>
    <path d="m168.1 110.46 4.5752 14.081" clip-path="url(#p0a7f102ad9)" stroke="#00f"/>
    <path d="m172.67 124.54h14.806" clip-path="url(#p0a7f102ad9)" stroke="#00f"/>
    <path d="m187.48 124.54-11.978 8.7025" clip-path="url(#p0a7f102ad9)" stroke="#00f"/>
    <path d="m175.5 133.25-11.978-8.7025" clip-path="url(#p0a7f102ad9)" stroke="#00f"/>
    <path d="m163.52 124.54-11.978 8.7025" clip-path="url(#p0a7f102ad9)" stroke="#00f"/>
    <path d="m151.55 133.25 4.5752 14.081" clip-path="url(#p0a7f102ad9)" stroke="#00f"/>
    <path d="m156.12 147.33h14.806" clip-path="url(#p0a7f102ad9)" stroke="#9400d3"/>
    <path d="m170.93 147.33 4.5752-14.081" clip-path="url(#p0a7f102ad9)" stroke="#9400d3"/>
    <path d="m175.5 133.25 4.5752 14.081" clip-path="url(#p0a7f102ad9)" stroke="#9400d3"/>
    <path d="m180.08 147.33-11.978 8.7025" clip-path="url(#p0a7f102ad9)" stroke="#9400d3"/>
    <path d="m168.1 156.03 4.5752 14.081" clip-path="url(#p0a7f102ad9)" stroke="#9400d3"/>
    <path d="m172.67 170.11h14.806" clip-path="url(#p0a7f102ad9)" stroke="#9400d3"/>
    <path d="m187.48 170.11 4.5752-14.081" clip-path="url(#p0a7f102ad9)" stroke="#9400d3"/>
    <path d="m192.05 156.03-11.978-8.7025" clip-path="url(#p0a7f102ad9)" stroke="#9400d3"/>
    <path d="m180.08 147.33h14.806" clip-path="url(#p0a7f102ad9)" stroke="#9400d3"/>
    <path d="m194.88 147.33 4.5752 14.081" clip-path="url(#p0a7f102ad9)" stroke="#9400d3"/>
    <path d="m199.46 161.41h14.806" clip-path="url(#p0a7f102ad9)" stroke="#9400d3"/>
    <path d="m214.26 161.41 4.5752-14.081" clip-path="url(#p0a7f102ad9)" stroke="#9400d3"/>
    <path d="m218.84 147.33 4.5752 14.081" clip-path="url(#p0a7f102ad9)" stroke="#9400d3"/>
    <path d="m223.41 161.41h14.806" clip-path="url(#p0a7f102ad9)" stroke="#9400d3"/>
    <path d="m238.22 161.41-11.978 8.7025" clip-path="url(#p0a7f102ad9)" stroke="#9400d3"/>
    <path d="m226.24 170.11-11.978-8.7025" clip-path="url(#p0a7f102ad9)" stroke="#9400d3"/>
    <path d="m214.26 161.41-11.978 8.7025" clip-path="url(#p0a7f102ad9)" stroke="#9400d3"/>
    <path d="m202.28 170.11 4.5752 14.081" clip-path="url(#p0a7f102ad9)" stroke="#9400d3"/>
    <path d="m206.86 184.19-11.978 8.7025" clip-path="url(#p0a7f102ad9)" stroke="#9400d3"/>
    <path d="m194.88 192.89 4.5752 14.081" clip-path="url(#p0a7f102ad9)" stroke="#9400d3"/>
    <path d="m199.46 206.98-11.978-8.7025" clip-path="url(#p0a7f102ad9)" stroke="#9400d3"/>
    <path d="m187.48 198.27 4.5752-14.081" clip-path="url(#p0a7f102ad9)" stroke="#9400d3"/>
    <path d="m192.05 184.19-11.978-8.7025" clip-path="url(#p0a7f102ad9)" stroke="#9400d3"/>
    <path d="m180.08 175.49-11.978 8.7025" clip-path="url(#p0a7f102ad9)" stroke="#9400d3"/>
    <path d="m168.1 184.19 4.5752 14.081" clip-path="url(#p0a7f102ad9)" stroke="#9400d3"/>
    <path d="m172.67 198.27h14.806" clip-path="url(#p0a7f102ad9)" stroke="#9400d3"/>
    <path d="m187.48 198.27-11.978 8.7025" clip-path="url(#p0a7f102ad9)" stroke="#9400d3"/>
    <path d="m175.5 206.98-11.978-8.7025" clip-path="url(#p0a7f102ad9)" stroke="#9400d3"/>
    <path d="m163.52 198.27-11.978 8.7025" clip-path="url(#p0a7f102ad9)" stroke="#9400d3"/>
    <path d="m151.55 206.98 4.5752 14.081" clip-path="url(#p0a7f102ad9)" stroke="#9400d3"/>
    <path d="m156.12 221.06h14.806" clip-path="url(#p0a7f102ad9)" stroke="#9400d3"/>
    <path d="m170.93 221.06 4.5752-14.081" clip-path="url(#p0a7f102ad9)" stroke="#9400d3"/>
    <path d="m175.5 206.98 4.5752 14.081" clip-path="url(#p0a7f102ad9)" stroke="#9400d3"/>
    <path d="m180.08 221.06-11.978 8.7025" clip-path="url(#p0a7f102ad9)" stroke="#9400d3"/>
    <path d="m168.1 229.76 4.5752 14.081" clip-path="url(#p0a7f102ad9)" stroke="#9400d3"/>
    <path d="m172.67 243.84h14.806" clip-path="url(#p0a7f102ad9)" stroke="#9400d3"/>
   </g>
   <g id="patch_3">
    <path d="m107.13 311.04v-276.48" fill="none" stroke="#000" stroke-linecap="square" stroke-width=".8"/>
   </g>
   <g id="patch_4">
    <path d="m376.71 311.04v-276.48" fill="none" stroke="#000" stroke-linecap="square" stroke-width=".8"/>
   </g>
   <g id="patch_5">
    <path d="m107.13 311.04h269.58" fill="none" stroke="#000" stroke-linecap="square" stroke-width=".8"/>
   </g>
   <g id="patch_6">
    <path d="m107.13 34.56h269.58" fill="none" stroke="#000" stroke-linecap="square" stroke-width=".8"/>
   </g>
  </g>
  <g id="text_16">
   <text transform="rotate(-0 230.4 19.07)" x="230.4" y="19.0695" font="16px 'DejaVu Sans', 'Bitstream Vera Sans', 'Computer Modern Sans Serif', 'Lucida Grande', 'Verdana', 'Geneva', 'Lucid', 'Arial', 'Helvetica', 'Avant Garde', sans-serif" text-anchor="middle">n = 2</text>
  </g>
 </g>
 <defs>
  <clipPath id="p0a7f102ad9">
   <rect x="107.13" y="34.56" width="269.58" height="276.48"/>
  </clipPath>
 </defs>
</svg>
