<?xml version="1.0" encoding="UTF-8"?>
<!DOCTYPE svg  PUBLIC '-//W3C//DTD SVG 1.1//EN'  'http://www.w3.org/Graphics/SVG/1.1/DTD/svg11.dtd'>
<svg width="460.8pt" height="345.6pt" version="1.1" viewBox="0 0 460.8 345.6" xmlns="http://www.w3.org/2000/svg" xmlns:xlink="http://www.w3.org/1999/xlink">
 <metadata>
  <rdf:RDF xmlns:cc="http://creativecommons.org/ns#" xmlns:dc="http://purl.org/dc/elements/1.1/" xmlns:rdf="http://www.w3.org/1999/02/22-rdf-syntax-ns#">
   <cc:Work>
    <dc:type rdf:resource="http://purl.org/dc/dcmitype/StillImage"/>
    <dc:date>2023-03-19T15:29:56.940264</dc:date>
    <dc:format>image/svg+xml</dc:format>
    <dc:creator>
     <cc:Agent>
      <dc:title>Matplotlib v3.7.1, https://matplotlib.org/</dc:title>
     </cc:Agent>
    </dc:creator>
   </cc:Work>
  </rdf:RDF>
 </metadata>
 <defs>
  <style type="text/css">*{stroke-linejoin: round; stroke-linecap: butt}</style>
 </defs>
 <g id="figure_1">
  <g id="patch_1">
   <path d="m0 345.6h460.8v-345.6h-460.8z" fill="#fff"/>
  </g>
  <g id="axes_1">
   <g id="patch_2">
    <path d="m103.68 311.04h276.48v-276.48h-276.48z" fill="#fff"/>
   </g>
   <g id="matplotlib.axis_1">
    <g id="xtick_1">
     <g id="line2d_1">
      <defs>
       <path id="m4cb35cb94d" d="m0 0v3.5" stroke="#000" stroke-width=".8"/>
      </defs>
      <use x="119.478857" y="311.04" stroke="#000000" stroke-width=".8" xlink:href="#m4cb35cb94d"/>
     </g>
     <g id="text_1">
      <text transform="rotate(-0 119.48 325.64)" x="119.478857" y="325.638438" font="10px 'DejaVu Sans', 'Bitstream Vera Sans', 'Computer Modern Sans Serif', 'Lucida Grande', 'Verdana', 'Geneva', 'Lucid', 'Arial', 'Helvetica', 'Avant Garde', sans-serif" text-anchor="middle">−15</text>
     </g>
    </g>
    <g id="xtick_2">
     <g id="line2d_2">
      <use x="158.976" y="311.04" stroke="#000000" stroke-width=".8" xlink:href="#m4cb35cb94d"/>
     </g>
     <g id="text_2">
      <text transform="rotate(-0 158.98 325.64)" x="158.976" y="325.638438" font="10px 'DejaVu Sans', 'Bitstream Vera Sans', 'Computer Modern Sans Serif', 'Lucida Grande', 'Verdana', 'Geneva', 'Lucid', 'Arial', 'Helvetica', 'Avant Garde', sans-serif" text-anchor="middle">−10</text>
     </g>
    </g>
    <g id="xtick_3">
     <g id="line2d_3">
      <use x="198.473143" y="311.04" stroke="#000000" stroke-width=".8" xlink:href="#m4cb35cb94d"/>
     </g>
     <g id="text_3">
      <text transform="rotate(-0 198.47 325.64)" x="198.473143" y="325.638438" font="10px 'DejaVu Sans', 'Bitstream Vera Sans', 'Computer Modern Sans Serif', 'Lucida Grande', 'Verdana', 'Geneva', 'Lucid', 'Arial', 'Helvetica', 'Avant Garde', sans-serif" text-anchor="middle">−5</text>
     </g>
    </g>
    <g id="xtick_4">
     <g id="line2d_4">
      <use x="237.970286" y="311.04" stroke="#000000" stroke-width=".8" xlink:href="#m4cb35cb94d"/>
     </g>
     <g id="text_4">
      <text transform="rotate(-0 237.97 325.64)" x="237.970286" y="325.638438" font="10px 'DejaVu Sans', 'Bitstream Vera Sans', 'Computer Modern Sans Serif', 'Lucida Grande', 'Verdana', 'Geneva', 'Lucid', 'Arial', 'Helvetica', 'Avant Garde', sans-serif" text-anchor="middle">0</text>
     </g>
    </g>
    <g id="xtick_5">
     <g id="line2d_5">
      <use x="277.467429" y="311.04" stroke="#000000" stroke-width=".8" xlink:href="#m4cb35cb94d"/>
     </g>
     <g id="text_5">
      <text transform="rotate(-0 277.47 325.64)" x="277.467429" y="325.638438" font="10px 'DejaVu Sans', 'Bitstream Vera Sans', 'Computer Modern Sans Serif', 'Lucida Grande', 'Verdana', 'Geneva', 'Lucid', 'Arial', 'Helvetica', 'Avant Garde', sans-serif" text-anchor="middle">5</text>
     </g>
    </g>
    <g id="xtick_6">
     <g id="line2d_6">
      <use x="316.964571" y="311.04" stroke="#000000" stroke-width=".8" xlink:href="#m4cb35cb94d"/>
     </g>
     <g id="text_6">
      <text transform="rotate(-0 316.96 325.64)" x="316.964571" y="325.638438" font="10px 'DejaVu Sans', 'Bitstream Vera Sans', 'Computer Modern Sans Serif', 'Lucida Grande', 'Verdana', 'Geneva', 'Lucid', 'Arial', 'Helvetica', 'Avant Garde', sans-serif" text-anchor="middle">10</text>
     </g>
    </g>
    <g id="xtick_7">
     <g id="line2d_7">
      <use x="356.461714" y="311.04" stroke="#000000" stroke-width=".8" xlink:href="#m4cb35cb94d"/>
     </g>
     <g id="text_7">
      <text transform="rotate(-0 356.46 325.64)" x="356.461714" y="325.638438" font="10px 'DejaVu Sans', 'Bitstream Vera Sans', 'Computer Modern Sans Serif', 'Lucida Grande', 'Verdana', 'Geneva', 'Lucid', 'Arial', 'Helvetica', 'Avant Garde', sans-serif" text-anchor="middle">15</text>
     </g>
    </g>
   </g>
   <g id="matplotlib.axis_2">
    <g id="ytick_1">
     <g id="line2d_8">
      <defs>
       <path id="m74cf4e198e" d="m0 0h-3.5" stroke="#000" stroke-width=".8"/>
      </defs>
      <use x="103.68" y="287.341714" stroke="#000000" stroke-width=".8" xlink:href="#m74cf4e198e"/>
     </g>
     <g id="text_8">
      <text transform="rotate(-0 96.68 291.14)" x="96.68" y="291.140933" font="10px 'DejaVu Sans', 'Bitstream Vera Sans', 'Computer Modern Sans Serif', 'Lucida Grande', 'Verdana', 'Geneva', 'Lucid', 'Arial', 'Helvetica', 'Avant Garde', sans-serif" text-anchor="end">0</text>
     </g>
    </g>
    <g id="ytick_2">
     <g id="line2d_9">
      <use x="103.68" y="247.844571" stroke="#000000" stroke-width=".8" xlink:href="#m74cf4e198e"/>
     </g>
     <g id="text_9">
      <text transform="rotate(-0 96.68 251.64)" x="96.68" y="251.64379" font="10px 'DejaVu Sans', 'Bitstream Vera Sans', 'Computer Modern Sans Serif', 'Lucida Grande', 'Verdana', 'Geneva', 'Lucid', 'Arial', 'Helvetica', 'Avant Garde', sans-serif" text-anchor="end">5</text>
     </g>
    </g>
    <g id="ytick_3">
     <g id="line2d_10">
      <use x="103.68" y="208.347429" stroke="#000000" stroke-width=".8" xlink:href="#m74cf4e198e"/>
     </g>
     <g id="text_10">
      <text transform="rotate(-0 96.68 212.15)" x="96.68" y="212.146647" font="10px 'DejaVu Sans', 'Bitstream Vera Sans', 'Computer Modern Sans Serif', 'Lucida Grande', 'Verdana', 'Geneva', 'Lucid', 'Arial', 'Helvetica', 'Avant Garde', sans-serif" text-anchor="end">10</text>
     </g>
    </g>
    <g id="ytick_4">
     <g id="line2d_11">
      <use x="103.68" y="168.850286" stroke="#000000" stroke-width=".8" xlink:href="#m74cf4e198e"/>
     </g>
     <g id="text_11">
      <text transform="rotate(-0 96.68 172.65)" x="96.68" y="172.649504" font="10px 'DejaVu Sans', 'Bitstream Vera Sans', 'Computer Modern Sans Serif', 'Lucida Grande', 'Verdana', 'Geneva', 'Lucid', 'Arial', 'Helvetica', 'Avant Garde', sans-serif" text-anchor="end">15</text>
     </g>
    </g>
    <g id="ytick_5">
     <g id="line2d_12">
      <use x="103.68" y="129.353143" stroke="#000000" stroke-width=".8" xlink:href="#m74cf4e198e"/>
     </g>
     <g id="text_12">
      <text transform="rotate(-0 96.68 133.15)" x="96.68" y="133.152362" font="10px 'DejaVu Sans', 'Bitstream Vera Sans', 'Computer Modern Sans Serif', 'Lucida Grande', 'Verdana', 'Geneva', 'Lucid', 'Arial', 'Helvetica', 'Avant Garde', sans-serif" text-anchor="end">20</text>
     </g>
    </g>
    <g id="ytick_6">
     <g id="line2d_13">
      <use x="103.68" y="89.856" stroke="#000000" stroke-width=".8" xlink:href="#m74cf4e198e"/>
     </g>
     <g id="text_13">
      <text transform="rotate(-0 96.68 93.655)" x="96.68" y="93.655219" font="10px 'DejaVu Sans', 'Bitstream Vera Sans', 'Computer Modern Sans Serif', 'Lucida Grande', 'Verdana', 'Geneva', 'Lucid', 'Arial', 'Helvetica', 'Avant Garde', sans-serif" text-anchor="end">25</text>
     </g>
    </g>
    <g id="ytick_7">
     <g id="line2d_14">
      <use x="103.68" y="50.358857" stroke="#000000" stroke-width=".8" xlink:href="#m74cf4e198e"/>
     </g>
     <g id="text_14">
      <text transform="rotate(-0 96.68 54.158)" x="96.68" y="54.158076" font="10px 'DejaVu Sans', 'Bitstream Vera Sans', 'Computer Modern Sans Serif', 'Lucida Grande', 'Verdana', 'Geneva', 'Lucid', 'Arial', 'Helvetica', 'Avant Garde', sans-serif" text-anchor="end">30</text>
     </g>
    </g>
   </g>
   <g id="LineCollection_1" fill="none" stroke="#6a5acd">
    <path d="m237.97 287.34h7.8994" clip-path="url(#pe2cc98b519)"/>
    <path d="m245.87 287.34v-7.8994" clip-path="url(#pe2cc98b519)"/>
    <path d="m245.87 279.44h7.8994" clip-path="url(#pe2cc98b519)"/>
    <path d="m253.77 279.44v-7.8994" clip-path="url(#pe2cc98b519)"/>
    <path d="m253.77 271.54h7.8994" clip-path="url(#pe2cc98b519)"/>
    <path d="m261.67 271.54v-7.8994" clip-path="url(#pe2cc98b519)"/>
    <path d="m261.67 263.64h-7.8994" clip-path="url(#pe2cc98b519)"/>
    <path d="m253.77 263.64v-7.8994" clip-path="url(#pe2cc98b519)"/>
    <path d="m253.77 255.74h-7.8994" clip-path="url(#pe2cc98b519)"/>
    <path d="m245.87 255.74v-7.8994" clip-path="url(#pe2cc98b519)"/>
    <path d="m245.87 247.84h7.8994" clip-path="url(#pe2cc98b519)"/>
    <path d="m253.77 247.84v-7.8994" clip-path="url(#pe2cc98b519)"/>
    <path d="m253.77 239.95h7.8994" clip-path="url(#pe2cc98b519)"/>
    <path d="m261.67 239.95v7.8994" clip-path="url(#pe2cc98b519)"/>
    <path d="m261.67 247.84h7.8994" clip-path="url(#pe2cc98b519)"/>
    <path d="m269.57 247.84v7.8994" clip-path="url(#pe2cc98b519)"/>
    <path d="m269.57 255.74h7.8994" clip-path="url(#pe2cc98b519)"/>
    <path d="m277.47 255.74v-7.8994" clip-path="url(#pe2cc98b519)"/>
    <path d="m277.47 247.84h7.8994" clip-path="url(#pe2cc98b519)"/>
    <path d="m285.37 247.84v-7.8994" clip-path="url(#pe2cc98b519)"/>
    <path d="m285.37 239.95h7.8994" clip-path="url(#pe2cc98b519)"/>
    <path d="m293.27 239.95v-7.8994" clip-path="url(#pe2cc98b519)"/>
    <path d="m293.27 232.05h-7.8994" clip-path="url(#pe2cc98b519)"/>
    <path d="m285.37 232.05v-7.8994" clip-path="url(#pe2cc98b519)"/>
    <path d="m285.37 224.15h-7.8994" clip-path="url(#pe2cc98b519)"/>
    <path d="m277.47 224.15v-7.8994" clip-path="url(#pe2cc98b519)"/>
    <path d="m277.47 216.25h-7.8994" clip-path="url(#pe2cc98b519)"/>
    <path d="m269.57 216.25v7.8994" clip-path="url(#pe2cc98b519)"/>
    <path d="m269.57 224.15h-7.8994" clip-path="url(#pe2cc98b519)"/>
    <path d="m261.67 224.15v7.8994" clip-path="url(#pe2cc98b519)"/>
    <path d="m261.67 232.05h-7.8994" clip-path="url(#pe2cc98b519)"/>
    <path d="m253.77 232.05v-7.8994" clip-path="url(#pe2cc98b519)"/>
    <path d="m253.77 224.15h-7.8994" clip-path="url(#pe2cc98b519)"/>
    <path d="m245.87 224.15v-7.8994" clip-path="url(#pe2cc98b519)"/>
    <path d="m245.87 216.25h7.8994" clip-path="url(#pe2cc98b519)"/>
    <path d="m253.77 216.25v-7.8994" clip-path="url(#pe2cc98b519)"/>
    <path d="m253.77 208.35h7.8994" clip-path="url(#pe2cc98b519)"/>
    <path d="m261.67 208.35v-7.8994" clip-path="url(#pe2cc98b519)"/>
    <path d="m261.67 200.45h-7.8994" clip-path="url(#pe2cc98b519)"/>
    <path d="m253.77 200.45v-7.8994" clip-path="url(#pe2cc98b519)"/>
    <path d="m253.77 192.55h-7.8994" clip-path="url(#pe2cc98b519)"/>
    <path d="m245.87 192.55v-7.8994" clip-path="url(#pe2cc98b519)"/>
    <path d="m245.87 184.65h7.8994" clip-path="url(#pe2cc98b519)"/>
    <path d="m253.77 184.65v-7.8994" clip-path="url(#pe2cc98b519)"/>
    <path d="m253.77 176.75h7.8994" clip-path="url(#pe2cc98b519)"/>
    <path d="m261.67 176.75v7.8994" clip-path="url(#pe2cc98b519)"/>
    <path d="m261.67 184.65h7.8994" clip-path="url(#pe2cc98b519)"/>
    <path d="m269.57 184.65v7.8994" clip-path="url(#pe2cc98b519)"/>
    <path d="m269.57 192.55h7.8994" clip-path="url(#pe2cc98b519)"/>
    <path d="m277.47 192.55v-7.8994" clip-path="url(#pe2cc98b519)"/>
    <path d="m277.47 184.65h7.8994" clip-path="url(#pe2cc98b519)"/>
    <path d="m285.37 184.65v-7.8994" clip-path="url(#pe2cc98b519)"/>
    <path d="m285.37 176.75h7.8994" clip-path="url(#pe2cc98b519)"/>
    <path d="m293.27 176.75v7.8994" clip-path="url(#pe2cc98b519)"/>
    <path d="m293.27 184.65h7.8994" clip-path="url(#pe2cc98b519)"/>
    <path d="m301.17 184.65v7.8994" clip-path="url(#pe2cc98b519)"/>
    <path d="m301.17 192.55h-7.8994" clip-path="url(#pe2cc98b519)"/>
    <path d="m293.27 192.55v7.8994" clip-path="url(#pe2cc98b519)"/>
    <path d="m293.27 200.45h-7.8994" clip-path="url(#pe2cc98b519)"/>
    <path d="m285.37 200.45v7.8994" clip-path="url(#pe2cc98b519)"/>
    <path d="m285.37 208.35h7.8994" clip-path="url(#pe2cc98b519)"/>
    <path d="m293.27 208.35v7.8994" clip-path="url(#pe2cc98b519)"/>
    <path d="m293.27 216.25h7.8994" clip-path="url(#pe2cc98b519)"/>
    <path d="m301.17 216.25v7.8994" clip-path="url(#pe2cc98b519)"/>
    <path d="m301.17 224.15h7.8994" clip-path="url(#pe2cc98b519)"/>
    <path d="m309.07 224.15v-7.8994" clip-path="url(#pe2cc98b519)"/>
    <path d="m309.07 216.25h7.8994" clip-path="url(#pe2cc98b519)"/>
    <path d="m316.96 216.25v-7.8994" clip-path="url(#pe2cc98b519)"/>
    <path d="m316.96 208.35h7.8994" clip-path="url(#pe2cc98b519)"/>
    <path d="m324.86 208.35v-7.8994" clip-path="url(#pe2cc98b519)"/>
    <path d="m324.86 200.45h-7.8994" clip-path="url(#pe2cc98b519)"/>
    <path d="m316.96 200.45v-7.8994" clip-path="url(#pe2cc98b519)"/>
    <path d="m316.96 192.55h-7.8994" clip-path="url(#pe2cc98b519)"/>
    <path d="m309.07 192.55v-7.8994" clip-path="url(#pe2cc98b519)"/>
    <path d="m309.07 184.65h7.8994" clip-path="url(#pe2cc98b519)"/>
    <path d="m316.96 184.65v-7.8994" clip-path="url(#pe2cc98b519)"/>
    <path d="m316.96 176.75h7.8994" clip-path="url(#pe2cc98b519)"/>
    <path d="m324.86 176.75v7.8994" clip-path="url(#pe2cc98b519)"/>
    <path d="m324.86 184.65h7.8994" clip-path="url(#pe2cc98b519)"/>
    <path d="m332.76 184.65v7.8994" clip-path="url(#pe2cc98b519)"/>
    <path d="m332.76 192.55h7.8994" clip-path="url(#pe2cc98b519)"/>
    <path d="m340.66 192.55v-7.8994" clip-path="url(#pe2cc98b519)"/>
    <path d="m340.66 184.65h7.8994" clip-path="url(#pe2cc98b519)"/>
    <path d="m348.56 184.65v-7.8994" clip-path="url(#pe2cc98b519)"/>
    <path d="m348.56 176.75h7.8994" clip-path="url(#pe2cc98b519)"/>
    <path d="m356.46 176.75v-7.8994" clip-path="url(#pe2cc98b519)"/>
    <path d="m356.46 168.85h-7.8994" clip-path="url(#pe2cc98b519)"/>
    <path d="m348.56 168.85v-7.8994" clip-path="url(#pe2cc98b519)"/>
    <path d="m348.56 160.95h-7.8994" clip-path="url(#pe2cc98b519)"/>
    <path d="m340.66 160.95v-7.8994" clip-path="url(#pe2cc98b519)"/>
    <path d="m340.66 153.05h-7.8994" clip-path="url(#pe2cc98b519)"/>
    <path d="m332.76 153.05v7.8994" clip-path="url(#pe2cc98b519)"/>
    <path d="m332.76 160.95h-7.8994" clip-path="url(#pe2cc98b519)"/>
    <path d="m324.86 160.95v7.8994" clip-path="url(#pe2cc98b519)"/>
    <path d="m324.86 168.85h-7.8994" clip-path="url(#pe2cc98b519)"/>
    <path d="m316.96 168.85v-7.8994" clip-path="url(#pe2cc98b519)"/>
    <path d="m316.96 160.95h-7.8994" clip-path="url(#pe2cc98b519)"/>
    <path d="m309.07 160.95v-7.8994" clip-path="url(#pe2cc98b519)"/>
    <path d="m309.07 153.05h7.8994" clip-path="url(#pe2cc98b519)"/>
    <path d="m316.96 153.05v-7.8994" clip-path="url(#pe2cc98b519)"/>
    <path d="m316.96 145.15h7.8994" clip-path="url(#pe2cc98b519)"/>
    <path d="m324.86 145.15v-7.8994" clip-path="url(#pe2cc98b519)"/>
    <path d="m324.86 137.25h-7.8994" clip-path="url(#pe2cc98b519)"/>
    <path d="m316.96 137.25v-7.8994" clip-path="url(#pe2cc98b519)"/>
    <path d="m316.96 129.35h-7.8994" clip-path="url(#pe2cc98b519)"/>
    <path d="m309.07 129.35v-7.8994" clip-path="url(#pe2cc98b519)"/>
    <path d="m309.07 121.45h-7.8994" clip-path="url(#pe2cc98b519)"/>
    <path d="m301.17 121.45v7.8994" clip-path="url(#pe2cc98b519)"/>
    <path d="m301.17 129.35h-7.8994" clip-path="url(#pe2cc98b519)"/>
    <path d="m293.27 129.35v7.8994" clip-path="url(#pe2cc98b519)"/>
    <path d="m293.27 137.25h-7.8994" clip-path="url(#pe2cc98b519)"/>
    <path d="m285.37 137.25v7.8994" clip-path="url(#pe2cc98b519)"/>
    <path d="m285.37 145.15h7.8994" clip-path="url(#pe2cc98b519)"/>
    <path d="m293.27 145.15v7.8994" clip-path="url(#pe2cc98b519)"/>
    <path d="m293.27 153.05h7.8994" clip-path="url(#pe2cc98b519)"/>
    <path d="m301.17 153.05v7.8994" clip-path="url(#pe2cc98b519)"/>
    <path d="m301.17 160.95h-7.8994" clip-path="url(#pe2cc98b519)"/>
    <path d="m293.27 160.95v7.8994" clip-path="url(#pe2cc98b519)"/>
    <path d="m293.27 168.85h-7.8994" clip-path="url(#pe2cc98b519)"/>
    <path d="m285.37 168.85v-7.8994" clip-path="url(#pe2cc98b519)"/>
    <path d="m285.37 160.95h-7.8994" clip-path="url(#pe2cc98b519)"/>
    <path d="m277.47 160.95v-7.8994" clip-path="url(#pe2cc98b519)"/>
    <path d="m277.47 153.05h-7.8994" clip-path="url(#pe2cc98b519)"/>
    <path d="m269.57 153.05v7.8994" clip-path="url(#pe2cc98b519)"/>
    <path d="m269.57 160.95h-7.8994" clip-path="url(#pe2cc98b519)"/>
    <path d="m261.67 160.95v7.8994" clip-path="url(#pe2cc98b519)"/>
    <path d="m261.67 168.85h-7.8994" clip-path="url(#pe2cc98b519)"/>
    <path d="m253.77 168.85v-7.8994" clip-path="url(#pe2cc98b519)"/>
    <path d="m253.77 160.95h-7.8994" clip-path="url(#pe2cc98b519)"/>
    <path d="m245.87 160.95v-7.8994" clip-path="url(#pe2cc98b519)"/>
    <path d="m245.87 153.05h7.8994" clip-path="url(#pe2cc98b519)"/>
    <path d="m253.77 153.05v-7.8994" clip-path="url(#pe2cc98b519)"/>
    <path d="m253.77 145.15h7.8994" clip-path="url(#pe2cc98b519)"/>
    <path d="m261.67 145.15v-7.8994" clip-path="url(#pe2cc98b519)"/>
    <path d="m261.67 137.25h-7.8994" clip-path="url(#pe2cc98b519)"/>
    <path d="m253.77 137.25v-7.8994" clip-path="url(#pe2cc98b519)"/>
    <path d="m253.77 129.35h-7.8994" clip-path="url(#pe2cc98b519)"/>
    <path d="m245.87 129.35v-7.8994" clip-path="url(#pe2cc98b519)"/>
    <path d="m245.87 121.45h7.8994" clip-path="url(#pe2cc98b519)"/>
    <path d="m253.77 121.45v-7.8994" clip-path="url(#pe2cc98b519)"/>
    <path d="m253.77 113.55h7.8994" clip-path="url(#pe2cc98b519)"/>
    <path d="m261.67 113.55v7.8994" clip-path="url(#pe2cc98b519)"/>
    <path d="m261.67 121.45h7.8994" clip-path="url(#pe2cc98b519)"/>
    <path d="m269.57 121.45v7.8994" clip-path="url(#pe2cc98b519)"/>
    <path d="m269.57 129.35h7.8994" clip-path="url(#pe2cc98b519)"/>
    <path d="m277.47 129.35v-7.8994" clip-path="url(#pe2cc98b519)"/>
    <path d="m277.47 121.45h7.8994" clip-path="url(#pe2cc98b519)"/>
    <path d="m285.37 121.45v-7.8994" clip-path="url(#pe2cc98b519)"/>
    <path d="m285.37 113.55h7.8994" clip-path="url(#pe2cc98b519)"/>
    <path d="m293.27 113.55v-7.8994" clip-path="url(#pe2cc98b519)"/>
    <path d="m293.27 105.65h-7.8994" clip-path="url(#pe2cc98b519)"/>
    <path d="m285.37 105.65v-7.8994" clip-path="url(#pe2cc98b519)"/>
    <path d="m285.37 97.755h-7.8994" clip-path="url(#pe2cc98b519)"/>
    <path d="m277.47 97.755v-7.8994" clip-path="url(#pe2cc98b519)"/>
    <path d="m277.47 89.856h-7.8994" clip-path="url(#pe2cc98b519)"/>
    <path d="m269.57 89.856v7.8994" clip-path="url(#pe2cc98b519)"/>
    <path d="m269.57 97.755h-7.8994" clip-path="url(#pe2cc98b519)"/>
    <path d="m261.67 97.755v7.8994" clip-path="url(#pe2cc98b519)"/>
    <path d="m261.67 105.65h-7.8994" clip-path="url(#pe2cc98b519)"/>
    <path d="m253.77 105.65v-7.8994" clip-path="url(#pe2cc98b519)"/>
    <path d="m253.77 97.755h-7.8994" clip-path="url(#pe2cc98b519)"/>
    <path d="m245.87 97.755v-7.8994" clip-path="url(#pe2cc98b519)"/>
    <path d="m245.87 89.856h7.8994" clip-path="url(#pe2cc98b519)"/>
    <path d="m253.77 89.856v-7.8994" clip-path="url(#pe2cc98b519)"/>
    <path d="m253.77 81.957h7.8994" clip-path="url(#pe2cc98b519)"/>
    <path d="m261.67 81.957v-7.8994" clip-path="url(#pe2cc98b519)"/>
    <path d="m261.67 74.057h-7.8994" clip-path="url(#pe2cc98b519)"/>
    <path d="m253.77 74.057v-7.8994" clip-path="url(#pe2cc98b519)"/>
    <path d="m253.77 66.158h-7.8994" clip-path="url(#pe2cc98b519)"/>
    <path d="m245.87 66.158v-7.8994" clip-path="url(#pe2cc98b519)"/>
    <path d="m245.87 58.258h-7.8994" clip-path="url(#pe2cc98b519)"/>
    <path d="m237.97 58.258v7.8994" clip-path="url(#pe2cc98b519)"/>
    <path d="m237.97 66.158h-7.8994" clip-path="url(#pe2cc98b519)"/>
    <path d="m230.07 66.158v7.8994" clip-path="url(#pe2cc98b519)"/>
    <path d="m230.07 74.057h-7.8994" clip-path="url(#pe2cc98b519)"/>
    <path d="m222.17 74.057v7.8994" clip-path="url(#pe2cc98b519)"/>
    <path d="m222.17 81.957h7.8994" clip-path="url(#pe2cc98b519)"/>
    <path d="m230.07 81.957v7.8994" clip-path="url(#pe2cc98b519)"/>
    <path d="m230.07 89.856h7.8994" clip-path="url(#pe2cc98b519)"/>
    <path d="m237.97 89.856v7.8994" clip-path="url(#pe2cc98b519)"/>
    <path d="m237.97 97.755h-7.8994" clip-path="url(#pe2cc98b519)"/>
    <path d="m230.07 97.755v7.8994" clip-path="url(#pe2cc98b519)"/>
    <path d="m230.07 105.65h-7.8994" clip-path="url(#pe2cc98b519)"/>
    <path d="m222.17 105.65v-7.8994" clip-path="url(#pe2cc98b519)"/>
    <path d="m222.17 97.755h-7.8994" clip-path="url(#pe2cc98b519)"/>
    <path d="m214.27 97.755v-7.8994" clip-path="url(#pe2cc98b519)"/>
    <path d="m214.27 89.856h-7.8994" clip-path="url(#pe2cc98b519)"/>
    <path d="m206.37 89.856v7.8994" clip-path="url(#pe2cc98b519)"/>
    <path d="m206.37 97.755h-7.8994" clip-path="url(#pe2cc98b519)"/>
    <path d="m198.47 97.755v7.8994" clip-path="url(#pe2cc98b519)"/>
    <path d="m198.47 105.65h-7.8994" clip-path="url(#pe2cc98b519)"/>
    <path d="m190.57 105.65v7.8994" clip-path="url(#pe2cc98b519)"/>
    <path d="m190.57 113.55h7.8994" clip-path="url(#pe2cc98b519)"/>
    <path d="m198.47 113.55v7.8994" clip-path="url(#pe2cc98b519)"/>
    <path d="m198.47 121.45h7.8994" clip-path="url(#pe2cc98b519)"/>
    <path d="m206.37 121.45v7.8994" clip-path="url(#pe2cc98b519)"/>
    <path d="m206.37 129.35h7.8994" clip-path="url(#pe2cc98b519)"/>
    <path d="m214.27 129.35v-7.8994" clip-path="url(#pe2cc98b519)"/>
    <path d="m214.27 121.45h7.8994" clip-path="url(#pe2cc98b519)"/>
    <path d="m222.17 121.45v-7.8994" clip-path="url(#pe2cc98b519)"/>
    <path d="m222.17 113.55h7.8994" clip-path="url(#pe2cc98b519)"/>
    <path d="m230.07 113.55v7.8994" clip-path="url(#pe2cc98b519)"/>
    <path d="m230.07 121.45h7.8994" clip-path="url(#pe2cc98b519)"/>
    <path d="m237.97 121.45v7.8994" clip-path="url(#pe2cc98b519)"/>
    <path d="m237.97 129.35h-7.8994" clip-path="url(#pe2cc98b519)"/>
    <path d="m230.07 129.35v7.8994" clip-path="url(#pe2cc98b519)"/>
    <path d="m230.07 137.25h-7.8994" clip-path="url(#pe2cc98b519)"/>
    <path d="m222.17 137.25v7.8994" clip-path="url(#pe2cc98b519)"/>
    <path d="m222.17 145.15h7.8994" clip-path="url(#pe2cc98b519)"/>
    <path d="m230.07 145.15v7.8994" clip-path="url(#pe2cc98b519)"/>
    <path d="m230.07 153.05h7.8994" clip-path="url(#pe2cc98b519)"/>
    <path d="m237.97 153.05v7.8994" clip-path="url(#pe2cc98b519)"/>
    <path d="m237.97 160.95h-7.8994" clip-path="url(#pe2cc98b519)"/>
    <path d="m230.07 160.95v7.8994" clip-path="url(#pe2cc98b519)"/>
    <path d="m230.07 168.85h-7.8994" clip-path="url(#pe2cc98b519)"/>
    <path d="m222.17 168.85v-7.8994" clip-path="url(#pe2cc98b519)"/>
    <path d="m222.17 160.95h-7.8994" clip-path="url(#pe2cc98b519)"/>
    <path d="m214.27 160.95v-7.8994" clip-path="url(#pe2cc98b519)"/>
    <path d="m214.27 153.05h-7.8994" clip-path="url(#pe2cc98b519)"/>
    <path d="m206.37 153.05v7.8994" clip-path="url(#pe2cc98b519)"/>
    <path d="m206.37 160.95h-7.8994" clip-path="url(#pe2cc98b519)"/>
    <path d="m198.47 160.95v7.8994" clip-path="url(#pe2cc98b519)"/>
    <path d="m198.47 168.85h-7.8994" clip-path="url(#pe2cc98b519)"/>
    <path d="m190.57 168.85v-7.8994" clip-path="url(#pe2cc98b519)"/>
    <path d="m190.57 160.95h-7.8994" clip-path="url(#pe2cc98b519)"/>
    <path d="m182.67 160.95v-7.8994" clip-path="url(#pe2cc98b519)"/>
    <path d="m182.67 153.05h7.8994" clip-path="url(#pe2cc98b519)"/>
    <path d="m190.57 153.05v-7.8994" clip-path="url(#pe2cc98b519)"/>
    <path d="m190.57 145.15h7.8994" clip-path="url(#pe2cc98b519)"/>
    <path d="m198.47 145.15v-7.8994" clip-path="url(#pe2cc98b519)"/>
    <path d="m198.47 137.25h-7.8994" clip-path="url(#pe2cc98b519)"/>
    <path d="m190.57 137.25v-7.8994" clip-path="url(#pe2cc98b519)"/>
    <path d="m190.57 129.35h-7.8994" clip-path="url(#pe2cc98b519)"/>
    <path d="m182.67 129.35v-7.8994" clip-path="url(#pe2cc98b519)"/>
    <path d="m182.67 121.45h-7.8994" clip-path="url(#pe2cc98b519)"/>
    <path d="m174.77 121.45v7.8994" clip-path="url(#pe2cc98b519)"/>
    <path d="m174.77 129.35h-7.8994" clip-path="url(#pe2cc98b519)"/>
    <path d="m166.88 129.35v7.8994" clip-path="url(#pe2cc98b519)"/>
    <path d="m166.88 137.25h-7.8994" clip-path="url(#pe2cc98b519)"/>
    <path d="m158.98 137.25v7.8994" clip-path="url(#pe2cc98b519)"/>
    <path d="m158.98 145.15h7.8994" clip-path="url(#pe2cc98b519)"/>
    <path d="m166.88 145.15v7.8994" clip-path="url(#pe2cc98b519)"/>
    <path d="m166.88 153.05h7.8994" clip-path="url(#pe2cc98b519)"/>
    <path d="m174.77 153.05v7.8994" clip-path="url(#pe2cc98b519)"/>
    <path d="m174.77 160.95h-7.8994" clip-path="url(#pe2cc98b519)"/>
    <path d="m166.88 160.95v7.8994" clip-path="url(#pe2cc98b519)"/>
    <path d="m166.88 168.85h-7.8994" clip-path="url(#pe2cc98b519)"/>
    <path d="m158.98 168.85v-7.8994" clip-path="url(#pe2cc98b519)"/>
    <path d="m158.98 160.95h-7.8994" clip-path="url(#pe2cc98b519)"/>
    <path d="m151.08 160.95v-7.8994" clip-path="url(#pe2cc98b519)"/>
    <path d="m151.08 153.05h-7.8994" clip-path="url(#pe2cc98b519)"/>
    <path d="m143.18 153.05v7.8994" clip-path="url(#pe2cc98b519)"/>
    <path d="m143.18 160.95h-7.8994" clip-path="url(#pe2cc98b519)"/>
    <path d="m135.28 160.95v7.8994" clip-path="url(#pe2cc98b519)"/>
    <path d="m135.28 168.85h-7.8994" clip-path="url(#pe2cc98b519)"/>
    <path d="m127.38 168.85v7.8994" clip-path="url(#pe2cc98b519)"/>
    <path d="m127.38 176.75h7.8994" clip-path="url(#pe2cc98b519)"/>
    <path d="m135.28 176.75v7.8994" clip-path="url(#pe2cc98b519)"/>
    <path d="m135.28 184.65h7.8994" clip-path="url(#pe2cc98b519)"/>
    <path d="m143.18 184.65v7.8994" clip-path="url(#pe2cc98b519)"/>
    <path d="m143.18 192.55h7.8994" clip-path="url(#pe2cc98b519)"/>
    <path d="m151.08 192.55v-7.8994" clip-path="url(#pe2cc98b519)"/>
    <path d="m151.08 184.65h7.8994" clip-path="url(#pe2cc98b519)"/>
    <path d="m158.98 184.65v-7.8994" clip-path="url(#pe2cc98b519)"/>
    <path d="m158.98 176.75h7.8994" clip-path="url(#pe2cc98b519)"/>
    <path d="m166.88 176.75v7.8994" clip-path="url(#pe2cc98b519)"/>
    <path d="m166.88 184.65h7.8994" clip-path="url(#pe2cc98b519)"/>
    <path d="m174.77 184.65v7.8994" clip-path="url(#pe2cc98b519)"/>
    <path d="m174.77 192.55h-7.8994" clip-path="url(#pe2cc98b519)"/>
    <path d="m166.88 192.55v7.8994" clip-path="url(#pe2cc98b519)"/>
    <path d="m166.88 200.45h-7.8994" clip-path="url(#pe2cc98b519)"/>
    <path d="m158.98 200.45v7.8994" clip-path="url(#pe2cc98b519)"/>
    <path d="m158.98 208.35h7.8994" clip-path="url(#pe2cc98b519)"/>
    <path d="m166.88 208.35v7.8994" clip-path="url(#pe2cc98b519)"/>
    <path d="m166.88 216.25h7.8994" clip-path="url(#pe2cc98b519)"/>
    <path d="m174.77 216.25v7.8994" clip-path="url(#pe2cc98b519)"/>
    <path d="m174.77 224.15h7.8994" clip-path="url(#pe2cc98b519)"/>
    <path d="m182.67 224.15v-7.8994" clip-path="url(#pe2cc98b519)"/>
    <path d="m182.67 216.25h7.8994" clip-path="url(#pe2cc98b519)"/>
    <path d="m190.57 216.25v-7.8994" clip-path="url(#pe2cc98b519)"/>
    <path d="m190.57 208.35h7.8994" clip-path="url(#pe2cc98b519)"/>
    <path d="m198.47 208.35v-7.8994" clip-path="url(#pe2cc98b519)"/>
    <path d="m198.47 200.45h-7.8994" clip-path="url(#pe2cc98b519)"/>
    <path d="m190.57 200.45v-7.8994" clip-path="url(#pe2cc98b519)"/>
    <path d="m190.57 192.55h-7.8994" clip-path="url(#pe2cc98b519)"/>
    <path d="m182.67 192.55v-7.8994" clip-path="url(#pe2cc98b519)"/>
    <path d="m182.67 184.65h7.8994" clip-path="url(#pe2cc98b519)"/>
    <path d="m190.57 184.65v-7.8994" clip-path="url(#pe2cc98b519)"/>
    <path d="m190.57 176.75h7.8994" clip-path="url(#pe2cc98b519)"/>
    <path d="m198.47 176.75v7.8994" clip-path="url(#pe2cc98b519)"/>
    <path d="m198.47 184.65h7.8994" clip-path="url(#pe2cc98b519)"/>
    <path d="m206.37 184.65v7.8994" clip-path="url(#pe2cc98b519)"/>
    <path d="m206.37 192.55h7.8994" clip-path="url(#pe2cc98b519)"/>
    <path d="m214.27 192.55v-7.8994" clip-path="url(#pe2cc98b519)"/>
    <path d="m214.27 184.65h7.8994" clip-path="url(#pe2cc98b519)"/>
    <path d="m222.17 184.65v-7.8994" clip-path="url(#pe2cc98b519)"/>
    <path d="m222.17 176.75h7.8994" clip-path="url(#pe2cc98b519)"/>
    <path d="m230.07 176.75v7.8994" clip-path="url(#pe2cc98b519)"/>
    <path d="m230.07 184.65h7.8994" clip-path="url(#pe2cc98b519)"/>
    <path d="m237.97 184.65v7.8994" clip-path="url(#pe2cc98b519)"/>
    <path d="m237.97 192.55h-7.8994" clip-path="url(#pe2cc98b519)"/>
    <path d="m230.07 192.55v7.8994" clip-path="url(#pe2cc98b519)"/>
    <path d="m230.07 200.45h-7.8994" clip-path="url(#pe2cc98b519)"/>
    <path d="m222.17 200.45v7.8994" clip-path="url(#pe2cc98b519)"/>
    <path d="m222.17 208.35h7.8994" clip-path="url(#pe2cc98b519)"/>
    <path d="m230.07 208.35v7.8994" clip-path="url(#pe2cc98b519)"/>
    <path d="m230.07 216.25h7.8994" clip-path="url(#pe2cc98b519)"/>
    <path d="m237.97 216.25v7.8994" clip-path="url(#pe2cc98b519)"/>
    <path d="m237.97 224.15h-7.8994" clip-path="url(#pe2cc98b519)"/>
    <path d="m230.07 224.15v7.8994" clip-path="url(#pe2cc98b519)"/>
    <path d="m230.07 232.05h-7.8994" clip-path="url(#pe2cc98b519)"/>
    <path d="m222.17 232.05v-7.8994" clip-path="url(#pe2cc98b519)"/>
    <path d="m222.17 224.15h-7.8994" clip-path="url(#pe2cc98b519)"/>
    <path d="m214.27 224.15v-7.8994" clip-path="url(#pe2cc98b519)"/>
    <path d="m214.27 216.25h-7.8994" clip-path="url(#pe2cc98b519)"/>
    <path d="m206.37 216.25v7.8994" clip-path="url(#pe2cc98b519)"/>
    <path d="m206.37 224.15h-7.8994" clip-path="url(#pe2cc98b519)"/>
    <path d="m198.47 224.15v7.8994" clip-path="url(#pe2cc98b519)"/>
    <path d="m198.47 232.05h-7.8994" clip-path="url(#pe2cc98b519)"/>
    <path d="m190.57 232.05v7.8994" clip-path="url(#pe2cc98b519)"/>
    <path d="m190.57 239.95h7.8994" clip-path="url(#pe2cc98b519)"/>
    <path d="m198.47 239.95v7.8994" clip-path="url(#pe2cc98b519)"/>
    <path d="m198.47 247.84h7.8994" clip-path="url(#pe2cc98b519)"/>
    <path d="m206.37 247.84v7.8994" clip-path="url(#pe2cc98b519)"/>
    <path d="m206.37 255.74h7.8994" clip-path="url(#pe2cc98b519)"/>
    <path d="m214.27 255.74v-7.8994" clip-path="url(#pe2cc98b519)"/>
    <path d="m214.27 247.84h7.8994" clip-path="url(#pe2cc98b519)"/>
    <path d="m222.17 247.84v-7.8994" clip-path="url(#pe2cc98b519)"/>
    <path d="m222.17 239.95h7.8994" clip-path="url(#pe2cc98b519)"/>
    <path d="m230.07 239.95v7.8994" clip-path="url(#pe2cc98b519)"/>
    <path d="m230.07 247.84h7.8994" clip-path="url(#pe2cc98b519)"/>
    <path d="m237.97 247.84v7.8994" clip-path="url(#pe2cc98b519)"/>
    <path d="m237.97 255.74h-7.8994" clip-path="url(#pe2cc98b519)"/>
    <path d="m230.07 255.74v7.8994" clip-path="url(#pe2cc98b519)"/>
    <path d="m230.07 263.64h-7.8994" clip-path="url(#pe2cc98b519)"/>
    <path d="m222.17 263.64v7.8994" clip-path="url(#pe2cc98b519)"/>
    <path d="m222.17 271.54h7.8994" clip-path="url(#pe2cc98b519)"/>
    <path d="m230.07 271.54v7.8994" clip-path="url(#pe2cc98b519)"/>
    <path d="m230.07 279.44h7.8994" clip-path="url(#pe2cc98b519)"/>
    <path d="m237.97 279.44v7.8994" clip-path="url(#pe2cc98b519)"/>
   </g>
   <g id="patch_3">
    <path d="m103.68 311.04v-276.48" fill="none" stroke="#000" stroke-linecap="square" stroke-width=".8"/>
   </g>
   <g id="patch_4">
    <path d="m380.16 311.04v-276.48" fill="none" stroke="#000" stroke-linecap="square" stroke-width=".8"/>
   </g>
   <g id="patch_5">
    <path d="m103.68 311.04h276.48" fill="none" stroke="#000" stroke-linecap="square" stroke-width=".8"/>
   </g>
   <g id="patch_6">
    <path d="m103.68 34.56h276.48" fill="none" stroke="#000" stroke-linecap="square" stroke-width=".8"/>
   </g>
  </g>
  <g id="text_15">
   <text transform="rotate(-0 230.4 19.07)" x="230.4" y="19.0695" font="16px 'DejaVu Sans', 'Bitstream Vera Sans', 'Computer Modern Sans Serif', 'Lucida Grande', 'Verdana', 'Geneva', 'Lucid', 'Arial', 'Helvetica', 'Avant Garde', sans-serif" text-anchor="middle">n = 3</text>
  </g>
 </g>
 <defs>
  <clipPath id="pe2cc98b519">
   <rect x="103.68" y="34.56" width="276.48" height="276.48"/>
  </clipPath>
 </defs>
</svg>
