<?xml version="1.0" encoding="UTF-8"?>
<!DOCTYPE svg  PUBLIC '-//W3C//DTD SVG 1.1//EN'  'http://www.w3.org/Graphics/SVG/1.1/DTD/svg11.dtd'>
<svg width="460.8pt" height="345.6pt" version="1.1" viewBox="0 0 460.8 345.6" xmlns="http://www.w3.org/2000/svg" xmlns:xlink="http://www.w3.org/1999/xlink">
 <metadata>
  <rdf:RDF xmlns:cc="http://creativecommons.org/ns#" xmlns:dc="http://purl.org/dc/elements/1.1/" xmlns:rdf="http://www.w3.org/1999/02/22-rdf-syntax-ns#">
   <cc:Work>
    <dc:type rdf:resource="http://purl.org/dc/dcmitype/StillImage"/>
    <dc:date>2023-03-19T15:29:56.877037</dc:date>
    <dc:format>image/svg+xml</dc:format>
    <dc:creator>
     <cc:Agent>
      <dc:title>Matplotlib v3.7.1, https://matplotlib.org/</dc:title>
     </cc:Agent>
    </dc:creator>
   </cc:Work>
  </rdf:RDF>
 </metadata>
 <defs>
  <style type="text/css">*{stroke-linejoin: round; stroke-linecap: butt}</style>
 </defs>
 <g id="figure_1">
  <g id="patch_1">
   <path d="m0 345.6h460.8v-345.6h-460.8z" fill="#fff"/>
  </g>
  <g id="axes_1">
   <g id="patch_2">
    <path d="m103.68 311.04h276.48v-276.48h-276.48z" fill="#fff"/>
   </g>
   <g id="matplotlib.axis_1">
    <g id="xtick_1">
     <g id="line2d_1">
      <defs>
       <path id="mbea269c912" d="m0 0v3.5" stroke="#000" stroke-width=".8"/>
      </defs>
      <use x="125.507368" y="311.04" stroke="#000000" stroke-width=".8" xlink:href="#mbea269c912"/>
     </g>
     <g id="text_1">
      <text transform="rotate(-0 125.51 325.64)" x="125.507368" y="325.638438" font="10px 'DejaVu Sans', 'Bitstream Vera Sans', 'Computer Modern Sans Serif', 'Lucida Grande', 'Verdana', 'Geneva', 'Lucid', 'Arial', 'Helvetica', 'Avant Garde', sans-serif" text-anchor="middle">−7.5</text>
     </g>
    </g>
    <g id="xtick_2">
     <g id="line2d_2">
      <use x="161.886316" y="311.04" stroke="#000000" stroke-width=".8" xlink:href="#mbea269c912"/>
     </g>
     <g id="text_2">
      <text transform="rotate(-0 161.89 325.64)" x="161.886316" y="325.638438" font="10px 'DejaVu Sans', 'Bitstream Vera Sans', 'Computer Modern Sans Serif', 'Lucida Grande', 'Verdana', 'Geneva', 'Lucid', 'Arial', 'Helvetica', 'Avant Garde', sans-serif" text-anchor="middle">−5.0</text>
     </g>
    </g>
    <g id="xtick_3">
     <g id="line2d_3">
      <use x="198.265263" y="311.04" stroke="#000000" stroke-width=".8" xlink:href="#mbea269c912"/>
     </g>
     <g id="text_3">
      <text transform="rotate(-0 198.27 325.64)" x="198.265263" y="325.638438" font="10px 'DejaVu Sans', 'Bitstream Vera Sans', 'Computer Modern Sans Serif', 'Lucida Grande', 'Verdana', 'Geneva', 'Lucid', 'Arial', 'Helvetica', 'Avant Garde', sans-serif" text-anchor="middle">−2.5</text>
     </g>
    </g>
    <g id="xtick_4">
     <g id="line2d_4">
      <use x="234.644211" y="311.04" stroke="#000000" stroke-width=".8" xlink:href="#mbea269c912"/>
     </g>
     <g id="text_4">
      <text transform="rotate(-0 234.64 325.64)" x="234.644211" y="325.638438" font="10px 'DejaVu Sans', 'Bitstream Vera Sans', 'Computer Modern Sans Serif', 'Lucida Grande', 'Verdana', 'Geneva', 'Lucid', 'Arial', 'Helvetica', 'Avant Garde', sans-serif" text-anchor="middle">0.0</text>
     </g>
    </g>
    <g id="xtick_5">
     <g id="line2d_5">
      <use x="271.023158" y="311.04" stroke="#000000" stroke-width=".8" xlink:href="#mbea269c912"/>
     </g>
     <g id="text_5">
      <text transform="rotate(-0 271.02 325.64)" x="271.023158" y="325.638438" font="10px 'DejaVu Sans', 'Bitstream Vera Sans', 'Computer Modern Sans Serif', 'Lucida Grande', 'Verdana', 'Geneva', 'Lucid', 'Arial', 'Helvetica', 'Avant Garde', sans-serif" text-anchor="middle">2.5</text>
     </g>
    </g>
    <g id="xtick_6">
     <g id="line2d_6">
      <use x="307.402105" y="311.04" stroke="#000000" stroke-width=".8" xlink:href="#mbea269c912"/>
     </g>
     <g id="text_6">
      <text transform="rotate(-0 307.4 325.64)" x="307.402105" y="325.638438" font="10px 'DejaVu Sans', 'Bitstream Vera Sans', 'Computer Modern Sans Serif', 'Lucida Grande', 'Verdana', 'Geneva', 'Lucid', 'Arial', 'Helvetica', 'Avant Garde', sans-serif" text-anchor="middle">5.0</text>
     </g>
    </g>
    <g id="xtick_7">
     <g id="line2d_7">
      <use x="343.781053" y="311.04" stroke="#000000" stroke-width=".8" xlink:href="#mbea269c912"/>
     </g>
     <g id="text_7">
      <text transform="rotate(-0 343.78 325.64)" x="343.781053" y="325.638438" font="10px 'DejaVu Sans', 'Bitstream Vera Sans', 'Computer Modern Sans Serif', 'Lucida Grande', 'Verdana', 'Geneva', 'Lucid', 'Arial', 'Helvetica', 'Avant Garde', sans-serif" text-anchor="middle">7.5</text>
     </g>
    </g>
    <g id="xtick_8">
     <g id="line2d_8">
      <use x="380.16" y="311.04" stroke="#000000" stroke-width=".8" xlink:href="#mbea269c912"/>
     </g>
     <g id="text_8">
      <text transform="rotate(-0 380.16 325.64)" x="380.16" y="325.638438" font="10px 'DejaVu Sans', 'Bitstream Vera Sans', 'Computer Modern Sans Serif', 'Lucida Grande', 'Verdana', 'Geneva', 'Lucid', 'Arial', 'Helvetica', 'Avant Garde', sans-serif" text-anchor="middle">10.0</text>
     </g>
    </g>
   </g>
   <g id="matplotlib.axis_2">
    <g id="ytick_1">
     <g id="line2d_9">
      <defs>
       <path id="m7180a491a4" d="m0 0h-3.5" stroke="#000" stroke-width=".8"/>
      </defs>
      <use x="103.68" y="303.764211" stroke="#000000" stroke-width=".8" xlink:href="#m7180a491a4"/>
     </g>
     <g id="text_9">
      <text transform="rotate(-0 96.68 307.56)" x="96.68" y="307.563429" font="10px 'DejaVu Sans', 'Bitstream Vera Sans', 'Computer Modern Sans Serif', 'Lucida Grande', 'Verdana', 'Geneva', 'Lucid', 'Arial', 'Helvetica', 'Avant Garde', sans-serif" text-anchor="end">−2.5</text>
     </g>
    </g>
    <g id="ytick_2">
     <g id="line2d_10">
      <use x="103.68" y="267.385263" stroke="#000000" stroke-width=".8" xlink:href="#m7180a491a4"/>
     </g>
     <g id="text_10">
      <text transform="rotate(-0 96.68 271.18)" x="96.68" y="271.184482" font="10px 'DejaVu Sans', 'Bitstream Vera Sans', 'Computer Modern Sans Serif', 'Lucida Grande', 'Verdana', 'Geneva', 'Lucid', 'Arial', 'Helvetica', 'Avant Garde', sans-serif" text-anchor="end">0.0</text>
     </g>
    </g>
    <g id="ytick_3">
     <g id="line2d_11">
      <use x="103.68" y="231.006316" stroke="#000000" stroke-width=".8" xlink:href="#m7180a491a4"/>
     </g>
     <g id="text_11">
      <text transform="rotate(-0 96.68 234.81)" x="96.68" y="234.805535" font="10px 'DejaVu Sans', 'Bitstream Vera Sans', 'Computer Modern Sans Serif', 'Lucida Grande', 'Verdana', 'Geneva', 'Lucid', 'Arial', 'Helvetica', 'Avant Garde', sans-serif" text-anchor="end">2.5</text>
     </g>
    </g>
    <g id="ytick_4">
     <g id="line2d_12">
      <use x="103.68" y="194.627368" stroke="#000000" stroke-width=".8" xlink:href="#m7180a491a4"/>
     </g>
     <g id="text_12">
      <text transform="rotate(-0 96.68 198.43)" x="96.68" y="198.426587" font="10px 'DejaVu Sans', 'Bitstream Vera Sans', 'Computer Modern Sans Serif', 'Lucida Grande', 'Verdana', 'Geneva', 'Lucid', 'Arial', 'Helvetica', 'Avant Garde', sans-serif" text-anchor="end">5.0</text>
     </g>
    </g>
    <g id="ytick_5">
     <g id="line2d_13">
      <use x="103.68" y="158.248421" stroke="#000000" stroke-width=".8" xlink:href="#m7180a491a4"/>
     </g>
     <g id="text_13">
      <text transform="rotate(-0 96.68 162.05)" x="96.68" y="162.04764" font="10px 'DejaVu Sans', 'Bitstream Vera Sans', 'Computer Modern Sans Serif', 'Lucida Grande', 'Verdana', 'Geneva', 'Lucid', 'Arial', 'Helvetica', 'Avant Garde', sans-serif" text-anchor="end">7.5</text>
     </g>
    </g>
    <g id="ytick_6">
     <g id="line2d_14">
      <use x="103.68" y="121.869474" stroke="#000000" stroke-width=".8" xlink:href="#m7180a491a4"/>
     </g>
     <g id="text_14">
      <text transform="rotate(-0 96.68 125.67)" x="96.68" y="125.668692" font="10px 'DejaVu Sans', 'Bitstream Vera Sans', 'Computer Modern Sans Serif', 'Lucida Grande', 'Verdana', 'Geneva', 'Lucid', 'Arial', 'Helvetica', 'Avant Garde', sans-serif" text-anchor="end">10.0</text>
     </g>
    </g>
    <g id="ytick_7">
     <g id="line2d_15">
      <use x="103.68" y="85.490526" stroke="#000000" stroke-width=".8" xlink:href="#m7180a491a4"/>
     </g>
     <g id="text_15">
      <text transform="rotate(-0 96.68 89.29)" x="96.68" y="89.289745" font="10px 'DejaVu Sans', 'Bitstream Vera Sans', 'Computer Modern Sans Serif', 'Lucida Grande', 'Verdana', 'Geneva', 'Lucid', 'Arial', 'Helvetica', 'Avant Garde', sans-serif" text-anchor="end">12.5</text>
     </g>
    </g>
    <g id="ytick_8">
     <g id="line2d_16">
      <use x="103.68" y="49.111579" stroke="#000000" stroke-width=".8" xlink:href="#m7180a491a4"/>
     </g>
     <g id="text_16">
      <text transform="rotate(-0 96.68 52.911)" x="96.68" y="52.910798" font="10px 'DejaVu Sans', 'Bitstream Vera Sans', 'Computer Modern Sans Serif', 'Lucida Grande', 'Verdana', 'Geneva', 'Lucid', 'Arial', 'Helvetica', 'Avant Garde', sans-serif" text-anchor="end">15.0</text>
     </g>
    </g>
   </g>
   <g id="LineCollection_1" fill="none" stroke="#6a5acd" stroke-width="2">
    <path d="m234.64 267.39h14.552" clip-path="url(#pe643792381)"/>
    <path d="m249.2 267.39v-14.552" clip-path="url(#pe643792381)"/>
    <path d="m249.2 252.83h14.552" clip-path="url(#pe643792381)"/>
    <path d="m263.75 252.83v-14.552" clip-path="url(#pe643792381)"/>
    <path d="m263.75 238.28h14.552" clip-path="url(#pe643792381)"/>
    <path d="m278.3 238.28v-14.552" clip-path="url(#pe643792381)"/>
    <path d="m278.3 223.73h-14.552" clip-path="url(#pe643792381)"/>
    <path d="m263.75 223.73v-14.552" clip-path="url(#pe643792381)"/>
    <path d="m263.75 209.18h-14.552" clip-path="url(#pe643792381)"/>
    <path d="m249.2 209.18v-14.552" clip-path="url(#pe643792381)"/>
    <path d="m249.2 194.63h14.552" clip-path="url(#pe643792381)"/>
    <path d="m263.75 194.63v-14.552" clip-path="url(#pe643792381)"/>
    <path d="m263.75 180.08h14.552" clip-path="url(#pe643792381)"/>
    <path d="m278.3 180.08v14.552" clip-path="url(#pe643792381)"/>
    <path d="m278.3 194.63h14.552" clip-path="url(#pe643792381)"/>
    <path d="m292.85 194.63v14.552" clip-path="url(#pe643792381)"/>
    <path d="m292.85 209.18h14.552" clip-path="url(#pe643792381)"/>
    <path d="m307.4 209.18v-14.552" clip-path="url(#pe643792381)"/>
    <path d="m307.4 194.63h14.552" clip-path="url(#pe643792381)"/>
    <path d="m321.95 194.63v-14.552" clip-path="url(#pe643792381)"/>
    <path d="m321.95 180.08h14.552" clip-path="url(#pe643792381)"/>
    <path d="m336.51 180.08v-14.552" clip-path="url(#pe643792381)"/>
    <path d="m336.51 165.52h-14.552" clip-path="url(#pe643792381)"/>
    <path d="m321.95 165.52v-14.552" clip-path="url(#pe643792381)"/>
    <path d="m321.95 150.97h-14.552" clip-path="url(#pe643792381)"/>
    <path d="m307.4 150.97v-14.552" clip-path="url(#pe643792381)"/>
    <path d="m307.4 136.42h-14.552" clip-path="url(#pe643792381)"/>
    <path d="m292.85 136.42v14.552" clip-path="url(#pe643792381)"/>
    <path d="m292.85 150.97h-14.552" clip-path="url(#pe643792381)"/>
    <path d="m278.3 150.97v14.552" clip-path="url(#pe643792381)"/>
    <path d="m278.3 165.52h-14.552" clip-path="url(#pe643792381)"/>
    <path d="m263.75 165.52v-14.552" clip-path="url(#pe643792381)"/>
    <path d="m263.75 150.97h-14.552" clip-path="url(#pe643792381)"/>
    <path d="m249.2 150.97v-14.552" clip-path="url(#pe643792381)"/>
    <path d="m249.2 136.42h14.552" clip-path="url(#pe643792381)"/>
    <path d="m263.75 136.42v-14.552" clip-path="url(#pe643792381)"/>
    <path d="m263.75 121.87h14.552" clip-path="url(#pe643792381)"/>
    <path d="m278.3 121.87v-14.552" clip-path="url(#pe643792381)"/>
    <path d="m278.3 107.32h-14.552" clip-path="url(#pe643792381)"/>
    <path d="m263.75 107.32v-14.552" clip-path="url(#pe643792381)"/>
    <path d="m263.75 92.766h-14.552" clip-path="url(#pe643792381)"/>
    <path d="m249.2 92.766v-14.552" clip-path="url(#pe643792381)"/>
    <path d="m249.2 78.215h-14.552" clip-path="url(#pe643792381)"/>
    <path d="m234.64 78.215v14.552" clip-path="url(#pe643792381)"/>
    <path d="m234.64 92.766h-14.552" clip-path="url(#pe643792381)"/>
    <path d="m220.09 92.766v14.552" clip-path="url(#pe643792381)"/>
    <path d="m220.09 107.32h-14.552" clip-path="url(#pe643792381)"/>
    <path d="m205.54 107.32v14.552" clip-path="url(#pe643792381)"/>
    <path d="m205.54 121.87h14.552" clip-path="url(#pe643792381)"/>
    <path d="m220.09 121.87v14.552" clip-path="url(#pe643792381)"/>
    <path d="m220.09 136.42h14.552" clip-path="url(#pe643792381)"/>
    <path d="m234.64 136.42v14.552" clip-path="url(#pe643792381)"/>
    <path d="m234.64 150.97h-14.552" clip-path="url(#pe643792381)"/>
    <path d="m220.09 150.97v14.552" clip-path="url(#pe643792381)"/>
    <path d="m220.09 165.52h-14.552" clip-path="url(#pe643792381)"/>
    <path d="m205.54 165.52v-14.552" clip-path="url(#pe643792381)"/>
    <path d="m205.54 150.97h-14.552" clip-path="url(#pe643792381)"/>
    <path d="m190.99 150.97v-14.552" clip-path="url(#pe643792381)"/>
    <path d="m190.99 136.42h-14.552" clip-path="url(#pe643792381)"/>
    <path d="m176.44 136.42v14.552" clip-path="url(#pe643792381)"/>
    <path d="m176.44 150.97h-14.552" clip-path="url(#pe643792381)"/>
    <path d="m161.89 150.97v14.552" clip-path="url(#pe643792381)"/>
    <path d="m161.89 165.52h-14.552" clip-path="url(#pe643792381)"/>
    <path d="m147.33 165.52v14.552" clip-path="url(#pe643792381)"/>
    <path d="m147.33 180.08h14.552" clip-path="url(#pe643792381)"/>
    <path d="m161.89 180.08v14.552" clip-path="url(#pe643792381)"/>
    <path d="m161.89 194.63h14.552" clip-path="url(#pe643792381)"/>
    <path d="m176.44 194.63v14.552" clip-path="url(#pe643792381)"/>
    <path d="m176.44 209.18h14.552" clip-path="url(#pe643792381)"/>
    <path d="m190.99 209.18v-14.552" clip-path="url(#pe643792381)"/>
    <path d="m190.99 194.63h14.552" clip-path="url(#pe643792381)"/>
    <path d="m205.54 194.63v-14.552" clip-path="url(#pe643792381)"/>
    <path d="m205.54 180.08h14.552" clip-path="url(#pe643792381)"/>
    <path d="m220.09 180.08v14.552" clip-path="url(#pe643792381)"/>
    <path d="m220.09 194.63h14.552" clip-path="url(#pe643792381)"/>
    <path d="m234.64 194.63v14.552" clip-path="url(#pe643792381)"/>
    <path d="m234.64 209.18h-14.552" clip-path="url(#pe643792381)"/>
    <path d="m220.09 209.18v14.552" clip-path="url(#pe643792381)"/>
    <path d="m220.09 223.73h-14.552" clip-path="url(#pe643792381)"/>
    <path d="m205.54 223.73v14.552" clip-path="url(#pe643792381)"/>
    <path d="m205.54 238.28h14.552" clip-path="url(#pe643792381)"/>
    <path d="m220.09 238.28v14.552" clip-path="url(#pe643792381)"/>
    <path d="m220.09 252.83h14.552" clip-path="url(#pe643792381)"/>
    <path d="m234.64 252.83v14.552" clip-path="url(#pe643792381)"/>
   </g>
   <g id="patch_3">
    <path d="m103.68 311.04v-276.48" fill="none" stroke="#000" stroke-linecap="square" stroke-width=".8"/>
   </g>
   <g id="patch_4">
    <path d="m380.16 311.04v-276.48" fill="none" stroke="#000" stroke-linecap="square" stroke-width=".8"/>
   </g>
   <g id="patch_5">
    <path d="m103.68 311.04h276.48" fill="none" stroke="#000" stroke-linecap="square" stroke-width=".8"/>
   </g>
   <g id="patch_6">
    <path d="m103.68 34.56h276.48" fill="none" stroke="#000" stroke-linecap="square" stroke-width=".8"/>
   </g>
  </g>
  <g id="text_17">
   <text transform="rotate(-0 230.4 19.07)" x="230.4" y="19.0695" font="16px 'DejaVu Sans', 'Bitstream Vera Sans', 'Computer Modern Sans Serif', 'Lucida Grande', 'Verdana', 'Geneva', 'Lucid', 'Arial', 'Helvetica', 'Avant Garde', sans-serif" text-anchor="middle">n = 2</text>
  </g>
 </g>
 <defs>
  <clipPath id="pe643792381">
   <rect x="103.68" y="34.56" width="276.48" height="276.48"/>
  </clipPath>
 </defs>
</svg>
