<?xml version="1.0" encoding="UTF-8"?>
<!DOCTYPE svg  PUBLIC '-//W3C//DTD SVG 1.1//EN'  'http://www.w3.org/Graphics/SVG/1.1/DTD/svg11.dtd'>
<svg width="460.8pt" height="345.6pt" version="1.1" viewBox="0 0 460.8 345.6" xmlns="http://www.w3.org/2000/svg" xmlns:xlink="http://www.w3.org/1999/xlink">
 <metadata>
  <rdf:RDF xmlns:cc="http://creativecommons.org/ns#" xmlns:dc="http://purl.org/dc/elements/1.1/" xmlns:rdf="http://www.w3.org/1999/02/22-rdf-syntax-ns#">
   <cc:Work>
    <dc:type rdf:resource="http://purl.org/dc/dcmitype/StillImage"/>
    <dc:date>2023-03-19T15:29:58.053810</dc:date>
    <dc:format>image/svg+xml</dc:format>
    <dc:creator>
     <cc:Agent>
      <dc:title>Matplotlib v3.7.1, https://matplotlib.org/</dc:title>
     </cc:Agent>
    </dc:creator>
   </cc:Work>
  </rdf:RDF>
 </metadata>
 <defs>
  <style type="text/css">*{stroke-linejoin: round; stroke-linecap: butt}</style>
 </defs>
 <g id="figure_1">
  <g id="patch_1">
   <path d="m0 345.6h460.8v-345.6h-460.8z" fill="#fff"/>
  </g>
  <g id="axes_1">
   <g id="patch_2">
    <path d="m92.219 311.04h299.4v-276.48h-299.4z" fill="#fff"/>
   </g>
   <g id="matplotlib.axis_1">
    <g id="xtick_1">
     <g id="line2d_1">
      <defs>
       <path id="m4065280956" d="m0 0v3.5" stroke="#000" stroke-width=".8"/>
      </defs>
      <use x="113.605185" y="311.04" stroke="#000000" stroke-width=".8" xlink:href="#m4065280956"/>
     </g>
     <g id="text_1">
      <text transform="rotate(-0 113.61 325.64)" x="113.605185" y="325.638438" font="10px 'DejaVu Sans', 'Bitstream Vera Sans', 'Computer Modern Sans Serif', 'Lucida Grande', 'Verdana', 'Geneva', 'Lucid', 'Arial', 'Helvetica', 'Avant Garde', sans-serif" text-anchor="middle">−2</text>
     </g>
    </g>
    <g id="xtick_2">
     <g id="line2d_2">
      <use x="156.37679" y="311.04" stroke="#000000" stroke-width=".8" xlink:href="#m4065280956"/>
     </g>
     <g id="text_2">
      <text transform="rotate(-0 156.38 325.64)" x="156.37679" y="325.638438" font="10px 'DejaVu Sans', 'Bitstream Vera Sans', 'Computer Modern Sans Serif', 'Lucida Grande', 'Verdana', 'Geneva', 'Lucid', 'Arial', 'Helvetica', 'Avant Garde', sans-serif" text-anchor="middle">0</text>
     </g>
    </g>
    <g id="xtick_3">
     <g id="line2d_3">
      <use x="199.148395" y="311.04" stroke="#000000" stroke-width=".8" xlink:href="#m4065280956"/>
     </g>
     <g id="text_3">
      <text transform="rotate(-0 199.15 325.64)" x="199.148395" y="325.638438" font="10px 'DejaVu Sans', 'Bitstream Vera Sans', 'Computer Modern Sans Serif', 'Lucida Grande', 'Verdana', 'Geneva', 'Lucid', 'Arial', 'Helvetica', 'Avant Garde', sans-serif" text-anchor="middle">2</text>
     </g>
    </g>
    <g id="xtick_4">
     <g id="line2d_4">
      <use x="241.92" y="311.04" stroke="#000000" stroke-width=".8" xlink:href="#m4065280956"/>
     </g>
     <g id="text_4">
      <text transform="rotate(-0 241.92 325.64)" x="241.92" y="325.638438" font="10px 'DejaVu Sans', 'Bitstream Vera Sans', 'Computer Modern Sans Serif', 'Lucida Grande', 'Verdana', 'Geneva', 'Lucid', 'Arial', 'Helvetica', 'Avant Garde', sans-serif" text-anchor="middle">4</text>
     </g>
    </g>
    <g id="xtick_5">
     <g id="line2d_5">
      <use x="284.691605" y="311.04" stroke="#000000" stroke-width=".8" xlink:href="#m4065280956"/>
     </g>
     <g id="text_5">
      <text transform="rotate(-0 284.69 325.64)" x="284.691605" y="325.638438" font="10px 'DejaVu Sans', 'Bitstream Vera Sans', 'Computer Modern Sans Serif', 'Lucida Grande', 'Verdana', 'Geneva', 'Lucid', 'Arial', 'Helvetica', 'Avant Garde', sans-serif" text-anchor="middle">6</text>
     </g>
    </g>
    <g id="xtick_6">
     <g id="line2d_6">
      <use x="327.46321" y="311.04" stroke="#000000" stroke-width=".8" xlink:href="#m4065280956"/>
     </g>
     <g id="text_6">
      <text transform="rotate(-0 327.46 325.64)" x="327.46321" y="325.638438" font="10px 'DejaVu Sans', 'Bitstream Vera Sans', 'Computer Modern Sans Serif', 'Lucida Grande', 'Verdana', 'Geneva', 'Lucid', 'Arial', 'Helvetica', 'Avant Garde', sans-serif" text-anchor="middle">8</text>
     </g>
    </g>
    <g id="xtick_7">
     <g id="line2d_7">
      <use x="370.234815" y="311.04" stroke="#000000" stroke-width=".8" xlink:href="#m4065280956"/>
     </g>
     <g id="text_7">
      <text transform="rotate(-0 370.23 325.64)" x="370.234815" y="325.638438" font="10px 'DejaVu Sans', 'Bitstream Vera Sans', 'Computer Modern Sans Serif', 'Lucida Grande', 'Verdana', 'Geneva', 'Lucid', 'Arial', 'Helvetica', 'Avant Garde', sans-serif" text-anchor="middle">10</text>
     </g>
    </g>
   </g>
   <g id="matplotlib.axis_2">
    <g id="ytick_1">
     <g id="line2d_8">
      <defs>
       <path id="ma3818acd0e" d="m0 0h-3.5" stroke="#000" stroke-width=".8"/>
      </defs>
      <use x="92.219383" y="289.654198" stroke="#000000" stroke-width=".8" xlink:href="#ma3818acd0e"/>
     </g>
     <g id="text_8">
      <text transform="rotate(-0 85.219 293.45)" x="85.219383" y="293.453416" font="10px 'DejaVu Sans', 'Bitstream Vera Sans', 'Computer Modern Sans Serif', 'Lucida Grande', 'Verdana', 'Geneva', 'Lucid', 'Arial', 'Helvetica', 'Avant Garde', sans-serif" text-anchor="end">−2</text>
     </g>
    </g>
    <g id="ytick_2">
     <g id="line2d_9">
      <use x="92.219383" y="246.882593" stroke="#000000" stroke-width=".8" xlink:href="#ma3818acd0e"/>
     </g>
     <g id="text_9">
      <text transform="rotate(-0 85.219 250.68)" x="85.219383" y="250.681811" font="10px 'DejaVu Sans', 'Bitstream Vera Sans', 'Computer Modern Sans Serif', 'Lucida Grande', 'Verdana', 'Geneva', 'Lucid', 'Arial', 'Helvetica', 'Avant Garde', sans-serif" text-anchor="end">0</text>
     </g>
    </g>
    <g id="ytick_3">
     <g id="line2d_10">
      <use x="92.219383" y="204.110988" stroke="#000000" stroke-width=".8" xlink:href="#ma3818acd0e"/>
     </g>
     <g id="text_10">
      <text transform="rotate(-0 85.219 207.91)" x="85.219383" y="207.910207" font="10px 'DejaVu Sans', 'Bitstream Vera Sans', 'Computer Modern Sans Serif', 'Lucida Grande', 'Verdana', 'Geneva', 'Lucid', 'Arial', 'Helvetica', 'Avant Garde', sans-serif" text-anchor="end">2</text>
     </g>
    </g>
    <g id="ytick_4">
     <g id="line2d_11">
      <use x="92.219383" y="161.339383" stroke="#000000" stroke-width=".8" xlink:href="#ma3818acd0e"/>
     </g>
     <g id="text_11">
      <text transform="rotate(-0 85.219 165.14)" x="85.219383" y="165.138602" font="10px 'DejaVu Sans', 'Bitstream Vera Sans', 'Computer Modern Sans Serif', 'Lucida Grande', 'Verdana', 'Geneva', 'Lucid', 'Arial', 'Helvetica', 'Avant Garde', sans-serif" text-anchor="end">4</text>
     </g>
    </g>
    <g id="ytick_5">
     <g id="line2d_12">
      <use x="92.219383" y="118.567778" stroke="#000000" stroke-width=".8" xlink:href="#ma3818acd0e"/>
     </g>
     <g id="text_12">
      <text transform="rotate(-0 85.219 122.37)" x="85.219383" y="122.366997" font="10px 'DejaVu Sans', 'Bitstream Vera Sans', 'Computer Modern Sans Serif', 'Lucida Grande', 'Verdana', 'Geneva', 'Lucid', 'Arial', 'Helvetica', 'Avant Garde', sans-serif" text-anchor="end">6</text>
     </g>
    </g>
    <g id="ytick_6">
     <g id="line2d_13">
      <use x="92.219383" y="75.796173" stroke="#000000" stroke-width=".8" xlink:href="#ma3818acd0e"/>
     </g>
     <g id="text_13">
      <text transform="rotate(-0 85.219 79.595)" x="85.219383" y="79.595392" font="10px 'DejaVu Sans', 'Bitstream Vera Sans', 'Computer Modern Sans Serif', 'Lucida Grande', 'Verdana', 'Geneva', 'Lucid', 'Arial', 'Helvetica', 'Avant Garde', sans-serif" text-anchor="end">8</text>
     </g>
    </g>
   </g>
   <g id="LineCollection_1" fill="none">
    <path d="m156.38 246.88 10.693-18.521" clip-path="url(#p339f7d0b31)" stroke="#f00"/>
    <path d="m167.07 228.36 10.693 18.521" clip-path="url(#p339f7d0b31)" stroke="#ffd700"/>
    <path d="m177.76 246.88 10.693-18.521" clip-path="url(#p339f7d0b31)" stroke="#f00"/>
    <path d="m188.46 228.36h-21.386" clip-path="url(#p339f7d0b31)" stroke="#ffd700"/>
    <path d="m167.07 228.36 10.693-18.521" clip-path="url(#p339f7d0b31)" stroke="#f00"/>
    <path d="m177.76 209.84 10.693 18.521" clip-path="url(#p339f7d0b31)" stroke="#ffd700"/>
    <path d="m188.46 228.36 10.693 18.521" clip-path="url(#p339f7d0b31)" stroke="#ffd700"/>
    <path d="m199.15 246.88 10.693-18.521" clip-path="url(#p339f7d0b31)" stroke="#f00"/>
    <path d="m209.84 228.36 10.693 18.521" clip-path="url(#p339f7d0b31)" stroke="#ffd700"/>
    <path d="m220.53 246.88 10.693-18.521" clip-path="url(#p339f7d0b31)" stroke="#f00"/>
    <path d="m231.23 228.36h-21.386" clip-path="url(#p339f7d0b31)" stroke="#ffd700"/>
    <path d="m209.84 228.36 10.693-18.521" clip-path="url(#p339f7d0b31)" stroke="#f00"/>
    <path d="m220.53 209.84h-21.386" clip-path="url(#p339f7d0b31)" stroke="#ffd700"/>
    <path d="m199.15 209.84h-21.386" clip-path="url(#p339f7d0b31)" stroke="#ffd700"/>
    <path d="m177.76 209.84 10.693-18.521" clip-path="url(#p339f7d0b31)" stroke="#f00"/>
    <path d="m188.46 191.32 10.693 18.521" clip-path="url(#p339f7d0b31)" stroke="#ffd700"/>
    <path d="m199.15 209.84 10.693-18.521" clip-path="url(#p339f7d0b31)" stroke="#f00"/>
    <path d="m209.84 191.32h-21.386" clip-path="url(#p339f7d0b31)" stroke="#ffd700"/>
    <path d="m188.46 191.32 10.693-18.521" clip-path="url(#p339f7d0b31)" stroke="#f00"/>
    <path d="m199.15 172.8 10.693 18.521" clip-path="url(#p339f7d0b31)" stroke="#ffd700"/>
    <path d="m209.84 191.32 10.693 18.521" clip-path="url(#p339f7d0b31)" stroke="#ffd700"/>
    <path d="m220.53 209.84 10.693 18.521" clip-path="url(#p339f7d0b31)" stroke="#ffd700"/>
    <path d="m231.23 228.36 10.693 18.521" clip-path="url(#p339f7d0b31)" stroke="#ffd700"/>
    <path d="m241.92 246.88 10.693-18.521" clip-path="url(#p339f7d0b31)" stroke="#f00"/>
    <path d="m252.61 228.36 10.693 18.521" clip-path="url(#p339f7d0b31)" stroke="#ffd700"/>
    <path d="m263.31 246.88 10.693-18.521" clip-path="url(#p339f7d0b31)" stroke="#f00"/>
    <path d="m274 228.36h-21.386" clip-path="url(#p339f7d0b31)" stroke="#ffd700"/>
    <path d="m252.61 228.36 10.693-18.521" clip-path="url(#p339f7d0b31)" stroke="#f00"/>
    <path d="m263.31 209.84 10.693 18.521" clip-path="url(#p339f7d0b31)" stroke="#ffd700"/>
    <path d="m274 228.36 10.693 18.521" clip-path="url(#p339f7d0b31)" stroke="#ffd700"/>
    <path d="m284.69 246.88 10.693-18.521" clip-path="url(#p339f7d0b31)" stroke="#f00"/>
    <path d="m295.38 228.36 10.693 18.521" clip-path="url(#p339f7d0b31)" stroke="#ffd700"/>
    <path d="m306.08 246.88 10.693-18.521" clip-path="url(#p339f7d0b31)" stroke="#f00"/>
    <path d="m316.77 228.36h-21.386" clip-path="url(#p339f7d0b31)" stroke="#ffd700"/>
    <path d="m295.38 228.36 10.693-18.521" clip-path="url(#p339f7d0b31)" stroke="#f00"/>
    <path d="m306.08 209.84h-21.386" clip-path="url(#p339f7d0b31)" stroke="#ffd700"/>
    <path d="m284.69 209.84h-21.386" clip-path="url(#p339f7d0b31)" stroke="#ffd700"/>
    <path d="m263.31 209.84 10.693-18.521" clip-path="url(#p339f7d0b31)" stroke="#f00"/>
    <path d="m274 191.32 10.693 18.521" clip-path="url(#p339f7d0b31)" stroke="#ffd700"/>
    <path d="m284.69 209.84 10.693-18.521" clip-path="url(#p339f7d0b31)" stroke="#f00"/>
    <path d="m295.38 191.32h-21.386" clip-path="url(#p339f7d0b31)" stroke="#ffd700"/>
    <path d="m274 191.32 10.693-18.521" clip-path="url(#p339f7d0b31)" stroke="#f00"/>
    <path d="m284.69 172.8h-21.386" clip-path="url(#p339f7d0b31)" stroke="#ffd700"/>
    <path d="m263.31 172.8h-21.386" clip-path="url(#p339f7d0b31)" stroke="#ffd700"/>
    <path d="m241.92 172.8h-21.386" clip-path="url(#p339f7d0b31)" stroke="#ffd700"/>
    <path d="m220.53 172.8h-21.386" clip-path="url(#p339f7d0b31)" stroke="#ffd700"/>
    <path d="m199.15 172.8 10.693-18.521" clip-path="url(#p339f7d0b31)" stroke="#f00"/>
    <path d="m209.84 154.28 10.693 18.521" clip-path="url(#p339f7d0b31)" stroke="#ffd700"/>
    <path d="m220.53 172.8 10.693-18.521" clip-path="url(#p339f7d0b31)" stroke="#f00"/>
    <path d="m231.23 154.28h-21.386" clip-path="url(#p339f7d0b31)" stroke="#ffd700"/>
    <path d="m209.84 154.28 10.693-18.521" clip-path="url(#p339f7d0b31)" stroke="#f00"/>
    <path d="m220.53 135.76 10.693 18.521" clip-path="url(#p339f7d0b31)" stroke="#ffd700"/>
    <path d="m231.23 154.28 10.693 18.521" clip-path="url(#p339f7d0b31)" stroke="#ffd700"/>
    <path d="m241.92 172.8 10.693-18.521" clip-path="url(#p339f7d0b31)" stroke="#f00"/>
    <path d="m252.61 154.28 10.693 18.521" clip-path="url(#p339f7d0b31)" stroke="#ffd700"/>
    <path d="m263.31 172.8 10.693-18.521" clip-path="url(#p339f7d0b31)" stroke="#f00"/>
    <path d="m274 154.28h-21.386" clip-path="url(#p339f7d0b31)" stroke="#ffd700"/>
    <path d="m252.61 154.28 10.693-18.521" clip-path="url(#p339f7d0b31)" stroke="#f00"/>
    <path d="m263.31 135.76h-21.386" clip-path="url(#p339f7d0b31)" stroke="#ffd700"/>
    <path d="m241.92 135.76h-21.386" clip-path="url(#p339f7d0b31)" stroke="#ffd700"/>
    <path d="m220.53 135.76 10.693-18.521" clip-path="url(#p339f7d0b31)" stroke="#f00"/>
    <path d="m231.23 117.24 10.693 18.521" clip-path="url(#p339f7d0b31)" stroke="#ffd700"/>
    <path d="m241.92 135.76 10.693-18.521" clip-path="url(#p339f7d0b31)" stroke="#f00"/>
    <path d="m252.61 117.24h-21.386" clip-path="url(#p339f7d0b31)" stroke="#ffd700"/>
    <path d="m231.23 117.24 10.693-18.521" clip-path="url(#p339f7d0b31)" stroke="#f00"/>
    <path d="m241.92 98.717 10.693 18.521" clip-path="url(#p339f7d0b31)" stroke="#ffd700"/>
    <path d="m252.61 117.24 10.693 18.521" clip-path="url(#p339f7d0b31)" stroke="#ffd700"/>
    <path d="m263.31 135.76 10.693 18.521" clip-path="url(#p339f7d0b31)" stroke="#ffd700"/>
    <path d="m274 154.28 10.693 18.521" clip-path="url(#p339f7d0b31)" stroke="#ffd700"/>
    <path d="m284.69 172.8 10.693 18.521" clip-path="url(#p339f7d0b31)" stroke="#ffd700"/>
    <path d="m295.38 191.32 10.693 18.521" clip-path="url(#p339f7d0b31)" stroke="#ffd700"/>
    <path d="m306.08 209.84 10.693 18.521" clip-path="url(#p339f7d0b31)" stroke="#ffd700"/>
    <path d="m316.77 228.36 10.693 18.521" clip-path="url(#p339f7d0b31)" stroke="#ffd700"/>
    <path d="m327.46 246.88h-21.386" clip-path="url(#p339f7d0b31)" stroke="#ffd700"/>
    <path d="m306.08 246.88h-21.386" clip-path="url(#p339f7d0b31)" stroke="#ffd700"/>
    <path d="m284.69 246.88h-21.386" clip-path="url(#p339f7d0b31)" stroke="#ffd700"/>
    <path d="m263.31 246.88h-21.386" clip-path="url(#p339f7d0b31)" stroke="#ffd700"/>
    <path d="m241.92 246.88h-21.386" clip-path="url(#p339f7d0b31)" stroke="#ffd700"/>
    <path d="m220.53 246.88h-21.386" clip-path="url(#p339f7d0b31)" stroke="#ffd700"/>
    <path d="m199.15 246.88h-21.386" clip-path="url(#p339f7d0b31)" stroke="#ffd700"/>
    <path d="m177.76 246.88h-21.386" clip-path="url(#p339f7d0b31)" stroke="#ffd700"/>
   </g>
   <g id="patch_3">
    <path d="m92.219 311.04v-276.48" fill="none" stroke="#000" stroke-linecap="square" stroke-width=".8"/>
   </g>
   <g id="patch_4">
    <path d="m391.62 311.04v-276.48" fill="none" stroke="#000" stroke-linecap="square" stroke-width=".8"/>
   </g>
   <g id="patch_5">
    <path d="m92.219 311.04h299.4" fill="none" stroke="#000" stroke-linecap="square" stroke-width=".8"/>
   </g>
   <g id="patch_6">
    <path d="m92.219 34.56h299.4" fill="none" stroke="#000" stroke-linecap="square" stroke-width=".8"/>
   </g>
  </g>
  <g id="text_14">
   <text transform="rotate(-0 230.4 19.07)" x="230.4" y="19.0695" font="16px 'DejaVu Sans', 'Bitstream Vera Sans', 'Computer Modern Sans Serif', 'Lucida Grande', 'Verdana', 'Geneva', 'Lucid', 'Arial', 'Helvetica', 'Avant Garde', sans-serif" text-anchor="middle">n = 3</text>
  </g>
 </g>
 <defs>
  <clipPath id="p339f7d0b31">
   <rect x="92.219" y="34.56" width="299.4" height="276.48"/>
  </clipPath>
 </defs>
</svg>
