<?xml version="1.0" encoding="UTF-8"?>
<!DOCTYPE svg  PUBLIC '-//W3C//DTD SVG 1.1//EN'  'http://www.w3.org/Graphics/SVG/1.1/DTD/svg11.dtd'>
<svg width="460.8pt" height="345.6pt" version="1.1" viewBox="0 0 460.8 345.6" xmlns="http://www.w3.org/2000/svg" xmlns:xlink="http://www.w3.org/1999/xlink">
 <metadata>
  <rdf:RDF xmlns:cc="http://creativecommons.org/ns#" xmlns:dc="http://purl.org/dc/elements/1.1/" xmlns:rdf="http://www.w3.org/1999/02/22-rdf-syntax-ns#">
   <cc:Work>
    <dc:type rdf:resource="http://purl.org/dc/dcmitype/StillImage"/>
    <dc:date>2023-03-19T15:29:58.917527</dc:date>
    <dc:format>image/svg+xml</dc:format>
    <dc:creator>
     <cc:Agent>
      <dc:title>Matplotlib v3.7.1, https://matplotlib.org/</dc:title>
     </cc:Agent>
    </dc:creator>
   </cc:Work>
  </rdf:RDF>
 </metadata>
 <defs>
  <style type="text/css">*{stroke-linejoin: round; stroke-linecap: butt}</style>
 </defs>
 <g id="figure_1">
  <g id="patch_1">
   <path d="m0 345.6h460.8v-345.6h-460.8z" fill="#fff"/>
  </g>
  <g id="axes_1">
   <g id="patch_2">
    <path d="m106.63 311.04h270.58v-276.48h-270.58z" fill="#fff"/>
   </g>
   <g id="matplotlib.axis_1">
    <g id="xtick_1">
     <g id="line2d_1">
      <defs>
       <path id="m4403f0362c" d="m0 0v3.5" stroke="#000" stroke-width=".8"/>
      </defs>
      <use x="126.671801" y="311.04" stroke="#000000" stroke-width=".8" xlink:href="#m4403f0362c"/>
     </g>
     <g id="text_1">
      <text transform="rotate(-0 126.67 325.64)" x="126.671801" y="325.638438" font="10px 'DejaVu Sans', 'Bitstream Vera Sans', 'Computer Modern Sans Serif', 'Lucida Grande', 'Verdana', 'Geneva', 'Lucid', 'Arial', 'Helvetica', 'Avant Garde', sans-serif" text-anchor="middle">−8</text>
     </g>
    </g>
    <g id="xtick_2">
     <g id="line2d_2">
      <use x="166.758131" y="311.04" stroke="#000000" stroke-width=".8" xlink:href="#m4403f0362c"/>
     </g>
     <g id="text_2">
      <text transform="rotate(-0 166.76 325.64)" x="166.758131" y="325.638438" font="10px 'DejaVu Sans', 'Bitstream Vera Sans', 'Computer Modern Sans Serif', 'Lucida Grande', 'Verdana', 'Geneva', 'Lucid', 'Arial', 'Helvetica', 'Avant Garde', sans-serif" text-anchor="middle">−6</text>
     </g>
    </g>
    <g id="xtick_3">
     <g id="line2d_3">
      <use x="206.844461" y="311.04" stroke="#000000" stroke-width=".8" xlink:href="#m4403f0362c"/>
     </g>
     <g id="text_3">
      <text transform="rotate(-0 206.84 325.64)" x="206.844461" y="325.638438" font="10px 'DejaVu Sans', 'Bitstream Vera Sans', 'Computer Modern Sans Serif', 'Lucida Grande', 'Verdana', 'Geneva', 'Lucid', 'Arial', 'Helvetica', 'Avant Garde', sans-serif" text-anchor="middle">−4</text>
     </g>
    </g>
    <g id="xtick_4">
     <g id="line2d_4">
      <use x="246.930791" y="311.04" stroke="#000000" stroke-width=".8" xlink:href="#m4403f0362c"/>
     </g>
     <g id="text_4">
      <text transform="rotate(-0 246.93 325.64)" x="246.930791" y="325.638438" font="10px 'DejaVu Sans', 'Bitstream Vera Sans', 'Computer Modern Sans Serif', 'Lucida Grande', 'Verdana', 'Geneva', 'Lucid', 'Arial', 'Helvetica', 'Avant Garde', sans-serif" text-anchor="middle">−2</text>
     </g>
    </g>
    <g id="xtick_5">
     <g id="line2d_5">
      <use x="287.017121" y="311.04" stroke="#000000" stroke-width=".8" xlink:href="#m4403f0362c"/>
     </g>
     <g id="text_5">
      <text transform="rotate(-0 287.02 325.64)" x="287.017121" y="325.638438" font="10px 'DejaVu Sans', 'Bitstream Vera Sans', 'Computer Modern Sans Serif', 'Lucida Grande', 'Verdana', 'Geneva', 'Lucid', 'Arial', 'Helvetica', 'Avant Garde', sans-serif" text-anchor="middle">0</text>
     </g>
    </g>
    <g id="xtick_6">
     <g id="line2d_6">
      <use x="327.103451" y="311.04" stroke="#000000" stroke-width=".8" xlink:href="#m4403f0362c"/>
     </g>
     <g id="text_6">
      <text transform="rotate(-0 327.1 325.64)" x="327.103451" y="325.638438" font="10px 'DejaVu Sans', 'Bitstream Vera Sans', 'Computer Modern Sans Serif', 'Lucida Grande', 'Verdana', 'Geneva', 'Lucid', 'Arial', 'Helvetica', 'Avant Garde', sans-serif" text-anchor="middle">2</text>
     </g>
    </g>
    <g id="xtick_7">
     <g id="line2d_7">
      <use x="367.189781" y="311.04" stroke="#000000" stroke-width=".8" xlink:href="#m4403f0362c"/>
     </g>
     <g id="text_7">
      <text transform="rotate(-0 367.19 325.64)" x="367.189781" y="325.638438" font="10px 'DejaVu Sans', 'Bitstream Vera Sans', 'Computer Modern Sans Serif', 'Lucida Grande', 'Verdana', 'Geneva', 'Lucid', 'Arial', 'Helvetica', 'Avant Garde', sans-serif" text-anchor="middle">4</text>
     </g>
    </g>
   </g>
   <g id="matplotlib.axis_2">
    <g id="ytick_1">
     <g id="line2d_8">
      <defs>
       <path id="me418216db9" d="m0 0h-3.5" stroke="#000" stroke-width=".8"/>
      </defs>
      <use x="106.628637" y="290.996835" stroke="#000000" stroke-width=".8" xlink:href="#me418216db9"/>
     </g>
     <g id="text_8">
      <text transform="rotate(-0 99.629 294.8)" x="99.628637" y="294.796054" font="10px 'DejaVu Sans', 'Bitstream Vera Sans', 'Computer Modern Sans Serif', 'Lucida Grande', 'Verdana', 'Geneva', 'Lucid', 'Arial', 'Helvetica', 'Avant Garde', sans-serif" text-anchor="end">−2</text>
     </g>
    </g>
    <g id="ytick_2">
     <g id="line2d_9">
      <use x="106.628637" y="250.910505" stroke="#000000" stroke-width=".8" xlink:href="#me418216db9"/>
     </g>
     <g id="text_9">
      <text transform="rotate(-0 99.629 254.71)" x="99.628637" y="254.709724" font="10px 'DejaVu Sans', 'Bitstream Vera Sans', 'Computer Modern Sans Serif', 'Lucida Grande', 'Verdana', 'Geneva', 'Lucid', 'Arial', 'Helvetica', 'Avant Garde', sans-serif" text-anchor="end">0</text>
     </g>
    </g>
    <g id="ytick_3">
     <g id="line2d_10">
      <use x="106.628637" y="210.824175" stroke="#000000" stroke-width=".8" xlink:href="#me418216db9"/>
     </g>
     <g id="text_10">
      <text transform="rotate(-0 99.629 214.62)" x="99.628637" y="214.623394" font="10px 'DejaVu Sans', 'Bitstream Vera Sans', 'Computer Modern Sans Serif', 'Lucida Grande', 'Verdana', 'Geneva', 'Lucid', 'Arial', 'Helvetica', 'Avant Garde', sans-serif" text-anchor="end">2</text>
     </g>
    </g>
    <g id="ytick_4">
     <g id="line2d_11">
      <use x="106.628637" y="170.737845" stroke="#000000" stroke-width=".8" xlink:href="#me418216db9"/>
     </g>
     <g id="text_11">
      <text transform="rotate(-0 99.629 174.54)" x="99.628637" y="174.537064" font="10px 'DejaVu Sans', 'Bitstream Vera Sans', 'Computer Modern Sans Serif', 'Lucida Grande', 'Verdana', 'Geneva', 'Lucid', 'Arial', 'Helvetica', 'Avant Garde', sans-serif" text-anchor="end">4</text>
     </g>
    </g>
    <g id="ytick_5">
     <g id="line2d_12">
      <use x="106.628637" y="130.651515" stroke="#000000" stroke-width=".8" xlink:href="#me418216db9"/>
     </g>
     <g id="text_12">
      <text transform="rotate(-0 99.629 134.45)" x="99.628637" y="134.450734" font="10px 'DejaVu Sans', 'Bitstream Vera Sans', 'Computer Modern Sans Serif', 'Lucida Grande', 'Verdana', 'Geneva', 'Lucid', 'Arial', 'Helvetica', 'Avant Garde', sans-serif" text-anchor="end">6</text>
     </g>
    </g>
    <g id="ytick_6">
     <g id="line2d_13">
      <use x="106.628637" y="90.565185" stroke="#000000" stroke-width=".8" xlink:href="#me418216db9"/>
     </g>
     <g id="text_13">
      <text transform="rotate(-0 99.629 94.364)" x="99.628637" y="94.364404" font="10px 'DejaVu Sans', 'Bitstream Vera Sans', 'Computer Modern Sans Serif', 'Lucida Grande', 'Verdana', 'Geneva', 'Lucid', 'Arial', 'Helvetica', 'Avant Garde', sans-serif" text-anchor="end">8</text>
     </g>
    </g>
    <g id="ytick_7">
     <g id="line2d_14">
      <use x="106.628637" y="50.478856" stroke="#000000" stroke-width=".8" xlink:href="#me418216db9"/>
     </g>
     <g id="text_14">
      <text transform="rotate(-0 99.629 54.278)" x="99.628637" y="54.278074" font="10px 'DejaVu Sans', 'Bitstream Vera Sans', 'Computer Modern Sans Serif', 'Lucida Grande', 'Verdana', 'Geneva', 'Lucid', 'Arial', 'Helvetica', 'Avant Garde', sans-serif" text-anchor="end">10</text>
     </g>
    </g>
   </g>
   <g id="LineCollection_1" fill="none" stroke-width="2">
    <path d="m287.02 250.91h20.043" clip-path="url(#p9667198c11)" stroke="#f00"/>
    <path d="m307.06 250.91-10.022-17.358" clip-path="url(#p9667198c11)" stroke="#f00"/>
    <path d="m297.04 233.55h20.043" clip-path="url(#p9667198c11)" stroke="#f00"/>
    <path d="m317.08 233.55-10.022-17.358" clip-path="url(#p9667198c11)" stroke="#f00"/>
    <path d="m307.06 216.19-10.022 17.358" clip-path="url(#p9667198c11)" stroke="#f00"/>
    <path d="m297.04 233.55-10.022-17.358" clip-path="url(#p9667198c11)" stroke="#f00"/>
    <path d="m287.02 216.19h20.043" clip-path="url(#p9667198c11)" stroke="#f00"/>
    <path d="m307.06 216.19-10.022-17.358" clip-path="url(#p9667198c11)" stroke="#f00"/>
    <path d="m297.04 198.84h20.043" clip-path="url(#p9667198c11)" stroke="#f00"/>
    <path d="m317.08 198.84-10.022-17.358" clip-path="url(#p9667198c11)" stroke="#f00"/>
    <path d="m307.06 181.48-10.022 17.358" clip-path="url(#p9667198c11)" stroke="#f00"/>
    <path d="m297.04 198.84-10.022-17.358" clip-path="url(#p9667198c11)" stroke="#f00"/>
    <path d="m287.02 181.48-10.022 17.358" clip-path="url(#p9667198c11)" stroke="#f00"/>
    <path d="m277 198.84h20.043" clip-path="url(#p9667198c11)" stroke="#f00"/>
    <path d="m297.04 198.84-10.022 17.358" clip-path="url(#p9667198c11)" stroke="#f00"/>
    <path d="m287.02 216.19-10.022-17.358" clip-path="url(#p9667198c11)" stroke="#f00"/>
    <path d="m277 198.84-10.022 17.358" clip-path="url(#p9667198c11)" stroke="#f00"/>
    <path d="m266.97 216.19-10.022-17.358" clip-path="url(#p9667198c11)" stroke="#f00"/>
    <path d="m256.95 198.84h20.043" clip-path="url(#p9667198c11)" stroke="#f00"/>
    <path d="m277 198.84-10.022-17.358" clip-path="url(#p9667198c11)" stroke="#f00"/>
    <path d="m266.97 181.48h20.043" clip-path="url(#p9667198c11)" stroke="#f00"/>
    <path d="m287.02 181.48-10.022-17.358" clip-path="url(#p9667198c11)" stroke="#f00"/>
    <path d="m277 164.12-10.022 17.358" clip-path="url(#p9667198c11)" stroke="#f00"/>
    <path d="m266.97 181.48-10.022-17.358" clip-path="url(#p9667198c11)" stroke="#f00"/>
    <path d="m256.95 164.12h20.043" clip-path="url(#p9667198c11)" stroke="#f00"/>
    <path d="m277 164.12-10.022-17.358" clip-path="url(#p9667198c11)" stroke="#f00"/>
    <path d="m266.97 146.76h20.043" clip-path="url(#p9667198c11)" stroke="#f00"/>
    <path d="m287.02 146.76-10.022-17.358" clip-path="url(#p9667198c11)" stroke="#008000"/>
    <path d="m277 129.41-10.022 17.358" clip-path="url(#p9667198c11)" stroke="#008000"/>
    <path d="m266.97 146.76-10.022-17.358" clip-path="url(#p9667198c11)" stroke="#008000"/>
    <path d="m256.95 129.41-10.022 17.358" clip-path="url(#p9667198c11)" stroke="#008000"/>
    <path d="m246.93 146.76h20.043" clip-path="url(#p9667198c11)" stroke="#008000"/>
    <path d="m266.97 146.76-10.022 17.358" clip-path="url(#p9667198c11)" stroke="#008000"/>
    <path d="m256.95 164.12-10.022-17.358" clip-path="url(#p9667198c11)" stroke="#008000"/>
    <path d="m246.93 146.76-10.022 17.358" clip-path="url(#p9667198c11)" stroke="#008000"/>
    <path d="m236.91 164.12-10.022-17.358" clip-path="url(#p9667198c11)" stroke="#008000"/>
    <path d="m226.89 146.76-10.022 17.358" clip-path="url(#p9667198c11)" stroke="#008000"/>
    <path d="m216.87 164.12h20.043" clip-path="url(#p9667198c11)" stroke="#008000"/>
    <path d="m236.91 164.12-10.022 17.358" clip-path="url(#p9667198c11)" stroke="#008000"/>
    <path d="m226.89 181.48h20.043" clip-path="url(#p9667198c11)" stroke="#008000"/>
    <path d="m246.93 181.48-10.022-17.358" clip-path="url(#p9667198c11)" stroke="#008000"/>
    <path d="m236.91 164.12h20.043" clip-path="url(#p9667198c11)" stroke="#008000"/>
    <path d="m256.95 164.12-10.022 17.358" clip-path="url(#p9667198c11)" stroke="#008000"/>
    <path d="m246.93 181.48h20.043" clip-path="url(#p9667198c11)" stroke="#008000"/>
    <path d="m266.97 181.48-10.022 17.358" clip-path="url(#p9667198c11)" stroke="#008000"/>
    <path d="m256.95 198.84-10.022-17.358" clip-path="url(#p9667198c11)" stroke="#008000"/>
    <path d="m246.93 181.48-10.022 17.358" clip-path="url(#p9667198c11)" stroke="#008000"/>
    <path d="m236.91 198.84-10.022-17.358" clip-path="url(#p9667198c11)" stroke="#008000"/>
    <path d="m226.89 181.48-10.022 17.358" clip-path="url(#p9667198c11)" stroke="#008000"/>
    <path d="m216.87 198.84h20.043" clip-path="url(#p9667198c11)" stroke="#008000"/>
    <path d="m236.91 198.84-10.022 17.358" clip-path="url(#p9667198c11)" stroke="#008000"/>
    <path d="m226.89 216.19-10.022-17.358" clip-path="url(#p9667198c11)" stroke="#008000"/>
    <path d="m216.87 198.84-10.022 17.358" clip-path="url(#p9667198c11)" stroke="#008000"/>
    <path d="m206.84 216.19-10.022-17.358" clip-path="url(#p9667198c11)" stroke="#008000"/>
    <path d="m196.82 198.84h20.043" clip-path="url(#p9667198c11)" stroke="#00f"/>
    <path d="m216.87 198.84-10.022-17.358" clip-path="url(#p9667198c11)" stroke="#00f"/>
    <path d="m206.84 181.48h20.043" clip-path="url(#p9667198c11)" stroke="#00f"/>
    <path d="m226.89 181.48-10.022-17.358" clip-path="url(#p9667198c11)" stroke="#00f"/>
    <path d="m216.87 164.12-10.022 17.358" clip-path="url(#p9667198c11)" stroke="#00f"/>
    <path d="m206.84 181.48-10.022-17.358" clip-path="url(#p9667198c11)" stroke="#00f"/>
    <path d="m196.82 164.12h20.043" clip-path="url(#p9667198c11)" stroke="#00f"/>
    <path d="m216.87 164.12-10.022-17.358" clip-path="url(#p9667198c11)" stroke="#00f"/>
    <path d="m206.84 146.76h20.043" clip-path="url(#p9667198c11)" stroke="#00f"/>
    <path d="m226.89 146.76-10.022-17.358" clip-path="url(#p9667198c11)" stroke="#00f"/>
    <path d="m216.87 129.41-10.022 17.358" clip-path="url(#p9667198c11)" stroke="#00f"/>
    <path d="m206.84 146.76-10.022-17.358" clip-path="url(#p9667198c11)" stroke="#00f"/>
    <path d="m196.82 129.41-10.022 17.358" clip-path="url(#p9667198c11)" stroke="#00f"/>
    <path d="m186.8 146.76h20.043" clip-path="url(#p9667198c11)" stroke="#00f"/>
    <path d="m206.84 146.76-10.022 17.358" clip-path="url(#p9667198c11)" stroke="#00f"/>
    <path d="m196.82 164.12-10.022-17.358" clip-path="url(#p9667198c11)" stroke="#00f"/>
    <path d="m186.8 146.76-10.022 17.358" clip-path="url(#p9667198c11)" stroke="#00f"/>
    <path d="m176.78 164.12-10.022-17.358" clip-path="url(#p9667198c11)" stroke="#00f"/>
    <path d="m166.76 146.76h20.043" clip-path="url(#p9667198c11)" stroke="#00f"/>
    <path d="m186.8 146.76-10.022-17.358" clip-path="url(#p9667198c11)" stroke="#00f"/>
    <path d="m176.78 129.41h20.043" clip-path="url(#p9667198c11)" stroke="#00f"/>
    <path d="m196.82 129.41-10.022-17.358" clip-path="url(#p9667198c11)" stroke="#00f"/>
    <path d="m186.8 112.05-10.022 17.358" clip-path="url(#p9667198c11)" stroke="#00f"/>
    <path d="m176.78 129.41-10.022-17.358" clip-path="url(#p9667198c11)" stroke="#00f"/>
    <path d="m166.76 112.05h20.043" clip-path="url(#p9667198c11)" stroke="#00f"/>
    <path d="m186.8 112.05-10.022-17.358" clip-path="url(#p9667198c11)" stroke="#00f"/>
    <path d="m176.78 94.689h20.043" clip-path="url(#p9667198c11)" stroke="#00f"/>
   </g>
   <g id="patch_3">
    <path d="m106.63 311.04v-276.48" fill="none" stroke="#000" stroke-linecap="square" stroke-width=".8"/>
   </g>
   <g id="patch_4">
    <path d="m377.21 311.04v-276.48" fill="none" stroke="#000" stroke-linecap="square" stroke-width=".8"/>
   </g>
   <g id="patch_5">
    <path d="m106.63 311.04h270.58" fill="none" stroke="#000" stroke-linecap="square" stroke-width=".8"/>
   </g>
   <g id="patch_6">
    <path d="m106.63 34.56h270.58" fill="none" stroke="#000" stroke-linecap="square" stroke-width=".8"/>
   </g>
  </g>
  <g id="text_15">
   <text transform="rotate(-0 230.4 19.07)" x="230.4" y="19.0695" font="16px 'DejaVu Sans', 'Bitstream Vera Sans', 'Computer Modern Sans Serif', 'Lucida Grande', 'Verdana', 'Geneva', 'Lucid', 'Arial', 'Helvetica', 'Avant Garde', sans-serif" text-anchor="middle">n = 3</text>
  </g>
 </g>
 <defs>
  <clipPath id="p9667198c11">
   <rect x="106.63" y="34.56" width="270.58" height="276.48"/>
  </clipPath>
 </defs>
</svg>
