<?xml version="1.0" encoding="UTF-8"?>
<!DOCTYPE svg  PUBLIC '-//W3C//DTD SVG 1.1//EN'  'http://www.w3.org/Graphics/SVG/1.1/DTD/svg11.dtd'>
<svg width="460.8pt" height="345.6pt" version="1.1" viewBox="0 0 460.8 345.6" xmlns="http://www.w3.org/2000/svg" xmlns:xlink="http://www.w3.org/1999/xlink">
 <metadata>
  <rdf:RDF xmlns:cc="http://creativecommons.org/ns#" xmlns:dc="http://purl.org/dc/elements/1.1/" xmlns:rdf="http://www.w3.org/1999/02/22-rdf-syntax-ns#">
   <cc:Work>
    <dc:type rdf:resource="http://purl.org/dc/dcmitype/StillImage"/>
    <dc:date>2023-03-19T15:30:00.824042</dc:date>
    <dc:format>image/svg+xml</dc:format>
    <dc:creator>
     <cc:Agent>
      <dc:title>Matplotlib v3.7.1, https://matplotlib.org/</dc:title>
     </cc:Agent>
    </dc:creator>
   </cc:Work>
  </rdf:RDF>
 </metadata>
 <defs>
  <style type="text/css">*{stroke-linejoin: round; stroke-linecap: butt}</style>
 </defs>
 <g id="figure_1">
  <g id="patch_1">
   <path d="m0 345.6h460.8v-345.6h-460.8z" fill="#fff"/>
  </g>
  <g id="axes_1">
   <g id="patch_2">
    <path d="m57.6 311.04h368.64v-276.48h-368.64z" fill="#fff"/>
   </g>
   <g id="matplotlib.axis_1">
    <g id="xtick_1">
     <g id="line2d_1">
      <defs>
       <path id="m02df70c79d" d="m0 0v3.5" stroke="#000" stroke-width=".8"/>
      </defs>
      <use x="103.68" y="311.04" stroke="#000000" stroke-width=".8" xlink:href="#m02df70c79d"/>
     </g>
     <g id="text_1">
      <text transform="rotate(-0 103.68 325.64)" x="103.68" y="325.638438" font="10px 'DejaVu Sans', 'Bitstream Vera Sans', 'Computer Modern Sans Serif', 'Lucida Grande', 'Verdana', 'Geneva', 'Lucid', 'Arial', 'Helvetica', 'Avant Garde', sans-serif" text-anchor="middle">−5</text>
     </g>
    </g>
    <g id="xtick_2">
     <g id="line2d_2">
      <use x="180.48" y="311.04" stroke="#000000" stroke-width=".8" xlink:href="#m02df70c79d"/>
     </g>
     <g id="text_2">
      <text transform="rotate(-0 180.48 325.64)" x="180.48" y="325.638438" font="10px 'DejaVu Sans', 'Bitstream Vera Sans', 'Computer Modern Sans Serif', 'Lucida Grande', 'Verdana', 'Geneva', 'Lucid', 'Arial', 'Helvetica', 'Avant Garde', sans-serif" text-anchor="middle">0</text>
     </g>
    </g>
    <g id="xtick_3">
     <g id="line2d_3">
      <use x="257.28" y="311.04" stroke="#000000" stroke-width=".8" xlink:href="#m02df70c79d"/>
     </g>
     <g id="text_3">
      <text transform="rotate(-0 257.28 325.64)" x="257.28" y="325.638438" font="10px 'DejaVu Sans', 'Bitstream Vera Sans', 'Computer Modern Sans Serif', 'Lucida Grande', 'Verdana', 'Geneva', 'Lucid', 'Arial', 'Helvetica', 'Avant Garde', sans-serif" text-anchor="middle">5</text>
     </g>
    </g>
    <g id="xtick_4">
     <g id="line2d_4">
      <use x="334.08" y="311.04" stroke="#000000" stroke-width=".8" xlink:href="#m02df70c79d"/>
     </g>
     <g id="text_4">
      <text transform="rotate(-0 334.08 325.64)" x="334.08" y="325.638438" font="10px 'DejaVu Sans', 'Bitstream Vera Sans', 'Computer Modern Sans Serif', 'Lucida Grande', 'Verdana', 'Geneva', 'Lucid', 'Arial', 'Helvetica', 'Avant Garde', sans-serif" text-anchor="middle">10</text>
     </g>
    </g>
    <g id="xtick_5">
     <g id="line2d_5">
      <use x="410.88" y="311.04" stroke="#000000" stroke-width=".8" xlink:href="#m02df70c79d"/>
     </g>
     <g id="text_5">
      <text transform="rotate(-0 410.88 325.64)" x="410.88" y="325.638438" font="10px 'DejaVu Sans', 'Bitstream Vera Sans', 'Computer Modern Sans Serif', 'Lucida Grande', 'Verdana', 'Geneva', 'Lucid', 'Arial', 'Helvetica', 'Avant Garde', sans-serif" text-anchor="middle">15</text>
     </g>
    </g>
   </g>
   <g id="matplotlib.axis_2">
    <g id="ytick_1">
     <g id="line2d_6">
      <defs>
       <path id="m50afacab26" d="m0 0h-3.5" stroke="#000" stroke-width=".8"/>
      </defs>
      <use x="57.6" y="303.36" stroke="#000000" stroke-width=".8" xlink:href="#m50afacab26"/>
     </g>
     <g id="text_6">
      <text transform="rotate(-0 50.6 307.16)" x="50.6" y="307.159219" font="10px 'DejaVu Sans', 'Bitstream Vera Sans', 'Computer Modern Sans Serif', 'Lucida Grande', 'Verdana', 'Geneva', 'Lucid', 'Arial', 'Helvetica', 'Avant Garde', sans-serif" text-anchor="end">−12.5</text>
     </g>
    </g>
    <g id="ytick_2">
     <g id="line2d_7">
      <use x="57.6" y="264.96" stroke="#000000" stroke-width=".8" xlink:href="#m50afacab26"/>
     </g>
     <g id="text_7">
      <text transform="rotate(-0 50.6 268.76)" x="50.6" y="268.759219" font="10px 'DejaVu Sans', 'Bitstream Vera Sans', 'Computer Modern Sans Serif', 'Lucida Grande', 'Verdana', 'Geneva', 'Lucid', 'Arial', 'Helvetica', 'Avant Garde', sans-serif" text-anchor="end">−10.0</text>
     </g>
    </g>
    <g id="ytick_3">
     <g id="line2d_8">
      <use x="57.6" y="226.56" stroke="#000000" stroke-width=".8" xlink:href="#m50afacab26"/>
     </g>
     <g id="text_8">
      <text transform="rotate(-0 50.6 230.36)" x="50.6" y="230.359219" font="10px 'DejaVu Sans', 'Bitstream Vera Sans', 'Computer Modern Sans Serif', 'Lucida Grande', 'Verdana', 'Geneva', 'Lucid', 'Arial', 'Helvetica', 'Avant Garde', sans-serif" text-anchor="end">−7.5</text>
     </g>
    </g>
    <g id="ytick_4">
     <g id="line2d_9">
      <use x="57.6" y="188.16" stroke="#000000" stroke-width=".8" xlink:href="#m50afacab26"/>
     </g>
     <g id="text_9">
      <text transform="rotate(-0 50.6 191.96)" x="50.6" y="191.959219" font="10px 'DejaVu Sans', 'Bitstream Vera Sans', 'Computer Modern Sans Serif', 'Lucida Grande', 'Verdana', 'Geneva', 'Lucid', 'Arial', 'Helvetica', 'Avant Garde', sans-serif" text-anchor="end">−5.0</text>
     </g>
    </g>
    <g id="ytick_5">
     <g id="line2d_10">
      <use x="57.6" y="149.76" stroke="#000000" stroke-width=".8" xlink:href="#m50afacab26"/>
     </g>
     <g id="text_10">
      <text transform="rotate(-0 50.6 153.56)" x="50.6" y="153.559219" font="10px 'DejaVu Sans', 'Bitstream Vera Sans', 'Computer Modern Sans Serif', 'Lucida Grande', 'Verdana', 'Geneva', 'Lucid', 'Arial', 'Helvetica', 'Avant Garde', sans-serif" text-anchor="end">−2.5</text>
     </g>
    </g>
    <g id="ytick_6">
     <g id="line2d_11">
      <use x="57.6" y="111.36" stroke="#000000" stroke-width=".8" xlink:href="#m50afacab26"/>
     </g>
     <g id="text_11">
      <text transform="rotate(-0 50.6 115.16)" x="50.6" y="115.159219" font="10px 'DejaVu Sans', 'Bitstream Vera Sans', 'Computer Modern Sans Serif', 'Lucida Grande', 'Verdana', 'Geneva', 'Lucid', 'Arial', 'Helvetica', 'Avant Garde', sans-serif" text-anchor="end">0.0</text>
     </g>
    </g>
    <g id="ytick_7">
     <g id="line2d_12">
      <use x="57.6" y="72.96" stroke="#000000" stroke-width=".8" xlink:href="#m50afacab26"/>
     </g>
     <g id="text_12">
      <text transform="rotate(-0 50.6 76.759)" x="50.6" y="76.759219" font="10px 'DejaVu Sans', 'Bitstream Vera Sans', 'Computer Modern Sans Serif', 'Lucida Grande', 'Verdana', 'Geneva', 'Lucid', 'Arial', 'Helvetica', 'Avant Garde', sans-serif" text-anchor="end">2.5</text>
     </g>
    </g>
    <g id="ytick_8">
     <g id="line2d_13">
      <use x="57.6" y="34.56" stroke="#000000" stroke-width=".8" xlink:href="#m50afacab26"/>
     </g>
     <g id="text_13">
      <text transform="rotate(-0 50.6 38.359)" x="50.6" y="38.359219" font="10px 'DejaVu Sans', 'Bitstream Vera Sans', 'Computer Modern Sans Serif', 'Lucida Grande', 'Verdana', 'Geneva', 'Lucid', 'Arial', 'Helvetica', 'Avant Garde', sans-serif" text-anchor="end">5.0</text>
     </g>
    </g>
   </g>
   <g id="LineCollection_1" fill="none" stroke-width="2">
    <path d="m180.48 111.36h15.36" clip-path="url(#p6cd1f84b27)" stroke="#f00"/>
    <path d="m195.84 111.36v-15.36" clip-path="url(#p6cd1f84b27)" stroke="#f00"/>
    <path d="m195.84 96h-15.36" clip-path="url(#p6cd1f84b27)" stroke="#f00"/>
    <path d="m180.48 96v-15.36" clip-path="url(#p6cd1f84b27)" stroke="#f00"/>
    <path d="m180.48 80.64h-15.36" clip-path="url(#p6cd1f84b27)" stroke="#f00"/>
    <path d="m165.12 80.64v15.36" clip-path="url(#p6cd1f84b27)" stroke="#f00"/>
    <path d="m165.12 96h-15.36" clip-path="url(#p6cd1f84b27)" stroke="#f00"/>
    <path d="m149.76 96v-15.36" clip-path="url(#p6cd1f84b27)" stroke="#f00"/>
    <path d="m149.76 80.64h-15.36" clip-path="url(#p6cd1f84b27)" stroke="#f00"/>
    <path d="m134.4 80.64v15.36" clip-path="url(#p6cd1f84b27)" stroke="#f00"/>
    <path d="m134.4 96h15.36" clip-path="url(#p6cd1f84b27)" stroke="#f00"/>
    <path d="m149.76 96v15.36" clip-path="url(#p6cd1f84b27)" stroke="#f00"/>
    <path d="m149.76 111.36h-15.36" clip-path="url(#p6cd1f84b27)" stroke="#f00"/>
    <path d="m134.4 111.36v15.36" clip-path="url(#p6cd1f84b27)" stroke="#f00"/>
    <path d="m134.4 126.72h-15.36" clip-path="url(#p6cd1f84b27)" stroke="#f00"/>
    <path d="m119.04 126.72v-15.36" clip-path="url(#p6cd1f84b27)" stroke="#f00"/>
    <path d="m119.04 111.36h-15.36" clip-path="url(#p6cd1f84b27)" stroke="#f00"/>
    <path d="m103.68 111.36v15.36" clip-path="url(#p6cd1f84b27)" stroke="#f00"/>
    <path d="m103.68 126.72h15.36" clip-path="url(#p6cd1f84b27)" stroke="#f00"/>
    <path d="m119.04 126.72v15.36" clip-path="url(#p6cd1f84b27)" stroke="#f00"/>
    <path d="m119.04 142.08h15.36" clip-path="url(#p6cd1f84b27)" stroke="#f00"/>
    <path d="m134.4 142.08v-15.36" clip-path="url(#p6cd1f84b27)" stroke="#f00"/>
    <path d="m134.4 126.72h15.36" clip-path="url(#p6cd1f84b27)" stroke="#f00"/>
    <path d="m149.76 126.72v15.36" clip-path="url(#p6cd1f84b27)" stroke="#f00"/>
    <path d="m149.76 142.08h-15.36" clip-path="url(#p6cd1f84b27)" stroke="#f00"/>
    <path d="m134.4 142.08v15.36" clip-path="url(#p6cd1f84b27)" stroke="#f00"/>
    <path d="m134.4 157.44h15.36" clip-path="url(#p6cd1f84b27)" stroke="#f00"/>
    <path d="m149.76 157.44v15.36" clip-path="url(#p6cd1f84b27)" stroke="#f00"/>
    <path d="m149.76 172.8h-15.36" clip-path="url(#p6cd1f84b27)" stroke="#f00"/>
    <path d="m134.4 172.8v15.36" clip-path="url(#p6cd1f84b27)" stroke="#f00"/>
    <path d="m134.4 188.16h-15.36" clip-path="url(#p6cd1f84b27)" stroke="#f00"/>
    <path d="m119.04 188.16v-15.36" clip-path="url(#p6cd1f84b27)" stroke="#f00"/>
    <path d="m119.04 172.8h-15.36" clip-path="url(#p6cd1f84b27)" stroke="#f00"/>
    <path d="m103.68 172.8v15.36" clip-path="url(#p6cd1f84b27)" stroke="#f00"/>
    <path d="m103.68 188.16h15.36" clip-path="url(#p6cd1f84b27)" stroke="#f00"/>
    <path d="m119.04 188.16v15.36" clip-path="url(#p6cd1f84b27)" stroke="#f00"/>
    <path d="m119.04 203.52h15.36" clip-path="url(#p6cd1f84b27)" stroke="#f00"/>
    <path d="m134.4 203.52v-15.36" clip-path="url(#p6cd1f84b27)" stroke="#f00"/>
    <path d="m134.4 188.16h15.36" clip-path="url(#p6cd1f84b27)" stroke="#f00"/>
    <path d="m149.76 188.16v15.36" clip-path="url(#p6cd1f84b27)" stroke="#f00"/>
    <path d="m149.76 203.52h15.36" clip-path="url(#p6cd1f84b27)" stroke="#f00"/>
    <path d="m165.12 203.52v-15.36" clip-path="url(#p6cd1f84b27)" stroke="#f00"/>
    <path d="m165.12 188.16h-15.36" clip-path="url(#p6cd1f84b27)" stroke="#f00"/>
    <path d="m149.76 188.16v-15.36" clip-path="url(#p6cd1f84b27)" stroke="#f00"/>
    <path d="m149.76 172.8h15.36" clip-path="url(#p6cd1f84b27)" stroke="#f00"/>
    <path d="m165.12 172.8v-15.36" clip-path="url(#p6cd1f84b27)" stroke="#f00"/>
    <path d="m165.12 157.44h15.36" clip-path="url(#p6cd1f84b27)" stroke="#f00"/>
    <path d="m180.48 157.44v15.36" clip-path="url(#p6cd1f84b27)" stroke="#f00"/>
    <path d="m180.48 172.8h-15.36" clip-path="url(#p6cd1f84b27)" stroke="#f00"/>
    <path d="m165.12 172.8v15.36" clip-path="url(#p6cd1f84b27)" stroke="#f00"/>
    <path d="m165.12 188.16h15.36" clip-path="url(#p6cd1f84b27)" stroke="#f00"/>
    <path d="m180.48 188.16v15.36" clip-path="url(#p6cd1f84b27)" stroke="#f00"/>
    <path d="m180.48 203.52h15.36" clip-path="url(#p6cd1f84b27)" stroke="#f00"/>
    <path d="m195.84 203.52v-15.36" clip-path="url(#p6cd1f84b27)" stroke="#f00"/>
    <path d="m195.84 188.16h15.36" clip-path="url(#p6cd1f84b27)" stroke="#f00"/>
    <path d="m211.2 188.16v15.36" clip-path="url(#p6cd1f84b27)" stroke="#f00"/>
    <path d="m211.2 203.52h-15.36" clip-path="url(#p6cd1f84b27)" stroke="#f00"/>
    <path d="m195.84 203.52v15.36" clip-path="url(#p6cd1f84b27)" stroke="#f00"/>
    <path d="m195.84 218.88h15.36" clip-path="url(#p6cd1f84b27)" stroke="#f00"/>
    <path d="m211.2 218.88v15.36" clip-path="url(#p6cd1f84b27)" stroke="#f00"/>
    <path d="m211.2 234.24h-15.36" clip-path="url(#p6cd1f84b27)" stroke="#f00"/>
    <path d="m195.84 234.24v15.36" clip-path="url(#p6cd1f84b27)" stroke="#f00"/>
    <path d="m195.84 249.6h-15.36" clip-path="url(#p6cd1f84b27)" stroke="#f00"/>
    <path d="m180.48 249.6v-15.36" clip-path="url(#p6cd1f84b27)" stroke="#f00"/>
    <path d="m180.48 234.24h-15.36" clip-path="url(#p6cd1f84b27)" stroke="#f00"/>
    <path d="m165.12 234.24v15.36" clip-path="url(#p6cd1f84b27)" stroke="#f00"/>
    <path d="m165.12 249.6h15.36" clip-path="url(#p6cd1f84b27)" stroke="#f00"/>
    <path d="m180.48 249.6v15.36" clip-path="url(#p6cd1f84b27)" stroke="#f00"/>
    <path d="m180.48 264.96h15.36" clip-path="url(#p6cd1f84b27)" stroke="#f00"/>
    <path d="m195.84 264.96v-15.36" clip-path="url(#p6cd1f84b27)" stroke="#f00"/>
    <path d="m195.84 249.6h15.36" clip-path="url(#p6cd1f84b27)" stroke="#f00"/>
    <path d="m211.2 249.6v15.36" clip-path="url(#p6cd1f84b27)" stroke="#f00"/>
    <path d="m211.2 264.96h15.36" clip-path="url(#p6cd1f84b27)" stroke="#f00"/>
    <path d="m226.56 264.96v-15.36" clip-path="url(#p6cd1f84b27)" stroke="#f00"/>
    <path d="m226.56 249.6h-15.36" clip-path="url(#p6cd1f84b27)" stroke="#f00"/>
    <path d="m211.2 249.6v-15.36" clip-path="url(#p6cd1f84b27)" stroke="#f00"/>
    <path d="m211.2 234.24h15.36" clip-path="url(#p6cd1f84b27)" stroke="#f00"/>
    <path d="m226.56 234.24v-15.36" clip-path="url(#p6cd1f84b27)" stroke="#f00"/>
    <path d="m226.56 218.88h15.36" clip-path="url(#p6cd1f84b27)" stroke="#f00"/>
    <path d="m241.92 218.88v15.36" clip-path="url(#p6cd1f84b27)" stroke="#f00"/>
    <path d="m241.92 234.24h15.36" clip-path="url(#p6cd1f84b27)" stroke="#f00"/>
    <path d="m257.28 234.24v-15.36" clip-path="url(#p6cd1f84b27)" stroke="#f00"/>
    <path d="m257.28 218.88h-15.36" clip-path="url(#p6cd1f84b27)" stroke="#f00"/>
    <path d="m241.92 218.88v-15.36" clip-path="url(#p6cd1f84b27)" stroke="#f00"/>
    <path d="m241.92 203.52h-15.36" clip-path="url(#p6cd1f84b27)" stroke="#f00"/>
    <path d="m226.56 203.52v15.36" clip-path="url(#p6cd1f84b27)" stroke="#f00"/>
    <path d="m226.56 218.88h-15.36" clip-path="url(#p6cd1f84b27)" stroke="#f00"/>
    <path d="m211.2 218.88v-15.36" clip-path="url(#p6cd1f84b27)" stroke="#f00"/>
    <path d="m211.2 203.52h15.36" clip-path="url(#p6cd1f84b27)" stroke="#f00"/>
    <path d="m226.56 203.52v-15.36" clip-path="url(#p6cd1f84b27)" stroke="#f00"/>
    <path d="m226.56 188.16h-15.36" clip-path="url(#p6cd1f84b27)" stroke="#f00"/>
    <path d="m211.2 188.16v-15.36" clip-path="url(#p6cd1f84b27)" stroke="#f00"/>
    <path d="m211.2 172.8h15.36" clip-path="url(#p6cd1f84b27)" stroke="#f00"/>
    <path d="m226.56 172.8v-15.36" clip-path="url(#p6cd1f84b27)" stroke="#f00"/>
    <path d="m226.56 157.44h15.36" clip-path="url(#p6cd1f84b27)" stroke="#f00"/>
    <path d="m241.92 157.44v15.36" clip-path="url(#p6cd1f84b27)" stroke="#f00"/>
    <path d="m241.92 172.8h-15.36" clip-path="url(#p6cd1f84b27)" stroke="#f00"/>
    <path d="m226.56 172.8v15.36" clip-path="url(#p6cd1f84b27)" stroke="#f00"/>
    <path d="m226.56 188.16h15.36" clip-path="url(#p6cd1f84b27)" stroke="#f00"/>
    <path d="m241.92 188.16v15.36" clip-path="url(#p6cd1f84b27)" stroke="#f00"/>
    <path d="m241.92 203.52h15.36" clip-path="url(#p6cd1f84b27)" stroke="#f00"/>
    <path d="m257.28 203.52v-15.36" clip-path="url(#p6cd1f84b27)" stroke="#f00"/>
    <path d="m257.28 188.16h15.36" clip-path="url(#p6cd1f84b27)" stroke="#f00"/>
    <path d="m272.64 188.16v15.36" clip-path="url(#p6cd1f84b27)" stroke="#f00"/>
    <path d="m272.64 203.52h15.36" clip-path="url(#p6cd1f84b27)" stroke="#f00"/>
    <path d="m288 203.52v-15.36" clip-path="url(#p6cd1f84b27)" stroke="#f00"/>
    <path d="m288 188.16h-15.36" clip-path="url(#p6cd1f84b27)" stroke="#f00"/>
    <path d="m272.64 188.16v-15.36" clip-path="url(#p6cd1f84b27)" stroke="#f00"/>
    <path d="m272.64 172.8h15.36" clip-path="url(#p6cd1f84b27)" stroke="#f00"/>
    <path d="m288 172.8v-15.36" clip-path="url(#p6cd1f84b27)" stroke="#f00"/>
    <path d="m288 157.44h15.36" clip-path="url(#p6cd1f84b27)" stroke="#f00"/>
    <path d="m303.36 157.44v15.36" clip-path="url(#p6cd1f84b27)" stroke="#f00"/>
    <path d="m303.36 172.8h-15.36" clip-path="url(#p6cd1f84b27)" stroke="#f00"/>
    <path d="m288 172.8v15.36" clip-path="url(#p6cd1f84b27)" stroke="#f00"/>
    <path d="m288 188.16h15.36" clip-path="url(#p6cd1f84b27)" stroke="#f00"/>
    <path d="m303.36 188.16v15.36" clip-path="url(#p6cd1f84b27)" stroke="#f00"/>
    <path d="m303.36 203.52h15.36" clip-path="url(#p6cd1f84b27)" stroke="#f00"/>
    <path d="m318.72 203.52v-15.36" clip-path="url(#p6cd1f84b27)" stroke="#f00"/>
    <path d="m318.72 188.16h15.36" clip-path="url(#p6cd1f84b27)" stroke="#f00"/>
    <path d="m334.08 188.16v15.36" clip-path="url(#p6cd1f84b27)" stroke="#f00"/>
    <path d="m334.08 203.52h-15.36" clip-path="url(#p6cd1f84b27)" stroke="#f00"/>
    <path d="m318.72 203.52v15.36" clip-path="url(#p6cd1f84b27)" stroke="#f00"/>
    <path d="m318.72 218.88h15.36" clip-path="url(#p6cd1f84b27)" stroke="#f00"/>
    <path d="m334.08 218.88v15.36" clip-path="url(#p6cd1f84b27)" stroke="#f00"/>
    <path d="m334.08 234.24h-15.36" clip-path="url(#p6cd1f84b27)" stroke="#f00"/>
    <path d="m318.72 234.24v15.36" clip-path="url(#p6cd1f84b27)" stroke="#f00"/>
    <path d="m318.72 249.6h-15.36" clip-path="url(#p6cd1f84b27)" stroke="#f00"/>
    <path d="m303.36 249.6v-15.36" clip-path="url(#p6cd1f84b27)" stroke="#f00"/>
    <path d="m303.36 234.24h-15.36" clip-path="url(#p6cd1f84b27)" stroke="#00f"/>
    <path d="m288 234.24v15.36" clip-path="url(#p6cd1f84b27)" stroke="#00f"/>
    <path d="m288 249.6h15.36" clip-path="url(#p6cd1f84b27)" stroke="#00f"/>
    <path d="m303.36 249.6v15.36" clip-path="url(#p6cd1f84b27)" stroke="#00f"/>
    <path d="m303.36 264.96h15.36" clip-path="url(#p6cd1f84b27)" stroke="#00f"/>
    <path d="m318.72 264.96v-15.36" clip-path="url(#p6cd1f84b27)" stroke="#00f"/>
    <path d="m318.72 249.6h15.36" clip-path="url(#p6cd1f84b27)" stroke="#00f"/>
    <path d="m334.08 249.6v15.36" clip-path="url(#p6cd1f84b27)" stroke="#00f"/>
    <path d="m334.08 264.96h15.36" clip-path="url(#p6cd1f84b27)" stroke="#00f"/>
    <path d="m349.44 264.96v-15.36" clip-path="url(#p6cd1f84b27)" stroke="#00f"/>
    <path d="m349.44 249.6h-15.36" clip-path="url(#p6cd1f84b27)" stroke="#00f"/>
    <path d="m334.08 249.6v-15.36" clip-path="url(#p6cd1f84b27)" stroke="#00f"/>
    <path d="m334.08 234.24h15.36" clip-path="url(#p6cd1f84b27)" stroke="#00f"/>
    <path d="m349.44 234.24v-15.36" clip-path="url(#p6cd1f84b27)" stroke="#00f"/>
    <path d="m349.44 218.88h15.36" clip-path="url(#p6cd1f84b27)" stroke="#00f"/>
    <path d="m364.8 218.88v15.36" clip-path="url(#p6cd1f84b27)" stroke="#00f"/>
    <path d="m364.8 234.24h15.36" clip-path="url(#p6cd1f84b27)" stroke="#00f"/>
    <path d="m380.16 234.24v-15.36" clip-path="url(#p6cd1f84b27)" stroke="#00f"/>
    <path d="m380.16 218.88h-15.36" clip-path="url(#p6cd1f84b27)" stroke="#00f"/>
    <path d="m364.8 218.88v-15.36" clip-path="url(#p6cd1f84b27)" stroke="#00f"/>
    <path d="m364.8 203.52h-15.36" clip-path="url(#p6cd1f84b27)" stroke="#00f"/>
    <path d="m349.44 203.52v15.36" clip-path="url(#p6cd1f84b27)" stroke="#00f"/>
    <path d="m349.44 218.88h-15.36" clip-path="url(#p6cd1f84b27)" stroke="#00f"/>
    <path d="m334.08 218.88v-15.36" clip-path="url(#p6cd1f84b27)" stroke="#00f"/>
    <path d="m334.08 203.52h15.36" clip-path="url(#p6cd1f84b27)" stroke="#00f"/>
    <path d="m349.44 203.52v-15.36" clip-path="url(#p6cd1f84b27)" stroke="#00f"/>
    <path d="m349.44 188.16h-15.36" clip-path="url(#p6cd1f84b27)" stroke="#00f"/>
    <path d="m334.08 188.16v-15.36" clip-path="url(#p6cd1f84b27)" stroke="#00f"/>
    <path d="m334.08 172.8h15.36" clip-path="url(#p6cd1f84b27)" stroke="#00f"/>
    <path d="m349.44 172.8v-15.36" clip-path="url(#p6cd1f84b27)" stroke="#00f"/>
    <path d="m349.44 157.44h15.36" clip-path="url(#p6cd1f84b27)" stroke="#00f"/>
    <path d="m364.8 157.44v15.36" clip-path="url(#p6cd1f84b27)" stroke="#00f"/>
    <path d="m364.8 172.8h15.36" clip-path="url(#p6cd1f84b27)" stroke="#00f"/>
    <path d="m380.16 172.8v-15.36" clip-path="url(#p6cd1f84b27)" stroke="#00f"/>
    <path d="m380.16 157.44h-15.36" clip-path="url(#p6cd1f84b27)" stroke="#00f"/>
    <path d="m364.8 157.44v-15.36" clip-path="url(#p6cd1f84b27)" stroke="#00f"/>
    <path d="m364.8 142.08h-15.36" clip-path="url(#p6cd1f84b27)" stroke="#00f"/>
    <path d="m349.44 142.08v15.36" clip-path="url(#p6cd1f84b27)" stroke="#00f"/>
    <path d="m349.44 157.44h-15.36" clip-path="url(#p6cd1f84b27)" stroke="#00f"/>
    <path d="m334.08 157.44v-15.36" clip-path="url(#p6cd1f84b27)" stroke="#00f"/>
    <path d="m334.08 142.08h-15.36" clip-path="url(#p6cd1f84b27)" stroke="#00f"/>
    <path d="m318.72 142.08v15.36" clip-path="url(#p6cd1f84b27)" stroke="#00f"/>
    <path d="m318.72 157.44h15.36" clip-path="url(#p6cd1f84b27)" stroke="#00f"/>
    <path d="m334.08 157.44v15.36" clip-path="url(#p6cd1f84b27)" stroke="#00f"/>
    <path d="m334.08 172.8h-15.36" clip-path="url(#p6cd1f84b27)" stroke="#00f"/>
    <path d="m318.72 172.8v15.36" clip-path="url(#p6cd1f84b27)" stroke="#00f"/>
    <path d="m318.72 188.16h-15.36" clip-path="url(#p6cd1f84b27)" stroke="#00f"/>
    <path d="m303.36 188.16v-15.36" clip-path="url(#p6cd1f84b27)" stroke="#00f"/>
    <path d="m303.36 172.8h15.36" clip-path="url(#p6cd1f84b27)" stroke="#00f"/>
    <path d="m318.72 172.8v-15.36" clip-path="url(#p6cd1f84b27)" stroke="#00f"/>
    <path d="m318.72 157.44h-15.36" clip-path="url(#p6cd1f84b27)" stroke="#00f"/>
    <path d="m303.36 157.44v-15.36" clip-path="url(#p6cd1f84b27)" stroke="#00f"/>
    <path d="m303.36 142.08h-15.36" clip-path="url(#p6cd1f84b27)" stroke="#00f"/>
    <path d="m288 142.08v15.36" clip-path="url(#p6cd1f84b27)" stroke="#00f"/>
    <path d="m288 157.44h-15.36" clip-path="url(#p6cd1f84b27)" stroke="#00f"/>
    <path d="m272.64 157.44v-15.36" clip-path="url(#p6cd1f84b27)" stroke="#00f"/>
    <path d="m272.64 142.08h15.36" clip-path="url(#p6cd1f84b27)" stroke="#00f"/>
    <path d="m288 142.08v-15.36" clip-path="url(#p6cd1f84b27)" stroke="#00f"/>
    <path d="m288 126.72h-15.36" clip-path="url(#p6cd1f84b27)" stroke="#00f"/>
    <path d="m272.64 126.72v-15.36" clip-path="url(#p6cd1f84b27)" stroke="#00f"/>
    <path d="m272.64 111.36h15.36" clip-path="url(#p6cd1f84b27)" stroke="#00f"/>
    <path d="m288 111.36v-15.36" clip-path="url(#p6cd1f84b27)" stroke="#00f"/>
    <path d="m288 96h15.36" clip-path="url(#p6cd1f84b27)" stroke="#00f"/>
    <path d="m303.36 96v15.36" clip-path="url(#p6cd1f84b27)" stroke="#00f"/>
    <path d="m303.36 111.36h15.36" clip-path="url(#p6cd1f84b27)" stroke="#00f"/>
    <path d="m318.72 111.36v-15.36" clip-path="url(#p6cd1f84b27)" stroke="#00f"/>
    <path d="m318.72 96h-15.36" clip-path="url(#p6cd1f84b27)" stroke="#00f"/>
    <path d="m303.36 96v-15.36" clip-path="url(#p6cd1f84b27)" stroke="#00f"/>
    <path d="m303.36 80.64h-15.36" clip-path="url(#p6cd1f84b27)" stroke="#00f"/>
    <path d="m288 80.64v15.36" clip-path="url(#p6cd1f84b27)" stroke="#00f"/>
    <path d="m288 96h-15.36" clip-path="url(#p6cd1f84b27)" stroke="#00f"/>
    <path d="m272.64 96v-15.36" clip-path="url(#p6cd1f84b27)" stroke="#00f"/>
    <path d="m272.64 80.64h-15.36" clip-path="url(#p6cd1f84b27)" stroke="#00f"/>
    <path d="m257.28 80.64v15.36" clip-path="url(#p6cd1f84b27)" stroke="#00f"/>
    <path d="m257.28 96h15.36" clip-path="url(#p6cd1f84b27)" stroke="#00f"/>
    <path d="m272.64 96v15.36" clip-path="url(#p6cd1f84b27)" stroke="#00f"/>
    <path d="m272.64 111.36h-15.36" clip-path="url(#p6cd1f84b27)" stroke="#00f"/>
    <path d="m257.28 111.36v15.36" clip-path="url(#p6cd1f84b27)" stroke="#00f"/>
    <path d="m257.28 126.72h-15.36" clip-path="url(#p6cd1f84b27)" stroke="#00f"/>
    <path d="m241.92 126.72v-15.36" clip-path="url(#p6cd1f84b27)" stroke="#00f"/>
    <path d="m241.92 111.36h-15.36" clip-path="url(#p6cd1f84b27)" stroke="#00f"/>
    <path d="m226.56 111.36v15.36" clip-path="url(#p6cd1f84b27)" stroke="#00f"/>
    <path d="m226.56 126.72h15.36" clip-path="url(#p6cd1f84b27)" stroke="#00f"/>
    <path d="m241.92 126.72v15.36" clip-path="url(#p6cd1f84b27)" stroke="#00f"/>
    <path d="m241.92 142.08h15.36" clip-path="url(#p6cd1f84b27)" stroke="#00f"/>
    <path d="m257.28 142.08v-15.36" clip-path="url(#p6cd1f84b27)" stroke="#00f"/>
    <path d="m257.28 126.72h15.36" clip-path="url(#p6cd1f84b27)" stroke="#00f"/>
    <path d="m272.64 126.72v15.36" clip-path="url(#p6cd1f84b27)" stroke="#00f"/>
    <path d="m272.64 142.08h-15.36" clip-path="url(#p6cd1f84b27)" stroke="#00f"/>
    <path d="m257.28 142.08v15.36" clip-path="url(#p6cd1f84b27)" stroke="#00f"/>
    <path d="m257.28 157.44h15.36" clip-path="url(#p6cd1f84b27)" stroke="#00f"/>
    <path d="m272.64 157.44v15.36" clip-path="url(#p6cd1f84b27)" stroke="#00f"/>
    <path d="m272.64 172.8h-15.36" clip-path="url(#p6cd1f84b27)" stroke="#00f"/>
    <path d="m257.28 172.8v15.36" clip-path="url(#p6cd1f84b27)" stroke="#00f"/>
    <path d="m257.28 188.16h-15.36" clip-path="url(#p6cd1f84b27)" stroke="#00f"/>
    <path d="m241.92 188.16v-15.36" clip-path="url(#p6cd1f84b27)" stroke="#00f"/>
    <path d="m241.92 172.8h15.36" clip-path="url(#p6cd1f84b27)" stroke="#00f"/>
    <path d="m257.28 172.8v-15.36" clip-path="url(#p6cd1f84b27)" stroke="#00f"/>
    <path d="m257.28 157.44h-15.36" clip-path="url(#p6cd1f84b27)" stroke="#00f"/>
    <path d="m241.92 157.44v-15.36" clip-path="url(#p6cd1f84b27)" stroke="#00f"/>
    <path d="m241.92 142.08h-15.36" clip-path="url(#p6cd1f84b27)" stroke="#00f"/>
    <path d="m226.56 142.08v15.36" clip-path="url(#p6cd1f84b27)" stroke="#00f"/>
    <path d="m226.56 157.44h-15.36" clip-path="url(#p6cd1f84b27)" stroke="#00f"/>
    <path d="m211.2 157.44v-15.36" clip-path="url(#p6cd1f84b27)" stroke="#00f"/>
    <path d="m211.2 142.08h-15.36" clip-path="url(#p6cd1f84b27)" stroke="#00f"/>
    <path d="m195.84 142.08v15.36" clip-path="url(#p6cd1f84b27)" stroke="#00f"/>
    <path d="m195.84 157.44h15.36" clip-path="url(#p6cd1f84b27)" stroke="#00f"/>
    <path d="m211.2 157.44v15.36" clip-path="url(#p6cd1f84b27)" stroke="#00f"/>
    <path d="m211.2 172.8h-15.36" clip-path="url(#p6cd1f84b27)" stroke="#00f"/>
    <path d="m195.84 172.8v15.36" clip-path="url(#p6cd1f84b27)" stroke="#00f"/>
    <path d="m195.84 188.16h-15.36" clip-path="url(#p6cd1f84b27)" stroke="#00f"/>
    <path d="m180.48 188.16v-15.36" clip-path="url(#p6cd1f84b27)" stroke="#00f"/>
    <path d="m180.48 172.8h15.36" clip-path="url(#p6cd1f84b27)" stroke="#00f"/>
    <path d="m195.84 172.8v-15.36" clip-path="url(#p6cd1f84b27)" stroke="#00f"/>
    <path d="m195.84 157.44h-15.36" clip-path="url(#p6cd1f84b27)" stroke="#00f"/>
    <path d="m180.48 157.44v-15.36" clip-path="url(#p6cd1f84b27)" stroke="#00f"/>
    <path d="m180.48 142.08h-15.36" clip-path="url(#p6cd1f84b27)" stroke="#00f"/>
    <path d="m165.12 142.08v15.36" clip-path="url(#p6cd1f84b27)" stroke="#00f"/>
    <path d="m165.12 157.44h-15.36" clip-path="url(#p6cd1f84b27)" stroke="#00f"/>
    <path d="m149.76 157.44v-15.36" clip-path="url(#p6cd1f84b27)" stroke="#00f"/>
    <path d="m149.76 142.08h15.36" clip-path="url(#p6cd1f84b27)" stroke="#00f"/>
    <path d="m165.12 142.08v-15.36" clip-path="url(#p6cd1f84b27)" stroke="#00f"/>
    <path d="m165.12 126.72h-15.36" clip-path="url(#p6cd1f84b27)" stroke="#00f"/>
    <path d="m149.76 126.72v-15.36" clip-path="url(#p6cd1f84b27)" stroke="#00f"/>
    <path d="m149.76 111.36h15.36" clip-path="url(#p6cd1f84b27)" stroke="#00f"/>
    <path d="m165.12 111.36v-15.36" clip-path="url(#p6cd1f84b27)" stroke="#00f"/>
    <path d="m165.12 96h15.36" clip-path="url(#p6cd1f84b27)" stroke="#00f"/>
    <path d="m180.48 96v15.36" clip-path="url(#p6cd1f84b27)" stroke="#00f"/>
   </g>
   <g id="patch_3">
    <path d="m57.6 311.04v-276.48" fill="none" stroke="#000" stroke-linecap="square" stroke-width=".8"/>
   </g>
   <g id="patch_4">
    <path d="m426.24 311.04v-276.48" fill="none" stroke="#000" stroke-linecap="square" stroke-width=".8"/>
   </g>
   <g id="patch_5">
    <path d="m57.6 311.04h368.64" fill="none" stroke="#000" stroke-linecap="square" stroke-width=".8"/>
   </g>
   <g id="patch_6">
    <path d="m57.6 34.56h368.64" fill="none" stroke="#000" stroke-linecap="square" stroke-width=".8"/>
   </g>
  </g>
  <g id="text_14">
   <text transform="rotate(-0 230.4 19.07)" x="230.4" y="19.0695" font="16px 'DejaVu Sans', 'Bitstream Vera Sans', 'Computer Modern Sans Serif', 'Lucida Grande', 'Verdana', 'Geneva', 'Lucid', 'Arial', 'Helvetica', 'Avant Garde', sans-serif" text-anchor="middle">n = 6</text>
  </g>
 </g>
 <defs>
  <clipPath id="p6cd1f84b27">
   <rect x="57.6" y="34.56" width="368.64" height="276.48"/>
  </clipPath>
 </defs>
</svg>
